%TF.GenerationSoftware,KiCad,Pcbnew,9.0.5*%
%TF.CreationDate,2025-11-10T21:46:58+01:00*%
%TF.ProjectId,ESP32 Project,45535033-3220-4507-926f-6a6563742e6b,rev?*%
%TF.SameCoordinates,Original*%
%TF.FileFunction,Legend,Top*%
%TF.FilePolarity,Positive*%
%FSLAX46Y46*%
G04 Gerber Fmt 4.6, Leading zero omitted, Abs format (unit mm)*
G04 Created by KiCad (PCBNEW 9.0.5) date 2025-11-10 21:46:58*
%MOMM*%
%LPD*%
G01*
G04 APERTURE LIST*
%ADD10C,0.300000*%
%ADD11C,0.150000*%
%ADD12C,0.508000*%
%ADD13C,0.120000*%
%ADD14C,0.152400*%
G04 APERTURE END LIST*
D10*
X125616917Y-120129400D02*
X125402632Y-120200828D01*
X125402632Y-120200828D02*
X125045489Y-120200828D01*
X125045489Y-120200828D02*
X124902632Y-120129400D01*
X124902632Y-120129400D02*
X124831203Y-120057971D01*
X124831203Y-120057971D02*
X124759774Y-119915114D01*
X124759774Y-119915114D02*
X124759774Y-119772257D01*
X124759774Y-119772257D02*
X124831203Y-119629400D01*
X124831203Y-119629400D02*
X124902632Y-119557971D01*
X124902632Y-119557971D02*
X125045489Y-119486542D01*
X125045489Y-119486542D02*
X125331203Y-119415114D01*
X125331203Y-119415114D02*
X125474060Y-119343685D01*
X125474060Y-119343685D02*
X125545489Y-119272257D01*
X125545489Y-119272257D02*
X125616917Y-119129400D01*
X125616917Y-119129400D02*
X125616917Y-118986542D01*
X125616917Y-118986542D02*
X125545489Y-118843685D01*
X125545489Y-118843685D02*
X125474060Y-118772257D01*
X125474060Y-118772257D02*
X125331203Y-118700828D01*
X125331203Y-118700828D02*
X124974060Y-118700828D01*
X124974060Y-118700828D02*
X124759774Y-118772257D01*
X124116918Y-120200828D02*
X124116918Y-119200828D01*
X124116918Y-119343685D02*
X124045489Y-119272257D01*
X124045489Y-119272257D02*
X123902632Y-119200828D01*
X123902632Y-119200828D02*
X123688346Y-119200828D01*
X123688346Y-119200828D02*
X123545489Y-119272257D01*
X123545489Y-119272257D02*
X123474061Y-119415114D01*
X123474061Y-119415114D02*
X123474061Y-120200828D01*
X123474061Y-119415114D02*
X123402632Y-119272257D01*
X123402632Y-119272257D02*
X123259775Y-119200828D01*
X123259775Y-119200828D02*
X123045489Y-119200828D01*
X123045489Y-119200828D02*
X122902632Y-119272257D01*
X122902632Y-119272257D02*
X122831203Y-119415114D01*
X122831203Y-119415114D02*
X122831203Y-120200828D01*
X121474061Y-120200828D02*
X121474061Y-119415114D01*
X121474061Y-119415114D02*
X121545489Y-119272257D01*
X121545489Y-119272257D02*
X121688346Y-119200828D01*
X121688346Y-119200828D02*
X121974061Y-119200828D01*
X121974061Y-119200828D02*
X122116918Y-119272257D01*
X121474061Y-120129400D02*
X121616918Y-120200828D01*
X121616918Y-120200828D02*
X121974061Y-120200828D01*
X121974061Y-120200828D02*
X122116918Y-120129400D01*
X122116918Y-120129400D02*
X122188346Y-119986542D01*
X122188346Y-119986542D02*
X122188346Y-119843685D01*
X122188346Y-119843685D02*
X122116918Y-119700828D01*
X122116918Y-119700828D02*
X121974061Y-119629400D01*
X121974061Y-119629400D02*
X121616918Y-119629400D01*
X121616918Y-119629400D02*
X121474061Y-119557971D01*
X120759775Y-120200828D02*
X120759775Y-119200828D01*
X120759775Y-119486542D02*
X120688346Y-119343685D01*
X120688346Y-119343685D02*
X120616918Y-119272257D01*
X120616918Y-119272257D02*
X120474060Y-119200828D01*
X120474060Y-119200828D02*
X120331203Y-119200828D01*
X120045489Y-119200828D02*
X119474061Y-119200828D01*
X119831204Y-118700828D02*
X119831204Y-119986542D01*
X119831204Y-119986542D02*
X119759775Y-120129400D01*
X119759775Y-120129400D02*
X119616918Y-120200828D01*
X119616918Y-120200828D02*
X119474061Y-120200828D01*
X117831204Y-120200828D02*
X117831204Y-118700828D01*
X117831204Y-119415114D02*
X116974061Y-119415114D01*
X116974061Y-120200828D02*
X116974061Y-118700828D01*
X116045489Y-120200828D02*
X116188346Y-120129400D01*
X116188346Y-120129400D02*
X116259775Y-120057971D01*
X116259775Y-120057971D02*
X116331203Y-119915114D01*
X116331203Y-119915114D02*
X116331203Y-119486542D01*
X116331203Y-119486542D02*
X116259775Y-119343685D01*
X116259775Y-119343685D02*
X116188346Y-119272257D01*
X116188346Y-119272257D02*
X116045489Y-119200828D01*
X116045489Y-119200828D02*
X115831203Y-119200828D01*
X115831203Y-119200828D02*
X115688346Y-119272257D01*
X115688346Y-119272257D02*
X115616918Y-119343685D01*
X115616918Y-119343685D02*
X115545489Y-119486542D01*
X115545489Y-119486542D02*
X115545489Y-119915114D01*
X115545489Y-119915114D02*
X115616918Y-120057971D01*
X115616918Y-120057971D02*
X115688346Y-120129400D01*
X115688346Y-120129400D02*
X115831203Y-120200828D01*
X115831203Y-120200828D02*
X116045489Y-120200828D01*
X114902632Y-120200828D02*
X114902632Y-119200828D01*
X114902632Y-119343685D02*
X114831203Y-119272257D01*
X114831203Y-119272257D02*
X114688346Y-119200828D01*
X114688346Y-119200828D02*
X114474060Y-119200828D01*
X114474060Y-119200828D02*
X114331203Y-119272257D01*
X114331203Y-119272257D02*
X114259775Y-119415114D01*
X114259775Y-119415114D02*
X114259775Y-120200828D01*
X114259775Y-119415114D02*
X114188346Y-119272257D01*
X114188346Y-119272257D02*
X114045489Y-119200828D01*
X114045489Y-119200828D02*
X113831203Y-119200828D01*
X113831203Y-119200828D02*
X113688346Y-119272257D01*
X113688346Y-119272257D02*
X113616917Y-119415114D01*
X113616917Y-119415114D02*
X113616917Y-120200828D01*
X112331203Y-120129400D02*
X112474060Y-120200828D01*
X112474060Y-120200828D02*
X112759775Y-120200828D01*
X112759775Y-120200828D02*
X112902632Y-120129400D01*
X112902632Y-120129400D02*
X112974060Y-119986542D01*
X112974060Y-119986542D02*
X112974060Y-119415114D01*
X112974060Y-119415114D02*
X112902632Y-119272257D01*
X112902632Y-119272257D02*
X112759775Y-119200828D01*
X112759775Y-119200828D02*
X112474060Y-119200828D01*
X112474060Y-119200828D02*
X112331203Y-119272257D01*
X112331203Y-119272257D02*
X112259775Y-119415114D01*
X112259775Y-119415114D02*
X112259775Y-119557971D01*
X112259775Y-119557971D02*
X112974060Y-119700828D01*
X110688346Y-118700828D02*
X109831204Y-118700828D01*
X110259775Y-120200828D02*
X110259775Y-118700828D01*
X109331204Y-120200828D02*
X109331204Y-118700828D01*
X108688347Y-120200828D02*
X108688347Y-119415114D01*
X108688347Y-119415114D02*
X108759775Y-119272257D01*
X108759775Y-119272257D02*
X108902632Y-119200828D01*
X108902632Y-119200828D02*
X109116918Y-119200828D01*
X109116918Y-119200828D02*
X109259775Y-119272257D01*
X109259775Y-119272257D02*
X109331204Y-119343685D01*
X107974061Y-120200828D02*
X107974061Y-119200828D01*
X107974061Y-118700828D02*
X108045489Y-118772257D01*
X108045489Y-118772257D02*
X107974061Y-118843685D01*
X107974061Y-118843685D02*
X107902632Y-118772257D01*
X107902632Y-118772257D02*
X107974061Y-118700828D01*
X107974061Y-118700828D02*
X107974061Y-118843685D01*
X107259775Y-119200828D02*
X107259775Y-120200828D01*
X107259775Y-119343685D02*
X107188346Y-119272257D01*
X107188346Y-119272257D02*
X107045489Y-119200828D01*
X107045489Y-119200828D02*
X106831203Y-119200828D01*
X106831203Y-119200828D02*
X106688346Y-119272257D01*
X106688346Y-119272257D02*
X106616918Y-119415114D01*
X106616918Y-119415114D02*
X106616918Y-120200828D01*
X105259775Y-119200828D02*
X105259775Y-120415114D01*
X105259775Y-120415114D02*
X105331203Y-120557971D01*
X105331203Y-120557971D02*
X105402632Y-120629400D01*
X105402632Y-120629400D02*
X105545489Y-120700828D01*
X105545489Y-120700828D02*
X105759775Y-120700828D01*
X105759775Y-120700828D02*
X105902632Y-120629400D01*
X105259775Y-120129400D02*
X105402632Y-120200828D01*
X105402632Y-120200828D02*
X105688346Y-120200828D01*
X105688346Y-120200828D02*
X105831203Y-120129400D01*
X105831203Y-120129400D02*
X105902632Y-120057971D01*
X105902632Y-120057971D02*
X105974060Y-119915114D01*
X105974060Y-119915114D02*
X105974060Y-119486542D01*
X105974060Y-119486542D02*
X105902632Y-119343685D01*
X105902632Y-119343685D02*
X105831203Y-119272257D01*
X105831203Y-119272257D02*
X105688346Y-119200828D01*
X105688346Y-119200828D02*
X105402632Y-119200828D01*
X105402632Y-119200828D02*
X105259775Y-119272257D01*
X104688346Y-119200828D02*
X104331203Y-120200828D01*
X103974060Y-119200828D02*
X104331203Y-120200828D01*
X104331203Y-120200828D02*
X104474060Y-120557971D01*
X104474060Y-120557971D02*
X104545489Y-120629400D01*
X104545489Y-120629400D02*
X104688346Y-120700828D01*
X102474060Y-118700828D02*
X101974060Y-120200828D01*
X101974060Y-120200828D02*
X101474060Y-118700828D01*
X100188346Y-120200828D02*
X101045489Y-120200828D01*
X100616918Y-120200828D02*
X100616918Y-118700828D01*
X100616918Y-118700828D02*
X100759775Y-118915114D01*
X100759775Y-118915114D02*
X100902632Y-119057971D01*
X100902632Y-119057971D02*
X101045489Y-119129400D01*
X99545490Y-120057971D02*
X99474061Y-120129400D01*
X99474061Y-120129400D02*
X99545490Y-120200828D01*
X99545490Y-120200828D02*
X99616918Y-120129400D01*
X99616918Y-120129400D02*
X99545490Y-120057971D01*
X99545490Y-120057971D02*
X99545490Y-120200828D01*
X98045489Y-120200828D02*
X98902632Y-120200828D01*
X98474061Y-120200828D02*
X98474061Y-118700828D01*
X98474061Y-118700828D02*
X98616918Y-118915114D01*
X98616918Y-118915114D02*
X98759775Y-119057971D01*
X98759775Y-119057971D02*
X98902632Y-119129400D01*
D11*
X184599580Y-77149166D02*
X184647200Y-77196785D01*
X184647200Y-77196785D02*
X184694819Y-77339642D01*
X184694819Y-77339642D02*
X184694819Y-77434880D01*
X184694819Y-77434880D02*
X184647200Y-77577737D01*
X184647200Y-77577737D02*
X184551961Y-77672975D01*
X184551961Y-77672975D02*
X184456723Y-77720594D01*
X184456723Y-77720594D02*
X184266247Y-77768213D01*
X184266247Y-77768213D02*
X184123390Y-77768213D01*
X184123390Y-77768213D02*
X183932914Y-77720594D01*
X183932914Y-77720594D02*
X183837676Y-77672975D01*
X183837676Y-77672975D02*
X183742438Y-77577737D01*
X183742438Y-77577737D02*
X183694819Y-77434880D01*
X183694819Y-77434880D02*
X183694819Y-77339642D01*
X183694819Y-77339642D02*
X183742438Y-77196785D01*
X183742438Y-77196785D02*
X183790057Y-77149166D01*
X183790057Y-76768213D02*
X183742438Y-76720594D01*
X183742438Y-76720594D02*
X183694819Y-76625356D01*
X183694819Y-76625356D02*
X183694819Y-76387261D01*
X183694819Y-76387261D02*
X183742438Y-76292023D01*
X183742438Y-76292023D02*
X183790057Y-76244404D01*
X183790057Y-76244404D02*
X183885295Y-76196785D01*
X183885295Y-76196785D02*
X183980533Y-76196785D01*
X183980533Y-76196785D02*
X184123390Y-76244404D01*
X184123390Y-76244404D02*
X184694819Y-76815832D01*
X184694819Y-76815832D02*
X184694819Y-76196785D01*
X182209580Y-94326666D02*
X182257200Y-94374285D01*
X182257200Y-94374285D02*
X182304819Y-94517142D01*
X182304819Y-94517142D02*
X182304819Y-94612380D01*
X182304819Y-94612380D02*
X182257200Y-94755237D01*
X182257200Y-94755237D02*
X182161961Y-94850475D01*
X182161961Y-94850475D02*
X182066723Y-94898094D01*
X182066723Y-94898094D02*
X181876247Y-94945713D01*
X181876247Y-94945713D02*
X181733390Y-94945713D01*
X181733390Y-94945713D02*
X181542914Y-94898094D01*
X181542914Y-94898094D02*
X181447676Y-94850475D01*
X181447676Y-94850475D02*
X181352438Y-94755237D01*
X181352438Y-94755237D02*
X181304819Y-94612380D01*
X181304819Y-94612380D02*
X181304819Y-94517142D01*
X181304819Y-94517142D02*
X181352438Y-94374285D01*
X181352438Y-94374285D02*
X181400057Y-94326666D01*
X181304819Y-93469523D02*
X181304819Y-93659999D01*
X181304819Y-93659999D02*
X181352438Y-93755237D01*
X181352438Y-93755237D02*
X181400057Y-93802856D01*
X181400057Y-93802856D02*
X181542914Y-93898094D01*
X181542914Y-93898094D02*
X181733390Y-93945713D01*
X181733390Y-93945713D02*
X182114342Y-93945713D01*
X182114342Y-93945713D02*
X182209580Y-93898094D01*
X182209580Y-93898094D02*
X182257200Y-93850475D01*
X182257200Y-93850475D02*
X182304819Y-93755237D01*
X182304819Y-93755237D02*
X182304819Y-93564761D01*
X182304819Y-93564761D02*
X182257200Y-93469523D01*
X182257200Y-93469523D02*
X182209580Y-93421904D01*
X182209580Y-93421904D02*
X182114342Y-93374285D01*
X182114342Y-93374285D02*
X181876247Y-93374285D01*
X181876247Y-93374285D02*
X181781009Y-93421904D01*
X181781009Y-93421904D02*
X181733390Y-93469523D01*
X181733390Y-93469523D02*
X181685771Y-93564761D01*
X181685771Y-93564761D02*
X181685771Y-93755237D01*
X181685771Y-93755237D02*
X181733390Y-93850475D01*
X181733390Y-93850475D02*
X181781009Y-93898094D01*
X181781009Y-93898094D02*
X181876247Y-93945713D01*
X181064819Y-100376666D02*
X180588628Y-100709999D01*
X181064819Y-100948094D02*
X180064819Y-100948094D01*
X180064819Y-100948094D02*
X180064819Y-100567142D01*
X180064819Y-100567142D02*
X180112438Y-100471904D01*
X180112438Y-100471904D02*
X180160057Y-100424285D01*
X180160057Y-100424285D02*
X180255295Y-100376666D01*
X180255295Y-100376666D02*
X180398152Y-100376666D01*
X180398152Y-100376666D02*
X180493390Y-100424285D01*
X180493390Y-100424285D02*
X180541009Y-100471904D01*
X180541009Y-100471904D02*
X180588628Y-100567142D01*
X180588628Y-100567142D02*
X180588628Y-100948094D01*
X180064819Y-100043332D02*
X180064819Y-99424285D01*
X180064819Y-99424285D02*
X180445771Y-99757618D01*
X180445771Y-99757618D02*
X180445771Y-99614761D01*
X180445771Y-99614761D02*
X180493390Y-99519523D01*
X180493390Y-99519523D02*
X180541009Y-99471904D01*
X180541009Y-99471904D02*
X180636247Y-99424285D01*
X180636247Y-99424285D02*
X180874342Y-99424285D01*
X180874342Y-99424285D02*
X180969580Y-99471904D01*
X180969580Y-99471904D02*
X181017200Y-99519523D01*
X181017200Y-99519523D02*
X181064819Y-99614761D01*
X181064819Y-99614761D02*
X181064819Y-99900475D01*
X181064819Y-99900475D02*
X181017200Y-99995713D01*
X181017200Y-99995713D02*
X180969580Y-100043332D01*
X182364819Y-98126666D02*
X181888628Y-98459999D01*
X182364819Y-98698094D02*
X181364819Y-98698094D01*
X181364819Y-98698094D02*
X181364819Y-98317142D01*
X181364819Y-98317142D02*
X181412438Y-98221904D01*
X181412438Y-98221904D02*
X181460057Y-98174285D01*
X181460057Y-98174285D02*
X181555295Y-98126666D01*
X181555295Y-98126666D02*
X181698152Y-98126666D01*
X181698152Y-98126666D02*
X181793390Y-98174285D01*
X181793390Y-98174285D02*
X181841009Y-98221904D01*
X181841009Y-98221904D02*
X181888628Y-98317142D01*
X181888628Y-98317142D02*
X181888628Y-98698094D01*
X182364819Y-97650475D02*
X182364819Y-97459999D01*
X182364819Y-97459999D02*
X182317200Y-97364761D01*
X182317200Y-97364761D02*
X182269580Y-97317142D01*
X182269580Y-97317142D02*
X182126723Y-97221904D01*
X182126723Y-97221904D02*
X181936247Y-97174285D01*
X181936247Y-97174285D02*
X181555295Y-97174285D01*
X181555295Y-97174285D02*
X181460057Y-97221904D01*
X181460057Y-97221904D02*
X181412438Y-97269523D01*
X181412438Y-97269523D02*
X181364819Y-97364761D01*
X181364819Y-97364761D02*
X181364819Y-97555237D01*
X181364819Y-97555237D02*
X181412438Y-97650475D01*
X181412438Y-97650475D02*
X181460057Y-97698094D01*
X181460057Y-97698094D02*
X181555295Y-97745713D01*
X181555295Y-97745713D02*
X181793390Y-97745713D01*
X181793390Y-97745713D02*
X181888628Y-97698094D01*
X181888628Y-97698094D02*
X181936247Y-97650475D01*
X181936247Y-97650475D02*
X181983866Y-97555237D01*
X181983866Y-97555237D02*
X181983866Y-97364761D01*
X181983866Y-97364761D02*
X181936247Y-97269523D01*
X181936247Y-97269523D02*
X181888628Y-97221904D01*
X181888628Y-97221904D02*
X181793390Y-97174285D01*
X187228095Y-77074819D02*
X187228095Y-77884342D01*
X187228095Y-77884342D02*
X187275714Y-77979580D01*
X187275714Y-77979580D02*
X187323333Y-78027200D01*
X187323333Y-78027200D02*
X187418571Y-78074819D01*
X187418571Y-78074819D02*
X187609047Y-78074819D01*
X187609047Y-78074819D02*
X187704285Y-78027200D01*
X187704285Y-78027200D02*
X187751904Y-77979580D01*
X187751904Y-77979580D02*
X187799523Y-77884342D01*
X187799523Y-77884342D02*
X187799523Y-77074819D01*
X188228095Y-77170057D02*
X188275714Y-77122438D01*
X188275714Y-77122438D02*
X188370952Y-77074819D01*
X188370952Y-77074819D02*
X188609047Y-77074819D01*
X188609047Y-77074819D02*
X188704285Y-77122438D01*
X188704285Y-77122438D02*
X188751904Y-77170057D01*
X188751904Y-77170057D02*
X188799523Y-77265295D01*
X188799523Y-77265295D02*
X188799523Y-77360533D01*
X188799523Y-77360533D02*
X188751904Y-77503390D01*
X188751904Y-77503390D02*
X188180476Y-78074819D01*
X188180476Y-78074819D02*
X188799523Y-78074819D01*
X183894819Y-117996666D02*
X183418628Y-118329999D01*
X183894819Y-118568094D02*
X182894819Y-118568094D01*
X182894819Y-118568094D02*
X182894819Y-118187142D01*
X182894819Y-118187142D02*
X182942438Y-118091904D01*
X182942438Y-118091904D02*
X182990057Y-118044285D01*
X182990057Y-118044285D02*
X183085295Y-117996666D01*
X183085295Y-117996666D02*
X183228152Y-117996666D01*
X183228152Y-117996666D02*
X183323390Y-118044285D01*
X183323390Y-118044285D02*
X183371009Y-118091904D01*
X183371009Y-118091904D02*
X183418628Y-118187142D01*
X183418628Y-118187142D02*
X183418628Y-118568094D01*
X183228152Y-117139523D02*
X183894819Y-117139523D01*
X182847200Y-117377618D02*
X183561485Y-117615713D01*
X183561485Y-117615713D02*
X183561485Y-116996666D01*
X187598095Y-95364819D02*
X187598095Y-96174342D01*
X187598095Y-96174342D02*
X187645714Y-96269580D01*
X187645714Y-96269580D02*
X187693333Y-96317200D01*
X187693333Y-96317200D02*
X187788571Y-96364819D01*
X187788571Y-96364819D02*
X187979047Y-96364819D01*
X187979047Y-96364819D02*
X188074285Y-96317200D01*
X188074285Y-96317200D02*
X188121904Y-96269580D01*
X188121904Y-96269580D02*
X188169523Y-96174342D01*
X188169523Y-96174342D02*
X188169523Y-95364819D01*
X189074285Y-95698152D02*
X189074285Y-96364819D01*
X188836190Y-95317200D02*
X188598095Y-96031485D01*
X188598095Y-96031485D02*
X189217142Y-96031485D01*
X175654819Y-100346666D02*
X175178628Y-100679999D01*
X175654819Y-100918094D02*
X174654819Y-100918094D01*
X174654819Y-100918094D02*
X174654819Y-100537142D01*
X174654819Y-100537142D02*
X174702438Y-100441904D01*
X174702438Y-100441904D02*
X174750057Y-100394285D01*
X174750057Y-100394285D02*
X174845295Y-100346666D01*
X174845295Y-100346666D02*
X174988152Y-100346666D01*
X174988152Y-100346666D02*
X175083390Y-100394285D01*
X175083390Y-100394285D02*
X175131009Y-100441904D01*
X175131009Y-100441904D02*
X175178628Y-100537142D01*
X175178628Y-100537142D02*
X175178628Y-100918094D01*
X174750057Y-99965713D02*
X174702438Y-99918094D01*
X174702438Y-99918094D02*
X174654819Y-99822856D01*
X174654819Y-99822856D02*
X174654819Y-99584761D01*
X174654819Y-99584761D02*
X174702438Y-99489523D01*
X174702438Y-99489523D02*
X174750057Y-99441904D01*
X174750057Y-99441904D02*
X174845295Y-99394285D01*
X174845295Y-99394285D02*
X174940533Y-99394285D01*
X174940533Y-99394285D02*
X175083390Y-99441904D01*
X175083390Y-99441904D02*
X175654819Y-100013332D01*
X175654819Y-100013332D02*
X175654819Y-99394285D01*
X184579580Y-81049166D02*
X184627200Y-81096785D01*
X184627200Y-81096785D02*
X184674819Y-81239642D01*
X184674819Y-81239642D02*
X184674819Y-81334880D01*
X184674819Y-81334880D02*
X184627200Y-81477737D01*
X184627200Y-81477737D02*
X184531961Y-81572975D01*
X184531961Y-81572975D02*
X184436723Y-81620594D01*
X184436723Y-81620594D02*
X184246247Y-81668213D01*
X184246247Y-81668213D02*
X184103390Y-81668213D01*
X184103390Y-81668213D02*
X183912914Y-81620594D01*
X183912914Y-81620594D02*
X183817676Y-81572975D01*
X183817676Y-81572975D02*
X183722438Y-81477737D01*
X183722438Y-81477737D02*
X183674819Y-81334880D01*
X183674819Y-81334880D02*
X183674819Y-81239642D01*
X183674819Y-81239642D02*
X183722438Y-81096785D01*
X183722438Y-81096785D02*
X183770057Y-81049166D01*
X184674819Y-80096785D02*
X184674819Y-80668213D01*
X184674819Y-80382499D02*
X183674819Y-80382499D01*
X183674819Y-80382499D02*
X183817676Y-80477737D01*
X183817676Y-80477737D02*
X183912914Y-80572975D01*
X183912914Y-80572975D02*
X183960533Y-80668213D01*
X156374819Y-99161904D02*
X157184342Y-99161904D01*
X157184342Y-99161904D02*
X157279580Y-99114285D01*
X157279580Y-99114285D02*
X157327200Y-99066666D01*
X157327200Y-99066666D02*
X157374819Y-98971428D01*
X157374819Y-98971428D02*
X157374819Y-98780952D01*
X157374819Y-98780952D02*
X157327200Y-98685714D01*
X157327200Y-98685714D02*
X157279580Y-98638095D01*
X157279580Y-98638095D02*
X157184342Y-98590476D01*
X157184342Y-98590476D02*
X156374819Y-98590476D01*
X157374819Y-97590476D02*
X157374819Y-98161904D01*
X157374819Y-97876190D02*
X156374819Y-97876190D01*
X156374819Y-97876190D02*
X156517676Y-97971428D01*
X156517676Y-97971428D02*
X156612914Y-98066666D01*
X156612914Y-98066666D02*
X156660533Y-98161904D01*
X151114819Y-108534299D02*
X151352914Y-108534299D01*
X151257676Y-108772394D02*
X151352914Y-108534299D01*
X151352914Y-108534299D02*
X151257676Y-108296204D01*
X151543390Y-108677156D02*
X151352914Y-108534299D01*
X151352914Y-108534299D02*
X151543390Y-108391442D01*
X151114819Y-108534299D02*
X151352914Y-108534299D01*
X151257676Y-108772394D02*
X151352914Y-108534299D01*
X151352914Y-108534299D02*
X151257676Y-108296204D01*
X151543390Y-108677156D02*
X151352914Y-108534299D01*
X151352914Y-108534299D02*
X151543390Y-108391442D01*
X178404819Y-118071666D02*
X177928628Y-118404999D01*
X178404819Y-118643094D02*
X177404819Y-118643094D01*
X177404819Y-118643094D02*
X177404819Y-118262142D01*
X177404819Y-118262142D02*
X177452438Y-118166904D01*
X177452438Y-118166904D02*
X177500057Y-118119285D01*
X177500057Y-118119285D02*
X177595295Y-118071666D01*
X177595295Y-118071666D02*
X177738152Y-118071666D01*
X177738152Y-118071666D02*
X177833390Y-118119285D01*
X177833390Y-118119285D02*
X177881009Y-118166904D01*
X177881009Y-118166904D02*
X177928628Y-118262142D01*
X177928628Y-118262142D02*
X177928628Y-118643094D01*
X177404819Y-117166904D02*
X177404819Y-117643094D01*
X177404819Y-117643094D02*
X177881009Y-117690713D01*
X177881009Y-117690713D02*
X177833390Y-117643094D01*
X177833390Y-117643094D02*
X177785771Y-117547856D01*
X177785771Y-117547856D02*
X177785771Y-117309761D01*
X177785771Y-117309761D02*
X177833390Y-117214523D01*
X177833390Y-117214523D02*
X177881009Y-117166904D01*
X177881009Y-117166904D02*
X177976247Y-117119285D01*
X177976247Y-117119285D02*
X178214342Y-117119285D01*
X178214342Y-117119285D02*
X178309580Y-117166904D01*
X178309580Y-117166904D02*
X178357200Y-117214523D01*
X178357200Y-117214523D02*
X178404819Y-117309761D01*
X178404819Y-117309761D02*
X178404819Y-117547856D01*
X178404819Y-117547856D02*
X178357200Y-117643094D01*
X178357200Y-117643094D02*
X178309580Y-117690713D01*
X92738095Y-71244819D02*
X92738095Y-72054342D01*
X92738095Y-72054342D02*
X92785714Y-72149580D01*
X92785714Y-72149580D02*
X92833333Y-72197200D01*
X92833333Y-72197200D02*
X92928571Y-72244819D01*
X92928571Y-72244819D02*
X93119047Y-72244819D01*
X93119047Y-72244819D02*
X93214285Y-72197200D01*
X93214285Y-72197200D02*
X93261904Y-72149580D01*
X93261904Y-72149580D02*
X93309523Y-72054342D01*
X93309523Y-72054342D02*
X93309523Y-71244819D01*
X93928571Y-71673390D02*
X93833333Y-71625771D01*
X93833333Y-71625771D02*
X93785714Y-71578152D01*
X93785714Y-71578152D02*
X93738095Y-71482914D01*
X93738095Y-71482914D02*
X93738095Y-71435295D01*
X93738095Y-71435295D02*
X93785714Y-71340057D01*
X93785714Y-71340057D02*
X93833333Y-71292438D01*
X93833333Y-71292438D02*
X93928571Y-71244819D01*
X93928571Y-71244819D02*
X94119047Y-71244819D01*
X94119047Y-71244819D02*
X94214285Y-71292438D01*
X94214285Y-71292438D02*
X94261904Y-71340057D01*
X94261904Y-71340057D02*
X94309523Y-71435295D01*
X94309523Y-71435295D02*
X94309523Y-71482914D01*
X94309523Y-71482914D02*
X94261904Y-71578152D01*
X94261904Y-71578152D02*
X94214285Y-71625771D01*
X94214285Y-71625771D02*
X94119047Y-71673390D01*
X94119047Y-71673390D02*
X93928571Y-71673390D01*
X93928571Y-71673390D02*
X93833333Y-71721009D01*
X93833333Y-71721009D02*
X93785714Y-71768628D01*
X93785714Y-71768628D02*
X93738095Y-71863866D01*
X93738095Y-71863866D02*
X93738095Y-72054342D01*
X93738095Y-72054342D02*
X93785714Y-72149580D01*
X93785714Y-72149580D02*
X93833333Y-72197200D01*
X93833333Y-72197200D02*
X93928571Y-72244819D01*
X93928571Y-72244819D02*
X94119047Y-72244819D01*
X94119047Y-72244819D02*
X94214285Y-72197200D01*
X94214285Y-72197200D02*
X94261904Y-72149580D01*
X94261904Y-72149580D02*
X94309523Y-72054342D01*
X94309523Y-72054342D02*
X94309523Y-71863866D01*
X94309523Y-71863866D02*
X94261904Y-71768628D01*
X94261904Y-71768628D02*
X94214285Y-71721009D01*
X94214285Y-71721009D02*
X94119047Y-71673390D01*
D12*
%TO.C,P1*%
X192413101Y-101857050D02*
G75*
G02*
X191651101Y-101857050I-381000J0D01*
G01*
X191651101Y-101857050D02*
G75*
G02*
X192413101Y-101857050I381000J0D01*
G01*
D13*
%TO.C,C2*%
X181805000Y-77243752D02*
X181805000Y-76721248D01*
X183275000Y-77243752D02*
X183275000Y-76721248D01*
%TO.C,C6*%
X182795000Y-94421252D02*
X182795000Y-93898748D01*
X184265000Y-94421252D02*
X184265000Y-93898748D01*
%TO.C,R3*%
X178000000Y-98350000D02*
X178000000Y-101210000D01*
X179920000Y-98350000D02*
X178000000Y-98350000D01*
X179920000Y-101210000D02*
X179920000Y-98350000D01*
%TO.C,R9*%
X182825000Y-98187064D02*
X182825000Y-97732936D01*
X184295000Y-98187064D02*
X184295000Y-97732936D01*
%TO.C,U2*%
X186240000Y-74410000D02*
X190000000Y-74410000D01*
X186240000Y-81230000D02*
X190000000Y-81230000D01*
X190000000Y-74410000D02*
X190000000Y-75670000D01*
X190000000Y-81230000D02*
X190000000Y-79970000D01*
X184960000Y-74510000D02*
X184720000Y-74180000D01*
X185200000Y-74180000D01*
X184960000Y-74510000D01*
G36*
X184960000Y-74510000D02*
G01*
X184720000Y-74180000D01*
X185200000Y-74180000D01*
X184960000Y-74510000D01*
G37*
%TO.C,R4*%
X181005000Y-118157064D02*
X181005000Y-117702936D01*
X182475000Y-118157064D02*
X182475000Y-117702936D01*
%TO.C,U4*%
X186300000Y-93350000D02*
X190420000Y-93350000D01*
X186300000Y-93445000D02*
X186300000Y-93350000D01*
X186300000Y-98470000D02*
X186300000Y-98375000D01*
X190420000Y-93350000D02*
X190420000Y-93445000D01*
X190420000Y-98375000D02*
X190420000Y-98470000D01*
X190420000Y-98470000D02*
X186300000Y-98470000D01*
X191200000Y-98710000D02*
X190720000Y-98710000D01*
X190960000Y-98380000D01*
X191200000Y-98710000D01*
G36*
X191200000Y-98710000D02*
G01*
X190720000Y-98710000D01*
X190960000Y-98380000D01*
X191200000Y-98710000D01*
G37*
%TO.C,R2*%
X175890000Y-99180000D02*
X175890000Y-102040000D01*
X175890000Y-102040000D02*
X177810000Y-102040000D01*
X177810000Y-102040000D02*
X177810000Y-99180000D01*
%TO.C,C1*%
X181805000Y-80621248D02*
X181805000Y-81143752D01*
X183275000Y-80621248D02*
X183275000Y-81143752D01*
D14*
%TO.C,U1*%
X144042200Y-89268700D02*
X144042200Y-107531300D01*
X144042200Y-107531300D02*
X150920860Y-107531300D01*
X150920860Y-89268700D02*
X144042200Y-89268700D01*
X168909140Y-107531300D02*
X169797800Y-107531300D01*
X169797800Y-89268700D02*
X168909140Y-89268700D01*
X169797800Y-90675860D02*
X169797800Y-89268700D01*
X169797800Y-107531300D02*
X169797800Y-106124140D01*
D13*
%TO.C,R5*%
X178865000Y-118132064D02*
X178865000Y-117677936D01*
X180335000Y-118132064D02*
X180335000Y-117677936D01*
%TO.C,U8*%
X92120000Y-72790000D02*
X93500000Y-72790000D01*
X92120000Y-74170000D02*
X92120000Y-72790000D01*
X92120000Y-75440000D02*
X92120000Y-108570000D01*
X92120000Y-75440000D02*
X94880000Y-75440000D01*
X92120000Y-108570000D02*
X94880000Y-108570000D01*
X94880000Y-75440000D02*
X94880000Y-108570000D01*
%TD*%
M02*
