%TF.GenerationSoftware,KiCad,Pcbnew,9.0.5*%
%TF.CreationDate,2025-11-10T21:46:58+01:00*%
%TF.ProjectId,ESP32 Project,45535033-3220-4507-926f-6a6563742e6b,rev?*%
%TF.SameCoordinates,Original*%
%TF.FileFunction,Soldermask,Bot*%
%TF.FilePolarity,Negative*%
%FSLAX46Y46*%
G04 Gerber Fmt 4.6, Leading zero omitted, Abs format (unit mm)*
G04 Created by KiCad (PCBNEW 9.0.5) date 2025-11-10 21:46:58*
%MOMM*%
%LPD*%
G01*
G04 APERTURE LIST*
G04 Aperture macros list*
%AMRoundRect*
0 Rectangle with rounded corners*
0 $1 Rounding radius*
0 $2 $3 $4 $5 $6 $7 $8 $9 X,Y pos of 4 corners*
0 Add a 4 corners polygon primitive as box body*
4,1,4,$2,$3,$4,$5,$6,$7,$8,$9,$2,$3,0*
0 Add four circle primitives for the rounded corners*
1,1,$1+$1,$2,$3*
1,1,$1+$1,$4,$5*
1,1,$1+$1,$6,$7*
1,1,$1+$1,$8,$9*
0 Add four rect primitives between the rounded corners*
20,1,$1+$1,$2,$3,$4,$5,0*
20,1,$1+$1,$4,$5,$6,$7,0*
20,1,$1+$1,$6,$7,$8,$9,0*
20,1,$1+$1,$8,$9,$2,$3,0*%
%AMFreePoly0*
4,1,23,0.500000,-0.750000,0.000000,-0.750000,0.000000,-0.745722,-0.065263,-0.745722,-0.191342,-0.711940,-0.304381,-0.646677,-0.396677,-0.554381,-0.461940,-0.441342,-0.495722,-0.315263,-0.495722,-0.250000,-0.500000,-0.250000,-0.500000,0.250000,-0.495722,0.250000,-0.495722,0.315263,-0.461940,0.441342,-0.396677,0.554381,-0.304381,0.646677,-0.191342,0.711940,-0.065263,0.745722,0.000000,0.745722,
0.000000,0.750000,0.500000,0.750000,0.500000,-0.750000,0.500000,-0.750000,$1*%
%AMFreePoly1*
4,1,23,0.000000,0.745722,0.065263,0.745722,0.191342,0.711940,0.304381,0.646677,0.396677,0.554381,0.461940,0.441342,0.495722,0.315263,0.495722,0.250000,0.500000,0.250000,0.500000,-0.250000,0.495722,-0.250000,0.495722,-0.315263,0.461940,-0.441342,0.396677,-0.554381,0.304381,-0.646677,0.191342,-0.711940,0.065263,-0.745722,0.000000,-0.745722,0.000000,-0.750000,-0.500000,-0.750000,
-0.500000,0.750000,0.000000,0.750000,0.000000,0.745722,0.000000,0.745722,$1*%
G04 Aperture macros list end*
%ADD10C,0.000000*%
%ADD11R,1.142996X0.292398*%
%ADD12O,1.803400X0.990600*%
%ADD13O,2.108200X0.990600*%
%ADD14C,0.660400*%
%ADD15R,0.127000X0.127000*%
%ADD16R,1.142996X0.279996*%
%ADD17R,1.142994X0.280000*%
%ADD18R,1.142998X0.270000*%
%ADD19R,1.142998X0.280000*%
%ADD20R,1.142996X0.280000*%
%ADD21R,1.142996X0.269998*%
%ADD22R,1.036888X1.258509*%
%ADD23R,1.700000X1.700000*%
%ADD24C,1.700000*%
%ADD25FreePoly0,180.000000*%
%ADD26FreePoly1,180.000000*%
%ADD27RoundRect,0.250000X-0.337500X-0.475000X0.337500X-0.475000X0.337500X0.475000X-0.337500X0.475000X0*%
%ADD28RoundRect,0.250000X0.337500X0.475000X-0.337500X0.475000X-0.337500X-0.475000X0.337500X-0.475000X0*%
%ADD29RoundRect,0.250000X-0.350000X-0.450000X0.350000X-0.450000X0.350000X0.450000X-0.350000X0.450000X0*%
%ADD30RoundRect,0.250000X0.350000X0.450000X-0.350000X0.450000X-0.350000X-0.450000X0.350000X-0.450000X0*%
%ADD31RoundRect,0.087500X0.187500X0.087500X-0.187500X0.087500X-0.187500X-0.087500X0.187500X-0.087500X0*%
%ADD32RoundRect,0.175000X0.175000X0.625000X-0.175000X0.625000X-0.175000X-0.625000X0.175000X-0.625000X0*%
%ADD33R,1.550000X0.700000*%
%ADD34R,0.275000X0.250000*%
%ADD35R,0.250000X0.275000*%
%ADD36FreePoly0,0.000000*%
%ADD37FreePoly1,0.000000*%
%ADD38RoundRect,0.250000X0.450000X-0.325000X0.450000X0.325000X-0.450000X0.325000X-0.450000X-0.325000X0*%
G04 APERTURE END LIST*
D10*
%TO.C,P1*%
G36*
X192603601Y-105337249D02*
G01*
X191460601Y-105337249D01*
X191460601Y-104727649D01*
X192603601Y-104727649D01*
X192603601Y-105337249D01*
G37*
G36*
X192603601Y-106137250D02*
G01*
X191460601Y-106137250D01*
X191460601Y-105527650D01*
X192603601Y-105527650D01*
X192603601Y-106137250D01*
G37*
G36*
X192603601Y-110937250D02*
G01*
X191460601Y-110937250D01*
X191460601Y-110327650D01*
X192603601Y-110327650D01*
X192603601Y-110937250D01*
G37*
G36*
X192603601Y-111737251D02*
G01*
X191460601Y-111737251D01*
X191460601Y-111127651D01*
X192603601Y-111127651D01*
X192603601Y-111737251D01*
G37*
%TO.C,JP1*%
G36*
X139699000Y-78585000D02*
G01*
X139399000Y-78585000D01*
X139399000Y-80085000D01*
X139699000Y-80085000D01*
X139699000Y-78585000D01*
G37*
%TO.C,JP5*%
G36*
X157510000Y-76270000D02*
G01*
X157210000Y-76270000D01*
X157210000Y-77770000D01*
X157510000Y-77770000D01*
X157510000Y-76270000D01*
G37*
%TO.C,JP3*%
G36*
X173790000Y-80320000D02*
G01*
X174090000Y-80320000D01*
X174090000Y-78820000D01*
X173790000Y-78820000D01*
X173790000Y-80320000D01*
G37*
%TO.C,JP2*%
G36*
X173880000Y-84250000D02*
G01*
X174180000Y-84250000D01*
X174180000Y-82750000D01*
X173880000Y-82750000D01*
X173880000Y-84250000D01*
G37*
%TO.C,JP4*%
G36*
X173790000Y-76450000D02*
G01*
X174090000Y-76450000D01*
X174090000Y-74950000D01*
X173790000Y-74950000D01*
X173790000Y-76450000D01*
G37*
%TD*%
D11*
%TO.C,P1*%
X192032103Y-106976251D03*
D12*
X196787100Y-103912448D03*
D13*
X192607101Y-103912448D03*
D14*
X193107100Y-105342451D03*
X193107100Y-111122449D03*
D13*
X196787100Y-112552452D03*
X192607101Y-112552452D03*
D15*
X192032101Y-104882449D03*
X192032101Y-105682450D03*
D16*
X192032103Y-107982452D03*
D17*
X192032104Y-108482450D03*
D18*
X192032102Y-109487450D03*
D15*
X192032101Y-110782450D03*
X192032101Y-111582451D03*
X192032101Y-111282451D03*
X192032101Y-110482450D03*
D19*
X192032102Y-109982450D03*
D20*
X192032103Y-108982450D03*
X192032103Y-107482450D03*
D21*
X192032103Y-106477451D03*
D15*
X192032101Y-105982450D03*
X192032101Y-105182449D03*
D22*
X192654349Y-102861705D03*
%TD*%
D23*
%TO.C,U8*%
X93500000Y-74170000D03*
D24*
X93500000Y-76710000D03*
X93500000Y-79250000D03*
X93500000Y-81790000D03*
X93500000Y-84330000D03*
X93500000Y-86870000D03*
X93500000Y-89410000D03*
X93500000Y-91950000D03*
X93500000Y-94490000D03*
X93500000Y-97030000D03*
X93500000Y-99570000D03*
X93500000Y-102110000D03*
X93500000Y-104650000D03*
X93500000Y-107190000D03*
%TD*%
D25*
%TO.C,JP1*%
X140199000Y-79335000D03*
D26*
X138899000Y-79335000D03*
%TD*%
D27*
%TO.C,C7*%
X119950358Y-76390000D03*
X122025358Y-76390000D03*
%TD*%
D28*
%TO.C,C4*%
X145747500Y-76530000D03*
X143672500Y-76530000D03*
%TD*%
D25*
%TO.C,JP5*%
X158010000Y-77020000D03*
D26*
X156710000Y-77020000D03*
%TD*%
D28*
%TO.C,C5*%
X166730000Y-81620000D03*
X164655000Y-81620000D03*
%TD*%
D29*
%TO.C,R1*%
X194287100Y-101912448D03*
X196287100Y-101912448D03*
%TD*%
D30*
%TO.C,R7*%
X190232101Y-109882450D03*
X188232101Y-109882450D03*
%TD*%
D31*
%TO.C,U6*%
X121912858Y-78290000D03*
X121912858Y-79290000D03*
X120062858Y-79290000D03*
X120062858Y-78290000D03*
D32*
X120987858Y-78790000D03*
%TD*%
D33*
%TO.C,U5*%
X163005000Y-79525000D03*
X163005000Y-78255000D03*
X163005000Y-76985000D03*
X163005000Y-75715000D03*
X168455000Y-75715000D03*
X168455000Y-76985000D03*
X168455000Y-78255000D03*
X168455000Y-79525000D03*
%TD*%
D28*
%TO.C,C3*%
X145748500Y-74455000D03*
X143673500Y-74455000D03*
%TD*%
D34*
%TO.C,U3*%
X145472000Y-79417000D03*
X145472000Y-79917000D03*
D35*
X145209000Y-80429000D03*
X144709000Y-80429000D03*
X144209000Y-80429000D03*
D34*
X143946000Y-79917000D03*
X143946000Y-79417000D03*
D35*
X144209000Y-78905000D03*
X144709000Y-78905000D03*
X145209000Y-78905000D03*
%TD*%
D30*
%TO.C,R6*%
X190232101Y-106582450D03*
X188232101Y-106582450D03*
%TD*%
D36*
%TO.C,JP3*%
X173290000Y-79570000D03*
D37*
X174590000Y-79570000D03*
%TD*%
D38*
%TO.C,D1*%
X181700000Y-118930000D03*
X181700000Y-116880000D03*
%TD*%
D36*
%TO.C,JP2*%
X173380000Y-83500000D03*
D37*
X174680000Y-83500000D03*
%TD*%
D38*
%TO.C,D2*%
X179600000Y-118930000D03*
X179600000Y-116880000D03*
%TD*%
D36*
%TO.C,JP4*%
X173290000Y-75700000D03*
D37*
X174590000Y-75700000D03*
%TD*%
M02*
