%TF.GenerationSoftware,KiCad,Pcbnew,9.0.5*%
%TF.CreationDate,2025-11-10T21:46:58+01:00*%
%TF.ProjectId,ESP32 Project,45535033-3220-4507-926f-6a6563742e6b,rev?*%
%TF.SameCoordinates,Original*%
%TF.FileFunction,Copper,L1,Top*%
%TF.FilePolarity,Positive*%
%FSLAX46Y46*%
G04 Gerber Fmt 4.6, Leading zero omitted, Abs format (unit mm)*
G04 Created by KiCad (PCBNEW 9.0.5) date 2025-11-10 21:46:58*
%MOMM*%
%LPD*%
G01*
G04 APERTURE LIST*
G04 Aperture macros list*
%AMRoundRect*
0 Rectangle with rounded corners*
0 $1 Rounding radius*
0 $2 $3 $4 $5 $6 $7 $8 $9 X,Y pos of 4 corners*
0 Add a 4 corners polygon primitive as box body*
4,1,4,$2,$3,$4,$5,$6,$7,$8,$9,$2,$3,0*
0 Add four circle primitives for the rounded corners*
1,1,$1+$1,$2,$3*
1,1,$1+$1,$4,$5*
1,1,$1+$1,$6,$7*
1,1,$1+$1,$8,$9*
0 Add four rect primitives between the rounded corners*
20,1,$1+$1,$2,$3,$4,$5,0*
20,1,$1+$1,$4,$5,$6,$7,0*
20,1,$1+$1,$6,$7,$8,$9,0*
20,1,$1+$1,$8,$9,$2,$3,0*%
G04 Aperture macros list end*
%TA.AperFunction,WasherPad*%
%ADD10O,1.803400X0.990600*%
%TD*%
%TA.AperFunction,WasherPad*%
%ADD11O,2.108200X0.990600*%
%TD*%
%TA.AperFunction,SMDPad,CuDef*%
%ADD12RoundRect,0.250000X0.475000X-0.337500X0.475000X0.337500X-0.475000X0.337500X-0.475000X-0.337500X0*%
%TD*%
%TA.AperFunction,SMDPad,CuDef*%
%ADD13RoundRect,0.250000X-0.450000X0.325000X-0.450000X-0.325000X0.450000X-0.325000X0.450000X0.325000X0*%
%TD*%
%TA.AperFunction,SMDPad,CuDef*%
%ADD14RoundRect,0.250000X0.450000X-0.350000X0.450000X0.350000X-0.450000X0.350000X-0.450000X-0.350000X0*%
%TD*%
%TA.AperFunction,SMDPad,CuDef*%
%ADD15RoundRect,0.375000X-0.625000X-0.375000X0.625000X-0.375000X0.625000X0.375000X-0.625000X0.375000X0*%
%TD*%
%TA.AperFunction,SMDPad,CuDef*%
%ADD16RoundRect,0.500000X-0.500000X-1.400000X0.500000X-1.400000X0.500000X1.400000X-0.500000X1.400000X0*%
%TD*%
%TA.AperFunction,SMDPad,CuDef*%
%ADD17RoundRect,0.150000X0.825000X0.150000X-0.825000X0.150000X-0.825000X-0.150000X0.825000X-0.150000X0*%
%TD*%
%TA.AperFunction,SMDPad,CuDef*%
%ADD18RoundRect,0.250000X0.450000X-0.325000X0.450000X0.325000X-0.450000X0.325000X-0.450000X-0.325000X0*%
%TD*%
%TA.AperFunction,SMDPad,CuDef*%
%ADD19RoundRect,0.250000X-0.475000X0.337500X-0.475000X-0.337500X0.475000X-0.337500X0.475000X0.337500X0*%
%TD*%
%TA.AperFunction,SMDPad,CuDef*%
%ADD20R,0.812800X1.498600*%
%TD*%
%TA.AperFunction,SMDPad,CuDef*%
%ADD21R,1.498600X0.812800*%
%TD*%
%TA.AperFunction,SMDPad,CuDef*%
%ADD22R,0.889000X0.889000*%
%TD*%
%TA.AperFunction,ComponentPad*%
%ADD23R,1.700000X1.700000*%
%TD*%
%TA.AperFunction,ComponentPad*%
%ADD24C,1.700000*%
%TD*%
%TA.AperFunction,ViaPad*%
%ADD25C,0.600000*%
%TD*%
%TA.AperFunction,Conductor*%
%ADD26C,0.200000*%
%TD*%
%TA.AperFunction,Conductor*%
%ADD27C,0.300000*%
%TD*%
%TA.AperFunction,Conductor*%
%ADD28C,0.230000*%
%TD*%
G04 APERTURE END LIST*
D10*
%TO.P,P1,*%
%TO.N,*%
X196787100Y-103912448D03*
D11*
X192607101Y-103912448D03*
X196787100Y-112552452D03*
X192607101Y-112552452D03*
%TD*%
D12*
%TO.P,C2,1*%
%TO.N,+3.3V*%
X182540000Y-78020000D03*
%TO.P,C2,2*%
%TO.N,GND*%
X182540000Y-75945000D03*
%TD*%
%TO.P,C6,1*%
%TO.N,GND*%
X183530000Y-95197500D03*
%TO.P,C6,2*%
%TO.N,+3.3V*%
X183530000Y-93122500D03*
%TD*%
D13*
%TO.P,R3,1*%
%TO.N,+3.3V*%
X178960000Y-99185000D03*
%TO.P,R3,2*%
%TO.N,SDA*%
X178960000Y-101235000D03*
%TD*%
D14*
%TO.P,R9,1*%
%TO.N,+5V_in*%
X183560000Y-98960000D03*
%TO.P,R9,2*%
%TO.N,+5V_out*%
X183560000Y-96960000D03*
%TD*%
D15*
%TO.P,U2,1,ADJ*%
%TO.N,GND*%
X184940000Y-75520000D03*
%TO.P,U2,2,VO*%
%TO.N,+3.3V*%
X184940000Y-77820000D03*
D16*
X191240000Y-77820000D03*
D15*
%TO.P,U2,3,VI*%
%TO.N,+5V_out*%
X184940000Y-80120000D03*
%TD*%
D14*
%TO.P,R4,1*%
%TO.N,+5V*%
X181740000Y-118930000D03*
%TO.P,R4,2*%
%TO.N,Net-(D1-A)*%
X181740000Y-116930000D03*
%TD*%
D17*
%TO.P,U4,1,A1*%
%TO.N,GND*%
X190835000Y-97815000D03*
%TO.P,U4,2,A0*%
X190835000Y-96545000D03*
%TO.P,U4,3,SDA*%
%TO.N,SCL*%
X190835000Y-95275000D03*
%TO.P,U4,4,SCL*%
%TO.N,SDA*%
X190835000Y-94005000D03*
%TO.P,U4,5,VS*%
%TO.N,+3.3V*%
X185885000Y-94005000D03*
%TO.P,U4,6,GND*%
%TO.N,GND*%
X185885000Y-95275000D03*
%TO.P,U4,7,IN-*%
%TO.N,+5V_out*%
X185885000Y-96545000D03*
%TO.P,U4,8,IN+*%
%TO.N,+5V_in*%
X185885000Y-97815000D03*
%TD*%
D18*
%TO.P,R2,1*%
%TO.N,SCL*%
X176850000Y-101205000D03*
%TO.P,R2,2*%
%TO.N,+3.3V*%
X176850000Y-99155000D03*
%TD*%
D19*
%TO.P,C1,1*%
%TO.N,+5V_out*%
X182540000Y-79845000D03*
%TO.P,C1,2*%
%TO.N,GND*%
X182540000Y-81920000D03*
%TD*%
D20*
%TO.P,U1,1,GND*%
%TO.N,GND*%
X151660000Y-107150000D03*
%TO.P,U1,2,3V3*%
%TO.N,+3.3V*%
X152930000Y-107150000D03*
%TO.P,U1,3,EN*%
%TO.N,unconnected-(U1-EN-Pad3)*%
X154200000Y-107150000D03*
%TO.P,U1,4,IO4*%
%TO.N,Net-(U1-IO4)*%
X155470000Y-107150000D03*
%TO.P,U1,5,IO5*%
%TO.N,Net-(U1-IO5)*%
X156740000Y-107150000D03*
%TO.P,U1,6,IO6*%
%TO.N,Net-(U1-IO6)*%
X158010000Y-107150000D03*
%TO.P,U1,7,IO7*%
%TO.N,Net-(U1-IO7)*%
X159280000Y-107150000D03*
%TO.P,U1,8,IO15*%
%TO.N,Net-(U1-IO15)*%
X160550000Y-107150000D03*
%TO.P,U1,9,IO16*%
%TO.N,Net-(U1-IO16)*%
X161820000Y-107150000D03*
%TO.P,U1,10,IO17*%
%TO.N,Net-(U1-IO17)*%
X163090000Y-107150000D03*
%TO.P,U1,11,IO18*%
%TO.N,Net-(U1-IO18)*%
X164360000Y-107150000D03*
%TO.P,U1,12,IO8*%
%TO.N,SDA*%
X165630000Y-107150000D03*
%TO.P,U1,13,IO19*%
%TO.N,D-*%
X166900000Y-107150000D03*
%TO.P,U1,14,IO20*%
%TO.N,D+*%
X168170000Y-107150000D03*
D21*
%TO.P,U1,15,IO3*%
%TO.N,unconnected-(U1-IO3-Pad15)*%
X169420000Y-105385000D03*
%TO.P,U1,16,IO46*%
%TO.N,unconnected-(U1-IO46-Pad16)*%
X169420000Y-104115000D03*
%TO.P,U1,17,IO9*%
%TO.N,SCL*%
X169420000Y-102845000D03*
%TO.P,U1,18,IO10*%
%TO.N,unconnected-(U1-IO10-Pad18)*%
X169420000Y-101575000D03*
%TO.P,U1,19,IO11*%
%TO.N,unconnected-(U1-IO11-Pad19)*%
X169420000Y-100305000D03*
%TO.P,U1,20,IO12*%
%TO.N,unconnected-(U1-IO12-Pad20)*%
X169420000Y-99035000D03*
%TO.P,U1,21,IO13*%
%TO.N,unconnected-(U1-IO13-Pad21)*%
X169420000Y-97765000D03*
%TO.P,U1,22,IO14*%
%TO.N,unconnected-(U1-IO14-Pad22)*%
X169420000Y-96495000D03*
%TO.P,U1,23,IO21*%
%TO.N,GPIO21*%
X169420000Y-95225000D03*
%TO.P,U1,24,IO47*%
%TO.N,unconnected-(U1-IO47-Pad24)*%
X169420000Y-93955000D03*
%TO.P,U1,25,IO48*%
%TO.N,unconnected-(U1-IO48-Pad25)*%
X169420000Y-92685000D03*
%TO.P,U1,26,IO45*%
%TO.N,unconnected-(U1-IO45-Pad26)*%
X169420000Y-91415000D03*
D20*
%TO.P,U1,27,IO0*%
%TO.N,unconnected-(U1-IO0-Pad27)*%
X168170000Y-89650000D03*
%TO.P,U1,28,IO35*%
%TO.N,unconnected-(U1-IO35-Pad28)*%
X166900000Y-89650000D03*
%TO.P,U1,29,IO36*%
%TO.N,unconnected-(U1-IO36-Pad29)*%
X165630000Y-89650000D03*
%TO.P,U1,30,IO37*%
%TO.N,unconnected-(U1-IO37-Pad30)*%
X164360000Y-89650000D03*
%TO.P,U1,31,IO38*%
%TO.N,unconnected-(U1-IO38-Pad31)*%
X163090000Y-89650000D03*
%TO.P,U1,32,IO39*%
%TO.N,unconnected-(U1-IO39-Pad32)*%
X161820000Y-89650000D03*
%TO.P,U1,33,IO40*%
%TO.N,A2_TEMP*%
X160550000Y-89650000D03*
%TO.P,U1,34,IO41*%
%TO.N,A1_TEMP*%
X159280000Y-89650000D03*
%TO.P,U1,35,IO42*%
%TO.N,A0_TEMP*%
X158010000Y-89650000D03*
%TO.P,U1,36,RXD0*%
%TO.N,unconnected-(U1-RXD0-Pad36)*%
X156740000Y-89650000D03*
%TO.P,U1,37,TXD0*%
%TO.N,unconnected-(U1-TXD0-Pad37)*%
X155470000Y-89650000D03*
%TO.P,U1,38,IO2*%
%TO.N,unconnected-(U1-IO2-Pad38)*%
X154200000Y-89650000D03*
%TO.P,U1,39,IO1*%
%TO.N,unconnected-(U1-IO1-Pad39)*%
X152930000Y-89650000D03*
%TO.P,U1,40,GND*%
%TO.N,GND*%
X151660000Y-89650000D03*
D22*
%TO.P,U1,41,GND*%
X159380000Y-99900000D03*
%TO.P,U1,42,GND*%
X157980000Y-101300000D03*
%TO.P,U1,43,GND*%
X159380000Y-101300000D03*
%TO.P,U1,44,GND*%
X160780000Y-101300000D03*
%TO.P,U1,45,GND*%
X160780000Y-99900000D03*
%TO.P,U1,46,GND*%
X160780000Y-98500000D03*
%TO.P,U1,47,GND*%
X159380000Y-98500000D03*
%TO.P,U1,48,GND*%
X157980000Y-98500000D03*
%TO.P,U1,49,GND*%
X157980000Y-99900000D03*
%TD*%
D14*
%TO.P,R5,1*%
%TO.N,+3.3V*%
X179600000Y-118905000D03*
%TO.P,R5,2*%
%TO.N,Net-(D2-A)*%
X179600000Y-116905000D03*
%TD*%
D23*
%TO.P,U8,1,VCC*%
%TO.N,+3.3V*%
X93500000Y-74170000D03*
D24*
%TO.P,U8,2,GND*%
%TO.N,GND*%
X93500000Y-76710000D03*
%TO.P,U8,3,CS*%
%TO.N,Net-(U1-IO4)*%
X93500000Y-79250000D03*
%TO.P,U8,4,RESET*%
%TO.N,Net-(U1-IO5)*%
X93500000Y-81790000D03*
%TO.P,U8,5,DC/RS*%
%TO.N,Net-(U1-IO6)*%
X93500000Y-84330000D03*
%TO.P,U8,6,SDI(MOSI)*%
%TO.N,Net-(U1-IO7)*%
X93500000Y-86870000D03*
%TO.P,U8,7,SCK*%
%TO.N,Net-(U1-IO15)*%
X93500000Y-89410000D03*
%TO.P,U8,8,LED*%
%TO.N,+3.3V*%
X93500000Y-91950000D03*
%TO.P,U8,9,SDO(MISO)*%
%TO.N,Net-(U1-IO16)*%
X93500000Y-94490000D03*
%TO.P,U8,10,T_CLK*%
%TO.N,Net-(U1-IO15)*%
X93500000Y-97030000D03*
%TO.P,U8,11,T_CS*%
%TO.N,Net-(U1-IO17)*%
X93500000Y-99570000D03*
%TO.P,U8,12,T_DIN*%
%TO.N,Net-(U1-IO7)*%
X93500000Y-102110000D03*
%TO.P,U8,13,T_DO*%
%TO.N,Net-(U1-IO16)*%
X93500000Y-104650000D03*
%TO.P,U8,14,T_IRQ*%
%TO.N,Net-(U1-IO18)*%
X93500000Y-107190000D03*
%TD*%
D25*
%TO.N,GND*%
X104960100Y-105372939D03*
X100009641Y-105326673D03*
X107250266Y-103105907D03*
X102161009Y-103013375D03*
X97673209Y-102990242D03*
X96932953Y-92325934D03*
X100150000Y-96980000D03*
X97350000Y-96770000D03*
X197300000Y-115960000D03*
X197300000Y-110960000D03*
X197300000Y-108460000D03*
X197300000Y-105960000D03*
X197300000Y-98460000D03*
X197300000Y-95960000D03*
X197300000Y-93460000D03*
X197300000Y-90960000D03*
X197300000Y-88460000D03*
X197300000Y-85960000D03*
X197300000Y-83460000D03*
X197300000Y-80960000D03*
X197300000Y-78460000D03*
X197300000Y-75960000D03*
X197300000Y-73460000D03*
X197300000Y-70960000D03*
X197300000Y-68460000D03*
X194800000Y-115960000D03*
X194800000Y-113460000D03*
X194800000Y-110960000D03*
X194800000Y-108460000D03*
X194800000Y-105960000D03*
X194800000Y-103460000D03*
X194800000Y-70960000D03*
X194800000Y-68460000D03*
X192300000Y-120960000D03*
X192300000Y-118460000D03*
X192300000Y-115960000D03*
X192300000Y-90960000D03*
X192300000Y-88460000D03*
X192300000Y-85960000D03*
X192300000Y-83460000D03*
X192300000Y-80960000D03*
X192300000Y-70960000D03*
X192300000Y-68460000D03*
X192300000Y-65960000D03*
X192300000Y-63460000D03*
X189800000Y-120960000D03*
X189800000Y-118460000D03*
X189800000Y-115960000D03*
X189800000Y-90960000D03*
X189800000Y-88460000D03*
X189800000Y-85960000D03*
X189800000Y-83460000D03*
X189800000Y-80960000D03*
X189800000Y-70960000D03*
X189800000Y-68460000D03*
X189800000Y-65960000D03*
X189800000Y-63460000D03*
X187300000Y-120960000D03*
X187300000Y-118460000D03*
X187300000Y-115960000D03*
X187300000Y-113460000D03*
X187300000Y-90960000D03*
X187300000Y-88460000D03*
X187300000Y-85960000D03*
X187300000Y-83460000D03*
X187300000Y-80960000D03*
X187300000Y-75960000D03*
X187300000Y-70960000D03*
X187300000Y-68460000D03*
X187300000Y-65960000D03*
X187300000Y-63460000D03*
X184800000Y-120960000D03*
X184800000Y-118460000D03*
X184800000Y-115960000D03*
X184800000Y-113460000D03*
X184800000Y-110960000D03*
X184800000Y-105960000D03*
X184800000Y-100960000D03*
X184800000Y-90960000D03*
X184800000Y-88460000D03*
X184800000Y-85960000D03*
X184800000Y-70960000D03*
X184800000Y-68460000D03*
X184800000Y-65960000D03*
X184800000Y-63460000D03*
X182300000Y-113460000D03*
X182300000Y-110960000D03*
X182300000Y-105960000D03*
X182300000Y-100960000D03*
X182300000Y-83460000D03*
X182300000Y-70960000D03*
X182300000Y-68460000D03*
X182300000Y-65960000D03*
X182300000Y-63460000D03*
X179800000Y-120960000D03*
X179800000Y-113460000D03*
X179800000Y-110960000D03*
X179800000Y-95960000D03*
X179800000Y-93460000D03*
X179800000Y-90960000D03*
X179800000Y-88460000D03*
X179800000Y-85960000D03*
X179800000Y-83460000D03*
X179800000Y-80960000D03*
X179800000Y-78460000D03*
X179800000Y-75960000D03*
X179800000Y-70960000D03*
X179800000Y-68460000D03*
X179800000Y-65960000D03*
X179800000Y-63460000D03*
X177300000Y-120960000D03*
X177300000Y-118460000D03*
X177300000Y-115960000D03*
X177300000Y-113460000D03*
X177300000Y-110960000D03*
X177300000Y-95960000D03*
X177300000Y-93460000D03*
X177300000Y-90960000D03*
X177300000Y-88460000D03*
X177300000Y-85960000D03*
X177300000Y-83460000D03*
X177300000Y-80960000D03*
X177300000Y-78460000D03*
X177300000Y-75960000D03*
X177300000Y-70960000D03*
X177300000Y-68460000D03*
X177300000Y-65960000D03*
X177300000Y-63460000D03*
X174800000Y-120960000D03*
X174800000Y-118460000D03*
X174800000Y-115960000D03*
X174800000Y-113460000D03*
X174800000Y-110960000D03*
X174800000Y-100960000D03*
X174800000Y-98460000D03*
X174800000Y-95960000D03*
X174800000Y-93460000D03*
X174800000Y-90960000D03*
X174800000Y-88460000D03*
X174800000Y-85960000D03*
X174800000Y-70960000D03*
X174800000Y-68460000D03*
X174800000Y-65960000D03*
X174800000Y-63460000D03*
X172300000Y-120960000D03*
X172300000Y-118460000D03*
X172300000Y-115960000D03*
X172300000Y-113460000D03*
X172300000Y-110960000D03*
X172300000Y-100960000D03*
X172300000Y-98460000D03*
X172300000Y-95960000D03*
X172300000Y-93460000D03*
X172300000Y-90960000D03*
X172300000Y-88460000D03*
X172300000Y-85960000D03*
X172300000Y-70960000D03*
X172300000Y-68460000D03*
X172300000Y-65960000D03*
X172300000Y-63460000D03*
X169800000Y-120960000D03*
X169800000Y-118460000D03*
X169800000Y-115960000D03*
X169800000Y-113460000D03*
X169800000Y-110960000D03*
X169800000Y-88460000D03*
X169800000Y-85960000D03*
X169800000Y-83460000D03*
X169800000Y-80960000D03*
X169800000Y-70960000D03*
X169800000Y-68460000D03*
X169800000Y-65960000D03*
X169800000Y-63460000D03*
X167300000Y-120960000D03*
X167300000Y-118460000D03*
X167300000Y-115960000D03*
X167300000Y-113460000D03*
X167300000Y-110960000D03*
X167300000Y-103460000D03*
X167300000Y-100960000D03*
X167300000Y-98460000D03*
X167300000Y-95960000D03*
X167300000Y-93460000D03*
X167300000Y-85960000D03*
X167300000Y-83460000D03*
X167300000Y-70960000D03*
X167300000Y-68460000D03*
X167300000Y-65960000D03*
X167300000Y-63460000D03*
X164800000Y-120960000D03*
X164800000Y-118460000D03*
X164800000Y-115960000D03*
X164800000Y-113460000D03*
X164800000Y-110960000D03*
X164800000Y-103460000D03*
X164800000Y-100960000D03*
X164800000Y-98460000D03*
X164800000Y-95960000D03*
X164800000Y-93460000D03*
X164800000Y-85960000D03*
X164800000Y-83460000D03*
X164800000Y-70960000D03*
X164800000Y-68460000D03*
X164800000Y-65960000D03*
X164800000Y-63460000D03*
X162300000Y-120960000D03*
X162300000Y-118460000D03*
X162300000Y-115960000D03*
X162300000Y-113460000D03*
X162300000Y-103460000D03*
X162300000Y-100960000D03*
X162300000Y-98460000D03*
X162300000Y-95960000D03*
X162300000Y-93460000D03*
X162300000Y-85960000D03*
X162300000Y-83460000D03*
X162300000Y-80960000D03*
X162300000Y-70960000D03*
X162300000Y-68460000D03*
X162300000Y-65960000D03*
X162300000Y-63460000D03*
X159800000Y-120960000D03*
X159800000Y-118460000D03*
X159800000Y-115960000D03*
X159800000Y-103460000D03*
X159800000Y-95960000D03*
X159800000Y-93460000D03*
X159800000Y-85960000D03*
X159800000Y-83460000D03*
X159800000Y-80960000D03*
X159800000Y-78460000D03*
X159800000Y-70960000D03*
X159800000Y-68460000D03*
X159800000Y-65960000D03*
X159800000Y-63460000D03*
X157300000Y-120960000D03*
X157300000Y-118460000D03*
X157300000Y-115960000D03*
X157300000Y-103460000D03*
X157300000Y-95960000D03*
X157300000Y-93460000D03*
X157300000Y-85960000D03*
X157300000Y-83460000D03*
X157300000Y-80960000D03*
X157300000Y-70960000D03*
X157300000Y-68460000D03*
X157300000Y-65960000D03*
X157300000Y-63460000D03*
X154800000Y-120960000D03*
X154800000Y-118460000D03*
X154800000Y-115960000D03*
X154800000Y-103460000D03*
X154800000Y-100960000D03*
X154800000Y-98460000D03*
X154800000Y-95960000D03*
X154800000Y-93460000D03*
X154800000Y-85960000D03*
X154800000Y-83460000D03*
X154800000Y-80960000D03*
X154800000Y-78460000D03*
X154800000Y-75960000D03*
X154800000Y-70960000D03*
X154800000Y-68460000D03*
X154800000Y-65960000D03*
X154800000Y-63460000D03*
X152300000Y-120960000D03*
X152300000Y-118460000D03*
X152300000Y-115960000D03*
X152300000Y-103460000D03*
X152300000Y-100960000D03*
X152300000Y-98460000D03*
X152300000Y-95960000D03*
X152300000Y-93460000D03*
X152300000Y-85960000D03*
X152300000Y-83460000D03*
X152300000Y-80960000D03*
X152300000Y-78460000D03*
X152300000Y-75960000D03*
X152300000Y-70960000D03*
X152300000Y-68460000D03*
X152300000Y-65960000D03*
X152300000Y-63460000D03*
X149800000Y-120960000D03*
X149800000Y-118460000D03*
X149800000Y-115960000D03*
X149800000Y-110960000D03*
X149800000Y-108460000D03*
X149800000Y-88460000D03*
X149800000Y-85960000D03*
X149800000Y-83460000D03*
X149800000Y-80960000D03*
X149800000Y-78460000D03*
X149800000Y-75960000D03*
X149800000Y-70960000D03*
X149800000Y-68460000D03*
X149800000Y-65960000D03*
X149800000Y-63460000D03*
X147300000Y-120960000D03*
X147300000Y-118460000D03*
X147300000Y-115960000D03*
X147300000Y-110960000D03*
X147300000Y-108460000D03*
X147300000Y-88460000D03*
X147300000Y-85960000D03*
X147300000Y-83460000D03*
X147300000Y-80960000D03*
X147300000Y-75960000D03*
X147300000Y-70960000D03*
X147300000Y-68460000D03*
X147300000Y-65960000D03*
X147300000Y-63460000D03*
X144800000Y-120960000D03*
X144800000Y-118460000D03*
X144800000Y-115960000D03*
X144800000Y-110960000D03*
X144800000Y-108460000D03*
X144800000Y-88460000D03*
X144800000Y-85960000D03*
X144800000Y-83460000D03*
X144800000Y-70960000D03*
X144800000Y-68460000D03*
X144800000Y-65960000D03*
X144800000Y-63460000D03*
X142300000Y-120960000D03*
X142300000Y-118460000D03*
X142300000Y-115960000D03*
X142300000Y-110960000D03*
X142300000Y-108460000D03*
X142300000Y-105960000D03*
X142300000Y-103460000D03*
X142300000Y-100960000D03*
X142300000Y-98460000D03*
X142300000Y-95960000D03*
X142300000Y-93460000D03*
X142300000Y-90960000D03*
X142300000Y-88460000D03*
X142300000Y-85960000D03*
X142300000Y-83460000D03*
X142300000Y-70960000D03*
X142300000Y-68460000D03*
X142300000Y-65960000D03*
X142300000Y-63460000D03*
X139800000Y-120960000D03*
X139800000Y-118460000D03*
X139800000Y-115960000D03*
X139800000Y-110960000D03*
X139800000Y-108460000D03*
X139800000Y-105960000D03*
X139800000Y-103460000D03*
X139800000Y-100960000D03*
X139800000Y-98460000D03*
X139800000Y-95960000D03*
X139800000Y-93460000D03*
X139800000Y-90960000D03*
X139800000Y-88460000D03*
X139800000Y-85960000D03*
X139800000Y-83460000D03*
X139800000Y-75960000D03*
X139800000Y-70960000D03*
X139800000Y-68460000D03*
X139800000Y-65960000D03*
X139800000Y-63460000D03*
X137300000Y-120960000D03*
X137300000Y-118460000D03*
X137300000Y-115960000D03*
X137300000Y-110960000D03*
X137300000Y-108460000D03*
X137300000Y-105960000D03*
X137300000Y-103460000D03*
X137300000Y-100960000D03*
X137300000Y-98460000D03*
X137300000Y-95960000D03*
X137300000Y-93460000D03*
X137300000Y-90960000D03*
X137300000Y-88460000D03*
X137300000Y-85960000D03*
X137300000Y-83460000D03*
X137300000Y-78460000D03*
X137300000Y-75960000D03*
X137300000Y-70960000D03*
X137300000Y-68460000D03*
X137300000Y-65960000D03*
X137300000Y-63460000D03*
X134800000Y-120960000D03*
X134800000Y-118460000D03*
X134800000Y-115960000D03*
X134800000Y-110960000D03*
X134800000Y-108460000D03*
X134800000Y-105960000D03*
X134800000Y-103460000D03*
X134800000Y-100960000D03*
X134800000Y-98460000D03*
X134800000Y-95960000D03*
X134800000Y-93460000D03*
X134800000Y-90960000D03*
X134800000Y-88460000D03*
X134800000Y-85960000D03*
X134800000Y-83460000D03*
X134800000Y-80960000D03*
X134800000Y-78460000D03*
X134800000Y-75960000D03*
X134800000Y-70960000D03*
X134800000Y-68460000D03*
X134800000Y-65960000D03*
X134800000Y-63460000D03*
X132300000Y-120960000D03*
X132300000Y-118460000D03*
X132300000Y-115960000D03*
X132300000Y-110960000D03*
X132300000Y-108460000D03*
X132300000Y-105960000D03*
X132300000Y-103460000D03*
X132300000Y-100960000D03*
X132300000Y-98460000D03*
X132300000Y-95960000D03*
X132300000Y-93460000D03*
X132300000Y-90960000D03*
X132300000Y-88460000D03*
X132300000Y-85960000D03*
X132300000Y-83460000D03*
X132300000Y-80960000D03*
X132300000Y-78460000D03*
X132300000Y-73460000D03*
X132300000Y-70960000D03*
X132300000Y-68460000D03*
X132300000Y-65960000D03*
X132300000Y-63460000D03*
X129800000Y-120960000D03*
X129800000Y-118460000D03*
X129800000Y-115960000D03*
X129800000Y-110960000D03*
X129800000Y-108460000D03*
X129800000Y-105960000D03*
X129800000Y-103460000D03*
X129800000Y-100960000D03*
X129800000Y-98460000D03*
X129800000Y-95960000D03*
X129800000Y-93460000D03*
X129800000Y-90960000D03*
X129800000Y-88460000D03*
X129800000Y-85960000D03*
X129800000Y-83460000D03*
X129800000Y-80960000D03*
X129800000Y-75960000D03*
X129800000Y-73460000D03*
X129800000Y-70960000D03*
X129800000Y-68460000D03*
X129800000Y-65960000D03*
X129800000Y-63460000D03*
X127300000Y-120960000D03*
X127300000Y-118460000D03*
X127300000Y-115960000D03*
X127300000Y-110960000D03*
X127300000Y-108460000D03*
X127300000Y-105960000D03*
X127300000Y-103460000D03*
X127300000Y-100960000D03*
X127300000Y-98460000D03*
X127300000Y-95960000D03*
X127300000Y-93460000D03*
X127300000Y-90960000D03*
X127300000Y-88460000D03*
X127300000Y-85960000D03*
X127300000Y-83460000D03*
X127300000Y-80960000D03*
X127300000Y-78460000D03*
X127300000Y-75960000D03*
X127300000Y-73460000D03*
X127300000Y-70960000D03*
X127300000Y-68460000D03*
X127300000Y-65960000D03*
X127300000Y-63460000D03*
X124800000Y-120960000D03*
X124800000Y-118460000D03*
X124800000Y-115960000D03*
X124800000Y-110960000D03*
X124800000Y-108460000D03*
X124800000Y-105960000D03*
X124800000Y-103460000D03*
X124800000Y-100960000D03*
X124800000Y-98460000D03*
X124800000Y-95960000D03*
X124800000Y-93460000D03*
X124800000Y-90960000D03*
X124800000Y-88460000D03*
X124800000Y-85960000D03*
X124800000Y-83460000D03*
X124800000Y-80960000D03*
X124800000Y-78460000D03*
X124800000Y-75960000D03*
X124800000Y-73460000D03*
X124800000Y-70960000D03*
X124800000Y-68460000D03*
X124800000Y-65960000D03*
X124800000Y-63460000D03*
X122300000Y-120960000D03*
X122300000Y-118460000D03*
X122300000Y-115960000D03*
X122300000Y-108460000D03*
X122300000Y-105960000D03*
X122300000Y-103460000D03*
X122300000Y-100960000D03*
X122300000Y-98460000D03*
X122300000Y-95960000D03*
X122300000Y-93460000D03*
X122300000Y-90960000D03*
X122300000Y-88460000D03*
X122300000Y-85960000D03*
X122300000Y-83460000D03*
X122300000Y-80960000D03*
X122300000Y-70960000D03*
X122300000Y-68460000D03*
X122300000Y-65960000D03*
X122300000Y-63460000D03*
X119800000Y-120960000D03*
X119800000Y-118460000D03*
X119800000Y-115960000D03*
X119800000Y-105960000D03*
X119800000Y-103460000D03*
X119800000Y-100960000D03*
X119800000Y-98460000D03*
X119800000Y-95960000D03*
X119800000Y-93460000D03*
X119800000Y-90960000D03*
X119800000Y-88460000D03*
X119800000Y-85960000D03*
X119800000Y-83460000D03*
X119800000Y-80960000D03*
X119800000Y-73460000D03*
X119800000Y-70960000D03*
X119800000Y-68460000D03*
X119800000Y-65960000D03*
X119800000Y-63460000D03*
X117300000Y-120960000D03*
X117300000Y-118460000D03*
X117300000Y-115960000D03*
X117300000Y-113460000D03*
X117300000Y-103460000D03*
X117300000Y-100960000D03*
X117300000Y-98460000D03*
X117300000Y-95960000D03*
X117300000Y-93460000D03*
X117300000Y-90960000D03*
X117300000Y-88460000D03*
X117300000Y-85960000D03*
X117300000Y-83460000D03*
X117300000Y-80960000D03*
X117300000Y-78460000D03*
X117300000Y-75960000D03*
X117300000Y-73460000D03*
X117300000Y-70960000D03*
X117300000Y-68460000D03*
X117300000Y-65960000D03*
X117300000Y-63460000D03*
X114800000Y-120960000D03*
X114800000Y-118460000D03*
X114800000Y-115960000D03*
X114800000Y-113460000D03*
X114800000Y-110960000D03*
X114800000Y-100960000D03*
X114800000Y-98460000D03*
X114800000Y-95960000D03*
X114800000Y-93460000D03*
X114800000Y-90960000D03*
X114800000Y-88460000D03*
X114800000Y-85960000D03*
X114800000Y-83460000D03*
X114800000Y-80960000D03*
X114800000Y-78460000D03*
X114800000Y-75960000D03*
X114800000Y-73460000D03*
X114800000Y-70960000D03*
X114800000Y-68460000D03*
X114800000Y-65960000D03*
X114800000Y-63460000D03*
X112300000Y-120960000D03*
X112300000Y-118460000D03*
X112300000Y-115960000D03*
X112300000Y-113460000D03*
X112300000Y-110960000D03*
X112300000Y-108460000D03*
X112300000Y-98460000D03*
X112300000Y-95960000D03*
X112300000Y-93460000D03*
X112300000Y-90960000D03*
X112300000Y-88460000D03*
X112300000Y-85960000D03*
X112300000Y-83460000D03*
X112300000Y-80960000D03*
X112300000Y-78460000D03*
X112300000Y-75960000D03*
X112300000Y-73460000D03*
X112300000Y-70960000D03*
X112300000Y-68460000D03*
X112300000Y-65960000D03*
X112300000Y-63460000D03*
X109800000Y-120960000D03*
X109800000Y-118460000D03*
X109800000Y-115960000D03*
X109800000Y-113460000D03*
X109800000Y-110960000D03*
X109800000Y-108460000D03*
X109800000Y-95960000D03*
X109800000Y-93460000D03*
X109800000Y-90960000D03*
X109800000Y-88460000D03*
X109800000Y-85960000D03*
X109800000Y-83460000D03*
X109800000Y-80960000D03*
X109800000Y-78460000D03*
X109800000Y-75960000D03*
X109800000Y-73460000D03*
X109800000Y-70960000D03*
X109800000Y-68460000D03*
X109800000Y-65960000D03*
X109800000Y-63460000D03*
X107300000Y-120960000D03*
X107300000Y-118460000D03*
X107300000Y-115960000D03*
X107300000Y-113460000D03*
X107300000Y-110960000D03*
X107300000Y-108460000D03*
X107300000Y-93460000D03*
X107300000Y-90960000D03*
X107300000Y-88460000D03*
X107300000Y-85960000D03*
X107300000Y-83460000D03*
X107300000Y-80960000D03*
X107300000Y-78460000D03*
X107300000Y-75960000D03*
X107300000Y-73460000D03*
X107300000Y-70960000D03*
X107300000Y-68460000D03*
X107300000Y-65960000D03*
X107300000Y-63460000D03*
X104800000Y-120960000D03*
X104800000Y-118460000D03*
X104800000Y-115960000D03*
X104800000Y-113460000D03*
X104800000Y-110960000D03*
X104800000Y-108460000D03*
X104800000Y-90960000D03*
X104800000Y-88460000D03*
X104800000Y-85960000D03*
X104800000Y-83460000D03*
X104800000Y-80960000D03*
X104800000Y-78460000D03*
X104800000Y-75960000D03*
X104800000Y-73460000D03*
X104800000Y-70960000D03*
X104800000Y-68460000D03*
X104800000Y-65960000D03*
X104800000Y-63460000D03*
X102300000Y-120960000D03*
X102300000Y-118460000D03*
X102300000Y-115960000D03*
X102300000Y-113460000D03*
X102300000Y-110960000D03*
X102300000Y-108460000D03*
X102300000Y-88460000D03*
X102300000Y-85960000D03*
X102300000Y-83460000D03*
X102300000Y-80960000D03*
X102300000Y-78460000D03*
X102300000Y-75960000D03*
X102300000Y-73460000D03*
X102300000Y-70960000D03*
X102300000Y-68460000D03*
X102300000Y-65960000D03*
X102300000Y-63460000D03*
X99800000Y-120960000D03*
X99800000Y-118460000D03*
X99800000Y-115960000D03*
X99800000Y-113460000D03*
X99800000Y-110960000D03*
X99800000Y-108460000D03*
X99800000Y-85960000D03*
X99800000Y-83460000D03*
X99800000Y-80960000D03*
X99800000Y-78460000D03*
X99800000Y-75960000D03*
X99800000Y-73460000D03*
X99800000Y-70960000D03*
X99800000Y-68460000D03*
X99800000Y-65960000D03*
X99800000Y-63460000D03*
X97300000Y-120960000D03*
X97300000Y-118460000D03*
X97300000Y-115960000D03*
X97300000Y-113460000D03*
X97300000Y-110960000D03*
X97300000Y-108460000D03*
X97300000Y-80960000D03*
X97300000Y-78460000D03*
X97300000Y-75960000D03*
X97300000Y-73460000D03*
X97300000Y-70960000D03*
X97300000Y-68460000D03*
X97300000Y-65960000D03*
X97300000Y-63460000D03*
X94800000Y-115960000D03*
X94800000Y-113460000D03*
X94800000Y-110960000D03*
X94800000Y-70960000D03*
X94800000Y-68460000D03*
X92300000Y-115960000D03*
X92300000Y-113460000D03*
X92300000Y-110960000D03*
X92300000Y-70960000D03*
X92300000Y-68460000D03*
X89800000Y-120960000D03*
X89800000Y-118460000D03*
X89800000Y-115960000D03*
X89800000Y-113460000D03*
X89800000Y-110960000D03*
X89800000Y-108460000D03*
X89800000Y-105960000D03*
X89800000Y-103460000D03*
X89800000Y-93460000D03*
X89800000Y-90960000D03*
X89800000Y-88460000D03*
X89800000Y-85960000D03*
X89800000Y-83460000D03*
X89800000Y-80960000D03*
X89800000Y-78460000D03*
X89800000Y-75960000D03*
X89800000Y-73460000D03*
X89800000Y-70960000D03*
X89800000Y-68460000D03*
X89800000Y-65960000D03*
X89800000Y-63460000D03*
X118145358Y-74840000D03*
X181810000Y-120550000D03*
X190270000Y-103325001D03*
X140709000Y-81205000D03*
X190180000Y-112955001D03*
%TO.N,+3.3V*%
X146739000Y-78855000D03*
X122035358Y-74450000D03*
X152370000Y-108940000D03*
X185890000Y-92720000D03*
X166945000Y-79534000D03*
X176800000Y-97550000D03*
X142829000Y-80365000D03*
X192980000Y-77820000D03*
X191230000Y-75130000D03*
X191250000Y-80570000D03*
%TO.N,Net-(C3-Pad2)*%
X145829000Y-81355000D03*
X142199000Y-76825000D03*
%TO.N,Net-(D1-A)*%
X181640000Y-115730000D03*
%TO.N,Net-(D2-A)*%
X179580000Y-115830000D03*
%TO.N,SDA*%
X182370000Y-103620003D03*
X192510000Y-94000000D03*
X178940000Y-102245000D03*
X196180000Y-94010000D03*
X185940000Y-103390000D03*
X159580000Y-72009000D03*
X135471000Y-72009000D03*
X148790000Y-72009000D03*
X178930000Y-103450000D03*
%TO.N,SCL*%
X184920000Y-102820000D03*
X160610000Y-72690000D03*
X135950000Y-72690000D03*
X135950000Y-72690000D03*
X182370000Y-102820000D03*
%TO.N,D+*%
X168110000Y-108460000D03*
%TO.N,D-*%
X167330000Y-108450000D03*
%TO.N,+5V_in*%
X189130000Y-104815001D03*
X189930000Y-111425001D03*
%TO.N,Net-(U1-IO16)*%
X90470000Y-95260000D03*
%TO.N,Net-(JP5-A)*%
X159548235Y-77341765D03*
X161700000Y-76980000D03*
%TD*%
D26*
%TO.N,SCL*%
X192420000Y-100620000D02*
X195420000Y-97620000D01*
D27*
%TO.N,GND*%
X185807500Y-95197500D02*
X185885000Y-95275000D01*
X183530000Y-95197500D02*
X185807500Y-95197500D01*
%TO.N,+3.3V*%
X185885000Y-92725000D02*
X185890000Y-92720000D01*
X152930000Y-107150000D02*
X152930000Y-108380000D01*
X184940000Y-77820000D02*
X191240000Y-77820000D01*
X184412500Y-94005000D02*
X183530000Y-93122500D01*
D26*
X191240000Y-80560000D02*
X191250000Y-80570000D01*
D27*
X185885000Y-94005000D02*
X185885000Y-92725000D01*
X152930000Y-108380000D02*
X152370000Y-108940000D01*
D26*
X191240000Y-75140000D02*
X191230000Y-75130000D01*
X191240000Y-77820000D02*
X192980000Y-77820000D01*
D27*
X182740000Y-77820000D02*
X182540000Y-78020000D01*
D26*
X176850000Y-99155000D02*
X176850000Y-97600000D01*
X191240000Y-77820000D02*
X191240000Y-80560000D01*
D27*
X185885000Y-94005000D02*
X184412500Y-94005000D01*
D26*
X191240000Y-77820000D02*
X191240000Y-75140000D01*
D27*
X184940000Y-77820000D02*
X182740000Y-77820000D01*
D26*
X176850000Y-97600000D02*
X176800000Y-97550000D01*
%TO.N,Net-(C3-Pad2)*%
X142199000Y-76825000D02*
X142199000Y-77725000D01*
X142199000Y-77725000D02*
X145829000Y-81355000D01*
%TO.N,Net-(D1-A)*%
X181640000Y-116830000D02*
X181740000Y-116930000D01*
X181640000Y-115730000D02*
X181640000Y-116830000D01*
%TO.N,Net-(D2-A)*%
X179580000Y-116885000D02*
X179600000Y-116905000D01*
X179580000Y-115830000D02*
X179580000Y-116885000D01*
%TO.N,SDA*%
X190835000Y-94005000D02*
X192505000Y-94005000D01*
X196180000Y-97500000D02*
X196180000Y-94010000D01*
X172110000Y-72009000D02*
X159580000Y-72009000D01*
X166192600Y-106099700D02*
X165630000Y-106662300D01*
X194726100Y-72009000D02*
X172110000Y-72009000D01*
X178940000Y-101255000D02*
X178960000Y-101235000D01*
X178900000Y-106099700D02*
X178900000Y-103480000D01*
X188309000Y-101021000D02*
X192659000Y-101021000D01*
X192505000Y-94005000D02*
X192510000Y-94000000D01*
X178900000Y-103480000D02*
X178930000Y-103450000D01*
X165630000Y-106662300D02*
X165630000Y-107150000D01*
X192659000Y-101021000D02*
X193140000Y-100540000D01*
X159580000Y-72009000D02*
X148790000Y-72009000D01*
X182370000Y-103620003D02*
X182370000Y-103650000D01*
X178900000Y-106099700D02*
X166192600Y-106099700D01*
X196180000Y-94010000D02*
X196180000Y-73462900D01*
X178940000Y-102245000D02*
X178940000Y-101255000D01*
X182370000Y-103650000D02*
X179920300Y-106099700D01*
X185940000Y-103390000D02*
X188309000Y-101021000D01*
X193140000Y-100540000D02*
X196180000Y-97500000D01*
X135471000Y-72009000D02*
X148790000Y-72009000D01*
X196180000Y-73462900D02*
X194726100Y-72009000D01*
X179920300Y-106099700D02*
X178900000Y-106099700D01*
%TO.N,SCL*%
X160610000Y-72690000D02*
X152170000Y-72690000D01*
X195420000Y-95290000D02*
X195420000Y-73270000D01*
X182345000Y-102845000D02*
X169420000Y-102845000D01*
X176850000Y-101205000D02*
X176850000Y-102839370D01*
X195420000Y-73270000D02*
X194840000Y-72690000D01*
X184920000Y-102820000D02*
X187120000Y-100620000D01*
X187120000Y-100620000D02*
X192420000Y-100620000D01*
X152170000Y-72690000D02*
X135950000Y-72690000D01*
X195405000Y-95275000D02*
X195420000Y-95290000D01*
X182370000Y-102820000D02*
X182345000Y-102845000D01*
X194840000Y-72690000D02*
X171120000Y-72690000D01*
X195420000Y-97620000D02*
X195420000Y-95290000D01*
X171120000Y-72690000D02*
X160610000Y-72690000D01*
X190835000Y-95275000D02*
X195405000Y-95275000D01*
D28*
%TO.N,D+*%
X168110000Y-108460000D02*
X168110000Y-107210000D01*
X168400000Y-107380000D02*
X168170000Y-107150000D01*
X168110000Y-107210000D02*
X168170000Y-107150000D01*
%TO.N,D-*%
X167130000Y-108250000D02*
X167130000Y-107380000D01*
X167130000Y-107380000D02*
X166900000Y-107150000D01*
X167330000Y-108450000D02*
X167130000Y-108250000D01*
D27*
%TO.N,+5V_out*%
X185885000Y-96545000D02*
X183975000Y-96545000D01*
X182815000Y-80120000D02*
X182540000Y-79845000D01*
X184940000Y-82660000D02*
X184940000Y-80120000D01*
X181910000Y-85690000D02*
X184940000Y-82660000D01*
X183975000Y-96545000D02*
X183560000Y-96960000D01*
X181910000Y-95310000D02*
X181910000Y-85690000D01*
X184940000Y-80120000D02*
X182815000Y-80120000D01*
X183560000Y-96960000D02*
X181910000Y-95310000D01*
%TO.N,+5V_in*%
X184705000Y-97815000D02*
X183560000Y-98960000D01*
X183560000Y-102880000D02*
X185495001Y-104815001D01*
X183560000Y-102880000D02*
X183560000Y-98960000D01*
X189130000Y-110625001D02*
X189130000Y-104815001D01*
X185495001Y-104815001D02*
X189130000Y-104815001D01*
X189930000Y-111425001D02*
X189130000Y-110625001D01*
X185885000Y-97815000D02*
X184705000Y-97815000D01*
D26*
%TO.N,Net-(U1-IO17)*%
X93500000Y-99570000D02*
X106471600Y-99570000D01*
X121363600Y-114462000D02*
X157838000Y-114462000D01*
X163090000Y-109210000D02*
X163090000Y-107150000D01*
X157838000Y-114462000D02*
X163090000Y-109210000D01*
X106471600Y-99570000D02*
X121363600Y-114462000D01*
%TO.N,Net-(U1-IO4)*%
X122360200Y-112056000D02*
X96730000Y-86425800D01*
X96730000Y-82480000D02*
X93500000Y-79250000D01*
X155470000Y-108520000D02*
X151934000Y-112056000D01*
X155470000Y-107150000D02*
X155470000Y-108520000D01*
X96730000Y-86425800D02*
X96730000Y-82480000D01*
X151934000Y-112056000D02*
X122360200Y-112056000D01*
%TO.N,Net-(U1-IO16)*%
X93500000Y-104650000D02*
X90470000Y-101620000D01*
X93500000Y-94490000D02*
X93600000Y-94390000D01*
X157209000Y-114061000D02*
X161820000Y-109450000D01*
X90470000Y-101620000D02*
X90470000Y-95260000D01*
X161820000Y-109450000D02*
X161820000Y-107150000D01*
X121529700Y-114061000D02*
X157209000Y-114061000D01*
X101858700Y-94390000D02*
X121529700Y-114061000D01*
X93600000Y-94390000D02*
X101858700Y-94390000D01*
%TO.N,Net-(U1-IO5)*%
X95490000Y-85752900D02*
X122194100Y-112457000D01*
X153423000Y-112457000D02*
X156740000Y-109140000D01*
X93500000Y-81790000D02*
X95490000Y-83780000D01*
X122194100Y-112457000D02*
X153423000Y-112457000D01*
X95490000Y-83780000D02*
X95490000Y-85752900D01*
X156740000Y-109140000D02*
X156740000Y-107150000D01*
%TO.N,Net-(U1-IO6)*%
X158010000Y-108970000D02*
X158010000Y-107150000D01*
X93500000Y-84330000D02*
X122028000Y-112858000D01*
X154122000Y-112858000D02*
X158010000Y-108970000D01*
X122028000Y-112858000D02*
X154122000Y-112858000D01*
%TO.N,Net-(U1-IO7)*%
X91270000Y-89100000D02*
X93500000Y-86870000D01*
X154761000Y-113259000D02*
X159280000Y-108740000D01*
X91270000Y-99880000D02*
X91270000Y-89100000D01*
X159280000Y-108740000D02*
X159280000Y-107150000D01*
X93500000Y-102110000D02*
X91270000Y-99880000D01*
X93500000Y-86870000D02*
X95472900Y-86870000D01*
X95472900Y-86870000D02*
X121861900Y-113259000D01*
X121861900Y-113259000D02*
X154761000Y-113259000D01*
%TO.N,Net-(U1-IO15)*%
X97445800Y-89410000D02*
X121695800Y-113660000D01*
X156230000Y-113660000D02*
X160550000Y-109340000D01*
X160550000Y-109340000D02*
X160550000Y-107150000D01*
X121695800Y-113660000D02*
X156230000Y-113660000D01*
X93500000Y-89410000D02*
X97445800Y-89410000D01*
%TO.N,Net-(U1-IO18)*%
X93500000Y-107190000D02*
X93540000Y-107150000D01*
X113484500Y-107150000D02*
X121197500Y-114863000D01*
X164360000Y-108940000D02*
X164360000Y-107150000D01*
X158437000Y-114863000D02*
X164360000Y-108940000D01*
X93540000Y-107150000D02*
X113484500Y-107150000D01*
X121197500Y-114863000D02*
X158437000Y-114863000D01*
%TO.N,Net-(JP5-A)*%
X159910000Y-76980000D02*
X159548235Y-77341765D01*
X161700000Y-76980000D02*
X159910000Y-76980000D01*
%TD*%
%TA.AperFunction,Conductor*%
%TO.N,GND*%
G36*
X106238542Y-100190185D02*
G01*
X106259184Y-100206819D01*
X112390184Y-106337819D01*
X112423669Y-106399142D01*
X112418685Y-106468834D01*
X112376813Y-106524767D01*
X112311349Y-106549184D01*
X112302503Y-106549500D01*
X94765337Y-106549500D01*
X94698298Y-106529815D01*
X94658471Y-106485793D01*
X94657592Y-106486332D01*
X94655057Y-106482196D01*
X94655051Y-106482184D01*
X94637631Y-106458207D01*
X94530109Y-106310213D01*
X94379786Y-106159890D01*
X94207820Y-106034951D01*
X94207115Y-106034591D01*
X94199054Y-106030485D01*
X94148259Y-105982512D01*
X94131463Y-105914692D01*
X94153999Y-105848556D01*
X94199054Y-105809515D01*
X94207816Y-105805051D01*
X94229789Y-105789086D01*
X94379786Y-105680109D01*
X94379788Y-105680106D01*
X94379792Y-105680104D01*
X94530104Y-105529792D01*
X94530106Y-105529788D01*
X94530109Y-105529786D01*
X94655048Y-105357820D01*
X94655047Y-105357820D01*
X94655051Y-105357816D01*
X94751557Y-105168412D01*
X94817246Y-104966243D01*
X94850500Y-104756287D01*
X94850500Y-104543713D01*
X94817246Y-104333757D01*
X94751557Y-104131588D01*
X94655051Y-103942184D01*
X94655049Y-103942181D01*
X94655048Y-103942179D01*
X94530109Y-103770213D01*
X94379786Y-103619890D01*
X94207820Y-103494951D01*
X94207115Y-103494591D01*
X94199054Y-103490485D01*
X94148259Y-103442512D01*
X94131463Y-103374692D01*
X94153999Y-103308556D01*
X94199054Y-103269515D01*
X94207816Y-103265051D01*
X94229789Y-103249086D01*
X94379786Y-103140109D01*
X94379788Y-103140106D01*
X94379792Y-103140104D01*
X94530104Y-102989792D01*
X94530106Y-102989788D01*
X94530109Y-102989786D01*
X94655048Y-102817820D01*
X94655047Y-102817820D01*
X94655051Y-102817816D01*
X94751557Y-102628412D01*
X94817246Y-102426243D01*
X94850500Y-102216287D01*
X94850500Y-102003713D01*
X94817246Y-101793757D01*
X94751557Y-101591588D01*
X94655051Y-101402184D01*
X94655049Y-101402181D01*
X94655048Y-101402179D01*
X94530109Y-101230213D01*
X94379786Y-101079890D01*
X94207820Y-100954951D01*
X94207115Y-100954591D01*
X94199054Y-100950485D01*
X94148259Y-100902512D01*
X94131463Y-100834692D01*
X94153999Y-100768556D01*
X94199054Y-100729515D01*
X94207816Y-100725051D01*
X94320291Y-100643334D01*
X94379786Y-100600109D01*
X94379788Y-100600106D01*
X94379792Y-100600104D01*
X94530104Y-100449792D01*
X94530106Y-100449788D01*
X94530109Y-100449786D01*
X94588661Y-100369193D01*
X94655051Y-100277816D01*
X94655349Y-100277230D01*
X94675235Y-100238205D01*
X94723209Y-100187409D01*
X94785719Y-100170500D01*
X106171503Y-100170500D01*
X106238542Y-100190185D01*
G37*
%TD.AperFunction*%
%TA.AperFunction,Conductor*%
G36*
X101625642Y-95010185D02*
G01*
X101646284Y-95026819D01*
X105377284Y-98757819D01*
X105410769Y-98819142D01*
X105405785Y-98888834D01*
X105363913Y-98944767D01*
X105298449Y-98969184D01*
X105289603Y-98969500D01*
X94785719Y-98969500D01*
X94718680Y-98949815D01*
X94675235Y-98901795D01*
X94655052Y-98862185D01*
X94655051Y-98862184D01*
X94530109Y-98690213D01*
X94379786Y-98539890D01*
X94207820Y-98414951D01*
X94207115Y-98414591D01*
X94199054Y-98410485D01*
X94148259Y-98362512D01*
X94131463Y-98294692D01*
X94153999Y-98228556D01*
X94199054Y-98189515D01*
X94207816Y-98185051D01*
X94262515Y-98145310D01*
X94379786Y-98060109D01*
X94379788Y-98060106D01*
X94379792Y-98060104D01*
X94530104Y-97909792D01*
X94530106Y-97909788D01*
X94530109Y-97909786D01*
X94655048Y-97737820D01*
X94655047Y-97737820D01*
X94655051Y-97737816D01*
X94751557Y-97548412D01*
X94817246Y-97346243D01*
X94850500Y-97136287D01*
X94850500Y-96923713D01*
X94817246Y-96713757D01*
X94751557Y-96511588D01*
X94655051Y-96322184D01*
X94655049Y-96322181D01*
X94655048Y-96322179D01*
X94530109Y-96150213D01*
X94379786Y-95999890D01*
X94207820Y-95874951D01*
X94207115Y-95874591D01*
X94199054Y-95870485D01*
X94148259Y-95822512D01*
X94131463Y-95754692D01*
X94153999Y-95688556D01*
X94199054Y-95649515D01*
X94207816Y-95645051D01*
X94244877Y-95618125D01*
X94379786Y-95520109D01*
X94379788Y-95520106D01*
X94379792Y-95520104D01*
X94530104Y-95369792D01*
X94530106Y-95369788D01*
X94530109Y-95369786D01*
X94655048Y-95197820D01*
X94655047Y-95197820D01*
X94655051Y-95197816D01*
X94726186Y-95058204D01*
X94774160Y-95007409D01*
X94836671Y-94990500D01*
X101558603Y-94990500D01*
X101625642Y-95010185D01*
G37*
%TD.AperFunction*%
%TA.AperFunction,Conductor*%
G36*
X97212742Y-90030185D02*
G01*
X97233384Y-90046819D01*
X100764384Y-93577819D01*
X100797869Y-93639142D01*
X100792885Y-93708834D01*
X100751013Y-93764767D01*
X100685549Y-93789184D01*
X100676703Y-93789500D01*
X94723547Y-93789500D01*
X94656508Y-93769815D01*
X94623230Y-93738385D01*
X94551126Y-93639142D01*
X94530107Y-93610211D01*
X94379786Y-93459890D01*
X94207820Y-93334951D01*
X94207115Y-93334591D01*
X94199054Y-93330485D01*
X94148259Y-93282512D01*
X94131463Y-93214692D01*
X94153999Y-93148556D01*
X94199054Y-93109515D01*
X94207816Y-93105051D01*
X94272436Y-93058102D01*
X94379786Y-92980109D01*
X94379788Y-92980106D01*
X94379792Y-92980104D01*
X94530104Y-92829792D01*
X94530106Y-92829788D01*
X94530109Y-92829786D01*
X94655048Y-92657820D01*
X94655047Y-92657820D01*
X94655051Y-92657816D01*
X94751557Y-92468412D01*
X94817246Y-92266243D01*
X94850500Y-92056287D01*
X94850500Y-91843713D01*
X94817246Y-91633757D01*
X94751557Y-91431588D01*
X94655051Y-91242184D01*
X94655049Y-91242181D01*
X94655048Y-91242179D01*
X94530109Y-91070213D01*
X94379786Y-90919890D01*
X94207820Y-90794951D01*
X94207115Y-90794591D01*
X94199054Y-90790485D01*
X94148259Y-90742512D01*
X94131463Y-90674692D01*
X94153999Y-90608556D01*
X94199054Y-90569515D01*
X94207816Y-90565051D01*
X94288159Y-90506679D01*
X94379786Y-90440109D01*
X94379788Y-90440106D01*
X94379792Y-90440104D01*
X94530104Y-90289792D01*
X94530106Y-90289788D01*
X94530109Y-90289786D01*
X94588661Y-90209193D01*
X94655051Y-90117816D01*
X94655349Y-90117230D01*
X94675235Y-90078205D01*
X94723209Y-90027409D01*
X94785719Y-90010500D01*
X97145703Y-90010500D01*
X97212742Y-90030185D01*
G37*
%TD.AperFunction*%
%TA.AperFunction,Conductor*%
G36*
X199232539Y-62152156D02*
G01*
X199278294Y-62204960D01*
X199289500Y-62256471D01*
X199289500Y-122315500D01*
X199269815Y-122382539D01*
X199217011Y-122428294D01*
X199165500Y-122439500D01*
X89076470Y-122439500D01*
X89009431Y-122419815D01*
X88963676Y-122367011D01*
X88952470Y-122315500D01*
X88952470Y-119282332D01*
X91709500Y-119282332D01*
X91709500Y-119557667D01*
X91709501Y-119557684D01*
X91745438Y-119830655D01*
X91745439Y-119830660D01*
X91745440Y-119830666D01*
X91774686Y-119939814D01*
X91816704Y-120096630D01*
X91922075Y-120351017D01*
X91922080Y-120351028D01*
X92001809Y-120489121D01*
X92059751Y-120589479D01*
X92059753Y-120589482D01*
X92059754Y-120589483D01*
X92227370Y-120807926D01*
X92227376Y-120807933D01*
X92422066Y-121002623D01*
X92422072Y-121002628D01*
X92640521Y-121170249D01*
X92793778Y-121258732D01*
X92878971Y-121307919D01*
X92878976Y-121307921D01*
X92878979Y-121307923D01*
X93133368Y-121413295D01*
X93399334Y-121484560D01*
X93672326Y-121520500D01*
X93672333Y-121520500D01*
X93947667Y-121520500D01*
X93947674Y-121520500D01*
X94220666Y-121484560D01*
X94486632Y-121413295D01*
X94741021Y-121307923D01*
X94979479Y-121170249D01*
X95197928Y-121002628D01*
X95392628Y-120807928D01*
X95560249Y-120589479D01*
X95697923Y-120351021D01*
X95803295Y-120096632D01*
X95874560Y-119830666D01*
X95910500Y-119557674D01*
X95910500Y-119282326D01*
X95874560Y-119009334D01*
X95803295Y-118743368D01*
X95697923Y-118488979D01*
X95697921Y-118488976D01*
X95697919Y-118488971D01*
X95647823Y-118402203D01*
X95560249Y-118250521D01*
X95392628Y-118032072D01*
X95392623Y-118032066D01*
X95197933Y-117837376D01*
X95197926Y-117837370D01*
X94979483Y-117669754D01*
X94979482Y-117669753D01*
X94979479Y-117669751D01*
X94857517Y-117599336D01*
X94741028Y-117532080D01*
X94741017Y-117532075D01*
X94486630Y-117426704D01*
X94353649Y-117391072D01*
X94220666Y-117355440D01*
X94220660Y-117355439D01*
X94220655Y-117355438D01*
X93947684Y-117319501D01*
X93947679Y-117319500D01*
X93947674Y-117319500D01*
X93672326Y-117319500D01*
X93672320Y-117319500D01*
X93672315Y-117319501D01*
X93399344Y-117355438D01*
X93399337Y-117355439D01*
X93399334Y-117355440D01*
X93343125Y-117370500D01*
X93133369Y-117426704D01*
X92878982Y-117532075D01*
X92878971Y-117532080D01*
X92640516Y-117669754D01*
X92422073Y-117837370D01*
X92422066Y-117837376D01*
X92227376Y-118032066D01*
X92227370Y-118032073D01*
X92059754Y-118250516D01*
X91922080Y-118488971D01*
X91922075Y-118488982D01*
X91816704Y-118743369D01*
X91745441Y-119009331D01*
X91745438Y-119009344D01*
X91709501Y-119282315D01*
X91709500Y-119282332D01*
X88952470Y-119282332D01*
X88952470Y-116504983D01*
X178399500Y-116504983D01*
X178399500Y-117305001D01*
X178399501Y-117305019D01*
X178410000Y-117407796D01*
X178410001Y-117407799D01*
X178418285Y-117432797D01*
X178465186Y-117574334D01*
X178537709Y-117691914D01*
X178557289Y-117723657D01*
X178650951Y-117817319D01*
X178684436Y-117878642D01*
X178679452Y-117948334D01*
X178650951Y-117992681D01*
X178557289Y-118086342D01*
X178465187Y-118235663D01*
X178465185Y-118235668D01*
X178456903Y-118260663D01*
X178410001Y-118402203D01*
X178410001Y-118402204D01*
X178410000Y-118402204D01*
X178399500Y-118504983D01*
X178399500Y-119305001D01*
X178399501Y-119305019D01*
X178410000Y-119407796D01*
X178410001Y-119407799D01*
X178418285Y-119432797D01*
X178465186Y-119574334D01*
X178557288Y-119723656D01*
X178681344Y-119847712D01*
X178830666Y-119939814D01*
X178997203Y-119994999D01*
X179099991Y-120005500D01*
X180100008Y-120005499D01*
X180100016Y-120005498D01*
X180100019Y-120005498D01*
X180156302Y-119999748D01*
X180202797Y-119994999D01*
X180369334Y-119939814D01*
X180518656Y-119847712D01*
X180569819Y-119796549D01*
X180631142Y-119763064D01*
X180700834Y-119768048D01*
X180745181Y-119796549D01*
X180821344Y-119872712D01*
X180970666Y-119964814D01*
X181137203Y-120019999D01*
X181239991Y-120030500D01*
X182240008Y-120030499D01*
X182240016Y-120030498D01*
X182240019Y-120030498D01*
X182296302Y-120024748D01*
X182342797Y-120019999D01*
X182509334Y-119964814D01*
X182658656Y-119872712D01*
X182782712Y-119748656D01*
X182874814Y-119599334D01*
X182929999Y-119432797D01*
X182940500Y-119330009D01*
X182940500Y-119282332D01*
X193649500Y-119282332D01*
X193649500Y-119557667D01*
X193649501Y-119557684D01*
X193685438Y-119830655D01*
X193685439Y-119830660D01*
X193685440Y-119830666D01*
X193714686Y-119939814D01*
X193756704Y-120096630D01*
X193862075Y-120351017D01*
X193862080Y-120351028D01*
X193941809Y-120489121D01*
X193999751Y-120589479D01*
X193999753Y-120589482D01*
X193999754Y-120589483D01*
X194167370Y-120807926D01*
X194167376Y-120807933D01*
X194362066Y-121002623D01*
X194362072Y-121002628D01*
X194580521Y-121170249D01*
X194733778Y-121258732D01*
X194818971Y-121307919D01*
X194818976Y-121307921D01*
X194818979Y-121307923D01*
X195073368Y-121413295D01*
X195339334Y-121484560D01*
X195612326Y-121520500D01*
X195612333Y-121520500D01*
X195887667Y-121520500D01*
X195887674Y-121520500D01*
X196160666Y-121484560D01*
X196426632Y-121413295D01*
X196681021Y-121307923D01*
X196919479Y-121170249D01*
X197137928Y-121002628D01*
X197332628Y-120807928D01*
X197500249Y-120589479D01*
X197637923Y-120351021D01*
X197743295Y-120096632D01*
X197814560Y-119830666D01*
X197850500Y-119557674D01*
X197850500Y-119282326D01*
X197814560Y-119009334D01*
X197743295Y-118743368D01*
X197637923Y-118488979D01*
X197637921Y-118488976D01*
X197637919Y-118488971D01*
X197587823Y-118402203D01*
X197500249Y-118250521D01*
X197332628Y-118032072D01*
X197332623Y-118032066D01*
X197137933Y-117837376D01*
X197137926Y-117837370D01*
X196919483Y-117669754D01*
X196919482Y-117669753D01*
X196919479Y-117669751D01*
X196797517Y-117599336D01*
X196681028Y-117532080D01*
X196681017Y-117532075D01*
X196426630Y-117426704D01*
X196293649Y-117391072D01*
X196160666Y-117355440D01*
X196160660Y-117355439D01*
X196160655Y-117355438D01*
X195887684Y-117319501D01*
X195887679Y-117319500D01*
X195887674Y-117319500D01*
X195612326Y-117319500D01*
X195612320Y-117319500D01*
X195612315Y-117319501D01*
X195339344Y-117355438D01*
X195339337Y-117355439D01*
X195339334Y-117355440D01*
X195283125Y-117370500D01*
X195073369Y-117426704D01*
X194818982Y-117532075D01*
X194818971Y-117532080D01*
X194580516Y-117669754D01*
X194362073Y-117837370D01*
X194362066Y-117837376D01*
X194167376Y-118032066D01*
X194167370Y-118032073D01*
X193999754Y-118250516D01*
X193862080Y-118488971D01*
X193862075Y-118488982D01*
X193756704Y-118743369D01*
X193685441Y-119009331D01*
X193685438Y-119009344D01*
X193649501Y-119282315D01*
X193649500Y-119282332D01*
X182940500Y-119282332D01*
X182940499Y-118529992D01*
X182936309Y-118488979D01*
X182929999Y-118427203D01*
X182929998Y-118427200D01*
X182874814Y-118260666D01*
X182782712Y-118111344D01*
X182689049Y-118017681D01*
X182655564Y-117956358D01*
X182660548Y-117886666D01*
X182689049Y-117842319D01*
X182714049Y-117817319D01*
X182782712Y-117748656D01*
X182874814Y-117599334D01*
X182929999Y-117432797D01*
X182940500Y-117330009D01*
X182940499Y-116529992D01*
X182929999Y-116427203D01*
X182874814Y-116260666D01*
X182782712Y-116111344D01*
X182658656Y-115987288D01*
X182509334Y-115895186D01*
X182509332Y-115895185D01*
X182503187Y-115891395D01*
X182504290Y-115889605D01*
X182459649Y-115850290D01*
X182440500Y-115784091D01*
X182440500Y-115651155D01*
X182440499Y-115651153D01*
X182409738Y-115496510D01*
X182409737Y-115496503D01*
X182396067Y-115463500D01*
X182349397Y-115350827D01*
X182349390Y-115350814D01*
X182261789Y-115219711D01*
X182261786Y-115219707D01*
X182150292Y-115108213D01*
X182150288Y-115108210D01*
X182019185Y-115020609D01*
X182019172Y-115020602D01*
X181873501Y-114960264D01*
X181873489Y-114960261D01*
X181718845Y-114929500D01*
X181718842Y-114929500D01*
X181561158Y-114929500D01*
X181561155Y-114929500D01*
X181406510Y-114960261D01*
X181406498Y-114960264D01*
X181260827Y-115020602D01*
X181260814Y-115020609D01*
X181129711Y-115108210D01*
X181129707Y-115108213D01*
X181018213Y-115219707D01*
X181018210Y-115219711D01*
X180930609Y-115350814D01*
X180930602Y-115350827D01*
X180870264Y-115496498D01*
X180870261Y-115496510D01*
X180839500Y-115651153D01*
X180839500Y-115651158D01*
X180839500Y-115808842D01*
X180839500Y-115808844D01*
X180839499Y-115808844D01*
X180853163Y-115877531D01*
X180852455Y-115885437D01*
X180855230Y-115892876D01*
X180849386Y-115919741D01*
X180846936Y-115947123D01*
X180841688Y-115955130D01*
X180840379Y-115961149D01*
X180819228Y-115989403D01*
X180770182Y-116038450D01*
X180708859Y-116071936D01*
X180639168Y-116066952D01*
X180594819Y-116038451D01*
X180518655Y-115962287D01*
X180439402Y-115913403D01*
X180392678Y-115861455D01*
X180380500Y-115807865D01*
X180380500Y-115751155D01*
X180380499Y-115751153D01*
X180349737Y-115596503D01*
X180308314Y-115496498D01*
X180289397Y-115450827D01*
X180289390Y-115450814D01*
X180201789Y-115319711D01*
X180201786Y-115319707D01*
X180090292Y-115208213D01*
X180090288Y-115208210D01*
X179959185Y-115120609D01*
X179959172Y-115120602D01*
X179813501Y-115060264D01*
X179813489Y-115060261D01*
X179658845Y-115029500D01*
X179658842Y-115029500D01*
X179501158Y-115029500D01*
X179501155Y-115029500D01*
X179346510Y-115060261D01*
X179346498Y-115060264D01*
X179200827Y-115120602D01*
X179200814Y-115120609D01*
X179069711Y-115208210D01*
X179069707Y-115208213D01*
X178958213Y-115319707D01*
X178958210Y-115319711D01*
X178870609Y-115450814D01*
X178870602Y-115450827D01*
X178810264Y-115596498D01*
X178810261Y-115596510D01*
X178779500Y-115751153D01*
X178779500Y-115832537D01*
X178759815Y-115899576D01*
X178720599Y-115938075D01*
X178681342Y-115962289D01*
X178557289Y-116086342D01*
X178465187Y-116235663D01*
X178465186Y-116235666D01*
X178410001Y-116402203D01*
X178410001Y-116402204D01*
X178410000Y-116402204D01*
X178399500Y-116504983D01*
X88952470Y-116504983D01*
X88952470Y-95181153D01*
X89669500Y-95181153D01*
X89669500Y-95338846D01*
X89700261Y-95493489D01*
X89700264Y-95493501D01*
X89760602Y-95639172D01*
X89760609Y-95639185D01*
X89829013Y-95741557D01*
X89844885Y-95765312D01*
X89848602Y-95770874D01*
X89869480Y-95837551D01*
X89869500Y-95839765D01*
X89869500Y-101533330D01*
X89869499Y-101533348D01*
X89869499Y-101699054D01*
X89869498Y-101699054D01*
X89869499Y-101699057D01*
X89910423Y-101851785D01*
X89910424Y-101851787D01*
X89910423Y-101851787D01*
X89918527Y-101865822D01*
X89918528Y-101865823D01*
X89989477Y-101988712D01*
X89989481Y-101988717D01*
X90108349Y-102107585D01*
X90108355Y-102107590D01*
X92166241Y-104165476D01*
X92199726Y-104226799D01*
X92196492Y-104291473D01*
X92182753Y-104333757D01*
X92149500Y-104543713D01*
X92149500Y-104756286D01*
X92171287Y-104893847D01*
X92182754Y-104966243D01*
X92232163Y-105118309D01*
X92248444Y-105168414D01*
X92344951Y-105357820D01*
X92469890Y-105529786D01*
X92620213Y-105680109D01*
X92792182Y-105805050D01*
X92800946Y-105809516D01*
X92851742Y-105857491D01*
X92868536Y-105925312D01*
X92845998Y-105991447D01*
X92800946Y-106030484D01*
X92792182Y-106034949D01*
X92620213Y-106159890D01*
X92469890Y-106310213D01*
X92344951Y-106482179D01*
X92248444Y-106671585D01*
X92182753Y-106873760D01*
X92149500Y-107083713D01*
X92149500Y-107296286D01*
X92182753Y-107506239D01*
X92248444Y-107708414D01*
X92344951Y-107897820D01*
X92469890Y-108069786D01*
X92620213Y-108220109D01*
X92792179Y-108345048D01*
X92792181Y-108345049D01*
X92792184Y-108345051D01*
X92981588Y-108441557D01*
X93183757Y-108507246D01*
X93393713Y-108540500D01*
X93393714Y-108540500D01*
X93606286Y-108540500D01*
X93606287Y-108540500D01*
X93816243Y-108507246D01*
X94018412Y-108441557D01*
X94207816Y-108345051D01*
X94244758Y-108318211D01*
X94379786Y-108220109D01*
X94379788Y-108220106D01*
X94379792Y-108220104D01*
X94530104Y-108069792D01*
X94530106Y-108069788D01*
X94530109Y-108069786D01*
X94619192Y-107947172D01*
X94655051Y-107897816D01*
X94695615Y-107818205D01*
X94743590Y-107767409D01*
X94806100Y-107750500D01*
X113184403Y-107750500D01*
X113251442Y-107770185D01*
X113272084Y-107786819D01*
X120712639Y-115227374D01*
X120712649Y-115227385D01*
X120716979Y-115231715D01*
X120716980Y-115231716D01*
X120828784Y-115343520D01*
X120915595Y-115393639D01*
X120915597Y-115393641D01*
X120965713Y-115422576D01*
X120965715Y-115422577D01*
X121118442Y-115463500D01*
X121118443Y-115463500D01*
X158350331Y-115463500D01*
X158350347Y-115463501D01*
X158357943Y-115463501D01*
X158516054Y-115463501D01*
X158516057Y-115463501D01*
X158668785Y-115422577D01*
X158718904Y-115393639D01*
X158805716Y-115343520D01*
X158917520Y-115231716D01*
X158917520Y-115231714D01*
X158927728Y-115221507D01*
X158927730Y-115221504D01*
X161694865Y-112454369D01*
X191052501Y-112454369D01*
X191052501Y-112650534D01*
X191090767Y-112842908D01*
X191090769Y-112842916D01*
X191165833Y-113024136D01*
X191165838Y-113024146D01*
X191274812Y-113187236D01*
X191274815Y-113187240D01*
X191413512Y-113325937D01*
X191413516Y-113325940D01*
X191576606Y-113434914D01*
X191576610Y-113434916D01*
X191576613Y-113434918D01*
X191757837Y-113509984D01*
X191950218Y-113548251D01*
X191950221Y-113548252D01*
X191950223Y-113548252D01*
X193263981Y-113548252D01*
X193263982Y-113548251D01*
X193456365Y-113509984D01*
X193637589Y-113434918D01*
X193800686Y-113325940D01*
X193939389Y-113187237D01*
X194048367Y-113024140D01*
X194123433Y-112842916D01*
X194161701Y-112650530D01*
X194161701Y-112454374D01*
X194161701Y-112454371D01*
X194161700Y-112454369D01*
X195232500Y-112454369D01*
X195232500Y-112650534D01*
X195270766Y-112842908D01*
X195270768Y-112842916D01*
X195345832Y-113024136D01*
X195345837Y-113024146D01*
X195454811Y-113187236D01*
X195454814Y-113187240D01*
X195593511Y-113325937D01*
X195593515Y-113325940D01*
X195756605Y-113434914D01*
X195756609Y-113434916D01*
X195756612Y-113434918D01*
X195937836Y-113509984D01*
X196130217Y-113548251D01*
X196130220Y-113548252D01*
X196130222Y-113548252D01*
X197443980Y-113548252D01*
X197443981Y-113548251D01*
X197636364Y-113509984D01*
X197817588Y-113434918D01*
X197980685Y-113325940D01*
X198119388Y-113187237D01*
X198228366Y-113024140D01*
X198303432Y-112842916D01*
X198341700Y-112650530D01*
X198341700Y-112454374D01*
X198341700Y-112454371D01*
X198341699Y-112454369D01*
X198303433Y-112261995D01*
X198303432Y-112261988D01*
X198228366Y-112080764D01*
X198228364Y-112080761D01*
X198228362Y-112080757D01*
X198119388Y-111917667D01*
X198119385Y-111917663D01*
X197980688Y-111778966D01*
X197980684Y-111778963D01*
X197817594Y-111669989D01*
X197817584Y-111669984D01*
X197636364Y-111594920D01*
X197636356Y-111594918D01*
X197443981Y-111556652D01*
X197443978Y-111556652D01*
X196130222Y-111556652D01*
X196130219Y-111556652D01*
X195937843Y-111594918D01*
X195937835Y-111594920D01*
X195756615Y-111669984D01*
X195756605Y-111669989D01*
X195593515Y-111778963D01*
X195593511Y-111778966D01*
X195454814Y-111917663D01*
X195454811Y-111917667D01*
X195345837Y-112080757D01*
X195345832Y-112080767D01*
X195270768Y-112261987D01*
X195270766Y-112261995D01*
X195232500Y-112454369D01*
X194161700Y-112454369D01*
X194123434Y-112261995D01*
X194123433Y-112261988D01*
X194048367Y-112080764D01*
X194048365Y-112080761D01*
X194048363Y-112080757D01*
X193939389Y-111917667D01*
X193939386Y-111917663D01*
X193800689Y-111778966D01*
X193800685Y-111778963D01*
X193637595Y-111669989D01*
X193637588Y-111669985D01*
X193629975Y-111666832D01*
X193625748Y-111665081D01*
X193571345Y-111621242D01*
X193549279Y-111554948D01*
X193566557Y-111487248D01*
X193569691Y-111482618D01*
X193571776Y-111479007D01*
X193648226Y-111346591D01*
X193687800Y-111198900D01*
X193687800Y-111045998D01*
X193648226Y-110898307D01*
X193571776Y-110765891D01*
X193463658Y-110657773D01*
X193463657Y-110657772D01*
X193463654Y-110657770D01*
X193331244Y-110581324D01*
X193331243Y-110581323D01*
X193294319Y-110571429D01*
X193183551Y-110541749D01*
X193030649Y-110541749D01*
X192942034Y-110565493D01*
X192882956Y-110581323D01*
X192882955Y-110581324D01*
X192750545Y-110657770D01*
X192750540Y-110657774D01*
X192642425Y-110765889D01*
X192642421Y-110765894D01*
X192565975Y-110898304D01*
X192565974Y-110898305D01*
X192546187Y-110972152D01*
X192526400Y-111045998D01*
X192526400Y-111198900D01*
X192556080Y-111309668D01*
X192565974Y-111346592D01*
X192565976Y-111346595D01*
X192579866Y-111370654D01*
X192596337Y-111438554D01*
X192573484Y-111504581D01*
X192518562Y-111547770D01*
X192472478Y-111556652D01*
X191950220Y-111556652D01*
X191757844Y-111594918D01*
X191757836Y-111594920D01*
X191576616Y-111669984D01*
X191576606Y-111669989D01*
X191413516Y-111778963D01*
X191413512Y-111778966D01*
X191274815Y-111917663D01*
X191274812Y-111917667D01*
X191165838Y-112080757D01*
X191165833Y-112080767D01*
X191090769Y-112261987D01*
X191090767Y-112261995D01*
X191052501Y-112454369D01*
X161694865Y-112454369D01*
X164718506Y-109430728D01*
X164718511Y-109430724D01*
X164728714Y-109420520D01*
X164728716Y-109420520D01*
X164840520Y-109308716D01*
X164902257Y-109201784D01*
X164902558Y-109201264D01*
X164918587Y-109173500D01*
X164919577Y-109171785D01*
X164960501Y-109019057D01*
X164960501Y-108860943D01*
X164960501Y-108853348D01*
X164960500Y-108853330D01*
X164960500Y-108513335D01*
X164980185Y-108446296D01*
X165032989Y-108400541D01*
X165102147Y-108390597D01*
X165113012Y-108392657D01*
X165116110Y-108393388D01*
X165116117Y-108393391D01*
X165175727Y-108399800D01*
X166084272Y-108399799D01*
X166143883Y-108393391D01*
X166221665Y-108364379D01*
X166243107Y-108362846D01*
X166263673Y-108356568D01*
X166283180Y-108359979D01*
X166291356Y-108359395D01*
X166298660Y-108361217D01*
X166303559Y-108362599D01*
X166386117Y-108393391D01*
X166429128Y-108398015D01*
X166439161Y-108400845D01*
X166460274Y-108414097D01*
X166483306Y-108423637D01*
X166489356Y-108432350D01*
X166498339Y-108437989D01*
X166508935Y-108460550D01*
X166523154Y-108481029D01*
X166525577Y-108495983D01*
X166528042Y-108501231D01*
X166527314Y-108506704D01*
X166529500Y-108520189D01*
X166529500Y-108528846D01*
X166560261Y-108683489D01*
X166560264Y-108683501D01*
X166620602Y-108829172D01*
X166620609Y-108829185D01*
X166708210Y-108960288D01*
X166708213Y-108960292D01*
X166819707Y-109071786D01*
X166819711Y-109071789D01*
X166950814Y-109159390D01*
X166950827Y-109159397D01*
X167053160Y-109201784D01*
X167096503Y-109219737D01*
X167251153Y-109250499D01*
X167251156Y-109250500D01*
X167251158Y-109250500D01*
X167408844Y-109250500D01*
X167408845Y-109250499D01*
X167563497Y-109219737D01*
X167660477Y-109179566D01*
X167729944Y-109172098D01*
X167755380Y-109179567D01*
X167852363Y-109219738D01*
X167876503Y-109229737D01*
X168031153Y-109260499D01*
X168031156Y-109260500D01*
X168031158Y-109260500D01*
X168188844Y-109260500D01*
X168188845Y-109260499D01*
X168343497Y-109229737D01*
X168479266Y-109173500D01*
X168489172Y-109169397D01*
X168489172Y-109169396D01*
X168489179Y-109169394D01*
X168620289Y-109081789D01*
X168731789Y-108970289D01*
X168819394Y-108839179D01*
X168879737Y-108693497D01*
X168910500Y-108538842D01*
X168910500Y-108381158D01*
X168906674Y-108361923D01*
X168912900Y-108292332D01*
X168929025Y-108263420D01*
X169020193Y-108141635D01*
X169020192Y-108141635D01*
X169020196Y-108141631D01*
X169070491Y-108006783D01*
X169076900Y-107947173D01*
X169076899Y-106824199D01*
X169096584Y-106757161D01*
X169149387Y-106711406D01*
X169200899Y-106700200D01*
X178820943Y-106700200D01*
X179833631Y-106700200D01*
X179833647Y-106700201D01*
X179841243Y-106700201D01*
X179999354Y-106700201D01*
X179999357Y-106700201D01*
X180152085Y-106659277D01*
X180202204Y-106630339D01*
X180289016Y-106580220D01*
X180400820Y-106468416D01*
X180400820Y-106468414D01*
X180411028Y-106458207D01*
X180411029Y-106458204D01*
X182422108Y-104447126D01*
X182483429Y-104413643D01*
X182485582Y-104413194D01*
X182603497Y-104389740D01*
X182749179Y-104329397D01*
X182880289Y-104241792D01*
X182991789Y-104130292D01*
X183079394Y-103999182D01*
X183086241Y-103982653D01*
X183120355Y-103900292D01*
X183139737Y-103853500D01*
X183170500Y-103698845D01*
X183170500Y-103698835D01*
X183170659Y-103697225D01*
X183170982Y-103696424D01*
X183171689Y-103692871D01*
X183172362Y-103693005D01*
X183196816Y-103632436D01*
X183253848Y-103592073D01*
X183323648Y-103588952D01*
X183381744Y-103621690D01*
X185080326Y-105320273D01*
X185080333Y-105320279D01*
X185186864Y-105391460D01*
X185186868Y-105391462D01*
X185186875Y-105391467D01*
X185253110Y-105418902D01*
X185253111Y-105418902D01*
X185253112Y-105418903D01*
X185305252Y-105440500D01*
X185305257Y-105440502D01*
X185305261Y-105440502D01*
X185305262Y-105440503D01*
X185430929Y-105465501D01*
X185430932Y-105465501D01*
X188355500Y-105465501D01*
X188422539Y-105485186D01*
X188468294Y-105537990D01*
X188479500Y-105589501D01*
X188479500Y-110689072D01*
X188484779Y-110715610D01*
X188502205Y-110803212D01*
X188504499Y-110814745D01*
X188504500Y-110814747D01*
X188553534Y-110933126D01*
X188624726Y-111039674D01*
X188624727Y-111039675D01*
X189112984Y-111527931D01*
X189146469Y-111589254D01*
X189146920Y-111591421D01*
X189160261Y-111658490D01*
X189160264Y-111658502D01*
X189220602Y-111804173D01*
X189220609Y-111804186D01*
X189308210Y-111935289D01*
X189308213Y-111935293D01*
X189419707Y-112046787D01*
X189419711Y-112046790D01*
X189550814Y-112134391D01*
X189550827Y-112134398D01*
X189696498Y-112194736D01*
X189696503Y-112194738D01*
X189851153Y-112225500D01*
X189851156Y-112225501D01*
X189851158Y-112225501D01*
X190008844Y-112225501D01*
X190008845Y-112225500D01*
X190163497Y-112194738D01*
X190309179Y-112134395D01*
X190440289Y-112046790D01*
X190551789Y-111935290D01*
X190639394Y-111804180D01*
X190699737Y-111658498D01*
X190730500Y-111503843D01*
X190730500Y-111346159D01*
X190730500Y-111346156D01*
X190730499Y-111346154D01*
X190701208Y-111198900D01*
X190699737Y-111191504D01*
X190639467Y-111045998D01*
X190639397Y-111045828D01*
X190639390Y-111045815D01*
X190551789Y-110914712D01*
X190551786Y-110914708D01*
X190440292Y-110803214D01*
X190440288Y-110803211D01*
X190309185Y-110715610D01*
X190309172Y-110715603D01*
X190163501Y-110655265D01*
X190163489Y-110655262D01*
X190096420Y-110641921D01*
X190034509Y-110609536D01*
X190032930Y-110607985D01*
X189816819Y-110391874D01*
X189783334Y-110330551D01*
X189780500Y-110304193D01*
X189780500Y-105319936D01*
X189800185Y-105252897D01*
X189801366Y-105251091D01*
X189839394Y-105194180D01*
X189899737Y-105048498D01*
X189930500Y-104893843D01*
X189930500Y-104736159D01*
X189930500Y-104736156D01*
X189930499Y-104736154D01*
X189909161Y-104628882D01*
X189899737Y-104581504D01*
X189884084Y-104543713D01*
X189839397Y-104435828D01*
X189839390Y-104435815D01*
X189751789Y-104304712D01*
X189751786Y-104304708D01*
X189640292Y-104193214D01*
X189640288Y-104193211D01*
X189509185Y-104105610D01*
X189509172Y-104105603D01*
X189363501Y-104045265D01*
X189363489Y-104045262D01*
X189208845Y-104014501D01*
X189208842Y-104014501D01*
X189051158Y-104014501D01*
X189051155Y-104014501D01*
X188896510Y-104045262D01*
X188896498Y-104045265D01*
X188750827Y-104105603D01*
X188750820Y-104105607D01*
X188721928Y-104124912D01*
X188693955Y-104143603D01*
X188627279Y-104164481D01*
X188625065Y-104164501D01*
X186596940Y-104164501D01*
X186529901Y-104144816D01*
X186484146Y-104092012D01*
X186474202Y-104022854D01*
X186503227Y-103959298D01*
X186509259Y-103952820D01*
X186561786Y-103900292D01*
X186561789Y-103900289D01*
X186619202Y-103814365D01*
X191052501Y-103814365D01*
X191052501Y-104010530D01*
X191090767Y-104202904D01*
X191090769Y-104202912D01*
X191165833Y-104384132D01*
X191165838Y-104384142D01*
X191274812Y-104547232D01*
X191274815Y-104547236D01*
X191413512Y-104685933D01*
X191413516Y-104685936D01*
X191576606Y-104794910D01*
X191576610Y-104794912D01*
X191576613Y-104794914D01*
X191757837Y-104869980D01*
X191950218Y-104908247D01*
X191950221Y-104908248D01*
X191950223Y-104908248D01*
X192472478Y-104908248D01*
X192539517Y-104927933D01*
X192585272Y-104980737D01*
X192595216Y-105049895D01*
X192579866Y-105094246D01*
X192565976Y-105118304D01*
X192565974Y-105118307D01*
X192552549Y-105168412D01*
X192526400Y-105266000D01*
X192526400Y-105418902D01*
X192546005Y-105492069D01*
X192565974Y-105566594D01*
X192565975Y-105566595D01*
X192642421Y-105699005D01*
X192642423Y-105699008D01*
X192642424Y-105699009D01*
X192750542Y-105807127D01*
X192750543Y-105807128D01*
X192750545Y-105807129D01*
X192816750Y-105845352D01*
X192882958Y-105883577D01*
X193030649Y-105923151D01*
X193030652Y-105923151D01*
X193183548Y-105923151D01*
X193183551Y-105923151D01*
X193331242Y-105883577D01*
X193463658Y-105807127D01*
X193571776Y-105699009D01*
X193648226Y-105566593D01*
X193687800Y-105418902D01*
X193687800Y-105266000D01*
X193648226Y-105118309D01*
X193571776Y-104985893D01*
X193567713Y-104978855D01*
X193570050Y-104977505D01*
X193549632Y-104924724D01*
X193563656Y-104856277D01*
X193612458Y-104806276D01*
X193625744Y-104799820D01*
X193637589Y-104794914D01*
X193800686Y-104685936D01*
X193939389Y-104547233D01*
X194048367Y-104384136D01*
X194123433Y-104202912D01*
X194161701Y-104010526D01*
X194161701Y-103814370D01*
X194161701Y-103814367D01*
X194161700Y-103814365D01*
X195384900Y-103814365D01*
X195384900Y-104010530D01*
X195423166Y-104202904D01*
X195423168Y-104202912D01*
X195498232Y-104384132D01*
X195498237Y-104384142D01*
X195607211Y-104547232D01*
X195607214Y-104547236D01*
X195745911Y-104685933D01*
X195745915Y-104685936D01*
X195909005Y-104794910D01*
X195909009Y-104794912D01*
X195909012Y-104794914D01*
X196090236Y-104869980D01*
X196282617Y-104908247D01*
X196282620Y-104908248D01*
X196282622Y-104908248D01*
X197291580Y-104908248D01*
X197291581Y-104908247D01*
X197483964Y-104869980D01*
X197665188Y-104794914D01*
X197828285Y-104685936D01*
X197966988Y-104547233D01*
X198075966Y-104384136D01*
X198151032Y-104202912D01*
X198189300Y-104010526D01*
X198189300Y-103814370D01*
X198189300Y-103814367D01*
X198189299Y-103814365D01*
X198166323Y-103698856D01*
X198151032Y-103621984D01*
X198075966Y-103440760D01*
X198075964Y-103440757D01*
X198075962Y-103440753D01*
X197966988Y-103277663D01*
X197966985Y-103277659D01*
X197828288Y-103138962D01*
X197828284Y-103138959D01*
X197665194Y-103029985D01*
X197665184Y-103029980D01*
X197483964Y-102954916D01*
X197483956Y-102954914D01*
X197291581Y-102916648D01*
X197291578Y-102916648D01*
X196282622Y-102916648D01*
X196282619Y-102916648D01*
X196090243Y-102954914D01*
X196090235Y-102954916D01*
X195909015Y-103029980D01*
X195909005Y-103029985D01*
X195745915Y-103138959D01*
X195745911Y-103138962D01*
X195607214Y-103277659D01*
X195607211Y-103277663D01*
X195498237Y-103440753D01*
X195498232Y-103440763D01*
X195423168Y-103621983D01*
X195423166Y-103621991D01*
X195384900Y-103814365D01*
X194161700Y-103814365D01*
X194138724Y-103698856D01*
X194123433Y-103621984D01*
X194048367Y-103440760D01*
X194048365Y-103440757D01*
X194048363Y-103440753D01*
X193939389Y-103277663D01*
X193939386Y-103277659D01*
X193800689Y-103138962D01*
X193800685Y-103138959D01*
X193637595Y-103029985D01*
X193637585Y-103029980D01*
X193456365Y-102954916D01*
X193456357Y-102954914D01*
X193263982Y-102916648D01*
X193263979Y-102916648D01*
X191950223Y-102916648D01*
X191950220Y-102916648D01*
X191757844Y-102954914D01*
X191757836Y-102954916D01*
X191576616Y-103029980D01*
X191576606Y-103029985D01*
X191413516Y-103138959D01*
X191413512Y-103138962D01*
X191274815Y-103277659D01*
X191274812Y-103277663D01*
X191165838Y-103440753D01*
X191165833Y-103440763D01*
X191090769Y-103621983D01*
X191090767Y-103621991D01*
X191052501Y-103814365D01*
X186619202Y-103814365D01*
X186649394Y-103769179D01*
X186709737Y-103623497D01*
X186738281Y-103480000D01*
X186740638Y-103468150D01*
X186773023Y-103406239D01*
X186774518Y-103404716D01*
X188521416Y-101657819D01*
X188582739Y-101624334D01*
X188609097Y-101621500D01*
X192572331Y-101621500D01*
X192572347Y-101621501D01*
X192579943Y-101621501D01*
X192738054Y-101621501D01*
X192738057Y-101621501D01*
X192890785Y-101580577D01*
X192940904Y-101551639D01*
X193027716Y-101501520D01*
X193139520Y-101389716D01*
X193139521Y-101389714D01*
X193620520Y-100908716D01*
X193620520Y-100908714D01*
X193630724Y-100898511D01*
X193630728Y-100898506D01*
X196538506Y-97990728D01*
X196538511Y-97990724D01*
X196548714Y-97980520D01*
X196548716Y-97980520D01*
X196660520Y-97868716D01*
X196728523Y-97750931D01*
X196739577Y-97731785D01*
X196780500Y-97579058D01*
X196780500Y-97420943D01*
X196780500Y-94589765D01*
X196800185Y-94522726D01*
X196801398Y-94520874D01*
X196889390Y-94389185D01*
X196889390Y-94389184D01*
X196889394Y-94389179D01*
X196949737Y-94243497D01*
X196980500Y-94088842D01*
X196980500Y-93931158D01*
X196980500Y-93931155D01*
X196980499Y-93931153D01*
X196952285Y-93789313D01*
X196949737Y-93776503D01*
X196892841Y-93639142D01*
X196889397Y-93630827D01*
X196889390Y-93630814D01*
X196801398Y-93499125D01*
X196780520Y-93432447D01*
X196780500Y-93430234D01*
X196780500Y-73383845D01*
X196780500Y-73383843D01*
X196739577Y-73231116D01*
X196739577Y-73231115D01*
X196666573Y-73104669D01*
X196660520Y-73094184D01*
X196548716Y-72982380D01*
X196548715Y-72982379D01*
X196544385Y-72978049D01*
X196544374Y-72978039D01*
X195213690Y-71647355D01*
X195213688Y-71647352D01*
X195094817Y-71528481D01*
X195094816Y-71528480D01*
X195008004Y-71478360D01*
X195008004Y-71478359D01*
X195008000Y-71478358D01*
X194957885Y-71449423D01*
X194805157Y-71408499D01*
X194647043Y-71408499D01*
X194639447Y-71408499D01*
X194639431Y-71408500D01*
X160159766Y-71408500D01*
X160092727Y-71388815D01*
X160090875Y-71387602D01*
X159959185Y-71299609D01*
X159959172Y-71299602D01*
X159813501Y-71239264D01*
X159813489Y-71239261D01*
X159658845Y-71208500D01*
X159658842Y-71208500D01*
X159501158Y-71208500D01*
X159501155Y-71208500D01*
X159346510Y-71239261D01*
X159346498Y-71239264D01*
X159200827Y-71299602D01*
X159200814Y-71299609D01*
X159069125Y-71387602D01*
X159002447Y-71408480D01*
X159000234Y-71408500D01*
X149369766Y-71408500D01*
X149302727Y-71388815D01*
X149300875Y-71387602D01*
X149169185Y-71299609D01*
X149169172Y-71299602D01*
X149023501Y-71239264D01*
X149023489Y-71239261D01*
X148868845Y-71208500D01*
X148868842Y-71208500D01*
X148711158Y-71208500D01*
X148711155Y-71208500D01*
X148556510Y-71239261D01*
X148556498Y-71239264D01*
X148410827Y-71299602D01*
X148410814Y-71299609D01*
X148279125Y-71387602D01*
X148212447Y-71408480D01*
X148210234Y-71408500D01*
X136050766Y-71408500D01*
X135983727Y-71388815D01*
X135981875Y-71387602D01*
X135850185Y-71299609D01*
X135850172Y-71299602D01*
X135704501Y-71239264D01*
X135704489Y-71239261D01*
X135549845Y-71208500D01*
X135549842Y-71208500D01*
X135392158Y-71208500D01*
X135392155Y-71208500D01*
X135237510Y-71239261D01*
X135237498Y-71239264D01*
X135091827Y-71299602D01*
X135091814Y-71299609D01*
X134960711Y-71387210D01*
X134960707Y-71387213D01*
X134849213Y-71498707D01*
X134849210Y-71498711D01*
X134761609Y-71629814D01*
X134761602Y-71629827D01*
X134701264Y-71775498D01*
X134701261Y-71775510D01*
X134670500Y-71930153D01*
X134670500Y-72087846D01*
X134701261Y-72242489D01*
X134701264Y-72242501D01*
X134761602Y-72388172D01*
X134761609Y-72388185D01*
X134849210Y-72519288D01*
X134849213Y-72519292D01*
X134960707Y-72630786D01*
X134960711Y-72630789D01*
X135091808Y-72718386D01*
X135091813Y-72718388D01*
X135091821Y-72718394D01*
X135091829Y-72718397D01*
X135093395Y-72719234D01*
X135094071Y-72719898D01*
X135096886Y-72721779D01*
X135096529Y-72722312D01*
X135143246Y-72768190D01*
X135156574Y-72804409D01*
X135180261Y-72923491D01*
X135180264Y-72923501D01*
X135240602Y-73069172D01*
X135240609Y-73069185D01*
X135328210Y-73200288D01*
X135328213Y-73200292D01*
X135439707Y-73311786D01*
X135439711Y-73311789D01*
X135570814Y-73399390D01*
X135570827Y-73399397D01*
X135716498Y-73459735D01*
X135716503Y-73459737D01*
X135871153Y-73490499D01*
X135871156Y-73490500D01*
X135871158Y-73490500D01*
X136028844Y-73490500D01*
X136028845Y-73490499D01*
X136183497Y-73459737D01*
X136329179Y-73399394D01*
X136352453Y-73383843D01*
X136460875Y-73311398D01*
X136527553Y-73290520D01*
X136529766Y-73290500D01*
X152090943Y-73290500D01*
X160030234Y-73290500D01*
X160097273Y-73310185D01*
X160099125Y-73311398D01*
X160230814Y-73399390D01*
X160230827Y-73399397D01*
X160376498Y-73459735D01*
X160376503Y-73459737D01*
X160531153Y-73490499D01*
X160531156Y-73490500D01*
X160531158Y-73490500D01*
X160688844Y-73490500D01*
X160688845Y-73490499D01*
X160843497Y-73459737D01*
X160989179Y-73399394D01*
X161012453Y-73383843D01*
X161120875Y-73311398D01*
X161187553Y-73290520D01*
X161189766Y-73290500D01*
X171040943Y-73290500D01*
X194539903Y-73290500D01*
X194569343Y-73299144D01*
X194599330Y-73305668D01*
X194604345Y-73309422D01*
X194606942Y-73310185D01*
X194627584Y-73326819D01*
X194783181Y-73482416D01*
X194816666Y-73543739D01*
X194819500Y-73570097D01*
X194819500Y-94550500D01*
X194799815Y-94617539D01*
X194747011Y-94663294D01*
X194695500Y-94674500D01*
X193254055Y-94674500D01*
X193187016Y-94654815D01*
X193141261Y-94602011D01*
X193131317Y-94532853D01*
X193150953Y-94481609D01*
X193219390Y-94379185D01*
X193219390Y-94379184D01*
X193219394Y-94379179D01*
X193279737Y-94233497D01*
X193310500Y-94078842D01*
X193310500Y-93921158D01*
X193310500Y-93921155D01*
X193310499Y-93921153D01*
X193284274Y-93789313D01*
X193279737Y-93766503D01*
X193223539Y-93630827D01*
X193219397Y-93620827D01*
X193219390Y-93620814D01*
X193131789Y-93489711D01*
X193131786Y-93489707D01*
X193020292Y-93378213D01*
X193020288Y-93378210D01*
X192889185Y-93290609D01*
X192889172Y-93290602D01*
X192743501Y-93230264D01*
X192743489Y-93230261D01*
X192588845Y-93199500D01*
X192588842Y-93199500D01*
X192431158Y-93199500D01*
X192431155Y-93199500D01*
X192276510Y-93230261D01*
X192276498Y-93230264D01*
X192130828Y-93290602D01*
X192130816Y-93290609D01*
X192126536Y-93293469D01*
X192059858Y-93314344D01*
X191994528Y-93297096D01*
X191976810Y-93286618D01*
X191920398Y-93253256D01*
X191920397Y-93253255D01*
X191920396Y-93253255D01*
X191920393Y-93253254D01*
X191762573Y-93207402D01*
X191762567Y-93207401D01*
X191725701Y-93204500D01*
X191725694Y-93204500D01*
X189944306Y-93204500D01*
X189944298Y-93204500D01*
X189907432Y-93207401D01*
X189907426Y-93207402D01*
X189749606Y-93253254D01*
X189749603Y-93253255D01*
X189608137Y-93336917D01*
X189608129Y-93336923D01*
X189491923Y-93453129D01*
X189491917Y-93453137D01*
X189408255Y-93594603D01*
X189408254Y-93594606D01*
X189362402Y-93752426D01*
X189362401Y-93752432D01*
X189359500Y-93789298D01*
X189359500Y-94220701D01*
X189362401Y-94257567D01*
X189362402Y-94257573D01*
X189408254Y-94415393D01*
X189408255Y-94415396D01*
X189491917Y-94556862D01*
X189496702Y-94563031D01*
X189494256Y-94564927D01*
X189520857Y-94613642D01*
X189515873Y-94683334D01*
X189495069Y-94715703D01*
X189496702Y-94716969D01*
X189491917Y-94723137D01*
X189408255Y-94864603D01*
X189408254Y-94864606D01*
X189362402Y-95022426D01*
X189362401Y-95022432D01*
X189359500Y-95059298D01*
X189359500Y-95490701D01*
X189362401Y-95527567D01*
X189362402Y-95527573D01*
X189408254Y-95685393D01*
X189408255Y-95685396D01*
X189491917Y-95826862D01*
X189496702Y-95833031D01*
X189494369Y-95834840D01*
X189521210Y-95883995D01*
X189516226Y-95953687D01*
X189495470Y-95986021D01*
X189497097Y-95987283D01*
X189492313Y-95993449D01*
X189408718Y-96134801D01*
X189362899Y-96292513D01*
X189362704Y-96294998D01*
X189362705Y-96295000D01*
X192307295Y-96295000D01*
X192307295Y-96294998D01*
X192307100Y-96292513D01*
X192261281Y-96134801D01*
X192218594Y-96062621D01*
X192201411Y-95994897D01*
X192223571Y-95928635D01*
X192278037Y-95884871D01*
X192325326Y-95875500D01*
X194695500Y-95875500D01*
X194762539Y-95895185D01*
X194808294Y-95947989D01*
X194819500Y-95999500D01*
X194819500Y-97319902D01*
X194799815Y-97386941D01*
X194783181Y-97407583D01*
X192207584Y-99983181D01*
X192146261Y-100016666D01*
X192119903Y-100019500D01*
X187206669Y-100019500D01*
X187206653Y-100019499D01*
X187199057Y-100019499D01*
X187040943Y-100019499D01*
X186942803Y-100045796D01*
X186888210Y-100060424D01*
X186888209Y-100060425D01*
X186839738Y-100088411D01*
X186839737Y-100088412D01*
X186811943Y-100104459D01*
X186751285Y-100139479D01*
X186751282Y-100139481D01*
X184905339Y-101985425D01*
X184844016Y-102018910D01*
X184841850Y-102019361D01*
X184686508Y-102050261D01*
X184686498Y-102050264D01*
X184540827Y-102110602D01*
X184540814Y-102110609D01*
X184404646Y-102201595D01*
X184403298Y-102199577D01*
X184348799Y-102222695D01*
X184279937Y-102210872D01*
X184228398Y-102163697D01*
X184210500Y-102099522D01*
X184210500Y-100123732D01*
X184230185Y-100056693D01*
X184282989Y-100010938D01*
X184295495Y-100006026D01*
X184329334Y-99994814D01*
X184478656Y-99902712D01*
X184602712Y-99778656D01*
X184694814Y-99629334D01*
X184749999Y-99462797D01*
X184760500Y-99360009D01*
X184760499Y-98730806D01*
X184769145Y-98701360D01*
X184775667Y-98671380D01*
X184779419Y-98666366D01*
X184780183Y-98663768D01*
X184796813Y-98643131D01*
X184804779Y-98635165D01*
X184866100Y-98601682D01*
X184927051Y-98603771D01*
X184957431Y-98612598D01*
X184994306Y-98615500D01*
X184994314Y-98615500D01*
X186775686Y-98615500D01*
X186775694Y-98615500D01*
X186812569Y-98612598D01*
X186812571Y-98612597D01*
X186812573Y-98612597D01*
X186854191Y-98600505D01*
X186970398Y-98566744D01*
X187111865Y-98483081D01*
X187228081Y-98366865D01*
X187311744Y-98225398D01*
X187357598Y-98067569D01*
X187357800Y-98065001D01*
X189362704Y-98065001D01*
X189362899Y-98067486D01*
X189408718Y-98225198D01*
X189492314Y-98366552D01*
X189492321Y-98366561D01*
X189608438Y-98482678D01*
X189608447Y-98482685D01*
X189749803Y-98566282D01*
X189749806Y-98566283D01*
X189907504Y-98612099D01*
X189907510Y-98612100D01*
X189944350Y-98614999D01*
X189944366Y-98615000D01*
X190585000Y-98615000D01*
X191085000Y-98615000D01*
X191725634Y-98615000D01*
X191725649Y-98614999D01*
X191762489Y-98612100D01*
X191762495Y-98612099D01*
X191920193Y-98566283D01*
X191920196Y-98566282D01*
X192061552Y-98482685D01*
X192061561Y-98482678D01*
X192177678Y-98366561D01*
X192177685Y-98366552D01*
X192261281Y-98225198D01*
X192307100Y-98067486D01*
X192307295Y-98065001D01*
X192307295Y-98065000D01*
X191085000Y-98065000D01*
X191085000Y-98615000D01*
X190585000Y-98615000D01*
X190585000Y-98065000D01*
X189362705Y-98065000D01*
X189362704Y-98065001D01*
X187357800Y-98065001D01*
X187360500Y-98030694D01*
X187360500Y-97599306D01*
X187357598Y-97562431D01*
X187355584Y-97555500D01*
X187323836Y-97446224D01*
X187311744Y-97404602D01*
X187228081Y-97263135D01*
X187228078Y-97263132D01*
X187223298Y-97256969D01*
X187225750Y-97255066D01*
X187199155Y-97206421D01*
X187204104Y-97136726D01*
X187224940Y-97104304D01*
X187223298Y-97103031D01*
X187228075Y-97096870D01*
X187228081Y-97096865D01*
X187311744Y-96955398D01*
X187357598Y-96797569D01*
X187357800Y-96795001D01*
X189362704Y-96795001D01*
X189362899Y-96797486D01*
X189408718Y-96955198D01*
X189492314Y-97096552D01*
X189497100Y-97102722D01*
X189494753Y-97104542D01*
X189521564Y-97153642D01*
X189516580Y-97223334D01*
X189495541Y-97256069D01*
X189497100Y-97257278D01*
X189492314Y-97263447D01*
X189408718Y-97404801D01*
X189362899Y-97562513D01*
X189362704Y-97564998D01*
X189362705Y-97565000D01*
X190585000Y-97565000D01*
X191085000Y-97565000D01*
X192307295Y-97565000D01*
X192307295Y-97564998D01*
X192307100Y-97562513D01*
X192261281Y-97404801D01*
X192177685Y-97263447D01*
X192172900Y-97257278D01*
X192175252Y-97255453D01*
X192148445Y-97206405D01*
X192153402Y-97136712D01*
X192174465Y-97103936D01*
X192172900Y-97102722D01*
X192177685Y-97096552D01*
X192261281Y-96955198D01*
X192307100Y-96797486D01*
X192307295Y-96795001D01*
X192307295Y-96795000D01*
X191085000Y-96795000D01*
X191085000Y-97565000D01*
X190585000Y-97565000D01*
X190585000Y-96795000D01*
X189362705Y-96795000D01*
X189362704Y-96795001D01*
X187357800Y-96795001D01*
X187360500Y-96760694D01*
X187360500Y-96329306D01*
X187357598Y-96292431D01*
X187311744Y-96134602D01*
X187228081Y-95993135D01*
X187228078Y-95993132D01*
X187223298Y-95986969D01*
X187225635Y-95985155D01*
X187198798Y-95936050D01*
X187203756Y-95866356D01*
X187224554Y-95833998D01*
X187222903Y-95832717D01*
X187227686Y-95826550D01*
X187311281Y-95685198D01*
X187357100Y-95527486D01*
X187357295Y-95525001D01*
X187357295Y-95525000D01*
X184404000Y-95525000D01*
X184336961Y-95505315D01*
X184317398Y-95482739D01*
X184316319Y-95483819D01*
X184280000Y-95447500D01*
X183654000Y-95447500D01*
X183586961Y-95427815D01*
X183541206Y-95375011D01*
X183530000Y-95323500D01*
X183530000Y-95071500D01*
X183549685Y-95004461D01*
X183602489Y-94958706D01*
X183654000Y-94947500D01*
X184761000Y-94947500D01*
X184828039Y-94967185D01*
X184847601Y-94989760D01*
X184848681Y-94988681D01*
X184885000Y-95025000D01*
X187357295Y-95025000D01*
X187357295Y-95024998D01*
X187357100Y-95022513D01*
X187311281Y-94864801D01*
X187227685Y-94723447D01*
X187222900Y-94717278D01*
X187225366Y-94715364D01*
X187198802Y-94666776D01*
X187203749Y-94597082D01*
X187224856Y-94564232D01*
X187223301Y-94563026D01*
X187228077Y-94556868D01*
X187228081Y-94556865D01*
X187311744Y-94415398D01*
X187357598Y-94257569D01*
X187360500Y-94220694D01*
X187360500Y-93789306D01*
X187357598Y-93752431D01*
X187311744Y-93594602D01*
X187228081Y-93453135D01*
X187228079Y-93453133D01*
X187228076Y-93453129D01*
X187111870Y-93336923D01*
X187111862Y-93336917D01*
X186970396Y-93253255D01*
X186970393Y-93253254D01*
X186812573Y-93207402D01*
X186812567Y-93207401D01*
X186775701Y-93204500D01*
X186775694Y-93204500D01*
X186741348Y-93204500D01*
X186674309Y-93184815D01*
X186628554Y-93132011D01*
X186618610Y-93062853D01*
X186626787Y-93033048D01*
X186659735Y-92953501D01*
X186659737Y-92953497D01*
X186690500Y-92798842D01*
X186690500Y-92641158D01*
X186690500Y-92641155D01*
X186690499Y-92641153D01*
X186659738Y-92486510D01*
X186659737Y-92486503D01*
X186651105Y-92465663D01*
X186599397Y-92340827D01*
X186599390Y-92340814D01*
X186511789Y-92209711D01*
X186511786Y-92209707D01*
X186400292Y-92098213D01*
X186400288Y-92098210D01*
X186269185Y-92010609D01*
X186269172Y-92010602D01*
X186123501Y-91950264D01*
X186123489Y-91950261D01*
X185968845Y-91919500D01*
X185968842Y-91919500D01*
X185811158Y-91919500D01*
X185811155Y-91919500D01*
X185656510Y-91950261D01*
X185656498Y-91950264D01*
X185510827Y-92010602D01*
X185510814Y-92010609D01*
X185379711Y-92098210D01*
X185379707Y-92098213D01*
X185268213Y-92209707D01*
X185268210Y-92209711D01*
X185180609Y-92340814D01*
X185180602Y-92340827D01*
X185120264Y-92486498D01*
X185120261Y-92486510D01*
X185089500Y-92641153D01*
X185089500Y-92798846D01*
X185120261Y-92953489D01*
X185120264Y-92953501D01*
X185153213Y-93033048D01*
X185155906Y-93058102D01*
X185162638Y-93082387D01*
X185159578Y-93092250D01*
X185160682Y-93102518D01*
X185149401Y-93125053D01*
X185141935Y-93149119D01*
X185134029Y-93155761D01*
X185129406Y-93164997D01*
X185107733Y-93177855D01*
X185088441Y-93194065D01*
X185076027Y-93196666D01*
X185069317Y-93200648D01*
X185054429Y-93203492D01*
X185046571Y-93204500D01*
X184994306Y-93204500D01*
X184957431Y-93207402D01*
X184904840Y-93222681D01*
X184895276Y-93223908D01*
X184869911Y-93219866D01*
X184844224Y-93219793D01*
X184835975Y-93214458D01*
X184826277Y-93212913D01*
X184807127Y-93195802D01*
X184785554Y-93181851D01*
X184781498Y-93172902D01*
X184774176Y-93166360D01*
X184767315Y-93141610D01*
X184756711Y-93118212D01*
X184755499Y-93100916D01*
X184755499Y-92734998D01*
X184755498Y-92734981D01*
X184744999Y-92632203D01*
X184744998Y-92632200D01*
X184689814Y-92465666D01*
X184597712Y-92316344D01*
X184473656Y-92192288D01*
X184324334Y-92100186D01*
X184157797Y-92045001D01*
X184157795Y-92045000D01*
X184055010Y-92034500D01*
X183004998Y-92034500D01*
X183004980Y-92034501D01*
X182902203Y-92045000D01*
X182902200Y-92045001D01*
X182791839Y-92081572D01*
X182735666Y-92100186D01*
X182735664Y-92100186D01*
X182728811Y-92102458D01*
X182728300Y-92100918D01*
X182667814Y-92110098D01*
X182604033Y-92081572D01*
X182565800Y-92023091D01*
X182560500Y-91987226D01*
X182560500Y-86010808D01*
X182580185Y-85943769D01*
X182596819Y-85923127D01*
X185445273Y-83074673D01*
X185445277Y-83074669D01*
X185516465Y-82968127D01*
X185565501Y-82849744D01*
X185571397Y-82820104D01*
X185590500Y-82724069D01*
X185590500Y-81487764D01*
X185610185Y-81420725D01*
X185662989Y-81374970D01*
X185684567Y-81367431D01*
X185868693Y-81321641D01*
X186039296Y-81237030D01*
X186187722Y-81117722D01*
X186307030Y-80969296D01*
X186391641Y-80798693D01*
X186437600Y-80613889D01*
X186440500Y-80571123D01*
X186440499Y-79668878D01*
X186437600Y-79626111D01*
X186391641Y-79441307D01*
X186389046Y-79436075D01*
X186307032Y-79270707D01*
X186307030Y-79270704D01*
X186187722Y-79122278D01*
X186187721Y-79122277D01*
X186118514Y-79066647D01*
X186078595Y-79009304D01*
X186076015Y-78939482D01*
X186111594Y-78879349D01*
X186118514Y-78873353D01*
X186127909Y-78865800D01*
X186187722Y-78817722D01*
X186307030Y-78669296D01*
X186371450Y-78539403D01*
X186418869Y-78488093D01*
X186482537Y-78470500D01*
X189615501Y-78470500D01*
X189682540Y-78490185D01*
X189728295Y-78542989D01*
X189739501Y-78594500D01*
X189739501Y-79278034D01*
X189750113Y-79397415D01*
X189806089Y-79593045D01*
X189806090Y-79593048D01*
X189806091Y-79593049D01*
X189900302Y-79773407D01*
X189900304Y-79773409D01*
X190028890Y-79931109D01*
X190061649Y-79957820D01*
X190186593Y-80059698D01*
X190366951Y-80153909D01*
X190366953Y-80153909D01*
X190366954Y-80153910D01*
X190402228Y-80164003D01*
X190461266Y-80201370D01*
X190490730Y-80264724D01*
X190482681Y-80330664D01*
X190480264Y-80336498D01*
X190480260Y-80336511D01*
X190449500Y-80491153D01*
X190449500Y-80648846D01*
X190480261Y-80803489D01*
X190480264Y-80803501D01*
X190540602Y-80949172D01*
X190540609Y-80949185D01*
X190628210Y-81080288D01*
X190628213Y-81080292D01*
X190739707Y-81191786D01*
X190739711Y-81191789D01*
X190870814Y-81279390D01*
X190870827Y-81279397D01*
X190972815Y-81321641D01*
X191016503Y-81339737D01*
X191155719Y-81367429D01*
X191171153Y-81370499D01*
X191171156Y-81370500D01*
X191171158Y-81370500D01*
X191328844Y-81370500D01*
X191328845Y-81370499D01*
X191483497Y-81339737D01*
X191596166Y-81293067D01*
X191629172Y-81279397D01*
X191629172Y-81279396D01*
X191629179Y-81279394D01*
X191760289Y-81191789D01*
X191871789Y-81080289D01*
X191959394Y-80949179D01*
X192019737Y-80803497D01*
X192050500Y-80648842D01*
X192050500Y-80491158D01*
X192050500Y-80491155D01*
X192050499Y-80491153D01*
X192041089Y-80443846D01*
X192019737Y-80336503D01*
X192015201Y-80325554D01*
X192007733Y-80256085D01*
X192039008Y-80193606D01*
X192095652Y-80158886D01*
X192113049Y-80153909D01*
X192293407Y-80059698D01*
X192451109Y-79931109D01*
X192579698Y-79773407D01*
X192673909Y-79593049D01*
X192729886Y-79397418D01*
X192740500Y-79278037D01*
X192740499Y-78739636D01*
X192760183Y-78672598D01*
X192812987Y-78626843D01*
X192882146Y-78616899D01*
X192888667Y-78618015D01*
X192901158Y-78620500D01*
X192901160Y-78620500D01*
X193058844Y-78620500D01*
X193058845Y-78620499D01*
X193213497Y-78589737D01*
X193359179Y-78529394D01*
X193490289Y-78441789D01*
X193601789Y-78330289D01*
X193689394Y-78199179D01*
X193749737Y-78053497D01*
X193780500Y-77898842D01*
X193780500Y-77741158D01*
X193780500Y-77741155D01*
X193780499Y-77741153D01*
X193761560Y-77645943D01*
X193749737Y-77586503D01*
X193747283Y-77580579D01*
X193689397Y-77440827D01*
X193689390Y-77440814D01*
X193601789Y-77309711D01*
X193601786Y-77309707D01*
X193490292Y-77198213D01*
X193490288Y-77198210D01*
X193359185Y-77110609D01*
X193359172Y-77110602D01*
X193213501Y-77050264D01*
X193213489Y-77050261D01*
X193058845Y-77019500D01*
X193058842Y-77019500D01*
X192901158Y-77019500D01*
X192901157Y-77019500D01*
X192888688Y-77021980D01*
X192819097Y-77015751D01*
X192763920Y-76972887D01*
X192740677Y-76906997D01*
X192740499Y-76900362D01*
X192740499Y-76361971D01*
X192740499Y-76361964D01*
X192729886Y-76242582D01*
X192673909Y-76046951D01*
X192579698Y-75866593D01*
X192484886Y-75750315D01*
X192451109Y-75708890D01*
X192293409Y-75580304D01*
X192293410Y-75580304D01*
X192293407Y-75580302D01*
X192113049Y-75486091D01*
X192113048Y-75486090D01*
X192113043Y-75486088D01*
X192092548Y-75480224D01*
X192033511Y-75442857D01*
X192004048Y-75379503D01*
X192005044Y-75336817D01*
X192030500Y-75208844D01*
X192030500Y-75051155D01*
X192030499Y-75051153D01*
X191999737Y-74896503D01*
X191983582Y-74857500D01*
X191939397Y-74750827D01*
X191939390Y-74750814D01*
X191851789Y-74619711D01*
X191851786Y-74619707D01*
X191740292Y-74508213D01*
X191740288Y-74508210D01*
X191609185Y-74420609D01*
X191609172Y-74420602D01*
X191463501Y-74360264D01*
X191463489Y-74360261D01*
X191308845Y-74329500D01*
X191308842Y-74329500D01*
X191151158Y-74329500D01*
X191151155Y-74329500D01*
X190996510Y-74360261D01*
X190996498Y-74360264D01*
X190850827Y-74420602D01*
X190850814Y-74420609D01*
X190719711Y-74508210D01*
X190719707Y-74508213D01*
X190608213Y-74619707D01*
X190608210Y-74619711D01*
X190520609Y-74750814D01*
X190520602Y-74750827D01*
X190460264Y-74896498D01*
X190460261Y-74896510D01*
X190429500Y-75051153D01*
X190429500Y-75208846D01*
X190456032Y-75342232D01*
X190449805Y-75411824D01*
X190406942Y-75467001D01*
X190372732Y-75483600D01*
X190372794Y-75483756D01*
X190370633Y-75484618D01*
X190368542Y-75485634D01*
X190366960Y-75486086D01*
X190313351Y-75514089D01*
X190186593Y-75580302D01*
X190186591Y-75580303D01*
X190186590Y-75580304D01*
X190028890Y-75708890D01*
X189900304Y-75866590D01*
X189806089Y-76046954D01*
X189750114Y-76242583D01*
X189750113Y-76242586D01*
X189747622Y-76270606D01*
X189739834Y-76358213D01*
X189739500Y-76361966D01*
X189739500Y-77045500D01*
X189719815Y-77112539D01*
X189667011Y-77158294D01*
X189615500Y-77169500D01*
X186482537Y-77169500D01*
X186415498Y-77149815D01*
X186371450Y-77100597D01*
X186307030Y-76970704D01*
X186195116Y-76831476D01*
X186187724Y-76822280D01*
X186187722Y-76822278D01*
X186118112Y-76766324D01*
X186078196Y-76708985D01*
X186075616Y-76639163D01*
X186111194Y-76579030D01*
X186118115Y-76573033D01*
X186187366Y-76517367D01*
X186187367Y-76517366D01*
X186306607Y-76369025D01*
X186306609Y-76369022D01*
X186391168Y-76198523D01*
X186437102Y-76013824D01*
X186440000Y-75971096D01*
X186440000Y-75770000D01*
X185064000Y-75770000D01*
X184996961Y-75750315D01*
X184951206Y-75697511D01*
X184940000Y-75646000D01*
X184940000Y-75520000D01*
X184814000Y-75520000D01*
X184746961Y-75500315D01*
X184701206Y-75447511D01*
X184690000Y-75396000D01*
X184690000Y-75270000D01*
X185190000Y-75270000D01*
X186440000Y-75270000D01*
X186440000Y-75068903D01*
X186437102Y-75026175D01*
X186391168Y-74841476D01*
X186306609Y-74670977D01*
X186306607Y-74670974D01*
X186187367Y-74522633D01*
X186187366Y-74522632D01*
X186039025Y-74403392D01*
X186039022Y-74403390D01*
X185868523Y-74318831D01*
X185683824Y-74272897D01*
X185641097Y-74270000D01*
X185190000Y-74270000D01*
X185190000Y-75270000D01*
X184690000Y-75270000D01*
X184690000Y-74270000D01*
X184238903Y-74270000D01*
X184196175Y-74272897D01*
X184011476Y-74318831D01*
X183840977Y-74403390D01*
X183840974Y-74403392D01*
X183692633Y-74522632D01*
X183692632Y-74522633D01*
X183573392Y-74670974D01*
X183573390Y-74670977D01*
X183488829Y-74841479D01*
X183486703Y-74847268D01*
X183445106Y-74903406D01*
X183379761Y-74928142D01*
X183331308Y-74922209D01*
X183167700Y-74867995D01*
X183167690Y-74867993D01*
X183064986Y-74857500D01*
X182790000Y-74857500D01*
X182790000Y-75821000D01*
X182770315Y-75888039D01*
X182717511Y-75933794D01*
X182666000Y-75945000D01*
X182540000Y-75945000D01*
X182540000Y-76071000D01*
X182520315Y-76138039D01*
X182467511Y-76183794D01*
X182416000Y-76195000D01*
X181315001Y-76195000D01*
X181315001Y-76332486D01*
X181325494Y-76435197D01*
X181380641Y-76601619D01*
X181380643Y-76601624D01*
X181472684Y-76750845D01*
X181596655Y-76874816D01*
X181596659Y-76874819D01*
X181599656Y-76876668D01*
X181601279Y-76878472D01*
X181602323Y-76879298D01*
X181602181Y-76879476D01*
X181646381Y-76928616D01*
X181657602Y-76997579D01*
X181629759Y-77061661D01*
X181599661Y-77087741D01*
X181596349Y-77089783D01*
X181596343Y-77089788D01*
X181472289Y-77213842D01*
X181380187Y-77363163D01*
X181380185Y-77363168D01*
X181359728Y-77424903D01*
X181325001Y-77529703D01*
X181325001Y-77529704D01*
X181325000Y-77529704D01*
X181314500Y-77632483D01*
X181314500Y-78407501D01*
X181314501Y-78407519D01*
X181325000Y-78510296D01*
X181325001Y-78510299D01*
X181377688Y-78669296D01*
X181380186Y-78676834D01*
X181471329Y-78824602D01*
X181472289Y-78826157D01*
X181490951Y-78844819D01*
X181524436Y-78906142D01*
X181519452Y-78975834D01*
X181490951Y-79020181D01*
X181472289Y-79038842D01*
X181380187Y-79188163D01*
X181380186Y-79188166D01*
X181325001Y-79354703D01*
X181325001Y-79354704D01*
X181325000Y-79354704D01*
X181314500Y-79457483D01*
X181314500Y-80232501D01*
X181314501Y-80232519D01*
X181325000Y-80335296D01*
X181325001Y-80335299D01*
X181380185Y-80501831D01*
X181380187Y-80501836D01*
X181394667Y-80525312D01*
X181472288Y-80651156D01*
X181596344Y-80775212D01*
X181599628Y-80777237D01*
X181599653Y-80777253D01*
X181601445Y-80779246D01*
X181602011Y-80779693D01*
X181601934Y-80779789D01*
X181646379Y-80829199D01*
X181657603Y-80898161D01*
X181629761Y-80962244D01*
X181599665Y-80988326D01*
X181596660Y-80990179D01*
X181596655Y-80990183D01*
X181472684Y-81114154D01*
X181380643Y-81263375D01*
X181380641Y-81263380D01*
X181325494Y-81429802D01*
X181325493Y-81429809D01*
X181315000Y-81532513D01*
X181315000Y-81670000D01*
X183764999Y-81670000D01*
X183764999Y-81532528D01*
X183764998Y-81532513D01*
X183754505Y-81429798D01*
X183753089Y-81423181D01*
X183754368Y-81422907D01*
X183752206Y-81360315D01*
X183787929Y-81300268D01*
X183850444Y-81269067D01*
X183919905Y-81276617D01*
X183927410Y-81280032D01*
X184011307Y-81321641D01*
X184195427Y-81367430D01*
X184255733Y-81402711D01*
X184287392Y-81464997D01*
X184289500Y-81487764D01*
X184289500Y-82339191D01*
X184269815Y-82406230D01*
X184253181Y-82426872D01*
X183638458Y-83041595D01*
X181404727Y-85275325D01*
X181404726Y-85275326D01*
X181333534Y-85381874D01*
X181284499Y-85500255D01*
X181284497Y-85500261D01*
X181259500Y-85625928D01*
X181259500Y-95374071D01*
X181275012Y-95452051D01*
X181275012Y-95452052D01*
X181284497Y-95499736D01*
X181284499Y-95499744D01*
X181296024Y-95527569D01*
X181333535Y-95618127D01*
X181386564Y-95697491D01*
X181404726Y-95724673D01*
X181404727Y-95724674D01*
X182323181Y-96643127D01*
X182356666Y-96704450D01*
X182359500Y-96730808D01*
X182359500Y-97360001D01*
X182359501Y-97360019D01*
X182370000Y-97462796D01*
X182370001Y-97462799D01*
X182403867Y-97564998D01*
X182425186Y-97629334D01*
X182492100Y-97737820D01*
X182517289Y-97778657D01*
X182610951Y-97872319D01*
X182644436Y-97933642D01*
X182639452Y-98003334D01*
X182610951Y-98047681D01*
X182517289Y-98141342D01*
X182425187Y-98290663D01*
X182425185Y-98290668D01*
X182400040Y-98366552D01*
X182370001Y-98457203D01*
X182370001Y-98457204D01*
X182370000Y-98457204D01*
X182359500Y-98559983D01*
X182359500Y-99360001D01*
X182359501Y-99360019D01*
X182370000Y-99462796D01*
X182370001Y-99462799D01*
X182424302Y-99626666D01*
X182425186Y-99629334D01*
X182517288Y-99778656D01*
X182641344Y-99902712D01*
X182790666Y-99994814D01*
X182824500Y-100006025D01*
X182881947Y-100045796D01*
X182908772Y-100110311D01*
X182909500Y-100123732D01*
X182909500Y-101991433D01*
X182889815Y-102058472D01*
X182837011Y-102104227D01*
X182767853Y-102114171D01*
X182738048Y-102105995D01*
X182696732Y-102088882D01*
X182603497Y-102050263D01*
X182603492Y-102050262D01*
X182603489Y-102050261D01*
X182448845Y-102019500D01*
X182448842Y-102019500D01*
X182291158Y-102019500D01*
X182291155Y-102019500D01*
X182136510Y-102050261D01*
X182136498Y-102050264D01*
X181990827Y-102110602D01*
X181990814Y-102110609D01*
X181859711Y-102198210D01*
X181859707Y-102198213D01*
X181849740Y-102208181D01*
X181788417Y-102241666D01*
X181762059Y-102244500D01*
X180086230Y-102244500D01*
X180019191Y-102224815D01*
X179973436Y-102172011D01*
X179963492Y-102102853D01*
X179992517Y-102039297D01*
X179998549Y-102032819D01*
X180002712Y-102028656D01*
X180094814Y-101879334D01*
X180149999Y-101712797D01*
X180160500Y-101610009D01*
X180160499Y-100859992D01*
X180157434Y-100829991D01*
X180149999Y-100757203D01*
X180149998Y-100757200D01*
X180094814Y-100590666D01*
X180002712Y-100441344D01*
X179878656Y-100317288D01*
X179875819Y-100315538D01*
X179874283Y-100313830D01*
X179872989Y-100312807D01*
X179873163Y-100312585D01*
X179829096Y-100263594D01*
X179817872Y-100194632D01*
X179845713Y-100130549D01*
X179875817Y-100104462D01*
X179878656Y-100102712D01*
X180002712Y-99978656D01*
X180094814Y-99829334D01*
X180149999Y-99662797D01*
X180160500Y-99560009D01*
X180160499Y-98809992D01*
X180157434Y-98779991D01*
X180149999Y-98707203D01*
X180149998Y-98707200D01*
X180128766Y-98643126D01*
X180094814Y-98540666D01*
X180002712Y-98391344D01*
X179878656Y-98267288D01*
X179729334Y-98175186D01*
X179562797Y-98120001D01*
X179562795Y-98120000D01*
X179460010Y-98109500D01*
X178459998Y-98109500D01*
X178459980Y-98109501D01*
X178357203Y-98120000D01*
X178357200Y-98120001D01*
X178190668Y-98175185D01*
X178190663Y-98175187D01*
X178041344Y-98267288D01*
X178007678Y-98300953D01*
X177946354Y-98334436D01*
X177876662Y-98329450D01*
X177832318Y-98300950D01*
X177768657Y-98237289D01*
X177768656Y-98237288D01*
X177619334Y-98145186D01*
X177565712Y-98127417D01*
X177508268Y-98087645D01*
X177481445Y-98023129D01*
X177493760Y-97954353D01*
X177501617Y-97940818D01*
X177509391Y-97929183D01*
X177509394Y-97929179D01*
X177569737Y-97783497D01*
X177600500Y-97628842D01*
X177600500Y-97471158D01*
X177600500Y-97471155D01*
X177600499Y-97471153D01*
X177598837Y-97462796D01*
X177569737Y-97316503D01*
X177547632Y-97263137D01*
X177509397Y-97170827D01*
X177509390Y-97170814D01*
X177421789Y-97039711D01*
X177421786Y-97039707D01*
X177310292Y-96928213D01*
X177310288Y-96928210D01*
X177179185Y-96840609D01*
X177179172Y-96840602D01*
X177033501Y-96780264D01*
X177033489Y-96780261D01*
X176878845Y-96749500D01*
X176878842Y-96749500D01*
X176721158Y-96749500D01*
X176721155Y-96749500D01*
X176566510Y-96780261D01*
X176566498Y-96780264D01*
X176420827Y-96840602D01*
X176420814Y-96840609D01*
X176289711Y-96928210D01*
X176289707Y-96928213D01*
X176178213Y-97039707D01*
X176178210Y-97039711D01*
X176090609Y-97170814D01*
X176090602Y-97170827D01*
X176030264Y-97316498D01*
X176030261Y-97316510D01*
X175999500Y-97471153D01*
X175999500Y-97628846D01*
X176030261Y-97783489D01*
X176030264Y-97783501D01*
X176090602Y-97929172D01*
X176090609Y-97929185D01*
X176118469Y-97970880D01*
X176139347Y-98037558D01*
X176120862Y-98104938D01*
X176080464Y-98145310D01*
X175931342Y-98237289D01*
X175807289Y-98361342D01*
X175715187Y-98510663D01*
X175715185Y-98510668D01*
X175696603Y-98566745D01*
X175660001Y-98677203D01*
X175660001Y-98677204D01*
X175660000Y-98677204D01*
X175649500Y-98779983D01*
X175649500Y-99530001D01*
X175649501Y-99530019D01*
X175660000Y-99632796D01*
X175660001Y-99632799D01*
X175715185Y-99799331D01*
X175715187Y-99799336D01*
X175746890Y-99850735D01*
X175804251Y-99943733D01*
X175807289Y-99948657D01*
X175931346Y-100072714D01*
X175934182Y-100074463D01*
X175935717Y-100076170D01*
X175937011Y-100077193D01*
X175936836Y-100077414D01*
X175980905Y-100126411D01*
X175992126Y-100195374D01*
X175964282Y-100259456D01*
X175934182Y-100285537D01*
X175931346Y-100287285D01*
X175807289Y-100411342D01*
X175715187Y-100560663D01*
X175715185Y-100560668D01*
X175702116Y-100600109D01*
X175660001Y-100727203D01*
X175660001Y-100727204D01*
X175660000Y-100727204D01*
X175649500Y-100829983D01*
X175649500Y-101580001D01*
X175649501Y-101580019D01*
X175660000Y-101682796D01*
X175660001Y-101682799D01*
X175715185Y-101849331D01*
X175715186Y-101849334D01*
X175804251Y-101993733D01*
X175807289Y-101998657D01*
X175841451Y-102032819D01*
X175874936Y-102094142D01*
X175869952Y-102163834D01*
X175828080Y-102219767D01*
X175762616Y-102244184D01*
X175753770Y-102244500D01*
X170783335Y-102244500D01*
X170716296Y-102224815D01*
X170670541Y-102172011D01*
X170660597Y-102102853D01*
X170662657Y-102091988D01*
X170663387Y-102088891D01*
X170663391Y-102088883D01*
X170669800Y-102029273D01*
X170669799Y-101120728D01*
X170663391Y-101061117D01*
X170634378Y-100983331D01*
X170629395Y-100913642D01*
X170634380Y-100896666D01*
X170663388Y-100818891D01*
X170663387Y-100818891D01*
X170663391Y-100818883D01*
X170669800Y-100759273D01*
X170669799Y-99850728D01*
X170663391Y-99791117D01*
X170634378Y-99713331D01*
X170629395Y-99643642D01*
X170634380Y-99626666D01*
X170663388Y-99548891D01*
X170663387Y-99548891D01*
X170663391Y-99548883D01*
X170669800Y-99489273D01*
X170669799Y-98580728D01*
X170663391Y-98521117D01*
X170634378Y-98443331D01*
X170629395Y-98373642D01*
X170634380Y-98356666D01*
X170663388Y-98278891D01*
X170663387Y-98278891D01*
X170663391Y-98278883D01*
X170669800Y-98219273D01*
X170669799Y-97310728D01*
X170663391Y-97251117D01*
X170634378Y-97173331D01*
X170629395Y-97103642D01*
X170634380Y-97086666D01*
X170663388Y-97008891D01*
X170663387Y-97008891D01*
X170663391Y-97008883D01*
X170669800Y-96949273D01*
X170669799Y-96040728D01*
X170663391Y-95981117D01*
X170634378Y-95903331D01*
X170629395Y-95833642D01*
X170634380Y-95816666D01*
X170663388Y-95738891D01*
X170663387Y-95738891D01*
X170663391Y-95738883D01*
X170669800Y-95679273D01*
X170669799Y-94770728D01*
X170663391Y-94711117D01*
X170634378Y-94633331D01*
X170629395Y-94563642D01*
X170634380Y-94546666D01*
X170663388Y-94468891D01*
X170663387Y-94468891D01*
X170663391Y-94468883D01*
X170669800Y-94409273D01*
X170669799Y-93500728D01*
X170663391Y-93441117D01*
X170634378Y-93363331D01*
X170629395Y-93293642D01*
X170634380Y-93276666D01*
X170663388Y-93198891D01*
X170663387Y-93198891D01*
X170663391Y-93198883D01*
X170669800Y-93139273D01*
X170669799Y-92230728D01*
X170663391Y-92171117D01*
X170634378Y-92093331D01*
X170629395Y-92023642D01*
X170634380Y-92006666D01*
X170663388Y-91928891D01*
X170663387Y-91928891D01*
X170663391Y-91928883D01*
X170669800Y-91869273D01*
X170669799Y-90960728D01*
X170663391Y-90901117D01*
X170662899Y-90899799D01*
X170613097Y-90766271D01*
X170613093Y-90766264D01*
X170526847Y-90651055D01*
X170526844Y-90651052D01*
X170411635Y-90564806D01*
X170411628Y-90564802D01*
X170276782Y-90514508D01*
X170276783Y-90514508D01*
X170217183Y-90508101D01*
X170217181Y-90508100D01*
X170217173Y-90508100D01*
X170217165Y-90508100D01*
X169200900Y-90508100D01*
X169133861Y-90488415D01*
X169088106Y-90435611D01*
X169076900Y-90384100D01*
X169076899Y-88852829D01*
X169076898Y-88852823D01*
X169070491Y-88793216D01*
X169020197Y-88658371D01*
X169020193Y-88658364D01*
X168933947Y-88543155D01*
X168933944Y-88543152D01*
X168818735Y-88456906D01*
X168818728Y-88456902D01*
X168683882Y-88406608D01*
X168683883Y-88406608D01*
X168624283Y-88400201D01*
X168624281Y-88400200D01*
X168624273Y-88400200D01*
X168624264Y-88400200D01*
X167715729Y-88400200D01*
X167715723Y-88400201D01*
X167656116Y-88406608D01*
X167578332Y-88435620D01*
X167508640Y-88440604D01*
X167491667Y-88435620D01*
X167413882Y-88406608D01*
X167413883Y-88406608D01*
X167354283Y-88400201D01*
X167354281Y-88400200D01*
X167354273Y-88400200D01*
X167354264Y-88400200D01*
X166445729Y-88400200D01*
X166445723Y-88400201D01*
X166386116Y-88406608D01*
X166308332Y-88435620D01*
X166238640Y-88440604D01*
X166221667Y-88435620D01*
X166143882Y-88406608D01*
X166143883Y-88406608D01*
X166084283Y-88400201D01*
X166084281Y-88400200D01*
X166084273Y-88400200D01*
X166084264Y-88400200D01*
X165175729Y-88400200D01*
X165175723Y-88400201D01*
X165116116Y-88406608D01*
X165038332Y-88435620D01*
X164968640Y-88440604D01*
X164951667Y-88435620D01*
X164873882Y-88406608D01*
X164873883Y-88406608D01*
X164814283Y-88400201D01*
X164814281Y-88400200D01*
X164814273Y-88400200D01*
X164814264Y-88400200D01*
X163905729Y-88400200D01*
X163905723Y-88400201D01*
X163846116Y-88406608D01*
X163768332Y-88435620D01*
X163698640Y-88440604D01*
X163681667Y-88435620D01*
X163603882Y-88406608D01*
X163603883Y-88406608D01*
X163544283Y-88400201D01*
X163544281Y-88400200D01*
X163544273Y-88400200D01*
X163544264Y-88400200D01*
X162635729Y-88400200D01*
X162635723Y-88400201D01*
X162576116Y-88406608D01*
X162498332Y-88435620D01*
X162428640Y-88440604D01*
X162411667Y-88435620D01*
X162333882Y-88406608D01*
X162333883Y-88406608D01*
X162274283Y-88400201D01*
X162274281Y-88400200D01*
X162274273Y-88400200D01*
X162274264Y-88400200D01*
X161365729Y-88400200D01*
X161365723Y-88400201D01*
X161306116Y-88406608D01*
X161228332Y-88435620D01*
X161158640Y-88440604D01*
X161141667Y-88435620D01*
X161063882Y-88406608D01*
X161063883Y-88406608D01*
X161004283Y-88400201D01*
X161004281Y-88400200D01*
X161004273Y-88400200D01*
X161004264Y-88400200D01*
X160095729Y-88400200D01*
X160095723Y-88400201D01*
X160036116Y-88406608D01*
X159958332Y-88435620D01*
X159888640Y-88440604D01*
X159871667Y-88435620D01*
X159793882Y-88406608D01*
X159793883Y-88406608D01*
X159734283Y-88400201D01*
X159734281Y-88400200D01*
X159734273Y-88400200D01*
X159734264Y-88400200D01*
X158825729Y-88400200D01*
X158825723Y-88400201D01*
X158766116Y-88406608D01*
X158688332Y-88435620D01*
X158618640Y-88440604D01*
X158601667Y-88435620D01*
X158523882Y-88406608D01*
X158523883Y-88406608D01*
X158464283Y-88400201D01*
X158464281Y-88400200D01*
X158464273Y-88400200D01*
X158464264Y-88400200D01*
X157555729Y-88400200D01*
X157555723Y-88400201D01*
X157496116Y-88406608D01*
X157418332Y-88435620D01*
X157348640Y-88440604D01*
X157331667Y-88435620D01*
X157253882Y-88406608D01*
X157253883Y-88406608D01*
X157194283Y-88400201D01*
X157194281Y-88400200D01*
X157194273Y-88400200D01*
X157194264Y-88400200D01*
X156285729Y-88400200D01*
X156285723Y-88400201D01*
X156226116Y-88406608D01*
X156148332Y-88435620D01*
X156078640Y-88440604D01*
X156061667Y-88435620D01*
X155983882Y-88406608D01*
X155983883Y-88406608D01*
X155924283Y-88400201D01*
X155924281Y-88400200D01*
X155924273Y-88400200D01*
X155924264Y-88400200D01*
X155015729Y-88400200D01*
X155015723Y-88400201D01*
X154956116Y-88406608D01*
X154878332Y-88435620D01*
X154808640Y-88440604D01*
X154791667Y-88435620D01*
X154713882Y-88406608D01*
X154713883Y-88406608D01*
X154654283Y-88400201D01*
X154654281Y-88400200D01*
X154654273Y-88400200D01*
X154654264Y-88400200D01*
X153745729Y-88400200D01*
X153745723Y-88400201D01*
X153686116Y-88406608D01*
X153608332Y-88435620D01*
X153538640Y-88440604D01*
X153521667Y-88435620D01*
X153443882Y-88406608D01*
X153443883Y-88406608D01*
X153384283Y-88400201D01*
X153384281Y-88400200D01*
X153384273Y-88400200D01*
X153384264Y-88400200D01*
X152475729Y-88400200D01*
X152475723Y-88400201D01*
X152416114Y-88406609D01*
X152337617Y-88435886D01*
X152267925Y-88440870D01*
X152250953Y-88435886D01*
X152173782Y-88407103D01*
X152173772Y-88407101D01*
X152114244Y-88400700D01*
X151910000Y-88400700D01*
X151910000Y-90899300D01*
X152114228Y-90899300D01*
X152114244Y-90899299D01*
X152173772Y-90892898D01*
X152173778Y-90892897D01*
X152250950Y-90864113D01*
X152320641Y-90859128D01*
X152337607Y-90864109D01*
X152416117Y-90893391D01*
X152475727Y-90899800D01*
X153384272Y-90899799D01*
X153443883Y-90893391D01*
X153521665Y-90864379D01*
X153591356Y-90859395D01*
X153608329Y-90864378D01*
X153686117Y-90893391D01*
X153745727Y-90899800D01*
X154654272Y-90899799D01*
X154713883Y-90893391D01*
X154791665Y-90864379D01*
X154861356Y-90859395D01*
X154878329Y-90864378D01*
X154956117Y-90893391D01*
X155015727Y-90899800D01*
X155924272Y-90899799D01*
X155983883Y-90893391D01*
X156061665Y-90864379D01*
X156131356Y-90859395D01*
X156148329Y-90864378D01*
X156226117Y-90893391D01*
X156285727Y-90899800D01*
X157194272Y-90899799D01*
X157253883Y-90893391D01*
X157331665Y-90864379D01*
X157401356Y-90859395D01*
X157418329Y-90864378D01*
X157496117Y-90893391D01*
X157555727Y-90899800D01*
X158464272Y-90899799D01*
X158523883Y-90893391D01*
X158601665Y-90864379D01*
X158671356Y-90859395D01*
X158688329Y-90864378D01*
X158766117Y-90893391D01*
X158825727Y-90899800D01*
X159734272Y-90899799D01*
X159793883Y-90893391D01*
X159871665Y-90864379D01*
X159941356Y-90859395D01*
X159958329Y-90864378D01*
X160036117Y-90893391D01*
X160095727Y-90899800D01*
X161004272Y-90899799D01*
X161063883Y-90893391D01*
X161141665Y-90864379D01*
X161211356Y-90859395D01*
X161228329Y-90864378D01*
X161306117Y-90893391D01*
X161365727Y-90899800D01*
X162274272Y-90899799D01*
X162333883Y-90893391D01*
X162411665Y-90864379D01*
X162481356Y-90859395D01*
X162498329Y-90864378D01*
X162576117Y-90893391D01*
X162635727Y-90899800D01*
X163544272Y-90899799D01*
X163603883Y-90893391D01*
X163681665Y-90864379D01*
X163751356Y-90859395D01*
X163768329Y-90864378D01*
X163846117Y-90893391D01*
X163905727Y-90899800D01*
X164814272Y-90899799D01*
X164873883Y-90893391D01*
X164951665Y-90864379D01*
X165021356Y-90859395D01*
X165038329Y-90864378D01*
X165116117Y-90893391D01*
X165175727Y-90899800D01*
X166084272Y-90899799D01*
X166143883Y-90893391D01*
X166221665Y-90864379D01*
X166291356Y-90859395D01*
X166308329Y-90864378D01*
X166386117Y-90893391D01*
X166445727Y-90899800D01*
X167354272Y-90899799D01*
X167413883Y-90893391D01*
X167491665Y-90864379D01*
X167561356Y-90859395D01*
X167578329Y-90864378D01*
X167656117Y-90893391D01*
X167715727Y-90899800D01*
X168046200Y-90899799D01*
X168113239Y-90919483D01*
X168158994Y-90972287D01*
X168170200Y-91023799D01*
X168170200Y-91869270D01*
X168170201Y-91869276D01*
X168176608Y-91928882D01*
X168205620Y-92006666D01*
X168210604Y-92076358D01*
X168205620Y-92093331D01*
X168176609Y-92171114D01*
X168176608Y-92171116D01*
X168171554Y-92218132D01*
X168170201Y-92230723D01*
X168170200Y-92230735D01*
X168170200Y-93139270D01*
X168170201Y-93139276D01*
X168176608Y-93198882D01*
X168186466Y-93225312D01*
X168196888Y-93253256D01*
X168205620Y-93276666D01*
X168210604Y-93346358D01*
X168205620Y-93363331D01*
X168176609Y-93441114D01*
X168176608Y-93441116D01*
X168171384Y-93489711D01*
X168170201Y-93500723D01*
X168170200Y-93500735D01*
X168170200Y-94409270D01*
X168170201Y-94409276D01*
X168176608Y-94468882D01*
X168205620Y-94546666D01*
X168210604Y-94616358D01*
X168205620Y-94633331D01*
X168176609Y-94711114D01*
X168176608Y-94711116D01*
X168171703Y-94756744D01*
X168170201Y-94770723D01*
X168170200Y-94770735D01*
X168170200Y-95679270D01*
X168170201Y-95679276D01*
X168176608Y-95738882D01*
X168191364Y-95778443D01*
X168196888Y-95793256D01*
X168205620Y-95816666D01*
X168210604Y-95886358D01*
X168205620Y-95903331D01*
X168176609Y-95981114D01*
X168176608Y-95981116D01*
X168171703Y-96026744D01*
X168170201Y-96040723D01*
X168170200Y-96040735D01*
X168170200Y-96949270D01*
X168170201Y-96949276D01*
X168176608Y-97008882D01*
X168205620Y-97086666D01*
X168210604Y-97156358D01*
X168205620Y-97173331D01*
X168176609Y-97251114D01*
X168176608Y-97251116D01*
X168170201Y-97310716D01*
X168170201Y-97310723D01*
X168170200Y-97310735D01*
X168170200Y-98219270D01*
X168170201Y-98219276D01*
X168176608Y-98278882D01*
X168205620Y-98356666D01*
X168210604Y-98426358D01*
X168205620Y-98443331D01*
X168176609Y-98521114D01*
X168176608Y-98521116D01*
X168172430Y-98559983D01*
X168170201Y-98580723D01*
X168170200Y-98580735D01*
X168170200Y-99489270D01*
X168170201Y-99489276D01*
X168176608Y-99548882D01*
X168205620Y-99626666D01*
X168210604Y-99696358D01*
X168205620Y-99713331D01*
X168176609Y-99791114D01*
X168176608Y-99791116D01*
X168170201Y-99850716D01*
X168170201Y-99850723D01*
X168170200Y-99850735D01*
X168170200Y-100759270D01*
X168170201Y-100759276D01*
X168176608Y-100818882D01*
X168205620Y-100896666D01*
X168210604Y-100966358D01*
X168205620Y-100983331D01*
X168176609Y-101061114D01*
X168176608Y-101061116D01*
X168170201Y-101120716D01*
X168170201Y-101120723D01*
X168170200Y-101120735D01*
X168170200Y-102029270D01*
X168170201Y-102029276D01*
X168176608Y-102088882D01*
X168189226Y-102122712D01*
X168204563Y-102163834D01*
X168205620Y-102166666D01*
X168210604Y-102236358D01*
X168205620Y-102253331D01*
X168176609Y-102331114D01*
X168176608Y-102331116D01*
X168170201Y-102390716D01*
X168170200Y-102390735D01*
X168170200Y-103299270D01*
X168170201Y-103299276D01*
X168176608Y-103358882D01*
X168205620Y-103436666D01*
X168210604Y-103506358D01*
X168205620Y-103523331D01*
X168176609Y-103601114D01*
X168176608Y-103601116D01*
X168170581Y-103657181D01*
X168170201Y-103660723D01*
X168170200Y-103660735D01*
X168170200Y-104569270D01*
X168170201Y-104569276D01*
X168176608Y-104628882D01*
X168205620Y-104706666D01*
X168210604Y-104776358D01*
X168205620Y-104793331D01*
X168176610Y-104871111D01*
X168176609Y-104871115D01*
X168176609Y-104871117D01*
X168170200Y-104930727D01*
X168170200Y-105194180D01*
X168170201Y-105375200D01*
X168150517Y-105442239D01*
X168097713Y-105487994D01*
X168046201Y-105499200D01*
X166279270Y-105499200D01*
X166279254Y-105499199D01*
X166271658Y-105499199D01*
X166113543Y-105499199D01*
X166037179Y-105519661D01*
X165960814Y-105540123D01*
X165960809Y-105540126D01*
X165823890Y-105619175D01*
X165823886Y-105619178D01*
X165579181Y-105863882D01*
X165517858Y-105897366D01*
X165491500Y-105900200D01*
X165175730Y-105900200D01*
X165175723Y-105900201D01*
X165116116Y-105906608D01*
X165038332Y-105935620D01*
X164968640Y-105940604D01*
X164951667Y-105935620D01*
X164873882Y-105906608D01*
X164873883Y-105906608D01*
X164814283Y-105900201D01*
X164814281Y-105900200D01*
X164814273Y-105900200D01*
X164814264Y-105900200D01*
X163905729Y-105900200D01*
X163905723Y-105900201D01*
X163846116Y-105906608D01*
X163768332Y-105935620D01*
X163698640Y-105940604D01*
X163681667Y-105935620D01*
X163603882Y-105906608D01*
X163603883Y-105906608D01*
X163544283Y-105900201D01*
X163544281Y-105900200D01*
X163544273Y-105900200D01*
X163544264Y-105900200D01*
X162635729Y-105900200D01*
X162635723Y-105900201D01*
X162576116Y-105906608D01*
X162498332Y-105935620D01*
X162428640Y-105940604D01*
X162411667Y-105935620D01*
X162333882Y-105906608D01*
X162333883Y-105906608D01*
X162274283Y-105900201D01*
X162274281Y-105900200D01*
X162274273Y-105900200D01*
X162274264Y-105900200D01*
X161365729Y-105900200D01*
X161365723Y-105900201D01*
X161306116Y-105906608D01*
X161228332Y-105935620D01*
X161158640Y-105940604D01*
X161141667Y-105935620D01*
X161063882Y-105906608D01*
X161063883Y-105906608D01*
X161004283Y-105900201D01*
X161004281Y-105900200D01*
X161004273Y-105900200D01*
X161004264Y-105900200D01*
X160095729Y-105900200D01*
X160095723Y-105900201D01*
X160036116Y-105906608D01*
X159958332Y-105935620D01*
X159888640Y-105940604D01*
X159871667Y-105935620D01*
X159793882Y-105906608D01*
X159793883Y-105906608D01*
X159734283Y-105900201D01*
X159734281Y-105900200D01*
X159734273Y-105900200D01*
X159734264Y-105900200D01*
X158825729Y-105900200D01*
X158825723Y-105900201D01*
X158766116Y-105906608D01*
X158688332Y-105935620D01*
X158618640Y-105940604D01*
X158601667Y-105935620D01*
X158523882Y-105906608D01*
X158523883Y-105906608D01*
X158464283Y-105900201D01*
X158464281Y-105900200D01*
X158464273Y-105900200D01*
X158464264Y-105900200D01*
X157555729Y-105900200D01*
X157555723Y-105900201D01*
X157496116Y-105906608D01*
X157418332Y-105935620D01*
X157348640Y-105940604D01*
X157331667Y-105935620D01*
X157253882Y-105906608D01*
X157253883Y-105906608D01*
X157194283Y-105900201D01*
X157194281Y-105900200D01*
X157194273Y-105900200D01*
X157194264Y-105900200D01*
X156285729Y-105900200D01*
X156285723Y-105900201D01*
X156226116Y-105906608D01*
X156148332Y-105935620D01*
X156078640Y-105940604D01*
X156061667Y-105935620D01*
X155983882Y-105906608D01*
X155983883Y-105906608D01*
X155924283Y-105900201D01*
X155924281Y-105900200D01*
X155924273Y-105900200D01*
X155924264Y-105900200D01*
X155015729Y-105900200D01*
X155015723Y-105900201D01*
X154956116Y-105906608D01*
X154878332Y-105935620D01*
X154808640Y-105940604D01*
X154791667Y-105935620D01*
X154713882Y-105906608D01*
X154713883Y-105906608D01*
X154654283Y-105900201D01*
X154654281Y-105900200D01*
X154654273Y-105900200D01*
X154654264Y-105900200D01*
X153745729Y-105900200D01*
X153745723Y-105900201D01*
X153686116Y-105906608D01*
X153608332Y-105935620D01*
X153538640Y-105940604D01*
X153521667Y-105935620D01*
X153443882Y-105906608D01*
X153443883Y-105906608D01*
X153384283Y-105900201D01*
X153384281Y-105900200D01*
X153384273Y-105900200D01*
X153384264Y-105900200D01*
X152475729Y-105900200D01*
X152475723Y-105900201D01*
X152416114Y-105906609D01*
X152337617Y-105935886D01*
X152267925Y-105940870D01*
X152250953Y-105935886D01*
X152173782Y-105907103D01*
X152173772Y-105907101D01*
X152114244Y-105900700D01*
X151910000Y-105900700D01*
X151910000Y-108218329D01*
X151890315Y-108285368D01*
X151863274Y-108312944D01*
X151864423Y-108314344D01*
X151859714Y-108318208D01*
X151748209Y-108429712D01*
X151660609Y-108560814D01*
X151660602Y-108560827D01*
X151600264Y-108706498D01*
X151600261Y-108706510D01*
X151569500Y-108861153D01*
X151569500Y-109018846D01*
X151600261Y-109173489D01*
X151600264Y-109173501D01*
X151660602Y-109319172D01*
X151660609Y-109319185D01*
X151748210Y-109450288D01*
X151748213Y-109450292D01*
X151859707Y-109561786D01*
X151859711Y-109561789D01*
X151990814Y-109649390D01*
X151990827Y-109649397D01*
X152136498Y-109709735D01*
X152136503Y-109709737D01*
X152291153Y-109740499D01*
X152291156Y-109740500D01*
X152291158Y-109740500D01*
X152448844Y-109740500D01*
X152448845Y-109740499D01*
X152603497Y-109709737D01*
X152749179Y-109649394D01*
X152880289Y-109561789D01*
X152991789Y-109450289D01*
X153079394Y-109319179D01*
X153083728Y-109308717D01*
X153086467Y-109302102D01*
X153139737Y-109173497D01*
X153153079Y-109106416D01*
X153185463Y-109044509D01*
X153186902Y-109043042D01*
X153435277Y-108794669D01*
X153506466Y-108688126D01*
X153555501Y-108569743D01*
X153564336Y-108525331D01*
X153570458Y-108494554D01*
X153602842Y-108432643D01*
X153663558Y-108398069D01*
X153705327Y-108395456D01*
X153745727Y-108399800D01*
X154441602Y-108399799D01*
X154508641Y-108419483D01*
X154554396Y-108472287D01*
X154564340Y-108541446D01*
X154535315Y-108605002D01*
X154529283Y-108611480D01*
X151721584Y-111419181D01*
X151660261Y-111452666D01*
X151633903Y-111455500D01*
X122660297Y-111455500D01*
X122593258Y-111435815D01*
X122572616Y-111419181D01*
X119100579Y-107947144D01*
X150753600Y-107947144D01*
X150760001Y-108006672D01*
X150760003Y-108006679D01*
X150810245Y-108141386D01*
X150810249Y-108141393D01*
X150896409Y-108256487D01*
X150896412Y-108256490D01*
X151011506Y-108342650D01*
X151011513Y-108342654D01*
X151146220Y-108392896D01*
X151146227Y-108392898D01*
X151205755Y-108399299D01*
X151205772Y-108399300D01*
X151410000Y-108399300D01*
X151410000Y-107400000D01*
X150753600Y-107400000D01*
X150753600Y-107947144D01*
X119100579Y-107947144D01*
X118557735Y-107404300D01*
X144169200Y-107404300D01*
X150163600Y-107404300D01*
X150163600Y-106352855D01*
X150753600Y-106352855D01*
X150753600Y-106900000D01*
X151410000Y-106900000D01*
X151410000Y-105900700D01*
X151205755Y-105900700D01*
X151146227Y-105907101D01*
X151146220Y-105907103D01*
X151011513Y-105957345D01*
X151011506Y-105957349D01*
X150896412Y-106043509D01*
X150896409Y-106043512D01*
X150810249Y-106158606D01*
X150810245Y-106158613D01*
X150760003Y-106293320D01*
X150760001Y-106293327D01*
X150753600Y-106352855D01*
X150163600Y-106352855D01*
X150163600Y-101792344D01*
X157035500Y-101792344D01*
X157041901Y-101851872D01*
X157041903Y-101851879D01*
X157092145Y-101986586D01*
X157092149Y-101986593D01*
X157178309Y-102101687D01*
X157178312Y-102101690D01*
X157293406Y-102187850D01*
X157293413Y-102187854D01*
X157428120Y-102238096D01*
X157428127Y-102238098D01*
X157487655Y-102244499D01*
X157487672Y-102244500D01*
X157730000Y-102244500D01*
X158230000Y-102244500D01*
X158472328Y-102244500D01*
X158472344Y-102244499D01*
X158531872Y-102238098D01*
X158531876Y-102238097D01*
X158636666Y-102199013D01*
X158706358Y-102194029D01*
X158723334Y-102199013D01*
X158828123Y-102238097D01*
X158828127Y-102238098D01*
X158887655Y-102244499D01*
X158887672Y-102244500D01*
X159130000Y-102244500D01*
X159630000Y-102244500D01*
X159872328Y-102244500D01*
X159872344Y-102244499D01*
X159931872Y-102238098D01*
X159931876Y-102238097D01*
X160036666Y-102199013D01*
X160106358Y-102194029D01*
X160123334Y-102199013D01*
X160228123Y-102238097D01*
X160228127Y-102238098D01*
X160287655Y-102244499D01*
X160287672Y-102244500D01*
X160530000Y-102244500D01*
X161030000Y-102244500D01*
X161272328Y-102244500D01*
X161272344Y-102244499D01*
X161331872Y-102238098D01*
X161331879Y-102238096D01*
X161466586Y-102187854D01*
X161466593Y-102187850D01*
X161581687Y-102101690D01*
X161581690Y-102101687D01*
X161667850Y-101986593D01*
X161667854Y-101986586D01*
X161718096Y-101851879D01*
X161718098Y-101851872D01*
X161724499Y-101792344D01*
X161724500Y-101792327D01*
X161724500Y-101550000D01*
X161030000Y-101550000D01*
X161030000Y-102244500D01*
X160530000Y-102244500D01*
X160530000Y-101550000D01*
X159630000Y-101550000D01*
X159630000Y-102244500D01*
X159130000Y-102244500D01*
X159130000Y-101550000D01*
X158230000Y-101550000D01*
X158230000Y-102244500D01*
X157730000Y-102244500D01*
X157730000Y-101550000D01*
X157035500Y-101550000D01*
X157035500Y-101792344D01*
X150163600Y-101792344D01*
X150163600Y-100392344D01*
X157035500Y-100392344D01*
X157041901Y-100451872D01*
X157041903Y-100451880D01*
X157080986Y-100556667D01*
X157085970Y-100626359D01*
X157080986Y-100643333D01*
X157041903Y-100748119D01*
X157041901Y-100748127D01*
X157035500Y-100807655D01*
X157035500Y-101050000D01*
X157730000Y-101050000D01*
X158230000Y-101050000D01*
X159130000Y-101050000D01*
X159630000Y-101050000D01*
X160530000Y-101050000D01*
X161030000Y-101050000D01*
X161724500Y-101050000D01*
X161724500Y-100807672D01*
X161724499Y-100807655D01*
X161718098Y-100748127D01*
X161718097Y-100748123D01*
X161679013Y-100643334D01*
X161674029Y-100573642D01*
X161679013Y-100556666D01*
X161718097Y-100451876D01*
X161718098Y-100451872D01*
X161724499Y-100392344D01*
X161724500Y-100392327D01*
X161724500Y-100150000D01*
X161030000Y-100150000D01*
X161030000Y-101050000D01*
X160530000Y-101050000D01*
X160530000Y-100150000D01*
X159630000Y-100150000D01*
X159630000Y-101050000D01*
X159130000Y-101050000D01*
X159130000Y-100150000D01*
X158230000Y-100150000D01*
X158230000Y-101050000D01*
X157730000Y-101050000D01*
X157730000Y-100150000D01*
X157035500Y-100150000D01*
X157035500Y-100392344D01*
X150163600Y-100392344D01*
X150163600Y-98992344D01*
X157035500Y-98992344D01*
X157041901Y-99051872D01*
X157041903Y-99051880D01*
X157080986Y-99156667D01*
X157085970Y-99226359D01*
X157080986Y-99243333D01*
X157041903Y-99348119D01*
X157041901Y-99348127D01*
X157035500Y-99407655D01*
X157035500Y-99650000D01*
X157730000Y-99650000D01*
X158230000Y-99650000D01*
X159130000Y-99650000D01*
X159630000Y-99650000D01*
X160530000Y-99650000D01*
X161030000Y-99650000D01*
X161724500Y-99650000D01*
X161724500Y-99407672D01*
X161724499Y-99407655D01*
X161718098Y-99348127D01*
X161718097Y-99348123D01*
X161679013Y-99243334D01*
X161674029Y-99173642D01*
X161679013Y-99156666D01*
X161718097Y-99051876D01*
X161718098Y-99051872D01*
X161724499Y-98992344D01*
X161724500Y-98992327D01*
X161724500Y-98750000D01*
X161030000Y-98750000D01*
X161030000Y-99650000D01*
X160530000Y-99650000D01*
X160530000Y-98750000D01*
X159630000Y-98750000D01*
X159630000Y-99650000D01*
X159130000Y-99650000D01*
X159130000Y-98750000D01*
X158230000Y-98750000D01*
X158230000Y-99650000D01*
X157730000Y-99650000D01*
X157730000Y-98750000D01*
X157035500Y-98750000D01*
X157035500Y-98992344D01*
X150163600Y-98992344D01*
X150163600Y-98007655D01*
X157035500Y-98007655D01*
X157035500Y-98250000D01*
X157730000Y-98250000D01*
X158230000Y-98250000D01*
X159130000Y-98250000D01*
X159630000Y-98250000D01*
X160530000Y-98250000D01*
X161030000Y-98250000D01*
X161724500Y-98250000D01*
X161724500Y-98007672D01*
X161724499Y-98007655D01*
X161718098Y-97948127D01*
X161718096Y-97948120D01*
X161667854Y-97813413D01*
X161667850Y-97813406D01*
X161581690Y-97698312D01*
X161581687Y-97698309D01*
X161466593Y-97612149D01*
X161466586Y-97612145D01*
X161331879Y-97561903D01*
X161331872Y-97561901D01*
X161272344Y-97555500D01*
X161030000Y-97555500D01*
X161030000Y-98250000D01*
X160530000Y-98250000D01*
X160530000Y-97555500D01*
X160287655Y-97555500D01*
X160228127Y-97561901D01*
X160228119Y-97561903D01*
X160123333Y-97600986D01*
X160053641Y-97605970D01*
X160036667Y-97600986D01*
X159931880Y-97561903D01*
X159931872Y-97561901D01*
X159872344Y-97555500D01*
X159630000Y-97555500D01*
X159630000Y-98250000D01*
X159130000Y-98250000D01*
X159130000Y-97555500D01*
X158887655Y-97555500D01*
X158828127Y-97561901D01*
X158828119Y-97561903D01*
X158723333Y-97600986D01*
X158653641Y-97605970D01*
X158636667Y-97600986D01*
X158531880Y-97561903D01*
X158531872Y-97561901D01*
X158472344Y-97555500D01*
X158230000Y-97555500D01*
X158230000Y-98250000D01*
X157730000Y-98250000D01*
X157730000Y-97555500D01*
X157487655Y-97555500D01*
X157428127Y-97561901D01*
X157428120Y-97561903D01*
X157293413Y-97612145D01*
X157293406Y-97612149D01*
X157178312Y-97698309D01*
X157178309Y-97698312D01*
X157092149Y-97813406D01*
X157092145Y-97813413D01*
X157041903Y-97948120D01*
X157041901Y-97948127D01*
X157035500Y-98007655D01*
X150163600Y-98007655D01*
X150163600Y-90447144D01*
X150753600Y-90447144D01*
X150760001Y-90506672D01*
X150760003Y-90506679D01*
X150810245Y-90641386D01*
X150810249Y-90641393D01*
X150896409Y-90756487D01*
X150896412Y-90756490D01*
X151011506Y-90842650D01*
X151011513Y-90842654D01*
X151146220Y-90892896D01*
X151146227Y-90892898D01*
X151205755Y-90899299D01*
X151205772Y-90899300D01*
X151410000Y-90899300D01*
X151410000Y-89900000D01*
X150753600Y-89900000D01*
X150753600Y-90447144D01*
X150163600Y-90447144D01*
X150163600Y-89395700D01*
X144169200Y-89395700D01*
X144169200Y-107404300D01*
X118557735Y-107404300D01*
X100006290Y-88852855D01*
X150753600Y-88852855D01*
X150753600Y-89400000D01*
X151410000Y-89400000D01*
X151410000Y-88400700D01*
X151205755Y-88400700D01*
X151146227Y-88407101D01*
X151146220Y-88407103D01*
X151011513Y-88457345D01*
X151011506Y-88457349D01*
X150896412Y-88543509D01*
X150896409Y-88543512D01*
X150810249Y-88658606D01*
X150810245Y-88658613D01*
X150760003Y-88793320D01*
X150760001Y-88793327D01*
X150753600Y-88852855D01*
X100006290Y-88852855D01*
X97366819Y-86213384D01*
X97333334Y-86152061D01*
X97330500Y-86125703D01*
X97330500Y-82569060D01*
X97330501Y-82569047D01*
X97330501Y-82400945D01*
X97330501Y-82400943D01*
X97305459Y-82307486D01*
X181315001Y-82307486D01*
X181325494Y-82410197D01*
X181380641Y-82576619D01*
X181380643Y-82576624D01*
X181472684Y-82725845D01*
X181596654Y-82849815D01*
X181745875Y-82941856D01*
X181745880Y-82941858D01*
X181912302Y-82997005D01*
X181912309Y-82997006D01*
X182015019Y-83007499D01*
X182289999Y-83007499D01*
X182790000Y-83007499D01*
X183064972Y-83007499D01*
X183064986Y-83007498D01*
X183167697Y-82997005D01*
X183334119Y-82941858D01*
X183334130Y-82941853D01*
X183473344Y-82855984D01*
X183613484Y-82715844D01*
X183699353Y-82576630D01*
X183699358Y-82576619D01*
X183754505Y-82410197D01*
X183754506Y-82410190D01*
X183764999Y-82307486D01*
X183765000Y-82307473D01*
X183765000Y-82170000D01*
X182790000Y-82170000D01*
X182790000Y-83007499D01*
X182289999Y-83007499D01*
X182290000Y-83007498D01*
X182290000Y-82170000D01*
X181315001Y-82170000D01*
X181315001Y-82307486D01*
X97305459Y-82307486D01*
X97289577Y-82248215D01*
X97260639Y-82198095D01*
X97210520Y-82111284D01*
X97098716Y-81999480D01*
X97098715Y-81999479D01*
X97094385Y-81995149D01*
X97094374Y-81995139D01*
X94833757Y-79734522D01*
X94800272Y-79673199D01*
X94803507Y-79608523D01*
X94817246Y-79566243D01*
X94850500Y-79356287D01*
X94850500Y-79143713D01*
X94817246Y-78933757D01*
X94751557Y-78731588D01*
X94655051Y-78542184D01*
X94655049Y-78542181D01*
X94655048Y-78542179D01*
X94530109Y-78370213D01*
X94379786Y-78219890D01*
X94207817Y-78094949D01*
X94198504Y-78090204D01*
X94147707Y-78042230D01*
X94130912Y-77974409D01*
X94153449Y-77908274D01*
X94198507Y-77869232D01*
X94207555Y-77864622D01*
X94261716Y-77825270D01*
X94261717Y-77825270D01*
X93629408Y-77192962D01*
X93692993Y-77175925D01*
X93807007Y-77110099D01*
X93900099Y-77017007D01*
X93965925Y-76902993D01*
X93982962Y-76839409D01*
X94615270Y-77471717D01*
X94615270Y-77471716D01*
X94654622Y-77417554D01*
X94751095Y-77228217D01*
X94816757Y-77026130D01*
X94816757Y-77026127D01*
X94850000Y-76816246D01*
X94850000Y-76746153D01*
X141398500Y-76746153D01*
X141398500Y-76903846D01*
X141429261Y-77058489D01*
X141429264Y-77058501D01*
X141489602Y-77204172D01*
X141489609Y-77204185D01*
X141577602Y-77335874D01*
X141583252Y-77353920D01*
X141593477Y-77369830D01*
X141597928Y-77400789D01*
X141598480Y-77402551D01*
X141598500Y-77404765D01*
X141598500Y-77638330D01*
X141598499Y-77638348D01*
X141598499Y-77804054D01*
X141598498Y-77804054D01*
X141623898Y-77898846D01*
X141639423Y-77956785D01*
X141659908Y-77992265D01*
X141688755Y-78042230D01*
X141718479Y-78093715D01*
X141837349Y-78212585D01*
X141837355Y-78212590D01*
X142977584Y-79352819D01*
X143011069Y-79414142D01*
X143006085Y-79483834D01*
X142964213Y-79539767D01*
X142898749Y-79564184D01*
X142889903Y-79564500D01*
X142750155Y-79564500D01*
X142595510Y-79595261D01*
X142595498Y-79595264D01*
X142449827Y-79655602D01*
X142449814Y-79655609D01*
X142318711Y-79743210D01*
X142318707Y-79743213D01*
X142207213Y-79854707D01*
X142207210Y-79854711D01*
X142119609Y-79985814D01*
X142119602Y-79985827D01*
X142059264Y-80131498D01*
X142059261Y-80131510D01*
X142028500Y-80286153D01*
X142028500Y-80443846D01*
X142059261Y-80598489D01*
X142059264Y-80598501D01*
X142119602Y-80744172D01*
X142119609Y-80744185D01*
X142207210Y-80875288D01*
X142207213Y-80875292D01*
X142318707Y-80986786D01*
X142318711Y-80986789D01*
X142449814Y-81074390D01*
X142449827Y-81074397D01*
X142563541Y-81121498D01*
X142595503Y-81134737D01*
X142750153Y-81165499D01*
X142750156Y-81165500D01*
X142750158Y-81165500D01*
X142907844Y-81165500D01*
X142907845Y-81165499D01*
X143062497Y-81134737D01*
X143208179Y-81074394D01*
X143339289Y-80986789D01*
X143450789Y-80875289D01*
X143538394Y-80744179D01*
X143542938Y-80733210D01*
X143552067Y-80711166D01*
X143598737Y-80598497D01*
X143629500Y-80443842D01*
X143629500Y-80304097D01*
X143649185Y-80237058D01*
X143701989Y-80191303D01*
X143771147Y-80181359D01*
X143834703Y-80210384D01*
X143841181Y-80216416D01*
X144994425Y-81369660D01*
X145027910Y-81430983D01*
X145028361Y-81433149D01*
X145059261Y-81588491D01*
X145059264Y-81588501D01*
X145119602Y-81734172D01*
X145119609Y-81734185D01*
X145207210Y-81865288D01*
X145207213Y-81865292D01*
X145318707Y-81976786D01*
X145318711Y-81976789D01*
X145449814Y-82064390D01*
X145449827Y-82064397D01*
X145595498Y-82124735D01*
X145595503Y-82124737D01*
X145750153Y-82155499D01*
X145750156Y-82155500D01*
X145750158Y-82155500D01*
X145907844Y-82155500D01*
X145907845Y-82155499D01*
X146062497Y-82124737D01*
X146208179Y-82064394D01*
X146208185Y-82064390D01*
X146281301Y-82015536D01*
X146311826Y-81995139D01*
X146339289Y-81976789D01*
X146450789Y-81865289D01*
X146538394Y-81734179D01*
X146598737Y-81588497D01*
X146629500Y-81433842D01*
X146629500Y-81276158D01*
X146629500Y-81276155D01*
X146629499Y-81276153D01*
X146628590Y-81271585D01*
X146598737Y-81121503D01*
X146597171Y-81117722D01*
X146538397Y-80975827D01*
X146538390Y-80975814D01*
X146450789Y-80844711D01*
X146450786Y-80844707D01*
X146339292Y-80733213D01*
X146339288Y-80733210D01*
X146208185Y-80645609D01*
X146208172Y-80645602D01*
X146062501Y-80585264D01*
X146062491Y-80585261D01*
X145907149Y-80554361D01*
X145845238Y-80521976D01*
X145843660Y-80520425D01*
X144099388Y-78776153D01*
X145938500Y-78776153D01*
X145938500Y-78933846D01*
X145969261Y-79088489D01*
X145969264Y-79088501D01*
X146029602Y-79234172D01*
X146029609Y-79234185D01*
X146117210Y-79365288D01*
X146117213Y-79365292D01*
X146228707Y-79476786D01*
X146228711Y-79476789D01*
X146359814Y-79564390D01*
X146359827Y-79564397D01*
X146476795Y-79612846D01*
X146505503Y-79624737D01*
X146660153Y-79655499D01*
X146660156Y-79655500D01*
X146660158Y-79655500D01*
X146817844Y-79655500D01*
X146817845Y-79655499D01*
X146972497Y-79624737D01*
X147113715Y-79566243D01*
X147118172Y-79564397D01*
X147118172Y-79564396D01*
X147118179Y-79564394D01*
X147249289Y-79476789D01*
X147270925Y-79455153D01*
X166144500Y-79455153D01*
X166144500Y-79612846D01*
X166175261Y-79767489D01*
X166175264Y-79767501D01*
X166235602Y-79913172D01*
X166235609Y-79913185D01*
X166323210Y-80044288D01*
X166323213Y-80044292D01*
X166434707Y-80155786D01*
X166434711Y-80155789D01*
X166565814Y-80243390D01*
X166565827Y-80243397D01*
X166669051Y-80286153D01*
X166711503Y-80303737D01*
X166866153Y-80334499D01*
X166866156Y-80334500D01*
X166866158Y-80334500D01*
X167023844Y-80334500D01*
X167023845Y-80334499D01*
X167178497Y-80303737D01*
X167324179Y-80243394D01*
X167455289Y-80155789D01*
X167566789Y-80044289D01*
X167654394Y-79913179D01*
X167714737Y-79767497D01*
X167745500Y-79612842D01*
X167745500Y-79455158D01*
X167745500Y-79455155D01*
X167745499Y-79455153D01*
X167727624Y-79365289D01*
X167714737Y-79300503D01*
X167702394Y-79270704D01*
X167654397Y-79154827D01*
X167654390Y-79154814D01*
X167566789Y-79023711D01*
X167566786Y-79023707D01*
X167455292Y-78912213D01*
X167455288Y-78912210D01*
X167324185Y-78824609D01*
X167324172Y-78824602D01*
X167178501Y-78764264D01*
X167178489Y-78764261D01*
X167023845Y-78733500D01*
X167023842Y-78733500D01*
X166866158Y-78733500D01*
X166866155Y-78733500D01*
X166711510Y-78764261D01*
X166711498Y-78764264D01*
X166565827Y-78824602D01*
X166565814Y-78824609D01*
X166434711Y-78912210D01*
X166434707Y-78912213D01*
X166323213Y-79023707D01*
X166323210Y-79023711D01*
X166235609Y-79154814D01*
X166235602Y-79154827D01*
X166175264Y-79300498D01*
X166175261Y-79300510D01*
X166144500Y-79455153D01*
X147270925Y-79455153D01*
X147360789Y-79365289D01*
X147448394Y-79234179D01*
X147508737Y-79088497D01*
X147539500Y-78933842D01*
X147539500Y-78776158D01*
X147539500Y-78776155D01*
X147539499Y-78776153D01*
X147537134Y-78764263D01*
X147508737Y-78621503D01*
X147495579Y-78589737D01*
X147448397Y-78475827D01*
X147448390Y-78475814D01*
X147360789Y-78344711D01*
X147360786Y-78344707D01*
X147249292Y-78233213D01*
X147249288Y-78233210D01*
X147118185Y-78145609D01*
X147118172Y-78145602D01*
X146972501Y-78085264D01*
X146972489Y-78085261D01*
X146817845Y-78054500D01*
X146817842Y-78054500D01*
X146660158Y-78054500D01*
X146660155Y-78054500D01*
X146505510Y-78085261D01*
X146505498Y-78085264D01*
X146359827Y-78145602D01*
X146359814Y-78145609D01*
X146228711Y-78233210D01*
X146228707Y-78233213D01*
X146117213Y-78344707D01*
X146117210Y-78344711D01*
X146029609Y-78475814D01*
X146029602Y-78475827D01*
X145969264Y-78621498D01*
X145969261Y-78621510D01*
X145938500Y-78776153D01*
X144099388Y-78776153D01*
X142835819Y-77512584D01*
X142821115Y-77485656D01*
X142804523Y-77459838D01*
X142803631Y-77453637D01*
X142802334Y-77451261D01*
X142799500Y-77424903D01*
X142799500Y-77404765D01*
X142819185Y-77337726D01*
X142820398Y-77335874D01*
X142869146Y-77262918D01*
X158747735Y-77262918D01*
X158747735Y-77420611D01*
X158778496Y-77575254D01*
X158778499Y-77575266D01*
X158838837Y-77720937D01*
X158838844Y-77720950D01*
X158926445Y-77852053D01*
X158926448Y-77852057D01*
X159037942Y-77963551D01*
X159037946Y-77963554D01*
X159169049Y-78051155D01*
X159169062Y-78051162D01*
X159271796Y-78093715D01*
X159314738Y-78111502D01*
X159469388Y-78142264D01*
X159469391Y-78142265D01*
X159469393Y-78142265D01*
X159627079Y-78142265D01*
X159627080Y-78142264D01*
X159781732Y-78111502D01*
X159927414Y-78051159D01*
X160058524Y-77963554D01*
X160170024Y-77852054D01*
X160257629Y-77720944D01*
X160284096Y-77657044D01*
X160327935Y-77602645D01*
X160394229Y-77580579D01*
X160398656Y-77580500D01*
X161120234Y-77580500D01*
X161187273Y-77600185D01*
X161189125Y-77601398D01*
X161320814Y-77689390D01*
X161320827Y-77689397D01*
X161445779Y-77741153D01*
X161466503Y-77749737D01*
X161621153Y-77780499D01*
X161621156Y-77780500D01*
X161621158Y-77780500D01*
X161778844Y-77780500D01*
X161778845Y-77780499D01*
X161933497Y-77749737D01*
X162079179Y-77689394D01*
X162210289Y-77601789D01*
X162321789Y-77490289D01*
X162409394Y-77359179D01*
X162419290Y-77335289D01*
X162469735Y-77213501D01*
X162469737Y-77213497D01*
X162500500Y-77058842D01*
X162500500Y-76901158D01*
X162500500Y-76901155D01*
X162500499Y-76901153D01*
X162484810Y-76822280D01*
X162469737Y-76746503D01*
X162458749Y-76719975D01*
X162409397Y-76600827D01*
X162409390Y-76600814D01*
X162321789Y-76469711D01*
X162321786Y-76469707D01*
X162210292Y-76358213D01*
X162210288Y-76358210D01*
X162079185Y-76270609D01*
X162079172Y-76270602D01*
X161933501Y-76210264D01*
X161933489Y-76210261D01*
X161778845Y-76179500D01*
X161778842Y-76179500D01*
X161621158Y-76179500D01*
X161621155Y-76179500D01*
X161466510Y-76210261D01*
X161466498Y-76210264D01*
X161320827Y-76270602D01*
X161320814Y-76270609D01*
X161189125Y-76358602D01*
X161122447Y-76379480D01*
X161120234Y-76379500D01*
X159996669Y-76379500D01*
X159996653Y-76379499D01*
X159989057Y-76379499D01*
X159830943Y-76379499D01*
X159743264Y-76402993D01*
X159678214Y-76420423D01*
X159636737Y-76444370D01*
X159636726Y-76444376D01*
X159634225Y-76445821D01*
X159541284Y-76499480D01*
X159524119Y-76516644D01*
X159512864Y-76523868D01*
X159491647Y-76530082D01*
X159472245Y-76540677D01*
X159470083Y-76541127D01*
X159314743Y-76572026D01*
X159314733Y-76572029D01*
X159169062Y-76632367D01*
X159169049Y-76632374D01*
X159037946Y-76719975D01*
X159037942Y-76719978D01*
X158926448Y-76831472D01*
X158926445Y-76831476D01*
X158838844Y-76962579D01*
X158838837Y-76962592D01*
X158778499Y-77108263D01*
X158778496Y-77108275D01*
X158747735Y-77262918D01*
X142869146Y-77262918D01*
X142908390Y-77204185D01*
X142908390Y-77204184D01*
X142908394Y-77204179D01*
X142910867Y-77198210D01*
X142947153Y-77110606D01*
X142968737Y-77058497D01*
X142999500Y-76903842D01*
X142999500Y-76746158D01*
X142999500Y-76746155D01*
X142999499Y-76746153D01*
X142974079Y-76618359D01*
X142968737Y-76591503D01*
X142960670Y-76572028D01*
X142908397Y-76445827D01*
X142908390Y-76445814D01*
X142820789Y-76314711D01*
X142820786Y-76314707D01*
X142709292Y-76203213D01*
X142709288Y-76203210D01*
X142578185Y-76115609D01*
X142578172Y-76115602D01*
X142432501Y-76055264D01*
X142432489Y-76055261D01*
X142277845Y-76024500D01*
X142277842Y-76024500D01*
X142120158Y-76024500D01*
X142120155Y-76024500D01*
X141965510Y-76055261D01*
X141965498Y-76055264D01*
X141819827Y-76115602D01*
X141819814Y-76115609D01*
X141688711Y-76203210D01*
X141688707Y-76203213D01*
X141577213Y-76314707D01*
X141577210Y-76314711D01*
X141489609Y-76445814D01*
X141489602Y-76445827D01*
X141429264Y-76591498D01*
X141429261Y-76591510D01*
X141398500Y-76746153D01*
X94850000Y-76746153D01*
X94850000Y-76603753D01*
X94816757Y-76393872D01*
X94816757Y-76393869D01*
X94751095Y-76191782D01*
X94654624Y-76002449D01*
X94615270Y-75948282D01*
X94615269Y-75948282D01*
X93982962Y-76580590D01*
X93965925Y-76517007D01*
X93900099Y-76402993D01*
X93807007Y-76309901D01*
X93692993Y-76244075D01*
X93629409Y-76227037D01*
X94298932Y-75557513D01*
X181315000Y-75557513D01*
X181315000Y-75695000D01*
X182290000Y-75695000D01*
X182290000Y-74857500D01*
X182015029Y-74857500D01*
X182015012Y-74857501D01*
X181912302Y-74867994D01*
X181745880Y-74923141D01*
X181745875Y-74923143D01*
X181596654Y-75015184D01*
X181472684Y-75139154D01*
X181380643Y-75288375D01*
X181380641Y-75288380D01*
X181325494Y-75454802D01*
X181325493Y-75454809D01*
X181315000Y-75557513D01*
X94298932Y-75557513D01*
X94299627Y-75556818D01*
X94360950Y-75523333D01*
X94387307Y-75520499D01*
X94397872Y-75520499D01*
X94457483Y-75514091D01*
X94592331Y-75463796D01*
X94707546Y-75377546D01*
X94793796Y-75262331D01*
X94844091Y-75127483D01*
X94850500Y-75067873D01*
X94850499Y-74371153D01*
X121234858Y-74371153D01*
X121234858Y-74528846D01*
X121265619Y-74683489D01*
X121265622Y-74683501D01*
X121325960Y-74829172D01*
X121325967Y-74829185D01*
X121413568Y-74960288D01*
X121413571Y-74960292D01*
X121525065Y-75071786D01*
X121525069Y-75071789D01*
X121656172Y-75159390D01*
X121656185Y-75159397D01*
X121801856Y-75219735D01*
X121801861Y-75219737D01*
X121956511Y-75250499D01*
X121956514Y-75250500D01*
X121956516Y-75250500D01*
X122114202Y-75250500D01*
X122114203Y-75250499D01*
X122268855Y-75219737D01*
X122414537Y-75159394D01*
X122545647Y-75071789D01*
X122657147Y-74960289D01*
X122744752Y-74829179D01*
X122805095Y-74683497D01*
X122835858Y-74528842D01*
X122835858Y-74371158D01*
X122835858Y-74371155D01*
X122835857Y-74371153D01*
X122825449Y-74318831D01*
X122805095Y-74216503D01*
X122805093Y-74216498D01*
X122744755Y-74070827D01*
X122744748Y-74070814D01*
X122657147Y-73939711D01*
X122657144Y-73939707D01*
X122545650Y-73828213D01*
X122545646Y-73828210D01*
X122414543Y-73740609D01*
X122414530Y-73740602D01*
X122268859Y-73680264D01*
X122268847Y-73680261D01*
X122114203Y-73649500D01*
X122114200Y-73649500D01*
X121956516Y-73649500D01*
X121956513Y-73649500D01*
X121801868Y-73680261D01*
X121801856Y-73680264D01*
X121656185Y-73740602D01*
X121656172Y-73740609D01*
X121525069Y-73828210D01*
X121525065Y-73828213D01*
X121413571Y-73939707D01*
X121413568Y-73939711D01*
X121325967Y-74070814D01*
X121325960Y-74070827D01*
X121265622Y-74216498D01*
X121265619Y-74216510D01*
X121234858Y-74371153D01*
X94850499Y-74371153D01*
X94850499Y-74070827D01*
X94850499Y-73272129D01*
X94850498Y-73272123D01*
X94850497Y-73272116D01*
X94844091Y-73212517D01*
X94839531Y-73200292D01*
X94793797Y-73077671D01*
X94793793Y-73077664D01*
X94707547Y-72962455D01*
X94707544Y-72962452D01*
X94592335Y-72876206D01*
X94592328Y-72876202D01*
X94457482Y-72825908D01*
X94457483Y-72825908D01*
X94397883Y-72819501D01*
X94397881Y-72819500D01*
X94397873Y-72819500D01*
X94397864Y-72819500D01*
X92602129Y-72819500D01*
X92602123Y-72819501D01*
X92542516Y-72825908D01*
X92407671Y-72876202D01*
X92407664Y-72876206D01*
X92292455Y-72962452D01*
X92292452Y-72962455D01*
X92206206Y-73077664D01*
X92206202Y-73077671D01*
X92155908Y-73212517D01*
X92153909Y-73231115D01*
X92149501Y-73272123D01*
X92149500Y-73272135D01*
X92149500Y-75067870D01*
X92149501Y-75067876D01*
X92155908Y-75127483D01*
X92206202Y-75262328D01*
X92206206Y-75262335D01*
X92292452Y-75377544D01*
X92292455Y-75377547D01*
X92407664Y-75463793D01*
X92407671Y-75463797D01*
X92416262Y-75467001D01*
X92542517Y-75514091D01*
X92602127Y-75520500D01*
X92612685Y-75520499D01*
X92679723Y-75540179D01*
X92700372Y-75556818D01*
X93370591Y-76227037D01*
X93307007Y-76244075D01*
X93192993Y-76309901D01*
X93099901Y-76402993D01*
X93034075Y-76517007D01*
X93017037Y-76580591D01*
X92384728Y-75948282D01*
X92384727Y-75948282D01*
X92345380Y-76002439D01*
X92248904Y-76191782D01*
X92183242Y-76393869D01*
X92183242Y-76393872D01*
X92150000Y-76603753D01*
X92150000Y-76816246D01*
X92183242Y-77026127D01*
X92183242Y-77026130D01*
X92248904Y-77228217D01*
X92345375Y-77417550D01*
X92384728Y-77471716D01*
X93017037Y-76839408D01*
X93034075Y-76902993D01*
X93099901Y-77017007D01*
X93192993Y-77110099D01*
X93307007Y-77175925D01*
X93370590Y-77192962D01*
X92738282Y-77825269D01*
X92738282Y-77825270D01*
X92792452Y-77864626D01*
X92792451Y-77864626D01*
X92801495Y-77869234D01*
X92852292Y-77917208D01*
X92869087Y-77985029D01*
X92846550Y-78051164D01*
X92801499Y-78090202D01*
X92792182Y-78094949D01*
X92620213Y-78219890D01*
X92469890Y-78370213D01*
X92344951Y-78542179D01*
X92248444Y-78731585D01*
X92182753Y-78933760D01*
X92149500Y-79143713D01*
X92149500Y-79356286D01*
X92182753Y-79566239D01*
X92182753Y-79566241D01*
X92182754Y-79566243D01*
X92240255Y-79743213D01*
X92248444Y-79768414D01*
X92344951Y-79957820D01*
X92469890Y-80129786D01*
X92620213Y-80280109D01*
X92792182Y-80405050D01*
X92800946Y-80409516D01*
X92851742Y-80457491D01*
X92868536Y-80525312D01*
X92845998Y-80591447D01*
X92800946Y-80630484D01*
X92792182Y-80634949D01*
X92620213Y-80759890D01*
X92469890Y-80910213D01*
X92344951Y-81082179D01*
X92248444Y-81271585D01*
X92182753Y-81473760D01*
X92149500Y-81683713D01*
X92149500Y-81896286D01*
X92182753Y-82106239D01*
X92182753Y-82106241D01*
X92182754Y-82106243D01*
X92237431Y-82274522D01*
X92248444Y-82308414D01*
X92344951Y-82497820D01*
X92469890Y-82669786D01*
X92620213Y-82820109D01*
X92792182Y-82945050D01*
X92800946Y-82949516D01*
X92851742Y-82997491D01*
X92868536Y-83065312D01*
X92845998Y-83131447D01*
X92800946Y-83170484D01*
X92792182Y-83174949D01*
X92620213Y-83299890D01*
X92469890Y-83450213D01*
X92344951Y-83622179D01*
X92248444Y-83811585D01*
X92182753Y-84013760D01*
X92149500Y-84223713D01*
X92149500Y-84436286D01*
X92182753Y-84646239D01*
X92248444Y-84848414D01*
X92344951Y-85037820D01*
X92469890Y-85209786D01*
X92620213Y-85360109D01*
X92792182Y-85485050D01*
X92800946Y-85489516D01*
X92851742Y-85537491D01*
X92868536Y-85605312D01*
X92845998Y-85671447D01*
X92800946Y-85710484D01*
X92792182Y-85714949D01*
X92620213Y-85839890D01*
X92469890Y-85990213D01*
X92344951Y-86162179D01*
X92248444Y-86351585D01*
X92182753Y-86553760D01*
X92149500Y-86763713D01*
X92149500Y-86976286D01*
X92182754Y-87186244D01*
X92182754Y-87186247D01*
X92196491Y-87228523D01*
X92198486Y-87298364D01*
X92166241Y-87354522D01*
X90901286Y-88619478D01*
X90789481Y-88731282D01*
X90789479Y-88731285D01*
X90766901Y-88770391D01*
X90744323Y-88809499D01*
X90710423Y-88868215D01*
X90669499Y-89020943D01*
X90669499Y-89020945D01*
X90669499Y-89189046D01*
X90669500Y-89189059D01*
X90669500Y-94335500D01*
X90649815Y-94402539D01*
X90597011Y-94448294D01*
X90545500Y-94459500D01*
X90391155Y-94459500D01*
X90236510Y-94490261D01*
X90236498Y-94490264D01*
X90090827Y-94550602D01*
X90090814Y-94550609D01*
X89959711Y-94638210D01*
X89959707Y-94638213D01*
X89848213Y-94749707D01*
X89848210Y-94749711D01*
X89760609Y-94880814D01*
X89760602Y-94880827D01*
X89700264Y-95026498D01*
X89700261Y-95026510D01*
X89669500Y-95181153D01*
X88952470Y-95181153D01*
X88952470Y-64462332D01*
X91709500Y-64462332D01*
X91709500Y-64737667D01*
X91709501Y-64737684D01*
X91745438Y-65010655D01*
X91745439Y-65010660D01*
X91745440Y-65010666D01*
X91745441Y-65010668D01*
X91816704Y-65276630D01*
X91922075Y-65531017D01*
X91922080Y-65531028D01*
X92001809Y-65669121D01*
X92059751Y-65769479D01*
X92059753Y-65769482D01*
X92059754Y-65769483D01*
X92227370Y-65987926D01*
X92227376Y-65987933D01*
X92422066Y-66182623D01*
X92422072Y-66182628D01*
X92640521Y-66350249D01*
X92793778Y-66438732D01*
X92878971Y-66487919D01*
X92878976Y-66487921D01*
X92878979Y-66487923D01*
X93133368Y-66593295D01*
X93399334Y-66664560D01*
X93672326Y-66700500D01*
X93672333Y-66700500D01*
X93947667Y-66700500D01*
X93947674Y-66700500D01*
X94220666Y-66664560D01*
X94486632Y-66593295D01*
X94741021Y-66487923D01*
X94979479Y-66350249D01*
X95197928Y-66182628D01*
X95392628Y-65987928D01*
X95560249Y-65769479D01*
X95697923Y-65531021D01*
X95803295Y-65276632D01*
X95874560Y-65010666D01*
X95910500Y-64737674D01*
X95910500Y-64462332D01*
X193649500Y-64462332D01*
X193649500Y-64737667D01*
X193649501Y-64737684D01*
X193685438Y-65010655D01*
X193685439Y-65010660D01*
X193685440Y-65010666D01*
X193685441Y-65010668D01*
X193756704Y-65276630D01*
X193862075Y-65531017D01*
X193862080Y-65531028D01*
X193941809Y-65669121D01*
X193999751Y-65769479D01*
X193999753Y-65769482D01*
X193999754Y-65769483D01*
X194167370Y-65987926D01*
X194167376Y-65987933D01*
X194362066Y-66182623D01*
X194362072Y-66182628D01*
X194580521Y-66350249D01*
X194733778Y-66438732D01*
X194818971Y-66487919D01*
X194818976Y-66487921D01*
X194818979Y-66487923D01*
X195073368Y-66593295D01*
X195339334Y-66664560D01*
X195612326Y-66700500D01*
X195612333Y-66700500D01*
X195887667Y-66700500D01*
X195887674Y-66700500D01*
X196160666Y-66664560D01*
X196426632Y-66593295D01*
X196681021Y-66487923D01*
X196919479Y-66350249D01*
X197137928Y-66182628D01*
X197332628Y-65987928D01*
X197500249Y-65769479D01*
X197637923Y-65531021D01*
X197743295Y-65276632D01*
X197814560Y-65010666D01*
X197850500Y-64737674D01*
X197850500Y-64462326D01*
X197814560Y-64189334D01*
X197743295Y-63923368D01*
X197637923Y-63668979D01*
X197637921Y-63668976D01*
X197637919Y-63668971D01*
X197588732Y-63583778D01*
X197500249Y-63430521D01*
X197332628Y-63212072D01*
X197332623Y-63212066D01*
X197137933Y-63017376D01*
X197137926Y-63017370D01*
X196919483Y-62849754D01*
X196919482Y-62849753D01*
X196919479Y-62849751D01*
X196824407Y-62794861D01*
X196681028Y-62712080D01*
X196681017Y-62712075D01*
X196426630Y-62606704D01*
X196293649Y-62571072D01*
X196160666Y-62535440D01*
X196160660Y-62535439D01*
X196160655Y-62535438D01*
X195887684Y-62499501D01*
X195887679Y-62499500D01*
X195887674Y-62499500D01*
X195612326Y-62499500D01*
X195612320Y-62499500D01*
X195612315Y-62499501D01*
X195339344Y-62535438D01*
X195339337Y-62535439D01*
X195339334Y-62535440D01*
X195283125Y-62550500D01*
X195073369Y-62606704D01*
X194818982Y-62712075D01*
X194818971Y-62712080D01*
X194580516Y-62849754D01*
X194362073Y-63017370D01*
X194362066Y-63017376D01*
X194167376Y-63212066D01*
X194167370Y-63212073D01*
X193999754Y-63430516D01*
X193862080Y-63668971D01*
X193862075Y-63668982D01*
X193756704Y-63923369D01*
X193685441Y-64189331D01*
X193685438Y-64189344D01*
X193649501Y-64462315D01*
X193649500Y-64462332D01*
X95910500Y-64462332D01*
X95910500Y-64462326D01*
X95874560Y-64189334D01*
X95803295Y-63923368D01*
X95697923Y-63668979D01*
X95697921Y-63668976D01*
X95697919Y-63668971D01*
X95648732Y-63583778D01*
X95560249Y-63430521D01*
X95392628Y-63212072D01*
X95392623Y-63212066D01*
X95197933Y-63017376D01*
X95197926Y-63017370D01*
X94979483Y-62849754D01*
X94979482Y-62849753D01*
X94979479Y-62849751D01*
X94884407Y-62794861D01*
X94741028Y-62712080D01*
X94741017Y-62712075D01*
X94486630Y-62606704D01*
X94353649Y-62571072D01*
X94220666Y-62535440D01*
X94220660Y-62535439D01*
X94220655Y-62535438D01*
X93947684Y-62499501D01*
X93947679Y-62499500D01*
X93947674Y-62499500D01*
X93672326Y-62499500D01*
X93672320Y-62499500D01*
X93672315Y-62499501D01*
X93399344Y-62535438D01*
X93399337Y-62535439D01*
X93399334Y-62535440D01*
X93343125Y-62550500D01*
X93133369Y-62606704D01*
X92878982Y-62712075D01*
X92878971Y-62712080D01*
X92640516Y-62849754D01*
X92422073Y-63017370D01*
X92422066Y-63017376D01*
X92227376Y-63212066D01*
X92227370Y-63212073D01*
X92059754Y-63430516D01*
X91922080Y-63668971D01*
X91922075Y-63668982D01*
X91816704Y-63923369D01*
X91745441Y-64189331D01*
X91745438Y-64189344D01*
X91709501Y-64462315D01*
X91709500Y-64462332D01*
X88952470Y-64462332D01*
X88952470Y-62256471D01*
X88972155Y-62189432D01*
X89024959Y-62143677D01*
X89076470Y-62132471D01*
X199165500Y-62132471D01*
X199232539Y-62152156D01*
G37*
%TD.AperFunction*%
%TD*%
M02*
