%TF.GenerationSoftware,KiCad,Pcbnew,9.0.5*%
%TF.CreationDate,2025-11-10T21:46:58+01:00*%
%TF.ProjectId,ESP32 Project,45535033-3220-4507-926f-6a6563742e6b,rev?*%
%TF.SameCoordinates,Original*%
%TF.FileFunction,Legend,Bot*%
%TF.FilePolarity,Positive*%
%FSLAX46Y46*%
G04 Gerber Fmt 4.6, Leading zero omitted, Abs format (unit mm)*
G04 Created by KiCad (PCBNEW 9.0.5) date 2025-11-10 21:46:58*
%MOMM*%
%LPD*%
G01*
G04 APERTURE LIST*
%ADD10C,0.150000*%
%ADD11C,0.254000*%
%ADD12C,0.152400*%
%ADD13C,0.508000*%
%ADD14C,0.120000*%
%ADD15C,0.200000*%
%ADD16C,0.100000*%
G04 APERTURE END LIST*
D10*
X196162221Y-107494355D02*
X195162221Y-107494355D01*
X195162221Y-107494355D02*
X195162221Y-107875307D01*
X195162221Y-107875307D02*
X195209840Y-107970545D01*
X195209840Y-107970545D02*
X195257459Y-108018164D01*
X195257459Y-108018164D02*
X195352697Y-108065783D01*
X195352697Y-108065783D02*
X195495554Y-108065783D01*
X195495554Y-108065783D02*
X195590792Y-108018164D01*
X195590792Y-108018164D02*
X195638411Y-107970545D01*
X195638411Y-107970545D02*
X195686030Y-107875307D01*
X195686030Y-107875307D02*
X195686030Y-107494355D01*
X196162221Y-109018164D02*
X196162221Y-108446736D01*
X196162221Y-108732450D02*
X195162221Y-108732450D01*
X195162221Y-108732450D02*
X195305078Y-108637212D01*
X195305078Y-108637212D02*
X195400316Y-108541974D01*
X195400316Y-108541974D02*
X195447935Y-108446736D01*
X140382333Y-76989819D02*
X140382333Y-77704104D01*
X140382333Y-77704104D02*
X140429952Y-77846961D01*
X140429952Y-77846961D02*
X140525190Y-77942200D01*
X140525190Y-77942200D02*
X140668047Y-77989819D01*
X140668047Y-77989819D02*
X140763285Y-77989819D01*
X139906142Y-77989819D02*
X139906142Y-76989819D01*
X139906142Y-76989819D02*
X139525190Y-76989819D01*
X139525190Y-76989819D02*
X139429952Y-77037438D01*
X139429952Y-77037438D02*
X139382333Y-77085057D01*
X139382333Y-77085057D02*
X139334714Y-77180295D01*
X139334714Y-77180295D02*
X139334714Y-77323152D01*
X139334714Y-77323152D02*
X139382333Y-77418390D01*
X139382333Y-77418390D02*
X139429952Y-77466009D01*
X139429952Y-77466009D02*
X139525190Y-77513628D01*
X139525190Y-77513628D02*
X139906142Y-77513628D01*
X138382333Y-77989819D02*
X138953761Y-77989819D01*
X138668047Y-77989819D02*
X138668047Y-76989819D01*
X138668047Y-76989819D02*
X138763285Y-77132676D01*
X138763285Y-77132676D02*
X138858523Y-77227914D01*
X138858523Y-77227914D02*
X138953761Y-77275533D01*
X121154524Y-75049580D02*
X121202143Y-75097200D01*
X121202143Y-75097200D02*
X121345000Y-75144819D01*
X121345000Y-75144819D02*
X121440238Y-75144819D01*
X121440238Y-75144819D02*
X121583095Y-75097200D01*
X121583095Y-75097200D02*
X121678333Y-75001961D01*
X121678333Y-75001961D02*
X121725952Y-74906723D01*
X121725952Y-74906723D02*
X121773571Y-74716247D01*
X121773571Y-74716247D02*
X121773571Y-74573390D01*
X121773571Y-74573390D02*
X121725952Y-74382914D01*
X121725952Y-74382914D02*
X121678333Y-74287676D01*
X121678333Y-74287676D02*
X121583095Y-74192438D01*
X121583095Y-74192438D02*
X121440238Y-74144819D01*
X121440238Y-74144819D02*
X121345000Y-74144819D01*
X121345000Y-74144819D02*
X121202143Y-74192438D01*
X121202143Y-74192438D02*
X121154524Y-74240057D01*
X120821190Y-74144819D02*
X120154524Y-74144819D01*
X120154524Y-74144819D02*
X120583095Y-75144819D01*
X142015166Y-76914580D02*
X142062785Y-76962200D01*
X142062785Y-76962200D02*
X142205642Y-77009819D01*
X142205642Y-77009819D02*
X142300880Y-77009819D01*
X142300880Y-77009819D02*
X142443737Y-76962200D01*
X142443737Y-76962200D02*
X142538975Y-76866961D01*
X142538975Y-76866961D02*
X142586594Y-76771723D01*
X142586594Y-76771723D02*
X142634213Y-76581247D01*
X142634213Y-76581247D02*
X142634213Y-76438390D01*
X142634213Y-76438390D02*
X142586594Y-76247914D01*
X142586594Y-76247914D02*
X142538975Y-76152676D01*
X142538975Y-76152676D02*
X142443737Y-76057438D01*
X142443737Y-76057438D02*
X142300880Y-76009819D01*
X142300880Y-76009819D02*
X142205642Y-76009819D01*
X142205642Y-76009819D02*
X142062785Y-76057438D01*
X142062785Y-76057438D02*
X142015166Y-76105057D01*
X141158023Y-76343152D02*
X141158023Y-77009819D01*
X141396118Y-75962200D02*
X141634213Y-76676485D01*
X141634213Y-76676485D02*
X141015166Y-76676485D01*
X158193333Y-74674819D02*
X158193333Y-75389104D01*
X158193333Y-75389104D02*
X158240952Y-75531961D01*
X158240952Y-75531961D02*
X158336190Y-75627200D01*
X158336190Y-75627200D02*
X158479047Y-75674819D01*
X158479047Y-75674819D02*
X158574285Y-75674819D01*
X157717142Y-75674819D02*
X157717142Y-74674819D01*
X157717142Y-74674819D02*
X157336190Y-74674819D01*
X157336190Y-74674819D02*
X157240952Y-74722438D01*
X157240952Y-74722438D02*
X157193333Y-74770057D01*
X157193333Y-74770057D02*
X157145714Y-74865295D01*
X157145714Y-74865295D02*
X157145714Y-75008152D01*
X157145714Y-75008152D02*
X157193333Y-75103390D01*
X157193333Y-75103390D02*
X157240952Y-75151009D01*
X157240952Y-75151009D02*
X157336190Y-75198628D01*
X157336190Y-75198628D02*
X157717142Y-75198628D01*
X156240952Y-74674819D02*
X156717142Y-74674819D01*
X156717142Y-74674819D02*
X156764761Y-75151009D01*
X156764761Y-75151009D02*
X156717142Y-75103390D01*
X156717142Y-75103390D02*
X156621904Y-75055771D01*
X156621904Y-75055771D02*
X156383809Y-75055771D01*
X156383809Y-75055771D02*
X156288571Y-75103390D01*
X156288571Y-75103390D02*
X156240952Y-75151009D01*
X156240952Y-75151009D02*
X156193333Y-75246247D01*
X156193333Y-75246247D02*
X156193333Y-75484342D01*
X156193333Y-75484342D02*
X156240952Y-75579580D01*
X156240952Y-75579580D02*
X156288571Y-75627200D01*
X156288571Y-75627200D02*
X156383809Y-75674819D01*
X156383809Y-75674819D02*
X156621904Y-75674819D01*
X156621904Y-75674819D02*
X156717142Y-75627200D01*
X156717142Y-75627200D02*
X156764761Y-75579580D01*
X165721666Y-83664580D02*
X165769285Y-83712200D01*
X165769285Y-83712200D02*
X165912142Y-83759819D01*
X165912142Y-83759819D02*
X166007380Y-83759819D01*
X166007380Y-83759819D02*
X166150237Y-83712200D01*
X166150237Y-83712200D02*
X166245475Y-83616961D01*
X166245475Y-83616961D02*
X166293094Y-83521723D01*
X166293094Y-83521723D02*
X166340713Y-83331247D01*
X166340713Y-83331247D02*
X166340713Y-83188390D01*
X166340713Y-83188390D02*
X166293094Y-82997914D01*
X166293094Y-82997914D02*
X166245475Y-82902676D01*
X166245475Y-82902676D02*
X166150237Y-82807438D01*
X166150237Y-82807438D02*
X166007380Y-82759819D01*
X166007380Y-82759819D02*
X165912142Y-82759819D01*
X165912142Y-82759819D02*
X165769285Y-82807438D01*
X165769285Y-82807438D02*
X165721666Y-82855057D01*
X164816904Y-82759819D02*
X165293094Y-82759819D01*
X165293094Y-82759819D02*
X165340713Y-83236009D01*
X165340713Y-83236009D02*
X165293094Y-83188390D01*
X165293094Y-83188390D02*
X165197856Y-83140771D01*
X165197856Y-83140771D02*
X164959761Y-83140771D01*
X164959761Y-83140771D02*
X164864523Y-83188390D01*
X164864523Y-83188390D02*
X164816904Y-83236009D01*
X164816904Y-83236009D02*
X164769285Y-83331247D01*
X164769285Y-83331247D02*
X164769285Y-83569342D01*
X164769285Y-83569342D02*
X164816904Y-83664580D01*
X164816904Y-83664580D02*
X164864523Y-83712200D01*
X164864523Y-83712200D02*
X164959761Y-83759819D01*
X164959761Y-83759819D02*
X165197856Y-83759819D01*
X165197856Y-83759819D02*
X165293094Y-83712200D01*
X165293094Y-83712200D02*
X165340713Y-83664580D01*
X195453766Y-100667267D02*
X195787099Y-100191076D01*
X196025194Y-100667267D02*
X196025194Y-99667267D01*
X196025194Y-99667267D02*
X195644242Y-99667267D01*
X195644242Y-99667267D02*
X195549004Y-99714886D01*
X195549004Y-99714886D02*
X195501385Y-99762505D01*
X195501385Y-99762505D02*
X195453766Y-99857743D01*
X195453766Y-99857743D02*
X195453766Y-100000600D01*
X195453766Y-100000600D02*
X195501385Y-100095838D01*
X195501385Y-100095838D02*
X195549004Y-100143457D01*
X195549004Y-100143457D02*
X195644242Y-100191076D01*
X195644242Y-100191076D02*
X196025194Y-100191076D01*
X194501385Y-100667267D02*
X195072813Y-100667267D01*
X194787099Y-100667267D02*
X194787099Y-99667267D01*
X194787099Y-99667267D02*
X194882337Y-99810124D01*
X194882337Y-99810124D02*
X194977575Y-99905362D01*
X194977575Y-99905362D02*
X195072813Y-99952981D01*
X189498767Y-112137269D02*
X189832100Y-111661078D01*
X190070195Y-112137269D02*
X190070195Y-111137269D01*
X190070195Y-111137269D02*
X189689243Y-111137269D01*
X189689243Y-111137269D02*
X189594005Y-111184888D01*
X189594005Y-111184888D02*
X189546386Y-111232507D01*
X189546386Y-111232507D02*
X189498767Y-111327745D01*
X189498767Y-111327745D02*
X189498767Y-111470602D01*
X189498767Y-111470602D02*
X189546386Y-111565840D01*
X189546386Y-111565840D02*
X189594005Y-111613459D01*
X189594005Y-111613459D02*
X189689243Y-111661078D01*
X189689243Y-111661078D02*
X190070195Y-111661078D01*
X189165433Y-111137269D02*
X188498767Y-111137269D01*
X188498767Y-111137269D02*
X188927338Y-112137269D01*
X121749762Y-80244819D02*
X121749762Y-81054342D01*
X121749762Y-81054342D02*
X121702143Y-81149580D01*
X121702143Y-81149580D02*
X121654524Y-81197200D01*
X121654524Y-81197200D02*
X121559286Y-81244819D01*
X121559286Y-81244819D02*
X121368810Y-81244819D01*
X121368810Y-81244819D02*
X121273572Y-81197200D01*
X121273572Y-81197200D02*
X121225953Y-81149580D01*
X121225953Y-81149580D02*
X121178334Y-81054342D01*
X121178334Y-81054342D02*
X121178334Y-80244819D01*
X120273572Y-80244819D02*
X120464048Y-80244819D01*
X120464048Y-80244819D02*
X120559286Y-80292438D01*
X120559286Y-80292438D02*
X120606905Y-80340057D01*
X120606905Y-80340057D02*
X120702143Y-80482914D01*
X120702143Y-80482914D02*
X120749762Y-80673390D01*
X120749762Y-80673390D02*
X120749762Y-81054342D01*
X120749762Y-81054342D02*
X120702143Y-81149580D01*
X120702143Y-81149580D02*
X120654524Y-81197200D01*
X120654524Y-81197200D02*
X120559286Y-81244819D01*
X120559286Y-81244819D02*
X120368810Y-81244819D01*
X120368810Y-81244819D02*
X120273572Y-81197200D01*
X120273572Y-81197200D02*
X120225953Y-81149580D01*
X120225953Y-81149580D02*
X120178334Y-81054342D01*
X120178334Y-81054342D02*
X120178334Y-80816247D01*
X120178334Y-80816247D02*
X120225953Y-80721009D01*
X120225953Y-80721009D02*
X120273572Y-80673390D01*
X120273572Y-80673390D02*
X120368810Y-80625771D01*
X120368810Y-80625771D02*
X120559286Y-80625771D01*
X120559286Y-80625771D02*
X120654524Y-80673390D01*
X120654524Y-80673390D02*
X120702143Y-80721009D01*
X120702143Y-80721009D02*
X120749762Y-80816247D01*
D11*
X166697619Y-76924318D02*
X166697619Y-77952413D01*
X166697619Y-77952413D02*
X166637142Y-78073365D01*
X166637142Y-78073365D02*
X166576666Y-78133842D01*
X166576666Y-78133842D02*
X166455714Y-78194318D01*
X166455714Y-78194318D02*
X166213809Y-78194318D01*
X166213809Y-78194318D02*
X166092857Y-78133842D01*
X166092857Y-78133842D02*
X166032380Y-78073365D01*
X166032380Y-78073365D02*
X165971904Y-77952413D01*
X165971904Y-77952413D02*
X165971904Y-76924318D01*
X164762381Y-76924318D02*
X165367143Y-76924318D01*
X165367143Y-76924318D02*
X165427619Y-77529080D01*
X165427619Y-77529080D02*
X165367143Y-77468603D01*
X165367143Y-77468603D02*
X165246190Y-77408127D01*
X165246190Y-77408127D02*
X164943809Y-77408127D01*
X164943809Y-77408127D02*
X164822857Y-77468603D01*
X164822857Y-77468603D02*
X164762381Y-77529080D01*
X164762381Y-77529080D02*
X164701904Y-77650032D01*
X164701904Y-77650032D02*
X164701904Y-77952413D01*
X164701904Y-77952413D02*
X164762381Y-78073365D01*
X164762381Y-78073365D02*
X164822857Y-78133842D01*
X164822857Y-78133842D02*
X164943809Y-78194318D01*
X164943809Y-78194318D02*
X165246190Y-78194318D01*
X165246190Y-78194318D02*
X165367143Y-78133842D01*
X165367143Y-78133842D02*
X165427619Y-78073365D01*
D10*
X141915166Y-74814580D02*
X141962785Y-74862200D01*
X141962785Y-74862200D02*
X142105642Y-74909819D01*
X142105642Y-74909819D02*
X142200880Y-74909819D01*
X142200880Y-74909819D02*
X142343737Y-74862200D01*
X142343737Y-74862200D02*
X142438975Y-74766961D01*
X142438975Y-74766961D02*
X142486594Y-74671723D01*
X142486594Y-74671723D02*
X142534213Y-74481247D01*
X142534213Y-74481247D02*
X142534213Y-74338390D01*
X142534213Y-74338390D02*
X142486594Y-74147914D01*
X142486594Y-74147914D02*
X142438975Y-74052676D01*
X142438975Y-74052676D02*
X142343737Y-73957438D01*
X142343737Y-73957438D02*
X142200880Y-73909819D01*
X142200880Y-73909819D02*
X142105642Y-73909819D01*
X142105642Y-73909819D02*
X141962785Y-73957438D01*
X141962785Y-73957438D02*
X141915166Y-74005057D01*
X141581832Y-73909819D02*
X140962785Y-73909819D01*
X140962785Y-73909819D02*
X141296118Y-74290771D01*
X141296118Y-74290771D02*
X141153261Y-74290771D01*
X141153261Y-74290771D02*
X141058023Y-74338390D01*
X141058023Y-74338390D02*
X141010404Y-74386009D01*
X141010404Y-74386009D02*
X140962785Y-74481247D01*
X140962785Y-74481247D02*
X140962785Y-74719342D01*
X140962785Y-74719342D02*
X141010404Y-74814580D01*
X141010404Y-74814580D02*
X141058023Y-74862200D01*
X141058023Y-74862200D02*
X141153261Y-74909819D01*
X141153261Y-74909819D02*
X141438975Y-74909819D01*
X141438975Y-74909819D02*
X141534213Y-74862200D01*
X141534213Y-74862200D02*
X141581832Y-74814580D01*
D11*
X145676619Y-82424318D02*
X145676619Y-83452413D01*
X145676619Y-83452413D02*
X145616142Y-83573365D01*
X145616142Y-83573365D02*
X145555666Y-83633842D01*
X145555666Y-83633842D02*
X145434714Y-83694318D01*
X145434714Y-83694318D02*
X145192809Y-83694318D01*
X145192809Y-83694318D02*
X145071857Y-83633842D01*
X145071857Y-83633842D02*
X145011380Y-83573365D01*
X145011380Y-83573365D02*
X144950904Y-83452413D01*
X144950904Y-83452413D02*
X144950904Y-82424318D01*
X144467095Y-82424318D02*
X143680904Y-82424318D01*
X143680904Y-82424318D02*
X144104238Y-82908127D01*
X144104238Y-82908127D02*
X143922809Y-82908127D01*
X143922809Y-82908127D02*
X143801857Y-82968603D01*
X143801857Y-82968603D02*
X143741381Y-83029080D01*
X143741381Y-83029080D02*
X143680904Y-83150032D01*
X143680904Y-83150032D02*
X143680904Y-83452413D01*
X143680904Y-83452413D02*
X143741381Y-83573365D01*
X143741381Y-83573365D02*
X143801857Y-83633842D01*
X143801857Y-83633842D02*
X143922809Y-83694318D01*
X143922809Y-83694318D02*
X144285666Y-83694318D01*
X144285666Y-83694318D02*
X144406619Y-83633842D01*
X144406619Y-83633842D02*
X144467095Y-83573365D01*
D10*
X186446666Y-106954820D02*
X186779999Y-106478629D01*
X187018094Y-106954820D02*
X187018094Y-105954820D01*
X187018094Y-105954820D02*
X186637142Y-105954820D01*
X186637142Y-105954820D02*
X186541904Y-106002439D01*
X186541904Y-106002439D02*
X186494285Y-106050058D01*
X186494285Y-106050058D02*
X186446666Y-106145296D01*
X186446666Y-106145296D02*
X186446666Y-106288153D01*
X186446666Y-106288153D02*
X186494285Y-106383391D01*
X186494285Y-106383391D02*
X186541904Y-106431010D01*
X186541904Y-106431010D02*
X186637142Y-106478629D01*
X186637142Y-106478629D02*
X187018094Y-106478629D01*
X185589523Y-105954820D02*
X185779999Y-105954820D01*
X185779999Y-105954820D02*
X185875237Y-106002439D01*
X185875237Y-106002439D02*
X185922856Y-106050058D01*
X185922856Y-106050058D02*
X186018094Y-106192915D01*
X186018094Y-106192915D02*
X186065713Y-106383391D01*
X186065713Y-106383391D02*
X186065713Y-106764343D01*
X186065713Y-106764343D02*
X186018094Y-106859581D01*
X186018094Y-106859581D02*
X185970475Y-106907201D01*
X185970475Y-106907201D02*
X185875237Y-106954820D01*
X185875237Y-106954820D02*
X185684761Y-106954820D01*
X185684761Y-106954820D02*
X185589523Y-106907201D01*
X185589523Y-106907201D02*
X185541904Y-106859581D01*
X185541904Y-106859581D02*
X185494285Y-106764343D01*
X185494285Y-106764343D02*
X185494285Y-106526248D01*
X185494285Y-106526248D02*
X185541904Y-106431010D01*
X185541904Y-106431010D02*
X185589523Y-106383391D01*
X185589523Y-106383391D02*
X185684761Y-106335772D01*
X185684761Y-106335772D02*
X185875237Y-106335772D01*
X185875237Y-106335772D02*
X185970475Y-106383391D01*
X185970475Y-106383391D02*
X186018094Y-106431010D01*
X186018094Y-106431010D02*
X186065713Y-106526248D01*
X174773333Y-80824819D02*
X174773333Y-81539104D01*
X174773333Y-81539104D02*
X174820952Y-81681961D01*
X174820952Y-81681961D02*
X174916190Y-81777200D01*
X174916190Y-81777200D02*
X175059047Y-81824819D01*
X175059047Y-81824819D02*
X175154285Y-81824819D01*
X174297142Y-81824819D02*
X174297142Y-80824819D01*
X174297142Y-80824819D02*
X173916190Y-80824819D01*
X173916190Y-80824819D02*
X173820952Y-80872438D01*
X173820952Y-80872438D02*
X173773333Y-80920057D01*
X173773333Y-80920057D02*
X173725714Y-81015295D01*
X173725714Y-81015295D02*
X173725714Y-81158152D01*
X173725714Y-81158152D02*
X173773333Y-81253390D01*
X173773333Y-81253390D02*
X173820952Y-81301009D01*
X173820952Y-81301009D02*
X173916190Y-81348628D01*
X173916190Y-81348628D02*
X174297142Y-81348628D01*
X173392380Y-80824819D02*
X172773333Y-80824819D01*
X172773333Y-80824819D02*
X173106666Y-81205771D01*
X173106666Y-81205771D02*
X172963809Y-81205771D01*
X172963809Y-81205771D02*
X172868571Y-81253390D01*
X172868571Y-81253390D02*
X172820952Y-81301009D01*
X172820952Y-81301009D02*
X172773333Y-81396247D01*
X172773333Y-81396247D02*
X172773333Y-81634342D01*
X172773333Y-81634342D02*
X172820952Y-81729580D01*
X172820952Y-81729580D02*
X172868571Y-81777200D01*
X172868571Y-81777200D02*
X172963809Y-81824819D01*
X172963809Y-81824819D02*
X173249523Y-81824819D01*
X173249523Y-81824819D02*
X173344761Y-81777200D01*
X173344761Y-81777200D02*
X173392380Y-81729580D01*
X183894819Y-117191905D02*
X182894819Y-117191905D01*
X182894819Y-117191905D02*
X182894819Y-117430000D01*
X182894819Y-117430000D02*
X182942438Y-117572857D01*
X182942438Y-117572857D02*
X183037676Y-117668095D01*
X183037676Y-117668095D02*
X183132914Y-117715714D01*
X183132914Y-117715714D02*
X183323390Y-117763333D01*
X183323390Y-117763333D02*
X183466247Y-117763333D01*
X183466247Y-117763333D02*
X183656723Y-117715714D01*
X183656723Y-117715714D02*
X183751961Y-117668095D01*
X183751961Y-117668095D02*
X183847200Y-117572857D01*
X183847200Y-117572857D02*
X183894819Y-117430000D01*
X183894819Y-117430000D02*
X183894819Y-117191905D01*
X183894819Y-118715714D02*
X183894819Y-118144286D01*
X183894819Y-118430000D02*
X182894819Y-118430000D01*
X182894819Y-118430000D02*
X183037676Y-118334762D01*
X183037676Y-118334762D02*
X183132914Y-118239524D01*
X183132914Y-118239524D02*
X183180533Y-118144286D01*
X174863333Y-84754819D02*
X174863333Y-85469104D01*
X174863333Y-85469104D02*
X174910952Y-85611961D01*
X174910952Y-85611961D02*
X175006190Y-85707200D01*
X175006190Y-85707200D02*
X175149047Y-85754819D01*
X175149047Y-85754819D02*
X175244285Y-85754819D01*
X174387142Y-85754819D02*
X174387142Y-84754819D01*
X174387142Y-84754819D02*
X174006190Y-84754819D01*
X174006190Y-84754819D02*
X173910952Y-84802438D01*
X173910952Y-84802438D02*
X173863333Y-84850057D01*
X173863333Y-84850057D02*
X173815714Y-84945295D01*
X173815714Y-84945295D02*
X173815714Y-85088152D01*
X173815714Y-85088152D02*
X173863333Y-85183390D01*
X173863333Y-85183390D02*
X173910952Y-85231009D01*
X173910952Y-85231009D02*
X174006190Y-85278628D01*
X174006190Y-85278628D02*
X174387142Y-85278628D01*
X173434761Y-84850057D02*
X173387142Y-84802438D01*
X173387142Y-84802438D02*
X173291904Y-84754819D01*
X173291904Y-84754819D02*
X173053809Y-84754819D01*
X173053809Y-84754819D02*
X172958571Y-84802438D01*
X172958571Y-84802438D02*
X172910952Y-84850057D01*
X172910952Y-84850057D02*
X172863333Y-84945295D01*
X172863333Y-84945295D02*
X172863333Y-85040533D01*
X172863333Y-85040533D02*
X172910952Y-85183390D01*
X172910952Y-85183390D02*
X173482380Y-85754819D01*
X173482380Y-85754819D02*
X172863333Y-85754819D01*
X178434819Y-117191905D02*
X177434819Y-117191905D01*
X177434819Y-117191905D02*
X177434819Y-117430000D01*
X177434819Y-117430000D02*
X177482438Y-117572857D01*
X177482438Y-117572857D02*
X177577676Y-117668095D01*
X177577676Y-117668095D02*
X177672914Y-117715714D01*
X177672914Y-117715714D02*
X177863390Y-117763333D01*
X177863390Y-117763333D02*
X178006247Y-117763333D01*
X178006247Y-117763333D02*
X178196723Y-117715714D01*
X178196723Y-117715714D02*
X178291961Y-117668095D01*
X178291961Y-117668095D02*
X178387200Y-117572857D01*
X178387200Y-117572857D02*
X178434819Y-117430000D01*
X178434819Y-117430000D02*
X178434819Y-117191905D01*
X177530057Y-118144286D02*
X177482438Y-118191905D01*
X177482438Y-118191905D02*
X177434819Y-118287143D01*
X177434819Y-118287143D02*
X177434819Y-118525238D01*
X177434819Y-118525238D02*
X177482438Y-118620476D01*
X177482438Y-118620476D02*
X177530057Y-118668095D01*
X177530057Y-118668095D02*
X177625295Y-118715714D01*
X177625295Y-118715714D02*
X177720533Y-118715714D01*
X177720533Y-118715714D02*
X177863390Y-118668095D01*
X177863390Y-118668095D02*
X178434819Y-118096667D01*
X178434819Y-118096667D02*
X178434819Y-118715714D01*
X174773333Y-76954819D02*
X174773333Y-77669104D01*
X174773333Y-77669104D02*
X174820952Y-77811961D01*
X174820952Y-77811961D02*
X174916190Y-77907200D01*
X174916190Y-77907200D02*
X175059047Y-77954819D01*
X175059047Y-77954819D02*
X175154285Y-77954819D01*
X174297142Y-77954819D02*
X174297142Y-76954819D01*
X174297142Y-76954819D02*
X173916190Y-76954819D01*
X173916190Y-76954819D02*
X173820952Y-77002438D01*
X173820952Y-77002438D02*
X173773333Y-77050057D01*
X173773333Y-77050057D02*
X173725714Y-77145295D01*
X173725714Y-77145295D02*
X173725714Y-77288152D01*
X173725714Y-77288152D02*
X173773333Y-77383390D01*
X173773333Y-77383390D02*
X173820952Y-77431009D01*
X173820952Y-77431009D02*
X173916190Y-77478628D01*
X173916190Y-77478628D02*
X174297142Y-77478628D01*
X172868571Y-77288152D02*
X172868571Y-77954819D01*
X173106666Y-76907200D02*
X173344761Y-77621485D01*
X173344761Y-77621485D02*
X172725714Y-77621485D01*
D12*
%TO.C,P1*%
X193946093Y-103635050D02*
X195448108Y-103635050D01*
X195448108Y-112829850D02*
X193946093Y-112829850D01*
X198126093Y-103635050D02*
X199504700Y-103635050D01*
X199504700Y-103635050D02*
X199504700Y-112829850D01*
X199504700Y-112829850D02*
X198126093Y-112829850D01*
D13*
X192413101Y-101857050D02*
G75*
G02*
X191651101Y-101857050I-381000J0D01*
G01*
X191651101Y-101857050D02*
G75*
G02*
X192413101Y-101857050I381000J0D01*
G01*
D14*
%TO.C,JP1*%
X138149000Y-79035000D02*
X138149000Y-79635000D01*
X138849000Y-80335000D02*
X140249000Y-80335000D01*
X140249000Y-78335000D02*
X138849000Y-78335000D01*
X140949000Y-79635000D02*
X140949000Y-79035000D01*
X138149000Y-79035000D02*
G75*
G02*
X138849000Y-78335000I700000J0D01*
G01*
X138849000Y-80335000D02*
G75*
G02*
X138149000Y-79635000I0J700000D01*
G01*
X140249000Y-78335000D02*
G75*
G02*
X140949000Y-79035000I1J-699999D01*
G01*
X140949000Y-79635000D02*
G75*
G02*
X140249000Y-80335000I-699999J-1D01*
G01*
%TO.C,C7*%
X120726606Y-75655000D02*
X121249110Y-75655000D01*
X120726606Y-77125000D02*
X121249110Y-77125000D01*
%TO.C,C4*%
X144971252Y-75795000D02*
X144448748Y-75795000D01*
X144971252Y-77265000D02*
X144448748Y-77265000D01*
%TO.C,JP5*%
X155960000Y-76720000D02*
X155960000Y-77320000D01*
X156660000Y-78020000D02*
X158060000Y-78020000D01*
X158060000Y-76020000D02*
X156660000Y-76020000D01*
X158760000Y-77320000D02*
X158760000Y-76720000D01*
X155960000Y-76720000D02*
G75*
G02*
X156660000Y-76020000I700000J0D01*
G01*
X156660000Y-78020000D02*
G75*
G02*
X155960000Y-77320000I0J700000D01*
G01*
X158060000Y-76020000D02*
G75*
G02*
X158760000Y-76720000I1J-699999D01*
G01*
X158760000Y-77320000D02*
G75*
G02*
X158060000Y-78020000I-699999J-1D01*
G01*
%TO.C,C5*%
X165953752Y-80885000D02*
X165431248Y-80885000D01*
X165953752Y-82355000D02*
X165431248Y-82355000D01*
%TO.C,R1*%
X195060036Y-101177448D02*
X195514164Y-101177448D01*
X195060036Y-102647448D02*
X195514164Y-102647448D01*
%TO.C,R7*%
X189459165Y-109147450D02*
X189005037Y-109147450D01*
X189459165Y-110617450D02*
X189005037Y-110617450D01*
%TO.C,U6*%
X121987858Y-77680000D02*
X119987858Y-77680000D01*
X121987858Y-79900000D02*
X119987858Y-79900000D01*
X122617858Y-77970000D02*
X122337858Y-77970000D01*
X122337858Y-77690000D01*
X122617858Y-77970000D01*
G36*
X122617858Y-77970000D02*
G01*
X122337858Y-77970000D01*
X122337858Y-77690000D01*
X122617858Y-77970000D01*
G37*
D15*
%TO.C,U5*%
X162230000Y-80225000D02*
X163780000Y-80225000D01*
X164130000Y-75170000D02*
X164130000Y-80070000D01*
X164130000Y-80070000D02*
X167330000Y-80070000D01*
X167330000Y-75170000D02*
X164130000Y-75170000D01*
X167330000Y-80070000D02*
X167330000Y-75170000D01*
D14*
%TO.C,C3*%
X144972252Y-73720000D02*
X144449748Y-73720000D01*
X144972252Y-75190000D02*
X144449748Y-75190000D01*
D16*
%TO.C,U3*%
X146009000Y-79417000D02*
X146009000Y-79417000D01*
X146109000Y-79417000D02*
X146109000Y-79417000D01*
X146009000Y-79417000D02*
G75*
G02*
X146109000Y-79417000I50000J0D01*
G01*
X146109000Y-79417000D02*
G75*
G02*
X146009000Y-79417000I-50000J0D01*
G01*
D14*
%TO.C,R6*%
X189459165Y-105847450D02*
X189005037Y-105847450D01*
X189459165Y-107317450D02*
X189005037Y-107317450D01*
%TO.C,JP3*%
X172540000Y-79270000D02*
X172540000Y-79870000D01*
X173240000Y-80570000D02*
X174640000Y-80570000D01*
X174640000Y-78570000D02*
X173240000Y-78570000D01*
X175340000Y-79870000D02*
X175340000Y-79270000D01*
X172540000Y-79270000D02*
G75*
G02*
X173240000Y-78570000I699999J1D01*
G01*
X173240000Y-80570000D02*
G75*
G02*
X172540000Y-79870000I-1J699999D01*
G01*
X174640000Y-78570000D02*
G75*
G02*
X175340000Y-79270000I0J-700000D01*
G01*
X175340000Y-79870000D02*
G75*
G02*
X174640000Y-80570000I-700000J0D01*
G01*
%TO.C,D1*%
X180740000Y-119765000D02*
X180740000Y-116905000D01*
X182660000Y-116905000D02*
X182660000Y-119765000D01*
X182660000Y-119765000D02*
X180740000Y-119765000D01*
%TO.C,JP2*%
X172630000Y-83200000D02*
X172630000Y-83800000D01*
X173330000Y-84500000D02*
X174730000Y-84500000D01*
X174730000Y-82500000D02*
X173330000Y-82500000D01*
X175430000Y-83800000D02*
X175430000Y-83200000D01*
X172630000Y-83200000D02*
G75*
G02*
X173330000Y-82500000I699999J1D01*
G01*
X173330000Y-84500000D02*
G75*
G02*
X172630000Y-83800000I-1J699999D01*
G01*
X174730000Y-82500000D02*
G75*
G02*
X175430000Y-83200000I0J-700000D01*
G01*
X175430000Y-83800000D02*
G75*
G02*
X174730000Y-84500000I-700000J0D01*
G01*
%TO.C,D2*%
X178640000Y-119765000D02*
X178640000Y-116905000D01*
X180560000Y-116905000D02*
X180560000Y-119765000D01*
X180560000Y-119765000D02*
X178640000Y-119765000D01*
%TO.C,JP4*%
X172540000Y-75400000D02*
X172540000Y-76000000D01*
X173240000Y-76700000D02*
X174640000Y-76700000D01*
X174640000Y-74700000D02*
X173240000Y-74700000D01*
X175340000Y-76000000D02*
X175340000Y-75400000D01*
X172540000Y-75400000D02*
G75*
G02*
X173240000Y-74700000I699999J1D01*
G01*
X173240000Y-76700000D02*
G75*
G02*
X172540000Y-76000000I-1J699999D01*
G01*
X174640000Y-74700000D02*
G75*
G02*
X175340000Y-75400000I0J-700000D01*
G01*
X175340000Y-76000000D02*
G75*
G02*
X174640000Y-76700000I-700000J0D01*
G01*
%TD*%
M02*
