%TF.GenerationSoftware,KiCad,Pcbnew,9.0.5*%
%TF.CreationDate,2025-11-10T21:46:58+01:00*%
%TF.ProjectId,ESP32 Project,45535033-3220-4507-926f-6a6563742e6b,rev?*%
%TF.SameCoordinates,Original*%
%TF.FileFunction,Soldermask,Top*%
%TF.FilePolarity,Negative*%
%FSLAX46Y46*%
G04 Gerber Fmt 4.6, Leading zero omitted, Abs format (unit mm)*
G04 Created by KiCad (PCBNEW 9.0.5) date 2025-11-10 21:46:58*
%MOMM*%
%LPD*%
G01*
G04 APERTURE LIST*
G04 Aperture macros list*
%AMRoundRect*
0 Rectangle with rounded corners*
0 $1 Rounding radius*
0 $2 $3 $4 $5 $6 $7 $8 $9 X,Y pos of 4 corners*
0 Add a 4 corners polygon primitive as box body*
4,1,4,$2,$3,$4,$5,$6,$7,$8,$9,$2,$3,0*
0 Add four circle primitives for the rounded corners*
1,1,$1+$1,$2,$3*
1,1,$1+$1,$4,$5*
1,1,$1+$1,$6,$7*
1,1,$1+$1,$8,$9*
0 Add four rect primitives between the rounded corners*
20,1,$1+$1,$2,$3,$4,$5,0*
20,1,$1+$1,$4,$5,$6,$7,0*
20,1,$1+$1,$6,$7,$8,$9,0*
20,1,$1+$1,$8,$9,$2,$3,0*%
G04 Aperture macros list end*
%ADD10O,1.803400X0.990600*%
%ADD11O,2.108200X0.990600*%
%ADD12C,0.660400*%
%ADD13RoundRect,0.250000X0.475000X-0.337500X0.475000X0.337500X-0.475000X0.337500X-0.475000X-0.337500X0*%
%ADD14RoundRect,0.250000X-0.450000X0.325000X-0.450000X-0.325000X0.450000X-0.325000X0.450000X0.325000X0*%
%ADD15RoundRect,0.250000X0.450000X-0.350000X0.450000X0.350000X-0.450000X0.350000X-0.450000X-0.350000X0*%
%ADD16RoundRect,0.375000X-0.625000X-0.375000X0.625000X-0.375000X0.625000X0.375000X-0.625000X0.375000X0*%
%ADD17RoundRect,0.500000X-0.500000X-1.400000X0.500000X-1.400000X0.500000X1.400000X-0.500000X1.400000X0*%
%ADD18RoundRect,0.150000X0.825000X0.150000X-0.825000X0.150000X-0.825000X-0.150000X0.825000X-0.150000X0*%
%ADD19RoundRect,0.250000X0.450000X-0.325000X0.450000X0.325000X-0.450000X0.325000X-0.450000X-0.325000X0*%
%ADD20RoundRect,0.250000X-0.475000X0.337500X-0.475000X-0.337500X0.475000X-0.337500X0.475000X0.337500X0*%
%ADD21R,0.812800X1.498600*%
%ADD22R,1.498600X0.812800*%
%ADD23R,0.889000X0.889000*%
%ADD24R,1.700000X1.700000*%
%ADD25C,1.700000*%
G04 APERTURE END LIST*
D10*
%TO.C,P1*%
X196787100Y-103912448D03*
D11*
X192607101Y-103912448D03*
D12*
X193107100Y-105342451D03*
X193107100Y-111122449D03*
D11*
X196787100Y-112552452D03*
X192607101Y-112552452D03*
%TD*%
D13*
%TO.C,C2*%
X182540000Y-78020000D03*
X182540000Y-75945000D03*
%TD*%
%TO.C,C6*%
X183530000Y-95197500D03*
X183530000Y-93122500D03*
%TD*%
D14*
%TO.C,R3*%
X178960000Y-99185000D03*
X178960000Y-101235000D03*
%TD*%
D15*
%TO.C,R9*%
X183560000Y-98960000D03*
X183560000Y-96960000D03*
%TD*%
D16*
%TO.C,U2*%
X184940000Y-75520000D03*
X184940000Y-77820000D03*
D17*
X191240000Y-77820000D03*
D16*
X184940000Y-80120000D03*
%TD*%
D15*
%TO.C,R4*%
X181740000Y-118930000D03*
X181740000Y-116930000D03*
%TD*%
D18*
%TO.C,U4*%
X190835000Y-97815000D03*
X190835000Y-96545000D03*
X190835000Y-95275000D03*
X190835000Y-94005000D03*
X185885000Y-94005000D03*
X185885000Y-95275000D03*
X185885000Y-96545000D03*
X185885000Y-97815000D03*
%TD*%
D19*
%TO.C,R2*%
X176850000Y-101205000D03*
X176850000Y-99155000D03*
%TD*%
D20*
%TO.C,C1*%
X182540000Y-79845000D03*
X182540000Y-81920000D03*
%TD*%
D21*
%TO.C,U1*%
X151660000Y-107150000D03*
X152930000Y-107150000D03*
X154200000Y-107150000D03*
X155470000Y-107150000D03*
X156740000Y-107150000D03*
X158010000Y-107150000D03*
X159280000Y-107150000D03*
X160550000Y-107150000D03*
X161820000Y-107150000D03*
X163090000Y-107150000D03*
X164360000Y-107150000D03*
X165630000Y-107150000D03*
X166900000Y-107150000D03*
X168170000Y-107150000D03*
D22*
X169420000Y-105385000D03*
X169420000Y-104115000D03*
X169420000Y-102845000D03*
X169420000Y-101575000D03*
X169420000Y-100305000D03*
X169420000Y-99035000D03*
X169420000Y-97765000D03*
X169420000Y-96495000D03*
X169420000Y-95225000D03*
X169420000Y-93955000D03*
X169420000Y-92685000D03*
X169420000Y-91415000D03*
D21*
X168170000Y-89650000D03*
X166900000Y-89650000D03*
X165630000Y-89650000D03*
X164360000Y-89650000D03*
X163090000Y-89650000D03*
X161820000Y-89650000D03*
X160550000Y-89650000D03*
X159280000Y-89650000D03*
X158010000Y-89650000D03*
X156740000Y-89650000D03*
X155470000Y-89650000D03*
X154200000Y-89650000D03*
X152930000Y-89650000D03*
X151660000Y-89650000D03*
D23*
X159380000Y-99900000D03*
X157980000Y-101300000D03*
X159380000Y-101300000D03*
X160780000Y-101300000D03*
X160780000Y-99900000D03*
X160780000Y-98500000D03*
X159380000Y-98500000D03*
X157980000Y-98500000D03*
X157980000Y-99900000D03*
%TD*%
D15*
%TO.C,R5*%
X179600000Y-118905000D03*
X179600000Y-116905000D03*
%TD*%
D24*
%TO.C,U8*%
X93500000Y-74170000D03*
D25*
X93500000Y-76710000D03*
X93500000Y-79250000D03*
X93500000Y-81790000D03*
X93500000Y-84330000D03*
X93500000Y-86870000D03*
X93500000Y-89410000D03*
X93500000Y-91950000D03*
X93500000Y-94490000D03*
X93500000Y-97030000D03*
X93500000Y-99570000D03*
X93500000Y-102110000D03*
X93500000Y-104650000D03*
X93500000Y-107190000D03*
%TD*%
M02*
