%TF.GenerationSoftware,KiCad,Pcbnew,9.0.5*%
%TF.CreationDate,2025-11-10T21:46:58+01:00*%
%TF.ProjectId,ESP32 Project,45535033-3220-4507-926f-6a6563742e6b,rev?*%
%TF.SameCoordinates,Original*%
%TF.FileFunction,Copper,L4,Bot*%
%TF.FilePolarity,Positive*%
%FSLAX46Y46*%
G04 Gerber Fmt 4.6, Leading zero omitted, Abs format (unit mm)*
G04 Created by KiCad (PCBNEW 9.0.5) date 2025-11-10 21:46:58*
%MOMM*%
%LPD*%
G01*
G04 APERTURE LIST*
G04 Aperture macros list*
%AMRoundRect*
0 Rectangle with rounded corners*
0 $1 Rounding radius*
0 $2 $3 $4 $5 $6 $7 $8 $9 X,Y pos of 4 corners*
0 Add a 4 corners polygon primitive as box body*
4,1,4,$2,$3,$4,$5,$6,$7,$8,$9,$2,$3,0*
0 Add four circle primitives for the rounded corners*
1,1,$1+$1,$2,$3*
1,1,$1+$1,$4,$5*
1,1,$1+$1,$6,$7*
1,1,$1+$1,$8,$9*
0 Add four rect primitives between the rounded corners*
20,1,$1+$1,$2,$3,$4,$5,0*
20,1,$1+$1,$4,$5,$6,$7,0*
20,1,$1+$1,$6,$7,$8,$9,0*
20,1,$1+$1,$8,$9,$2,$3,0*%
%AMFreePoly0*
4,1,23,0.500000,-0.750000,0.000000,-0.750000,0.000000,-0.745722,-0.065263,-0.745722,-0.191342,-0.711940,-0.304381,-0.646677,-0.396677,-0.554381,-0.461940,-0.441342,-0.495722,-0.315263,-0.495722,-0.250000,-0.500000,-0.250000,-0.500000,0.250000,-0.495722,0.250000,-0.495722,0.315263,-0.461940,0.441342,-0.396677,0.554381,-0.304381,0.646677,-0.191342,0.711940,-0.065263,0.745722,0.000000,0.745722,
0.000000,0.750000,0.500000,0.750000,0.500000,-0.750000,0.500000,-0.750000,$1*%
%AMFreePoly1*
4,1,23,0.000000,0.745722,0.065263,0.745722,0.191342,0.711940,0.304381,0.646677,0.396677,0.554381,0.461940,0.441342,0.495722,0.315263,0.495722,0.250000,0.500000,0.250000,0.500000,-0.250000,0.495722,-0.250000,0.495722,-0.315263,0.461940,-0.441342,0.396677,-0.554381,0.304381,-0.646677,0.191342,-0.711940,0.065263,-0.745722,0.000000,-0.745722,0.000000,-0.750000,-0.500000,-0.750000,
-0.500000,0.750000,0.000000,0.750000,0.000000,0.745722,0.000000,0.745722,$1*%
G04 Aperture macros list end*
%TA.AperFunction,SMDPad,CuDef*%
%ADD10R,1.142996X0.292398*%
%TD*%
%TA.AperFunction,WasherPad*%
%ADD11O,1.803400X0.990600*%
%TD*%
%TA.AperFunction,WasherPad*%
%ADD12O,2.108200X0.990600*%
%TD*%
%TA.AperFunction,SMDPad,CuDef*%
%ADD13R,0.127000X0.127000*%
%TD*%
%TA.AperFunction,SMDPad,CuDef*%
%ADD14R,1.142996X0.279996*%
%TD*%
%TA.AperFunction,SMDPad,CuDef*%
%ADD15R,1.142994X0.280000*%
%TD*%
%TA.AperFunction,SMDPad,CuDef*%
%ADD16R,1.142998X0.270000*%
%TD*%
%TA.AperFunction,SMDPad,CuDef*%
%ADD17R,1.142998X0.280000*%
%TD*%
%TA.AperFunction,SMDPad,CuDef*%
%ADD18R,1.142996X0.280000*%
%TD*%
%TA.AperFunction,SMDPad,CuDef*%
%ADD19R,1.142996X0.269998*%
%TD*%
%TA.AperFunction,SMDPad,CuDef*%
%ADD20R,1.036888X1.258509*%
%TD*%
%TA.AperFunction,ComponentPad*%
%ADD21R,1.700000X1.700000*%
%TD*%
%TA.AperFunction,ComponentPad*%
%ADD22C,1.700000*%
%TD*%
%TA.AperFunction,SMDPad,CuDef*%
%ADD23FreePoly0,180.000000*%
%TD*%
%TA.AperFunction,SMDPad,CuDef*%
%ADD24FreePoly1,180.000000*%
%TD*%
%TA.AperFunction,SMDPad,CuDef*%
%ADD25RoundRect,0.250000X-0.337500X-0.475000X0.337500X-0.475000X0.337500X0.475000X-0.337500X0.475000X0*%
%TD*%
%TA.AperFunction,SMDPad,CuDef*%
%ADD26RoundRect,0.250000X0.337500X0.475000X-0.337500X0.475000X-0.337500X-0.475000X0.337500X-0.475000X0*%
%TD*%
%TA.AperFunction,SMDPad,CuDef*%
%ADD27RoundRect,0.250000X-0.350000X-0.450000X0.350000X-0.450000X0.350000X0.450000X-0.350000X0.450000X0*%
%TD*%
%TA.AperFunction,SMDPad,CuDef*%
%ADD28RoundRect,0.250000X0.350000X0.450000X-0.350000X0.450000X-0.350000X-0.450000X0.350000X-0.450000X0*%
%TD*%
%TA.AperFunction,SMDPad,CuDef*%
%ADD29RoundRect,0.087500X0.187500X0.087500X-0.187500X0.087500X-0.187500X-0.087500X0.187500X-0.087500X0*%
%TD*%
%TA.AperFunction,SMDPad,CuDef*%
%ADD30RoundRect,0.175000X0.175000X0.625000X-0.175000X0.625000X-0.175000X-0.625000X0.175000X-0.625000X0*%
%TD*%
%TA.AperFunction,SMDPad,CuDef*%
%ADD31R,1.550000X0.700000*%
%TD*%
%TA.AperFunction,SMDPad,CuDef*%
%ADD32R,0.275000X0.250000*%
%TD*%
%TA.AperFunction,SMDPad,CuDef*%
%ADD33R,0.250000X0.275000*%
%TD*%
%TA.AperFunction,SMDPad,CuDef*%
%ADD34FreePoly0,0.000000*%
%TD*%
%TA.AperFunction,SMDPad,CuDef*%
%ADD35FreePoly1,0.000000*%
%TD*%
%TA.AperFunction,SMDPad,CuDef*%
%ADD36RoundRect,0.250000X0.450000X-0.325000X0.450000X0.325000X-0.450000X0.325000X-0.450000X-0.325000X0*%
%TD*%
%TA.AperFunction,ViaPad*%
%ADD37C,0.600000*%
%TD*%
%TA.AperFunction,Conductor*%
%ADD38C,0.300000*%
%TD*%
%TA.AperFunction,Conductor*%
%ADD39C,0.200000*%
%TD*%
%TA.AperFunction,Conductor*%
%ADD40C,0.230000*%
%TD*%
G04 APERTURE END LIST*
D10*
%TO.P,P1,A5,CC*%
%TO.N,Net-(P1-CC)*%
X192032103Y-106976251D03*
D11*
%TO.P,P1,*%
%TO.N,*%
X196787100Y-103912448D03*
D12*
X192607101Y-103912448D03*
X196787100Y-112552452D03*
X192607101Y-112552452D03*
D13*
%TO.P,P1,A1,GND*%
%TO.N,GND*%
X192032101Y-104882449D03*
%TO.P,P1,A4,VBUS*%
%TO.N,+5V_in*%
X192032101Y-105682450D03*
D14*
%TO.P,P1,A6,D+*%
%TO.N,D+*%
X192032103Y-107982452D03*
D15*
%TO.P,P1,A7,D-*%
%TO.N,D-*%
X192032104Y-108482450D03*
D16*
%TO.P,P1,A8*%
%TO.N,N/C*%
X192032102Y-109487450D03*
D13*
%TO.P,P1,A9,VBUS*%
%TO.N,+5V_in*%
X192032101Y-110782450D03*
%TO.P,P1,A12,GND*%
%TO.N,GND*%
X192032101Y-111582451D03*
%TO.P,P1,B1,GND*%
X192032101Y-111282451D03*
%TO.P,P1,B4,VBUS*%
%TO.N,+5V_in*%
X192032101Y-110482450D03*
D17*
%TO.P,P1,B5,VCONN*%
%TO.N,Net-(P1-VCONN)*%
X192032102Y-109982450D03*
D18*
%TO.P,P1,B6*%
%TO.N,N/C*%
X192032103Y-108982450D03*
%TO.P,P1,B7*%
X192032103Y-107482450D03*
D19*
%TO.P,P1,B8*%
X192032103Y-106477451D03*
D13*
%TO.P,P1,B9,VBUS*%
%TO.N,+5V_in*%
X192032101Y-105982450D03*
%TO.P,P1,B12,GND*%
%TO.N,GND*%
X192032101Y-105182449D03*
D20*
%TO.P,P1,S1,SHIELD*%
%TO.N,Net-(P1-SHIELD)*%
X192654349Y-102861705D03*
%TD*%
D21*
%TO.P,U8,1,VCC*%
%TO.N,+3.3V*%
X93500000Y-74170000D03*
D22*
%TO.P,U8,2,GND*%
%TO.N,GND*%
X93500000Y-76710000D03*
%TO.P,U8,3,CS*%
%TO.N,Net-(U1-IO4)*%
X93500000Y-79250000D03*
%TO.P,U8,4,RESET*%
%TO.N,Net-(U1-IO5)*%
X93500000Y-81790000D03*
%TO.P,U8,5,DC/RS*%
%TO.N,Net-(U1-IO6)*%
X93500000Y-84330000D03*
%TO.P,U8,6,SDI(MOSI)*%
%TO.N,Net-(U1-IO7)*%
X93500000Y-86870000D03*
%TO.P,U8,7,SCK*%
%TO.N,Net-(U1-IO15)*%
X93500000Y-89410000D03*
%TO.P,U8,8,LED*%
%TO.N,+3.3V*%
X93500000Y-91950000D03*
%TO.P,U8,9,SDO(MISO)*%
%TO.N,Net-(U1-IO16)*%
X93500000Y-94490000D03*
%TO.P,U8,10,T_CLK*%
%TO.N,Net-(U1-IO15)*%
X93500000Y-97030000D03*
%TO.P,U8,11,T_CS*%
%TO.N,Net-(U1-IO17)*%
X93500000Y-99570000D03*
%TO.P,U8,12,T_DIN*%
%TO.N,Net-(U1-IO7)*%
X93500000Y-102110000D03*
%TO.P,U8,13,T_DO*%
%TO.N,Net-(U1-IO16)*%
X93500000Y-104650000D03*
%TO.P,U8,14,T_IRQ*%
%TO.N,Net-(U1-IO18)*%
X93500000Y-107190000D03*
%TD*%
D23*
%TO.P,JP1,1,A*%
%TO.N,Net-(JP1-A)*%
X140199000Y-79335000D03*
D24*
%TO.P,JP1,2,B*%
%TO.N,unconnected-(JP1-B-Pad2)*%
X138899000Y-79335000D03*
%TD*%
D25*
%TO.P,C7,1*%
%TO.N,GND*%
X119950358Y-76390000D03*
%TO.P,C7,2*%
%TO.N,+3.3V*%
X122025358Y-76390000D03*
%TD*%
D26*
%TO.P,C4,1*%
%TO.N,Net-(U3-VDD)*%
X145747500Y-76530000D03*
%TO.P,C4,2*%
%TO.N,Net-(C3-Pad2)*%
X143672500Y-76530000D03*
%TD*%
D23*
%TO.P,JP5,1,A*%
%TO.N,Net-(JP5-A)*%
X158010000Y-77020000D03*
D24*
%TO.P,JP5,2,B*%
%TO.N,unconnected-(JP5-B-Pad2)*%
X156710000Y-77020000D03*
%TD*%
D26*
%TO.P,C5,1*%
%TO.N,+3.3V*%
X166730000Y-81620000D03*
%TO.P,C5,2*%
%TO.N,GND*%
X164655000Y-81620000D03*
%TD*%
D27*
%TO.P,R1,1*%
%TO.N,Net-(P1-SHIELD)*%
X194287100Y-101912448D03*
%TO.P,R1,2*%
%TO.N,GND*%
X196287100Y-101912448D03*
%TD*%
D28*
%TO.P,R7,1*%
%TO.N,Net-(P1-VCONN)*%
X190232101Y-109882450D03*
%TO.P,R7,2*%
%TO.N,GND*%
X188232101Y-109882450D03*
%TD*%
D29*
%TO.P,U6,1,VDD*%
%TO.N,+3.3V*%
X121912858Y-78290000D03*
%TO.P,U6,2,SCL*%
%TO.N,SDA*%
X121912858Y-79290000D03*
%TO.P,U6,3,SDA*%
%TO.N,SCL*%
X120062858Y-79290000D03*
%TO.P,U6,4,VSS*%
%TO.N,GND*%
X120062858Y-78290000D03*
D30*
%TO.P,U6,5,NC*%
%TO.N,unconnected-(U6-NC-Pad5)*%
X120987858Y-78790000D03*
%TD*%
D31*
%TO.P,U5,1,SDA*%
%TO.N,SDA*%
X163005000Y-79525000D03*
%TO.P,U5,2,SCL*%
%TO.N,SCL*%
X163005000Y-78255000D03*
%TO.P,U5,3,O.S.*%
%TO.N,Net-(JP5-A)*%
X163005000Y-76985000D03*
%TO.P,U5,4,GND*%
%TO.N,GND*%
X163005000Y-75715000D03*
%TO.P,U5,5,A2*%
%TO.N,Net-(JP4-A)*%
X168455000Y-75715000D03*
%TO.P,U5,6,A1*%
%TO.N,Net-(JP3-A)*%
X168455000Y-76985000D03*
%TO.P,U5,7,A0*%
%TO.N,Net-(JP2-A)*%
X168455000Y-78255000D03*
%TO.P,U5,8,+Vs*%
%TO.N,+3.3V*%
X168455000Y-79525000D03*
%TD*%
D26*
%TO.P,C3,1*%
%TO.N,Net-(U3-VDD)*%
X145748500Y-74455000D03*
%TO.P,C3,2*%
%TO.N,Net-(C3-Pad2)*%
X143673500Y-74455000D03*
%TD*%
D32*
%TO.P,U3,1,VDDIO*%
%TO.N,+3.3V*%
X145472000Y-79417000D03*
%TO.P,U3,2,SCK*%
%TO.N,SDA*%
X145472000Y-79917000D03*
D33*
%TO.P,U3,3,VSS*%
%TO.N,Net-(C3-Pad2)*%
X145209000Y-80429000D03*
%TO.P,U3,4,SDI*%
%TO.N,SCL*%
X144709000Y-80429000D03*
%TO.P,U3,5,SDO*%
%TO.N,GND*%
X144209000Y-80429000D03*
D32*
%TO.P,U3,6,CSB*%
%TO.N,+3.3V*%
X143946000Y-79917000D03*
%TO.P,U3,7,INT*%
%TO.N,Net-(JP1-A)*%
X143946000Y-79417000D03*
D33*
%TO.P,U3,8,VSS*%
%TO.N,Net-(C3-Pad2)*%
X144209000Y-78905000D03*
%TO.P,U3,9,VSS*%
X144709000Y-78905000D03*
%TO.P,U3,10,VDD*%
%TO.N,Net-(U3-VDD)*%
X145209000Y-78905000D03*
%TD*%
D28*
%TO.P,R6,1*%
%TO.N,Net-(P1-CC)*%
X190232101Y-106582450D03*
%TO.P,R6,2*%
%TO.N,GND*%
X188232101Y-106582450D03*
%TD*%
D34*
%TO.P,JP3,1,A*%
%TO.N,Net-(JP3-A)*%
X173290000Y-79570000D03*
D35*
%TO.P,JP3,2,B*%
%TO.N,unconnected-(JP3-B-Pad2)*%
X174590000Y-79570000D03*
%TD*%
D36*
%TO.P,D1,1,K*%
%TO.N,GND*%
X181700000Y-118930000D03*
%TO.P,D1,2,A*%
%TO.N,Net-(D1-A)*%
X181700000Y-116880000D03*
%TD*%
D34*
%TO.P,JP2,1,A*%
%TO.N,Net-(JP2-A)*%
X173380000Y-83500000D03*
D35*
%TO.P,JP2,2,B*%
%TO.N,unconnected-(JP2-B-Pad2)*%
X174680000Y-83500000D03*
%TD*%
D36*
%TO.P,D2,1,K*%
%TO.N,GND*%
X179600000Y-118930000D03*
%TO.P,D2,2,A*%
%TO.N,Net-(D2-A)*%
X179600000Y-116880000D03*
%TD*%
D34*
%TO.P,JP4,1,A*%
%TO.N,Net-(JP4-A)*%
X173290000Y-75700000D03*
D35*
%TO.P,JP4,2,B*%
%TO.N,unconnected-(JP4-B-Pad2)*%
X174590000Y-75700000D03*
%TD*%
D37*
%TO.N,GND*%
X104960100Y-105372939D03*
X100009641Y-105326673D03*
X107250266Y-103105907D03*
X102161009Y-103013375D03*
X97673209Y-102990242D03*
X96932953Y-92325934D03*
X100150000Y-96980000D03*
X97350000Y-96770000D03*
X197300000Y-115960000D03*
X197300000Y-110960000D03*
X197300000Y-108460000D03*
X197300000Y-105960000D03*
X197300000Y-98460000D03*
X197300000Y-95960000D03*
X197300000Y-93460000D03*
X197300000Y-90960000D03*
X197300000Y-88460000D03*
X197300000Y-85960000D03*
X197300000Y-83460000D03*
X197300000Y-80960000D03*
X197300000Y-78460000D03*
X197300000Y-75960000D03*
X197300000Y-73460000D03*
X197300000Y-70960000D03*
X197300000Y-68460000D03*
X194800000Y-115960000D03*
X194800000Y-113460000D03*
X194800000Y-110960000D03*
X194800000Y-108460000D03*
X194800000Y-105960000D03*
X194800000Y-103460000D03*
X194800000Y-70960000D03*
X194800000Y-68460000D03*
X192300000Y-120960000D03*
X192300000Y-118460000D03*
X192300000Y-115960000D03*
X192300000Y-90960000D03*
X192300000Y-88460000D03*
X192300000Y-85960000D03*
X192300000Y-83460000D03*
X192300000Y-80960000D03*
X192300000Y-70960000D03*
X192300000Y-68460000D03*
X192300000Y-65960000D03*
X192300000Y-63460000D03*
X189800000Y-120960000D03*
X189800000Y-118460000D03*
X189800000Y-115960000D03*
X189800000Y-90960000D03*
X189800000Y-88460000D03*
X189800000Y-85960000D03*
X189800000Y-83460000D03*
X189800000Y-80960000D03*
X189800000Y-70960000D03*
X189800000Y-68460000D03*
X189800000Y-65960000D03*
X189800000Y-63460000D03*
X187300000Y-120960000D03*
X187300000Y-118460000D03*
X187300000Y-115960000D03*
X187300000Y-113460000D03*
X187300000Y-90960000D03*
X187300000Y-88460000D03*
X187300000Y-85960000D03*
X187300000Y-83460000D03*
X187300000Y-80960000D03*
X187300000Y-75960000D03*
X187300000Y-70960000D03*
X187300000Y-68460000D03*
X187300000Y-65960000D03*
X187300000Y-63460000D03*
X184800000Y-120960000D03*
X184800000Y-118460000D03*
X184800000Y-115960000D03*
X184800000Y-113460000D03*
X184800000Y-110960000D03*
X184800000Y-105960000D03*
X184800000Y-100960000D03*
X184800000Y-90960000D03*
X184800000Y-88460000D03*
X184800000Y-85960000D03*
X184800000Y-70960000D03*
X184800000Y-68460000D03*
X184800000Y-65960000D03*
X184800000Y-63460000D03*
X182300000Y-113460000D03*
X182300000Y-110960000D03*
X182300000Y-105960000D03*
X182300000Y-100960000D03*
X182300000Y-83460000D03*
X182300000Y-70960000D03*
X182300000Y-68460000D03*
X182300000Y-65960000D03*
X182300000Y-63460000D03*
X179800000Y-120960000D03*
X179800000Y-113460000D03*
X179800000Y-110960000D03*
X179800000Y-95960000D03*
X179800000Y-93460000D03*
X179800000Y-90960000D03*
X179800000Y-88460000D03*
X179800000Y-85960000D03*
X179800000Y-83460000D03*
X179800000Y-80960000D03*
X179800000Y-78460000D03*
X179800000Y-75960000D03*
X179800000Y-70960000D03*
X179800000Y-68460000D03*
X179800000Y-65960000D03*
X179800000Y-63460000D03*
X177300000Y-120960000D03*
X177300000Y-118460000D03*
X177300000Y-115960000D03*
X177300000Y-113460000D03*
X177300000Y-110960000D03*
X177300000Y-95960000D03*
X177300000Y-93460000D03*
X177300000Y-90960000D03*
X177300000Y-88460000D03*
X177300000Y-85960000D03*
X177300000Y-83460000D03*
X177300000Y-80960000D03*
X177300000Y-78460000D03*
X177300000Y-75960000D03*
X177300000Y-70960000D03*
X177300000Y-68460000D03*
X177300000Y-65960000D03*
X177300000Y-63460000D03*
X174800000Y-120960000D03*
X174800000Y-118460000D03*
X174800000Y-115960000D03*
X174800000Y-113460000D03*
X174800000Y-110960000D03*
X174800000Y-100960000D03*
X174800000Y-98460000D03*
X174800000Y-95960000D03*
X174800000Y-93460000D03*
X174800000Y-90960000D03*
X174800000Y-88460000D03*
X174800000Y-85960000D03*
X174800000Y-70960000D03*
X174800000Y-68460000D03*
X174800000Y-65960000D03*
X174800000Y-63460000D03*
X172300000Y-120960000D03*
X172300000Y-118460000D03*
X172300000Y-115960000D03*
X172300000Y-113460000D03*
X172300000Y-110960000D03*
X172300000Y-100960000D03*
X172300000Y-98460000D03*
X172300000Y-95960000D03*
X172300000Y-93460000D03*
X172300000Y-90960000D03*
X172300000Y-88460000D03*
X172300000Y-85960000D03*
X172300000Y-70960000D03*
X172300000Y-68460000D03*
X172300000Y-65960000D03*
X172300000Y-63460000D03*
X169800000Y-120960000D03*
X169800000Y-118460000D03*
X169800000Y-115960000D03*
X169800000Y-113460000D03*
X169800000Y-110960000D03*
X169800000Y-88460000D03*
X169800000Y-85960000D03*
X169800000Y-83460000D03*
X169800000Y-80960000D03*
X169800000Y-70960000D03*
X169800000Y-68460000D03*
X169800000Y-65960000D03*
X169800000Y-63460000D03*
X167300000Y-120960000D03*
X167300000Y-118460000D03*
X167300000Y-115960000D03*
X167300000Y-113460000D03*
X167300000Y-110960000D03*
X167300000Y-103460000D03*
X167300000Y-100960000D03*
X167300000Y-98460000D03*
X167300000Y-95960000D03*
X167300000Y-93460000D03*
X167300000Y-85960000D03*
X167300000Y-83460000D03*
X167300000Y-70960000D03*
X167300000Y-68460000D03*
X167300000Y-65960000D03*
X167300000Y-63460000D03*
X164800000Y-120960000D03*
X164800000Y-118460000D03*
X164800000Y-115960000D03*
X164800000Y-113460000D03*
X164800000Y-110960000D03*
X164800000Y-103460000D03*
X164800000Y-100960000D03*
X164800000Y-98460000D03*
X164800000Y-95960000D03*
X164800000Y-93460000D03*
X164800000Y-85960000D03*
X164800000Y-83460000D03*
X164800000Y-70960000D03*
X164800000Y-68460000D03*
X164800000Y-65960000D03*
X164800000Y-63460000D03*
X162300000Y-120960000D03*
X162300000Y-118460000D03*
X162300000Y-115960000D03*
X162300000Y-113460000D03*
X162300000Y-103460000D03*
X162300000Y-100960000D03*
X162300000Y-98460000D03*
X162300000Y-95960000D03*
X162300000Y-93460000D03*
X162300000Y-85960000D03*
X162300000Y-83460000D03*
X162300000Y-80960000D03*
X162300000Y-70960000D03*
X162300000Y-68460000D03*
X162300000Y-65960000D03*
X162300000Y-63460000D03*
X159800000Y-120960000D03*
X159800000Y-118460000D03*
X159800000Y-115960000D03*
X159800000Y-103460000D03*
X159800000Y-95960000D03*
X159800000Y-93460000D03*
X159800000Y-85960000D03*
X159800000Y-83460000D03*
X159800000Y-80960000D03*
X159800000Y-78460000D03*
X159800000Y-70960000D03*
X159800000Y-68460000D03*
X159800000Y-65960000D03*
X159800000Y-63460000D03*
X157300000Y-120960000D03*
X157300000Y-118460000D03*
X157300000Y-115960000D03*
X157300000Y-103460000D03*
X157300000Y-95960000D03*
X157300000Y-93460000D03*
X157300000Y-85960000D03*
X157300000Y-83460000D03*
X157300000Y-80960000D03*
X157300000Y-70960000D03*
X157300000Y-68460000D03*
X157300000Y-65960000D03*
X157300000Y-63460000D03*
X154800000Y-120960000D03*
X154800000Y-118460000D03*
X154800000Y-115960000D03*
X154800000Y-103460000D03*
X154800000Y-100960000D03*
X154800000Y-98460000D03*
X154800000Y-95960000D03*
X154800000Y-93460000D03*
X154800000Y-85960000D03*
X154800000Y-83460000D03*
X154800000Y-80960000D03*
X154800000Y-78460000D03*
X154800000Y-75960000D03*
X154800000Y-70960000D03*
X154800000Y-68460000D03*
X154800000Y-65960000D03*
X154800000Y-63460000D03*
X152300000Y-120960000D03*
X152300000Y-118460000D03*
X152300000Y-115960000D03*
X152300000Y-103460000D03*
X152300000Y-100960000D03*
X152300000Y-98460000D03*
X152300000Y-95960000D03*
X152300000Y-93460000D03*
X152300000Y-85960000D03*
X152300000Y-83460000D03*
X152300000Y-80960000D03*
X152300000Y-78460000D03*
X152300000Y-75960000D03*
X152300000Y-70960000D03*
X152300000Y-68460000D03*
X152300000Y-65960000D03*
X152300000Y-63460000D03*
X149800000Y-120960000D03*
X149800000Y-118460000D03*
X149800000Y-115960000D03*
X149800000Y-110960000D03*
X149800000Y-108460000D03*
X149800000Y-88460000D03*
X149800000Y-85960000D03*
X149800000Y-83460000D03*
X149800000Y-80960000D03*
X149800000Y-78460000D03*
X149800000Y-75960000D03*
X149800000Y-70960000D03*
X149800000Y-68460000D03*
X149800000Y-65960000D03*
X149800000Y-63460000D03*
X147300000Y-120960000D03*
X147300000Y-118460000D03*
X147300000Y-115960000D03*
X147300000Y-110960000D03*
X147300000Y-108460000D03*
X147300000Y-88460000D03*
X147300000Y-85960000D03*
X147300000Y-83460000D03*
X147300000Y-80960000D03*
X147300000Y-75960000D03*
X147300000Y-70960000D03*
X147300000Y-68460000D03*
X147300000Y-65960000D03*
X147300000Y-63460000D03*
X144800000Y-120960000D03*
X144800000Y-118460000D03*
X144800000Y-115960000D03*
X144800000Y-110960000D03*
X144800000Y-108460000D03*
X144800000Y-88460000D03*
X144800000Y-85960000D03*
X144800000Y-83460000D03*
X144800000Y-70960000D03*
X144800000Y-68460000D03*
X144800000Y-65960000D03*
X144800000Y-63460000D03*
X142300000Y-120960000D03*
X142300000Y-118460000D03*
X142300000Y-115960000D03*
X142300000Y-110960000D03*
X142300000Y-108460000D03*
X142300000Y-105960000D03*
X142300000Y-103460000D03*
X142300000Y-100960000D03*
X142300000Y-98460000D03*
X142300000Y-95960000D03*
X142300000Y-93460000D03*
X142300000Y-90960000D03*
X142300000Y-88460000D03*
X142300000Y-85960000D03*
X142300000Y-83460000D03*
X142300000Y-70960000D03*
X142300000Y-68460000D03*
X142300000Y-65960000D03*
X142300000Y-63460000D03*
X139800000Y-120960000D03*
X139800000Y-118460000D03*
X139800000Y-115960000D03*
X139800000Y-110960000D03*
X139800000Y-108460000D03*
X139800000Y-105960000D03*
X139800000Y-103460000D03*
X139800000Y-100960000D03*
X139800000Y-98460000D03*
X139800000Y-95960000D03*
X139800000Y-93460000D03*
X139800000Y-90960000D03*
X139800000Y-88460000D03*
X139800000Y-85960000D03*
X139800000Y-83460000D03*
X139800000Y-75960000D03*
X139800000Y-70960000D03*
X139800000Y-68460000D03*
X139800000Y-65960000D03*
X139800000Y-63460000D03*
X137300000Y-120960000D03*
X137300000Y-118460000D03*
X137300000Y-115960000D03*
X137300000Y-110960000D03*
X137300000Y-108460000D03*
X137300000Y-105960000D03*
X137300000Y-103460000D03*
X137300000Y-100960000D03*
X137300000Y-98460000D03*
X137300000Y-95960000D03*
X137300000Y-93460000D03*
X137300000Y-90960000D03*
X137300000Y-88460000D03*
X137300000Y-85960000D03*
X137300000Y-83460000D03*
X137300000Y-78460000D03*
X137300000Y-75960000D03*
X137300000Y-70960000D03*
X137300000Y-68460000D03*
X137300000Y-65960000D03*
X137300000Y-63460000D03*
X134800000Y-120960000D03*
X134800000Y-118460000D03*
X134800000Y-115960000D03*
X134800000Y-110960000D03*
X134800000Y-108460000D03*
X134800000Y-105960000D03*
X134800000Y-103460000D03*
X134800000Y-100960000D03*
X134800000Y-98460000D03*
X134800000Y-95960000D03*
X134800000Y-93460000D03*
X134800000Y-90960000D03*
X134800000Y-88460000D03*
X134800000Y-85960000D03*
X134800000Y-83460000D03*
X134800000Y-80960000D03*
X134800000Y-78460000D03*
X134800000Y-75960000D03*
X134800000Y-70960000D03*
X134800000Y-68460000D03*
X134800000Y-65960000D03*
X134800000Y-63460000D03*
X132300000Y-120960000D03*
X132300000Y-118460000D03*
X132300000Y-115960000D03*
X132300000Y-110960000D03*
X132300000Y-108460000D03*
X132300000Y-105960000D03*
X132300000Y-103460000D03*
X132300000Y-100960000D03*
X132300000Y-98460000D03*
X132300000Y-95960000D03*
X132300000Y-93460000D03*
X132300000Y-90960000D03*
X132300000Y-88460000D03*
X132300000Y-85960000D03*
X132300000Y-83460000D03*
X132300000Y-80960000D03*
X132300000Y-78460000D03*
X132300000Y-73460000D03*
X132300000Y-70960000D03*
X132300000Y-68460000D03*
X132300000Y-65960000D03*
X132300000Y-63460000D03*
X129800000Y-120960000D03*
X129800000Y-118460000D03*
X129800000Y-115960000D03*
X129800000Y-110960000D03*
X129800000Y-108460000D03*
X129800000Y-105960000D03*
X129800000Y-103460000D03*
X129800000Y-100960000D03*
X129800000Y-98460000D03*
X129800000Y-95960000D03*
X129800000Y-93460000D03*
X129800000Y-90960000D03*
X129800000Y-88460000D03*
X129800000Y-85960000D03*
X129800000Y-83460000D03*
X129800000Y-80960000D03*
X129800000Y-75960000D03*
X129800000Y-73460000D03*
X129800000Y-70960000D03*
X129800000Y-68460000D03*
X129800000Y-65960000D03*
X129800000Y-63460000D03*
X127300000Y-120960000D03*
X127300000Y-118460000D03*
X127300000Y-115960000D03*
X127300000Y-110960000D03*
X127300000Y-108460000D03*
X127300000Y-105960000D03*
X127300000Y-103460000D03*
X127300000Y-100960000D03*
X127300000Y-98460000D03*
X127300000Y-95960000D03*
X127300000Y-93460000D03*
X127300000Y-90960000D03*
X127300000Y-88460000D03*
X127300000Y-85960000D03*
X127300000Y-83460000D03*
X127300000Y-80960000D03*
X127300000Y-78460000D03*
X127300000Y-75960000D03*
X127300000Y-73460000D03*
X127300000Y-70960000D03*
X127300000Y-68460000D03*
X127300000Y-65960000D03*
X127300000Y-63460000D03*
X124800000Y-120960000D03*
X124800000Y-118460000D03*
X124800000Y-115960000D03*
X124800000Y-110960000D03*
X124800000Y-108460000D03*
X124800000Y-105960000D03*
X124800000Y-103460000D03*
X124800000Y-100960000D03*
X124800000Y-98460000D03*
X124800000Y-95960000D03*
X124800000Y-93460000D03*
X124800000Y-90960000D03*
X124800000Y-88460000D03*
X124800000Y-85960000D03*
X124800000Y-83460000D03*
X124800000Y-80960000D03*
X124800000Y-78460000D03*
X124800000Y-75960000D03*
X124800000Y-73460000D03*
X124800000Y-70960000D03*
X124800000Y-68460000D03*
X124800000Y-65960000D03*
X124800000Y-63460000D03*
X122300000Y-120960000D03*
X122300000Y-118460000D03*
X122300000Y-115960000D03*
X122300000Y-108460000D03*
X122300000Y-105960000D03*
X122300000Y-103460000D03*
X122300000Y-100960000D03*
X122300000Y-98460000D03*
X122300000Y-95960000D03*
X122300000Y-93460000D03*
X122300000Y-90960000D03*
X122300000Y-88460000D03*
X122300000Y-85960000D03*
X122300000Y-83460000D03*
X122300000Y-80960000D03*
X122300000Y-70960000D03*
X122300000Y-68460000D03*
X122300000Y-65960000D03*
X122300000Y-63460000D03*
X119800000Y-120960000D03*
X119800000Y-118460000D03*
X119800000Y-115960000D03*
X119800000Y-105960000D03*
X119800000Y-103460000D03*
X119800000Y-100960000D03*
X119800000Y-98460000D03*
X119800000Y-95960000D03*
X119800000Y-93460000D03*
X119800000Y-90960000D03*
X119800000Y-88460000D03*
X119800000Y-85960000D03*
X119800000Y-83460000D03*
X119800000Y-80960000D03*
X119800000Y-73460000D03*
X119800000Y-70960000D03*
X119800000Y-68460000D03*
X119800000Y-65960000D03*
X119800000Y-63460000D03*
X117300000Y-120960000D03*
X117300000Y-118460000D03*
X117300000Y-115960000D03*
X117300000Y-113460000D03*
X117300000Y-103460000D03*
X117300000Y-100960000D03*
X117300000Y-98460000D03*
X117300000Y-95960000D03*
X117300000Y-93460000D03*
X117300000Y-90960000D03*
X117300000Y-88460000D03*
X117300000Y-85960000D03*
X117300000Y-83460000D03*
X117300000Y-80960000D03*
X117300000Y-78460000D03*
X117300000Y-75960000D03*
X117300000Y-73460000D03*
X117300000Y-70960000D03*
X117300000Y-68460000D03*
X117300000Y-65960000D03*
X117300000Y-63460000D03*
X114800000Y-120960000D03*
X114800000Y-118460000D03*
X114800000Y-115960000D03*
X114800000Y-113460000D03*
X114800000Y-110960000D03*
X114800000Y-100960000D03*
X114800000Y-98460000D03*
X114800000Y-95960000D03*
X114800000Y-93460000D03*
X114800000Y-90960000D03*
X114800000Y-88460000D03*
X114800000Y-85960000D03*
X114800000Y-83460000D03*
X114800000Y-80960000D03*
X114800000Y-78460000D03*
X114800000Y-75960000D03*
X114800000Y-73460000D03*
X114800000Y-70960000D03*
X114800000Y-68460000D03*
X114800000Y-65960000D03*
X114800000Y-63460000D03*
X112300000Y-120960000D03*
X112300000Y-118460000D03*
X112300000Y-115960000D03*
X112300000Y-113460000D03*
X112300000Y-110960000D03*
X112300000Y-108460000D03*
X112300000Y-98460000D03*
X112300000Y-95960000D03*
X112300000Y-93460000D03*
X112300000Y-90960000D03*
X112300000Y-88460000D03*
X112300000Y-85960000D03*
X112300000Y-83460000D03*
X112300000Y-80960000D03*
X112300000Y-78460000D03*
X112300000Y-75960000D03*
X112300000Y-73460000D03*
X112300000Y-70960000D03*
X112300000Y-68460000D03*
X112300000Y-65960000D03*
X112300000Y-63460000D03*
X109800000Y-120960000D03*
X109800000Y-118460000D03*
X109800000Y-115960000D03*
X109800000Y-113460000D03*
X109800000Y-110960000D03*
X109800000Y-108460000D03*
X109800000Y-95960000D03*
X109800000Y-93460000D03*
X109800000Y-90960000D03*
X109800000Y-88460000D03*
X109800000Y-85960000D03*
X109800000Y-83460000D03*
X109800000Y-80960000D03*
X109800000Y-78460000D03*
X109800000Y-75960000D03*
X109800000Y-73460000D03*
X109800000Y-70960000D03*
X109800000Y-68460000D03*
X109800000Y-65960000D03*
X109800000Y-63460000D03*
X107300000Y-120960000D03*
X107300000Y-118460000D03*
X107300000Y-115960000D03*
X107300000Y-113460000D03*
X107300000Y-110960000D03*
X107300000Y-108460000D03*
X107300000Y-93460000D03*
X107300000Y-90960000D03*
X107300000Y-88460000D03*
X107300000Y-85960000D03*
X107300000Y-83460000D03*
X107300000Y-80960000D03*
X107300000Y-78460000D03*
X107300000Y-75960000D03*
X107300000Y-73460000D03*
X107300000Y-70960000D03*
X107300000Y-68460000D03*
X107300000Y-65960000D03*
X107300000Y-63460000D03*
X104800000Y-120960000D03*
X104800000Y-118460000D03*
X104800000Y-115960000D03*
X104800000Y-113460000D03*
X104800000Y-110960000D03*
X104800000Y-108460000D03*
X104800000Y-90960000D03*
X104800000Y-88460000D03*
X104800000Y-85960000D03*
X104800000Y-83460000D03*
X104800000Y-80960000D03*
X104800000Y-78460000D03*
X104800000Y-75960000D03*
X104800000Y-73460000D03*
X104800000Y-70960000D03*
X104800000Y-68460000D03*
X104800000Y-65960000D03*
X104800000Y-63460000D03*
X102300000Y-120960000D03*
X102300000Y-118460000D03*
X102300000Y-115960000D03*
X102300000Y-113460000D03*
X102300000Y-110960000D03*
X102300000Y-108460000D03*
X102300000Y-88460000D03*
X102300000Y-85960000D03*
X102300000Y-83460000D03*
X102300000Y-80960000D03*
X102300000Y-78460000D03*
X102300000Y-75960000D03*
X102300000Y-73460000D03*
X102300000Y-70960000D03*
X102300000Y-68460000D03*
X102300000Y-65960000D03*
X102300000Y-63460000D03*
X99800000Y-120960000D03*
X99800000Y-118460000D03*
X99800000Y-115960000D03*
X99800000Y-113460000D03*
X99800000Y-110960000D03*
X99800000Y-108460000D03*
X99800000Y-85960000D03*
X99800000Y-83460000D03*
X99800000Y-80960000D03*
X99800000Y-78460000D03*
X99800000Y-75960000D03*
X99800000Y-73460000D03*
X99800000Y-70960000D03*
X99800000Y-68460000D03*
X99800000Y-65960000D03*
X99800000Y-63460000D03*
X97300000Y-120960000D03*
X97300000Y-118460000D03*
X97300000Y-115960000D03*
X97300000Y-113460000D03*
X97300000Y-110960000D03*
X97300000Y-108460000D03*
X97300000Y-80960000D03*
X97300000Y-78460000D03*
X97300000Y-75960000D03*
X97300000Y-73460000D03*
X97300000Y-70960000D03*
X97300000Y-68460000D03*
X97300000Y-65960000D03*
X97300000Y-63460000D03*
X94800000Y-115960000D03*
X94800000Y-113460000D03*
X94800000Y-110960000D03*
X94800000Y-70960000D03*
X94800000Y-68460000D03*
X92300000Y-115960000D03*
X92300000Y-113460000D03*
X92300000Y-110960000D03*
X92300000Y-70960000D03*
X92300000Y-68460000D03*
X89800000Y-120960000D03*
X89800000Y-118460000D03*
X89800000Y-115960000D03*
X89800000Y-113460000D03*
X89800000Y-110960000D03*
X89800000Y-108460000D03*
X89800000Y-105960000D03*
X89800000Y-103460000D03*
X89800000Y-93460000D03*
X89800000Y-90960000D03*
X89800000Y-88460000D03*
X89800000Y-85960000D03*
X89800000Y-83460000D03*
X89800000Y-80960000D03*
X89800000Y-78460000D03*
X89800000Y-75960000D03*
X89800000Y-73460000D03*
X89800000Y-70960000D03*
X89800000Y-68460000D03*
X89800000Y-65960000D03*
X89800000Y-63460000D03*
X118145358Y-74840000D03*
X181810000Y-120550000D03*
X190270000Y-103325001D03*
X140709000Y-81205000D03*
X190180000Y-112955001D03*
%TO.N,+3.3V*%
X146739000Y-78855000D03*
X122035358Y-74450000D03*
X152370000Y-108940000D03*
X185890000Y-92720000D03*
X166945000Y-79534000D03*
X176800000Y-97550000D03*
X142829000Y-80365000D03*
X192980000Y-77820000D03*
X191230000Y-75130000D03*
X191250000Y-80570000D03*
%TO.N,Net-(C3-Pad2)*%
X145829000Y-81355000D03*
X142199000Y-76825000D03*
%TO.N,Net-(D1-A)*%
X181640000Y-115730000D03*
%TO.N,Net-(D2-A)*%
X179580000Y-115830000D03*
%TO.N,SDA*%
X182370000Y-103620003D03*
X192510000Y-94000000D03*
X178940000Y-102245000D03*
X196180000Y-94010000D03*
X185940000Y-103390000D03*
X159580000Y-72009000D03*
X135471000Y-72009000D03*
X148790000Y-72009000D03*
X178930000Y-103450000D03*
%TO.N,SCL*%
X184920000Y-102820000D03*
X160610000Y-72690000D03*
X135950000Y-72690000D03*
X135950000Y-72690000D03*
X182370000Y-102820000D03*
%TO.N,D+*%
X168110000Y-108460000D03*
%TO.N,D-*%
X167330000Y-108450000D03*
%TO.N,+5V_in*%
X189130000Y-104815001D03*
X189930000Y-111425001D03*
%TO.N,Net-(U1-IO16)*%
X90470000Y-95260000D03*
%TO.N,Net-(JP5-A)*%
X159548235Y-77341765D03*
X161700000Y-76980000D03*
%TD*%
D38*
%TO.N,Net-(P1-SHIELD)*%
X193603606Y-101912448D02*
X192654349Y-102861705D01*
X194287100Y-101912448D02*
X193603606Y-101912448D01*
%TO.N,+5V_in*%
X191030000Y-105650000D02*
X190195001Y-104815001D01*
X191636151Y-105650000D02*
X191030000Y-105650000D01*
X191668601Y-105682450D02*
X191636151Y-105650000D01*
X190195001Y-104815001D02*
X189130000Y-104815001D01*
X192032101Y-105682450D02*
X191668601Y-105682450D01*
D39*
%TO.N,GND*%
X144209000Y-80429000D02*
X144209000Y-80715000D01*
X144209000Y-80715000D02*
X143769000Y-81155000D01*
D38*
X164655000Y-76808000D02*
X163562000Y-75715000D01*
X191668601Y-104882449D02*
X190270000Y-103483848D01*
X119950358Y-76390000D02*
X119695358Y-76390000D01*
X119950358Y-78177500D02*
X120062858Y-78290000D01*
X181790000Y-118905000D02*
X181790000Y-120530000D01*
X192032101Y-111582451D02*
X191552550Y-111582451D01*
X119695358Y-76390000D02*
X118145358Y-74840000D01*
X191552550Y-111582451D02*
X190180000Y-112955001D01*
X192032101Y-104882449D02*
X191668601Y-104882449D01*
X119950358Y-76390000D02*
X119950358Y-78177500D01*
X164655000Y-81620000D02*
X164655000Y-76808000D01*
X192032101Y-111282451D02*
X192032101Y-111582451D01*
X192032101Y-105182449D02*
X192032101Y-104882449D01*
X190270000Y-103483848D02*
X190270000Y-103325001D01*
X181790000Y-120530000D02*
X181810000Y-120550000D01*
D39*
X143719000Y-81205000D02*
X140709000Y-81205000D01*
X143769000Y-81155000D02*
X143719000Y-81205000D01*
D38*
%TO.N,+3.3V*%
X122025358Y-76390000D02*
X122025358Y-74460000D01*
X168455000Y-79895000D02*
X166730000Y-81620000D01*
D39*
X143277000Y-79917000D02*
X142829000Y-80365000D01*
D38*
X122025358Y-76390000D02*
X122025358Y-78177500D01*
D39*
X143946000Y-79917000D02*
X143277000Y-79917000D01*
X146177000Y-79417000D02*
X146739000Y-78855000D01*
X145472000Y-79417000D02*
X146177000Y-79417000D01*
D38*
X166954000Y-79525000D02*
X166945000Y-79534000D01*
X168455000Y-79525000D02*
X166954000Y-79525000D01*
X122025358Y-78177500D02*
X121912858Y-78290000D01*
X122025358Y-74460000D02*
X122035358Y-74450000D01*
D39*
%TO.N,Net-(C3-Pad2)*%
X145829000Y-81049000D02*
X145209000Y-80429000D01*
X145829000Y-81355000D02*
X145829000Y-81049000D01*
X144709000Y-78905000D02*
X144209000Y-78905000D01*
X143634000Y-76405000D02*
X143634000Y-74331000D01*
X143672500Y-76530000D02*
X142494000Y-76530000D01*
X143634000Y-76405000D02*
X143634000Y-78330000D01*
X142494000Y-76530000D02*
X142199000Y-76825000D01*
X143634000Y-78330000D02*
X144209000Y-78905000D01*
%TO.N,Net-(U3-VDD)*%
X145209000Y-78905000D02*
X145709000Y-78405000D01*
X145709000Y-76405000D02*
X145709000Y-78405000D01*
X145709000Y-76405000D02*
X145709000Y-74331000D01*
%TO.N,Net-(D1-A)*%
X181700000Y-115790000D02*
X181640000Y-115730000D01*
X181700000Y-116880000D02*
X181700000Y-115790000D01*
%TO.N,Net-(D2-A)*%
X179600000Y-116880000D02*
X179600000Y-115850000D01*
X179600000Y-115850000D02*
X179580000Y-115830000D01*
%TO.N,Net-(P1-CC)*%
X190207402Y-106632450D02*
X190557402Y-106982450D01*
X190557402Y-106982450D02*
X192032101Y-106982450D01*
%TO.N,Net-(P1-VCONN)*%
X190457402Y-109982450D02*
X192032101Y-109982450D01*
X190207402Y-109732450D02*
X190457402Y-109982450D01*
%TO.N,SDA*%
X147067000Y-79917000D02*
X148809000Y-78175000D01*
X192510000Y-94000000D02*
X196170000Y-94000000D01*
X162580000Y-79525000D02*
X159590000Y-76535000D01*
X182370000Y-103620003D02*
X185709997Y-103620003D01*
X178930000Y-102255000D02*
X178940000Y-102245000D01*
X185709997Y-103620003D02*
X185940000Y-103390000D01*
X159590000Y-76535000D02*
X159590000Y-72019000D01*
X196170000Y-94000000D02*
X196180000Y-94010000D01*
X159590000Y-72019000D02*
X159580000Y-72009000D01*
X148809000Y-72028000D02*
X148790000Y-72009000D01*
X135471000Y-72009000D02*
X128190000Y-79290000D01*
X163005000Y-79525000D02*
X162580000Y-79525000D01*
X178930000Y-103450000D02*
X178930000Y-102255000D01*
X128190000Y-79290000D02*
X121912858Y-79290000D01*
X148809000Y-78175000D02*
X148809000Y-72028000D01*
X145472000Y-79917000D02*
X147067000Y-79917000D01*
%TO.N,SCL*%
X128749000Y-79891000D02*
X135950000Y-72690000D01*
X136859000Y-82045000D02*
X135979000Y-81165000D01*
X143949000Y-82045000D02*
X136859000Y-82045000D01*
X120610844Y-79891000D02*
X128749000Y-79891000D01*
X160590000Y-76880000D02*
X160590000Y-72710000D01*
X135979000Y-81165000D02*
X135979000Y-72719000D01*
X144709000Y-81285000D02*
X143949000Y-82045000D01*
X120062858Y-79343014D02*
X120610844Y-79891000D01*
X160590000Y-72710000D02*
X160610000Y-72690000D01*
X182370000Y-102820000D02*
X184920000Y-102820000D01*
X161965000Y-78255000D02*
X160590000Y-76880000D01*
X163005000Y-78255000D02*
X161965000Y-78255000D01*
X135979000Y-72719000D02*
X135950000Y-72690000D01*
X144709000Y-80429000D02*
X144709000Y-81285000D01*
X120062858Y-79290000D02*
X120062858Y-79343014D01*
D40*
%TO.N,D+*%
X168295000Y-108645000D02*
X168110000Y-108460000D01*
X169799871Y-108645000D02*
X168295000Y-108645000D01*
X191174850Y-107982450D02*
X191123350Y-108033950D01*
X170410920Y-108033950D02*
X169799871Y-108645000D01*
X192032101Y-107982450D02*
X191174850Y-107982450D01*
X191123350Y-108033950D02*
X170410920Y-108033950D01*
%TO.N,D-*%
X191174850Y-108482450D02*
X192032101Y-108482450D01*
X170574949Y-108429950D02*
X191122350Y-108429950D01*
X170574949Y-108429950D02*
X169963899Y-109041000D01*
X167551000Y-109041000D02*
X167330000Y-108820000D01*
X191122350Y-108429950D02*
X191174850Y-108482450D01*
X169963899Y-109041000D02*
X167551000Y-109041000D01*
X167330000Y-108450000D02*
X167330000Y-108820000D01*
D39*
%TO.N,Net-(JP1-A)*%
X140281000Y-79417000D02*
X140199000Y-79335000D01*
X143946000Y-79417000D02*
X140281000Y-79417000D01*
D38*
%TO.N,+5V_in*%
X192032101Y-105682450D02*
X192032101Y-105979050D01*
X191357402Y-110782450D02*
X192032101Y-110782450D01*
X190714851Y-111425001D02*
X191357402Y-110782450D01*
X192032101Y-110782450D02*
X192032101Y-110485850D01*
X189930000Y-111425001D02*
X190714851Y-111425001D01*
D39*
%TO.N,Net-(U1-IO16)*%
X90470000Y-95260000D02*
X90700000Y-95260000D01*
X91470000Y-94490000D02*
X93500000Y-94490000D01*
X90700000Y-95260000D02*
X91470000Y-94490000D01*
%TO.N,Net-(JP2-A)*%
X168855000Y-78255000D02*
X168455000Y-78255000D01*
X173380000Y-82780000D02*
X168855000Y-78255000D01*
X173380000Y-83500000D02*
X173380000Y-82780000D01*
%TO.N,Net-(JP3-A)*%
X173290000Y-79570000D02*
X170705000Y-76985000D01*
X170705000Y-76985000D02*
X168455000Y-76985000D01*
%TO.N,Net-(JP4-A)*%
X168470000Y-75700000D02*
X168455000Y-75715000D01*
X173290000Y-75700000D02*
X168470000Y-75700000D01*
%TO.N,Net-(JP5-A)*%
X158331765Y-77341765D02*
X158010000Y-77020000D01*
X161705000Y-76985000D02*
X161700000Y-76980000D01*
X163005000Y-76985000D02*
X161705000Y-76985000D01*
X159548235Y-77341765D02*
X158331765Y-77341765D01*
%TD*%
%TA.AperFunction,Conductor*%
%TO.N,GND*%
G36*
X199232539Y-62152156D02*
G01*
X199278294Y-62204960D01*
X199289500Y-62256471D01*
X199289500Y-122315500D01*
X199269815Y-122382539D01*
X199217011Y-122428294D01*
X199165500Y-122439500D01*
X89076470Y-122439500D01*
X89009431Y-122419815D01*
X88963676Y-122367011D01*
X88952470Y-122315500D01*
X88952470Y-119282332D01*
X91709500Y-119282332D01*
X91709500Y-119557667D01*
X91709501Y-119557684D01*
X91745438Y-119830655D01*
X91745439Y-119830660D01*
X91745440Y-119830666D01*
X91745441Y-119830668D01*
X91816704Y-120096630D01*
X91922075Y-120351017D01*
X91922080Y-120351028D01*
X92001809Y-120489121D01*
X92059751Y-120589479D01*
X92059753Y-120589482D01*
X92059754Y-120589483D01*
X92227370Y-120807926D01*
X92227376Y-120807933D01*
X92422066Y-121002623D01*
X92422072Y-121002628D01*
X92640521Y-121170249D01*
X92793778Y-121258732D01*
X92878971Y-121307919D01*
X92878976Y-121307921D01*
X92878979Y-121307923D01*
X93133368Y-121413295D01*
X93399334Y-121484560D01*
X93672326Y-121520500D01*
X93672333Y-121520500D01*
X93947667Y-121520500D01*
X93947674Y-121520500D01*
X94220666Y-121484560D01*
X94486632Y-121413295D01*
X94741021Y-121307923D01*
X94979479Y-121170249D01*
X95197928Y-121002628D01*
X95392628Y-120807928D01*
X95560249Y-120589479D01*
X95697923Y-120351021D01*
X95803295Y-120096632D01*
X95874560Y-119830666D01*
X95910500Y-119557674D01*
X95910500Y-119304986D01*
X178400001Y-119304986D01*
X178410494Y-119407697D01*
X178465641Y-119574119D01*
X178465643Y-119574124D01*
X178557684Y-119723345D01*
X178681654Y-119847315D01*
X178830875Y-119939356D01*
X178830880Y-119939358D01*
X178997302Y-119994505D01*
X178997309Y-119994506D01*
X179100019Y-120004999D01*
X179349999Y-120004999D01*
X179850000Y-120004999D01*
X180099972Y-120004999D01*
X180099986Y-120004998D01*
X180202697Y-119994505D01*
X180369119Y-119939358D01*
X180369124Y-119939356D01*
X180518345Y-119847315D01*
X180562319Y-119803342D01*
X180623642Y-119769857D01*
X180693334Y-119774841D01*
X180737681Y-119803342D01*
X180781654Y-119847315D01*
X180930875Y-119939356D01*
X180930880Y-119939358D01*
X181097302Y-119994505D01*
X181097309Y-119994506D01*
X181200019Y-120004999D01*
X181449999Y-120004999D01*
X181950000Y-120004999D01*
X182199972Y-120004999D01*
X182199986Y-120004998D01*
X182302697Y-119994505D01*
X182469119Y-119939358D01*
X182469124Y-119939356D01*
X182618345Y-119847315D01*
X182742315Y-119723345D01*
X182834356Y-119574124D01*
X182834358Y-119574119D01*
X182889505Y-119407697D01*
X182889506Y-119407690D01*
X182899999Y-119304986D01*
X182900000Y-119304973D01*
X182900000Y-119282332D01*
X193649500Y-119282332D01*
X193649500Y-119557667D01*
X193649501Y-119557684D01*
X193685438Y-119830655D01*
X193685439Y-119830660D01*
X193685440Y-119830666D01*
X193685441Y-119830668D01*
X193756704Y-120096630D01*
X193862075Y-120351017D01*
X193862080Y-120351028D01*
X193941809Y-120489121D01*
X193999751Y-120589479D01*
X193999753Y-120589482D01*
X193999754Y-120589483D01*
X194167370Y-120807926D01*
X194167376Y-120807933D01*
X194362066Y-121002623D01*
X194362072Y-121002628D01*
X194580521Y-121170249D01*
X194733778Y-121258732D01*
X194818971Y-121307919D01*
X194818976Y-121307921D01*
X194818979Y-121307923D01*
X195073368Y-121413295D01*
X195339334Y-121484560D01*
X195612326Y-121520500D01*
X195612333Y-121520500D01*
X195887667Y-121520500D01*
X195887674Y-121520500D01*
X196160666Y-121484560D01*
X196426632Y-121413295D01*
X196681021Y-121307923D01*
X196919479Y-121170249D01*
X197137928Y-121002628D01*
X197332628Y-120807928D01*
X197500249Y-120589479D01*
X197637923Y-120351021D01*
X197743295Y-120096632D01*
X197814560Y-119830666D01*
X197850500Y-119557674D01*
X197850500Y-119282326D01*
X197814560Y-119009334D01*
X197743295Y-118743368D01*
X197637923Y-118488979D01*
X197637921Y-118488976D01*
X197637919Y-118488971D01*
X197588732Y-118403778D01*
X197500249Y-118250521D01*
X197332628Y-118032072D01*
X197332623Y-118032066D01*
X197137933Y-117837376D01*
X197137926Y-117837370D01*
X196919483Y-117669754D01*
X196919482Y-117669753D01*
X196919479Y-117669751D01*
X196824407Y-117614861D01*
X196681028Y-117532080D01*
X196681017Y-117532075D01*
X196426630Y-117426704D01*
X196293649Y-117391072D01*
X196160666Y-117355440D01*
X196160660Y-117355439D01*
X196160655Y-117355438D01*
X195887684Y-117319501D01*
X195887679Y-117319500D01*
X195887674Y-117319500D01*
X195612326Y-117319500D01*
X195612320Y-117319500D01*
X195612315Y-117319501D01*
X195339344Y-117355438D01*
X195339337Y-117355439D01*
X195339334Y-117355440D01*
X195283125Y-117370500D01*
X195073369Y-117426704D01*
X194818982Y-117532075D01*
X194818971Y-117532080D01*
X194580516Y-117669754D01*
X194362073Y-117837370D01*
X194362066Y-117837376D01*
X194167376Y-118032066D01*
X194167370Y-118032073D01*
X193999754Y-118250516D01*
X193862080Y-118488971D01*
X193862075Y-118488982D01*
X193756704Y-118743369D01*
X193685441Y-119009331D01*
X193685438Y-119009344D01*
X193649501Y-119282315D01*
X193649500Y-119282332D01*
X182900000Y-119282332D01*
X182900000Y-119180000D01*
X181950000Y-119180000D01*
X181950000Y-120004999D01*
X181449999Y-120004999D01*
X181450000Y-120004998D01*
X181450000Y-119180000D01*
X179850000Y-119180000D01*
X179850000Y-120004999D01*
X179349999Y-120004999D01*
X179350000Y-120004998D01*
X179350000Y-119180000D01*
X178400001Y-119180000D01*
X178400001Y-119304986D01*
X95910500Y-119304986D01*
X95910500Y-119282326D01*
X95874560Y-119009334D01*
X95803295Y-118743368D01*
X95697923Y-118488979D01*
X95697921Y-118488976D01*
X95697919Y-118488971D01*
X95648732Y-118403778D01*
X95560249Y-118250521D01*
X95392628Y-118032072D01*
X95392623Y-118032066D01*
X95197933Y-117837376D01*
X95197926Y-117837370D01*
X94979483Y-117669754D01*
X94979482Y-117669753D01*
X94979479Y-117669751D01*
X94884407Y-117614861D01*
X94741028Y-117532080D01*
X94741017Y-117532075D01*
X94486630Y-117426704D01*
X94353649Y-117391072D01*
X94220666Y-117355440D01*
X94220660Y-117355439D01*
X94220655Y-117355438D01*
X93947684Y-117319501D01*
X93947679Y-117319500D01*
X93947674Y-117319500D01*
X93672326Y-117319500D01*
X93672320Y-117319500D01*
X93672315Y-117319501D01*
X93399344Y-117355438D01*
X93399337Y-117355439D01*
X93399334Y-117355440D01*
X93343125Y-117370500D01*
X93133369Y-117426704D01*
X92878982Y-117532075D01*
X92878971Y-117532080D01*
X92640516Y-117669754D01*
X92422073Y-117837370D01*
X92422066Y-117837376D01*
X92227376Y-118032066D01*
X92227370Y-118032073D01*
X92059754Y-118250516D01*
X91922080Y-118488971D01*
X91922075Y-118488982D01*
X91816704Y-118743369D01*
X91745441Y-119009331D01*
X91745438Y-119009344D01*
X91709501Y-119282315D01*
X91709500Y-119282332D01*
X88952470Y-119282332D01*
X88952470Y-116504983D01*
X178399500Y-116504983D01*
X178399500Y-117255001D01*
X178399501Y-117255019D01*
X178410000Y-117357796D01*
X178410001Y-117357799D01*
X178465185Y-117524331D01*
X178465187Y-117524336D01*
X178469962Y-117532077D01*
X178557288Y-117673656D01*
X178681344Y-117797712D01*
X178684628Y-117799737D01*
X178684653Y-117799753D01*
X178686445Y-117801746D01*
X178687011Y-117802193D01*
X178686934Y-117802289D01*
X178731379Y-117851699D01*
X178742603Y-117920661D01*
X178714761Y-117984744D01*
X178684665Y-118010826D01*
X178681660Y-118012679D01*
X178681655Y-118012683D01*
X178557684Y-118136654D01*
X178465643Y-118285875D01*
X178465641Y-118285880D01*
X178410494Y-118452302D01*
X178410493Y-118452309D01*
X178400000Y-118555013D01*
X178400000Y-118680000D01*
X182899999Y-118680000D01*
X182899999Y-118555028D01*
X182899998Y-118555013D01*
X182889505Y-118452302D01*
X182834358Y-118285880D01*
X182834356Y-118285875D01*
X182742315Y-118136654D01*
X182618344Y-118012683D01*
X182618341Y-118012681D01*
X182615339Y-118010829D01*
X182613713Y-118009021D01*
X182612677Y-118008202D01*
X182612817Y-118008024D01*
X182568617Y-117958880D01*
X182557397Y-117889917D01*
X182585243Y-117825836D01*
X182615344Y-117799754D01*
X182618656Y-117797712D01*
X182742712Y-117673656D01*
X182834814Y-117524334D01*
X182889999Y-117357797D01*
X182900500Y-117255009D01*
X182900499Y-116504992D01*
X182889999Y-116402203D01*
X182834814Y-116235666D01*
X182742712Y-116086344D01*
X182618656Y-115962288D01*
X182499402Y-115888732D01*
X182452679Y-115836785D01*
X182440500Y-115783194D01*
X182440500Y-115651155D01*
X182440499Y-115651153D01*
X182409738Y-115496510D01*
X182409737Y-115496503D01*
X182390812Y-115450814D01*
X182349397Y-115350827D01*
X182349390Y-115350814D01*
X182261789Y-115219711D01*
X182261786Y-115219707D01*
X182150292Y-115108213D01*
X182150288Y-115108210D01*
X182019185Y-115020609D01*
X182019172Y-115020602D01*
X181873501Y-114960264D01*
X181873489Y-114960261D01*
X181718845Y-114929500D01*
X181718842Y-114929500D01*
X181561158Y-114929500D01*
X181561155Y-114929500D01*
X181406510Y-114960261D01*
X181406498Y-114960264D01*
X181260827Y-115020602D01*
X181260814Y-115020609D01*
X181129711Y-115108210D01*
X181129707Y-115108213D01*
X181018213Y-115219707D01*
X181018210Y-115219711D01*
X180930609Y-115350814D01*
X180930602Y-115350827D01*
X180870264Y-115496498D01*
X180870261Y-115496510D01*
X180839500Y-115651153D01*
X180839500Y-115808843D01*
X180843523Y-115829071D01*
X180837294Y-115898662D01*
X180805065Y-115945239D01*
X180796649Y-115952847D01*
X180781344Y-115962288D01*
X180735485Y-116008146D01*
X180733160Y-116010249D01*
X180704384Y-116024131D01*
X180676357Y-116039435D01*
X180673139Y-116039204D01*
X180670231Y-116040608D01*
X180638515Y-116036728D01*
X180606665Y-116034450D01*
X180603555Y-116032451D01*
X180600878Y-116032124D01*
X180593450Y-116025957D01*
X180562320Y-116005951D01*
X180518656Y-115962288D01*
X180518655Y-115962287D01*
X180439402Y-115913403D01*
X180392678Y-115861455D01*
X180380500Y-115807865D01*
X180380500Y-115751155D01*
X180380499Y-115751153D01*
X180349737Y-115596503D01*
X180308314Y-115496498D01*
X180289397Y-115450827D01*
X180289390Y-115450814D01*
X180201789Y-115319711D01*
X180201786Y-115319707D01*
X180090292Y-115208213D01*
X180090288Y-115208210D01*
X179959185Y-115120609D01*
X179959172Y-115120602D01*
X179813501Y-115060264D01*
X179813489Y-115060261D01*
X179658845Y-115029500D01*
X179658842Y-115029500D01*
X179501158Y-115029500D01*
X179501155Y-115029500D01*
X179346510Y-115060261D01*
X179346498Y-115060264D01*
X179200827Y-115120602D01*
X179200814Y-115120609D01*
X179069711Y-115208210D01*
X179069707Y-115208213D01*
X178958213Y-115319707D01*
X178958210Y-115319711D01*
X178870609Y-115450814D01*
X178870602Y-115450827D01*
X178810264Y-115596498D01*
X178810261Y-115596510D01*
X178779500Y-115751153D01*
X178779500Y-115832537D01*
X178759815Y-115899576D01*
X178720599Y-115938075D01*
X178681342Y-115962289D01*
X178557289Y-116086342D01*
X178465187Y-116235663D01*
X178465186Y-116235666D01*
X178410001Y-116402203D01*
X178410001Y-116402204D01*
X178410000Y-116402204D01*
X178399500Y-116504983D01*
X88952470Y-116504983D01*
X88952470Y-110382436D01*
X187132102Y-110382436D01*
X187142595Y-110485147D01*
X187197742Y-110651569D01*
X187197744Y-110651574D01*
X187289785Y-110800795D01*
X187413755Y-110924765D01*
X187562976Y-111016806D01*
X187562981Y-111016808D01*
X187729403Y-111071955D01*
X187729410Y-111071956D01*
X187832120Y-111082449D01*
X187982100Y-111082449D01*
X187982101Y-111082448D01*
X187982101Y-110132450D01*
X187132102Y-110132450D01*
X187132102Y-110382436D01*
X88952470Y-110382436D01*
X88952470Y-108861153D01*
X151569500Y-108861153D01*
X151569500Y-109018846D01*
X151600261Y-109173489D01*
X151600264Y-109173501D01*
X151660602Y-109319172D01*
X151660609Y-109319185D01*
X151748210Y-109450288D01*
X151748213Y-109450292D01*
X151859707Y-109561786D01*
X151859711Y-109561789D01*
X151990814Y-109649390D01*
X151990827Y-109649397D01*
X152136498Y-109709735D01*
X152136503Y-109709737D01*
X152263342Y-109734967D01*
X152291153Y-109740499D01*
X152291156Y-109740500D01*
X152291158Y-109740500D01*
X152448844Y-109740500D01*
X152448845Y-109740499D01*
X152603497Y-109709737D01*
X152716166Y-109663067D01*
X152749172Y-109649397D01*
X152749172Y-109649396D01*
X152749179Y-109649394D01*
X152880289Y-109561789D01*
X152991789Y-109450289D01*
X153079394Y-109319179D01*
X153139737Y-109173497D01*
X153170500Y-109018842D01*
X153170500Y-108861158D01*
X153170500Y-108861155D01*
X153170499Y-108861153D01*
X153164139Y-108829179D01*
X153139737Y-108706503D01*
X153130208Y-108683497D01*
X153079397Y-108560827D01*
X153079390Y-108560814D01*
X152994626Y-108433957D01*
X152994625Y-108433955D01*
X152994624Y-108433954D01*
X152991788Y-108429709D01*
X152933232Y-108371153D01*
X166529500Y-108371153D01*
X166529500Y-108528846D01*
X166560261Y-108683489D01*
X166560264Y-108683501D01*
X166620602Y-108829172D01*
X166620609Y-108829185D01*
X166708210Y-108960288D01*
X166708213Y-108960292D01*
X166714132Y-108966211D01*
X166718763Y-108973142D01*
X166723002Y-108976085D01*
X166741012Y-109006438D01*
X166778918Y-109097949D01*
X166778918Y-109097951D01*
X166784547Y-109111542D01*
X166784554Y-109111555D01*
X166851909Y-109212358D01*
X166851912Y-109212362D01*
X167158637Y-109519087D01*
X167158641Y-109519090D01*
X167259444Y-109586445D01*
X167259448Y-109586447D01*
X167259451Y-109586449D01*
X167371465Y-109632847D01*
X167490373Y-109656499D01*
X167490377Y-109656500D01*
X167490378Y-109656500D01*
X170024521Y-109656500D01*
X170083977Y-109644673D01*
X170083978Y-109644673D01*
X170098943Y-109641696D01*
X170143434Y-109632847D01*
X170255448Y-109586449D01*
X170292354Y-109561789D01*
X170356258Y-109519090D01*
X170793579Y-109081769D01*
X170854902Y-109048284D01*
X170881260Y-109045450D01*
X187048516Y-109045450D01*
X187115555Y-109065135D01*
X187161310Y-109117939D01*
X187171254Y-109187097D01*
X187166222Y-109208454D01*
X187142595Y-109279752D01*
X187142594Y-109279759D01*
X187132101Y-109382463D01*
X187132101Y-109632450D01*
X188108101Y-109632450D01*
X188175140Y-109652135D01*
X188220895Y-109704939D01*
X188232101Y-109756450D01*
X188232101Y-109882450D01*
X188358101Y-109882450D01*
X188425140Y-109902135D01*
X188470895Y-109954939D01*
X188482101Y-110006450D01*
X188482101Y-111082449D01*
X188632073Y-111082449D01*
X188632087Y-111082448D01*
X188734798Y-111071955D01*
X188901220Y-111016808D01*
X188901231Y-111016803D01*
X189019921Y-110943594D01*
X189087313Y-110925153D01*
X189153977Y-110946075D01*
X189198746Y-110999717D01*
X189207408Y-111069048D01*
X189199579Y-111096584D01*
X189160264Y-111191499D01*
X189160261Y-111191511D01*
X189129500Y-111346154D01*
X189129500Y-111503847D01*
X189160261Y-111658490D01*
X189160264Y-111658502D01*
X189220602Y-111804173D01*
X189220609Y-111804186D01*
X189308210Y-111935289D01*
X189308213Y-111935293D01*
X189419707Y-112046787D01*
X189419711Y-112046790D01*
X189550814Y-112134391D01*
X189550827Y-112134398D01*
X189696498Y-112194736D01*
X189696503Y-112194738D01*
X189851153Y-112225500D01*
X189851156Y-112225501D01*
X189851158Y-112225501D01*
X190008844Y-112225501D01*
X190008845Y-112225500D01*
X190163497Y-112194738D01*
X190309179Y-112134395D01*
X190366044Y-112096398D01*
X190432721Y-112075521D01*
X190434935Y-112075501D01*
X190778922Y-112075501D01*
X190863466Y-112058683D01*
X190904595Y-112050502D01*
X190958494Y-112028175D01*
X191027963Y-112020707D01*
X191090443Y-112051982D01*
X191126095Y-112112071D01*
X191123601Y-112181896D01*
X191120509Y-112190189D01*
X191110326Y-112214772D01*
X191090769Y-112261988D01*
X191090768Y-112261991D01*
X191090768Y-112261992D01*
X191090767Y-112261995D01*
X191052501Y-112454369D01*
X191052501Y-112650534D01*
X191090767Y-112842908D01*
X191090769Y-112842916D01*
X191165833Y-113024136D01*
X191165838Y-113024146D01*
X191274812Y-113187236D01*
X191274815Y-113187240D01*
X191413512Y-113325937D01*
X191413516Y-113325940D01*
X191576606Y-113434914D01*
X191576610Y-113434916D01*
X191576613Y-113434918D01*
X191757837Y-113509984D01*
X191950218Y-113548251D01*
X191950221Y-113548252D01*
X191950223Y-113548252D01*
X193263981Y-113548252D01*
X193263982Y-113548251D01*
X193456365Y-113509984D01*
X193637589Y-113434918D01*
X193800686Y-113325940D01*
X193939389Y-113187237D01*
X194048367Y-113024140D01*
X194123433Y-112842916D01*
X194161701Y-112650530D01*
X194161701Y-112454374D01*
X194161701Y-112454371D01*
X194161700Y-112454369D01*
X195232500Y-112454369D01*
X195232500Y-112650534D01*
X195270766Y-112842908D01*
X195270768Y-112842916D01*
X195345832Y-113024136D01*
X195345837Y-113024146D01*
X195454811Y-113187236D01*
X195454814Y-113187240D01*
X195593511Y-113325937D01*
X195593515Y-113325940D01*
X195756605Y-113434914D01*
X195756609Y-113434916D01*
X195756612Y-113434918D01*
X195937836Y-113509984D01*
X196130217Y-113548251D01*
X196130220Y-113548252D01*
X196130222Y-113548252D01*
X197443980Y-113548252D01*
X197443981Y-113548251D01*
X197636364Y-113509984D01*
X197817588Y-113434918D01*
X197980685Y-113325940D01*
X198119388Y-113187237D01*
X198228366Y-113024140D01*
X198303432Y-112842916D01*
X198341700Y-112650530D01*
X198341700Y-112454374D01*
X198341700Y-112454371D01*
X198341699Y-112454369D01*
X198303433Y-112261995D01*
X198303432Y-112261988D01*
X198228366Y-112080764D01*
X198228364Y-112080761D01*
X198228362Y-112080757D01*
X198119388Y-111917667D01*
X198119385Y-111917663D01*
X197980688Y-111778966D01*
X197980684Y-111778963D01*
X197817594Y-111669989D01*
X197817584Y-111669984D01*
X197636364Y-111594920D01*
X197636356Y-111594918D01*
X197443981Y-111556652D01*
X197443978Y-111556652D01*
X196130222Y-111556652D01*
X196130219Y-111556652D01*
X195937843Y-111594918D01*
X195937835Y-111594920D01*
X195756615Y-111669984D01*
X195756605Y-111669989D01*
X195593515Y-111778963D01*
X195593511Y-111778966D01*
X195454814Y-111917663D01*
X195454811Y-111917667D01*
X195345837Y-112080757D01*
X195345832Y-112080767D01*
X195270768Y-112261987D01*
X195270766Y-112261995D01*
X195232500Y-112454369D01*
X194161700Y-112454369D01*
X194123434Y-112261995D01*
X194123433Y-112261988D01*
X194048367Y-112080764D01*
X194048365Y-112080761D01*
X194048363Y-112080757D01*
X193939389Y-111917667D01*
X193939386Y-111917663D01*
X193800689Y-111778966D01*
X193800685Y-111778963D01*
X193637595Y-111669989D01*
X193637588Y-111669985D01*
X193629975Y-111666832D01*
X193625748Y-111665081D01*
X193571345Y-111621242D01*
X193549279Y-111554948D01*
X193566557Y-111487248D01*
X193569691Y-111482618D01*
X193571776Y-111479007D01*
X193648226Y-111346591D01*
X193687800Y-111198900D01*
X193687800Y-111045998D01*
X193648226Y-110898307D01*
X193571776Y-110765891D01*
X193463658Y-110657773D01*
X193463657Y-110657772D01*
X193463654Y-110657770D01*
X193331244Y-110581324D01*
X193331243Y-110581323D01*
X193274974Y-110566246D01*
X193183551Y-110541749D01*
X193159756Y-110541749D01*
X193092717Y-110522064D01*
X193046962Y-110469260D01*
X193037018Y-110400102D01*
X193045823Y-110373659D01*
X193044298Y-110373091D01*
X193061710Y-110326405D01*
X193097692Y-110229933D01*
X193104101Y-110170323D01*
X193104100Y-109794578D01*
X193098846Y-109745702D01*
X193098846Y-109719196D01*
X193099863Y-109709737D01*
X193104101Y-109670323D01*
X193104100Y-109304578D01*
X193098308Y-109250697D01*
X193098309Y-109224195D01*
X193099581Y-109212359D01*
X193104101Y-109170323D01*
X193104100Y-108794578D01*
X193098846Y-108745702D01*
X193098846Y-108719196D01*
X193100210Y-108706510D01*
X193104101Y-108670323D01*
X193104100Y-108294578D01*
X193098846Y-108245702D01*
X193098846Y-108219196D01*
X193099135Y-108216510D01*
X193104101Y-108170323D01*
X193104100Y-107794582D01*
X193098846Y-107745705D01*
X193098846Y-107719198D01*
X193104101Y-107670323D01*
X193104100Y-107294578D01*
X193098846Y-107245702D01*
X193098846Y-107219196D01*
X193104101Y-107170323D01*
X193104100Y-106782180D01*
X193098975Y-106734503D01*
X193098975Y-106707999D01*
X193104101Y-106660323D01*
X193104100Y-106294580D01*
X193097692Y-106234969D01*
X193069692Y-106159896D01*
X193044298Y-106091811D01*
X193047458Y-106090632D01*
X193036069Y-106038334D01*
X193060470Y-105972864D01*
X193116394Y-105930979D01*
X193159755Y-105923151D01*
X193183548Y-105923151D01*
X193183551Y-105923151D01*
X193331242Y-105883577D01*
X193463658Y-105807127D01*
X193571776Y-105699009D01*
X193648226Y-105566593D01*
X193687800Y-105418902D01*
X193687800Y-105266000D01*
X193648226Y-105118309D01*
X193571776Y-104985893D01*
X193567713Y-104978855D01*
X193570050Y-104977505D01*
X193549632Y-104924724D01*
X193563656Y-104856277D01*
X193612458Y-104806276D01*
X193625744Y-104799820D01*
X193637589Y-104794914D01*
X193800686Y-104685936D01*
X193939389Y-104547233D01*
X194048367Y-104384136D01*
X194123433Y-104202912D01*
X194161701Y-104010526D01*
X194161701Y-103814370D01*
X194161701Y-103814367D01*
X194161700Y-103814365D01*
X194152712Y-103769179D01*
X194123433Y-103621984D01*
X194048367Y-103440760D01*
X194048365Y-103440757D01*
X194048363Y-103440753D01*
X193958215Y-103305838D01*
X193937337Y-103239161D01*
X193955821Y-103171780D01*
X194007800Y-103125090D01*
X194061313Y-103112947D01*
X194687108Y-103112947D01*
X194687116Y-103112946D01*
X194687119Y-103112946D01*
X194743402Y-103107196D01*
X194789897Y-103102447D01*
X194956434Y-103047262D01*
X195105756Y-102955160D01*
X195199775Y-102861140D01*
X195261094Y-102827658D01*
X195330786Y-102832642D01*
X195375134Y-102861143D01*
X195468754Y-102954763D01*
X195620629Y-103048440D01*
X195667353Y-103100388D01*
X195678576Y-103169350D01*
X195650732Y-103233433D01*
X195643214Y-103241659D01*
X195607215Y-103277658D01*
X195607211Y-103277663D01*
X195498237Y-103440753D01*
X195498232Y-103440763D01*
X195423168Y-103621983D01*
X195423166Y-103621991D01*
X195384900Y-103814365D01*
X195384900Y-104010530D01*
X195423166Y-104202904D01*
X195423168Y-104202912D01*
X195498232Y-104384132D01*
X195498237Y-104384142D01*
X195607211Y-104547232D01*
X195607214Y-104547236D01*
X195745911Y-104685933D01*
X195745915Y-104685936D01*
X195909005Y-104794910D01*
X195909009Y-104794912D01*
X195909012Y-104794914D01*
X196090236Y-104869980D01*
X196282617Y-104908247D01*
X196282620Y-104908248D01*
X196282622Y-104908248D01*
X197291580Y-104908248D01*
X197291581Y-104908247D01*
X197483964Y-104869980D01*
X197665188Y-104794914D01*
X197828285Y-104685936D01*
X197966988Y-104547233D01*
X198075966Y-104384136D01*
X198151032Y-104202912D01*
X198189300Y-104010526D01*
X198189300Y-103814370D01*
X198189300Y-103814367D01*
X198189299Y-103814365D01*
X198180311Y-103769179D01*
X198151032Y-103621984D01*
X198075966Y-103440760D01*
X198075964Y-103440757D01*
X198075962Y-103440753D01*
X197966988Y-103277663D01*
X197966985Y-103277659D01*
X197828288Y-103138962D01*
X197828284Y-103138959D01*
X197665194Y-103029985D01*
X197665184Y-103029980D01*
X197483964Y-102954916D01*
X197483958Y-102954914D01*
X197364078Y-102931068D01*
X197302167Y-102898683D01*
X197267593Y-102837967D01*
X197271334Y-102768197D01*
X197282732Y-102744353D01*
X197321455Y-102681574D01*
X197321458Y-102681567D01*
X197376605Y-102515145D01*
X197376606Y-102515138D01*
X197387099Y-102412434D01*
X197387100Y-102412421D01*
X197387100Y-102162448D01*
X196411100Y-102162448D01*
X196344061Y-102142763D01*
X196298306Y-102089959D01*
X196287100Y-102038448D01*
X196287100Y-101912448D01*
X196161100Y-101912448D01*
X196094061Y-101892763D01*
X196048306Y-101839959D01*
X196037100Y-101788448D01*
X196037100Y-101662448D01*
X196537100Y-101662448D01*
X197387099Y-101662448D01*
X197387099Y-101412476D01*
X197387098Y-101412461D01*
X197376605Y-101309750D01*
X197321458Y-101143328D01*
X197321456Y-101143323D01*
X197229415Y-100994102D01*
X197105445Y-100870132D01*
X196956224Y-100778091D01*
X196956219Y-100778089D01*
X196789797Y-100722942D01*
X196789790Y-100722941D01*
X196687086Y-100712448D01*
X196537100Y-100712448D01*
X196537100Y-101662448D01*
X196037100Y-101662448D01*
X196037100Y-100712448D01*
X195887127Y-100712448D01*
X195887112Y-100712449D01*
X195784402Y-100722942D01*
X195617980Y-100778089D01*
X195617975Y-100778091D01*
X195468757Y-100870130D01*
X195375134Y-100963753D01*
X195313810Y-100997237D01*
X195244119Y-100992253D01*
X195199772Y-100963752D01*
X195105757Y-100869737D01*
X195105756Y-100869736D01*
X194956434Y-100777634D01*
X194789897Y-100722449D01*
X194789895Y-100722448D01*
X194687110Y-100711948D01*
X193887098Y-100711948D01*
X193887080Y-100711949D01*
X193784303Y-100722448D01*
X193784300Y-100722449D01*
X193617768Y-100777633D01*
X193617763Y-100777635D01*
X193468442Y-100869737D01*
X193344389Y-100993790D01*
X193252287Y-101143111D01*
X193252285Y-101143116D01*
X193197101Y-101309649D01*
X193197100Y-101309656D01*
X193191416Y-101365291D01*
X193165019Y-101429982D01*
X193155739Y-101440368D01*
X192900476Y-101695631D01*
X192839153Y-101729116D01*
X192812795Y-101731950D01*
X192088034Y-101731950D01*
X192088028Y-101731951D01*
X192028421Y-101738358D01*
X191893576Y-101788652D01*
X191893569Y-101788656D01*
X191778360Y-101874902D01*
X191778357Y-101874905D01*
X191692111Y-101990114D01*
X191692107Y-101990121D01*
X191641813Y-102124967D01*
X191635406Y-102184566D01*
X191635405Y-102184585D01*
X191635405Y-102924419D01*
X191615720Y-102991458D01*
X191580296Y-103027521D01*
X191413515Y-103138959D01*
X191274815Y-103277659D01*
X191274812Y-103277663D01*
X191165838Y-103440753D01*
X191165833Y-103440763D01*
X191090769Y-103621983D01*
X191090767Y-103621991D01*
X191052501Y-103814365D01*
X191052501Y-104010530D01*
X191090767Y-104202904D01*
X191090769Y-104202912D01*
X191165833Y-104384132D01*
X191165838Y-104384142D01*
X191274812Y-104547232D01*
X191274815Y-104547236D01*
X191413512Y-104685933D01*
X191418224Y-104689800D01*
X191417485Y-104690699D01*
X191458295Y-104739528D01*
X191468601Y-104789022D01*
X191468601Y-104869292D01*
X191448916Y-104936331D01*
X191396112Y-104982086D01*
X191326954Y-104992030D01*
X191263398Y-104963005D01*
X191256920Y-104956973D01*
X190609674Y-104309727D01*
X190609670Y-104309724D01*
X190503128Y-104238536D01*
X190457743Y-104219737D01*
X190384745Y-104189500D01*
X190384739Y-104189498D01*
X190259072Y-104164501D01*
X190259070Y-104164501D01*
X189634935Y-104164501D01*
X189567896Y-104144816D01*
X189566090Y-104143634D01*
X189509179Y-104105607D01*
X189509172Y-104105603D01*
X189363501Y-104045265D01*
X189363489Y-104045262D01*
X189208845Y-104014501D01*
X189208842Y-104014501D01*
X189051158Y-104014501D01*
X189051155Y-104014501D01*
X188896510Y-104045262D01*
X188896498Y-104045265D01*
X188750827Y-104105603D01*
X188750814Y-104105610D01*
X188619711Y-104193211D01*
X188619707Y-104193214D01*
X188508213Y-104304708D01*
X188508210Y-104304712D01*
X188420609Y-104435815D01*
X188420602Y-104435828D01*
X188360264Y-104581499D01*
X188360261Y-104581511D01*
X188329500Y-104736154D01*
X188329500Y-104893847D01*
X188360261Y-105048490D01*
X188360264Y-105048502D01*
X188420602Y-105194173D01*
X188420609Y-105194186D01*
X188464110Y-105259289D01*
X188484988Y-105325966D01*
X188482101Y-105336490D01*
X188482101Y-106458450D01*
X188462416Y-106525489D01*
X188409612Y-106571244D01*
X188358101Y-106582450D01*
X188232101Y-106582450D01*
X188232101Y-106708450D01*
X188212416Y-106775489D01*
X188159612Y-106821244D01*
X188108101Y-106832450D01*
X187132102Y-106832450D01*
X187132102Y-107082436D01*
X187142595Y-107185147D01*
X187165890Y-107255446D01*
X187168292Y-107325274D01*
X187132560Y-107385316D01*
X187070040Y-107416509D01*
X187048184Y-107418450D01*
X170350294Y-107418450D01*
X170231392Y-107442101D01*
X170231384Y-107442103D01*
X170119373Y-107488499D01*
X170039265Y-107542027D01*
X170039264Y-107542028D01*
X170018558Y-107555862D01*
X170018557Y-107555863D01*
X169581242Y-107993181D01*
X169519919Y-108026666D01*
X169493561Y-108029500D01*
X168851382Y-108029500D01*
X168784343Y-108009815D01*
X168748280Y-107974391D01*
X168731789Y-107949711D01*
X168731786Y-107949707D01*
X168620292Y-107838213D01*
X168620288Y-107838210D01*
X168489185Y-107750609D01*
X168489172Y-107750602D01*
X168343501Y-107690264D01*
X168343489Y-107690261D01*
X168188845Y-107659500D01*
X168188842Y-107659500D01*
X168031158Y-107659500D01*
X168031155Y-107659500D01*
X167876510Y-107690261D01*
X167876507Y-107690262D01*
X167876506Y-107690262D01*
X167876503Y-107690263D01*
X167806647Y-107719198D01*
X167779523Y-107730433D01*
X167710053Y-107737901D01*
X167684619Y-107730432D01*
X167563501Y-107680264D01*
X167563489Y-107680261D01*
X167408845Y-107649500D01*
X167408842Y-107649500D01*
X167251158Y-107649500D01*
X167251155Y-107649500D01*
X167096510Y-107680261D01*
X167096498Y-107680264D01*
X166950827Y-107740602D01*
X166950814Y-107740609D01*
X166819711Y-107828210D01*
X166819707Y-107828213D01*
X166708213Y-107939707D01*
X166708210Y-107939711D01*
X166620609Y-108070814D01*
X166620602Y-108070827D01*
X166560264Y-108216498D01*
X166560261Y-108216510D01*
X166529500Y-108371153D01*
X152933232Y-108371153D01*
X152880292Y-108318213D01*
X152880288Y-108318210D01*
X152749185Y-108230609D01*
X152749172Y-108230602D01*
X152603501Y-108170264D01*
X152603489Y-108170261D01*
X152448845Y-108139500D01*
X152448842Y-108139500D01*
X152291158Y-108139500D01*
X152291155Y-108139500D01*
X152136510Y-108170261D01*
X152136498Y-108170264D01*
X151990827Y-108230602D01*
X151990814Y-108230609D01*
X151859711Y-108318210D01*
X151859707Y-108318213D01*
X151748213Y-108429707D01*
X151748210Y-108429711D01*
X151660609Y-108560814D01*
X151660602Y-108560827D01*
X151600264Y-108706498D01*
X151600261Y-108706510D01*
X151569500Y-108861153D01*
X88952470Y-108861153D01*
X88952470Y-95181153D01*
X89669500Y-95181153D01*
X89669500Y-95338846D01*
X89700261Y-95493489D01*
X89700264Y-95493501D01*
X89760602Y-95639172D01*
X89760609Y-95639185D01*
X89848210Y-95770288D01*
X89848213Y-95770292D01*
X89959707Y-95881786D01*
X89959711Y-95881789D01*
X90090814Y-95969390D01*
X90090827Y-95969397D01*
X90236498Y-96029735D01*
X90236503Y-96029737D01*
X90391153Y-96060499D01*
X90391156Y-96060500D01*
X90391158Y-96060500D01*
X90548844Y-96060500D01*
X90548845Y-96060499D01*
X90703497Y-96029737D01*
X90849179Y-95969394D01*
X90980289Y-95881789D01*
X91091789Y-95770289D01*
X91179394Y-95639179D01*
X91179402Y-95639159D01*
X91181441Y-95635346D01*
X91203120Y-95606113D01*
X91682416Y-95126819D01*
X91743739Y-95093334D01*
X91770097Y-95090500D01*
X92214281Y-95090500D01*
X92281320Y-95110185D01*
X92324765Y-95158205D01*
X92344947Y-95197814D01*
X92344948Y-95197815D01*
X92469890Y-95369786D01*
X92620213Y-95520109D01*
X92792182Y-95645050D01*
X92800946Y-95649516D01*
X92851742Y-95697491D01*
X92868536Y-95765312D01*
X92845998Y-95831447D01*
X92800946Y-95870484D01*
X92792182Y-95874949D01*
X92620213Y-95999890D01*
X92469890Y-96150213D01*
X92344951Y-96322179D01*
X92248444Y-96511585D01*
X92182753Y-96713760D01*
X92149500Y-96923713D01*
X92149500Y-97136286D01*
X92182753Y-97346239D01*
X92248444Y-97548414D01*
X92344951Y-97737820D01*
X92469890Y-97909786D01*
X92620213Y-98060109D01*
X92792182Y-98185050D01*
X92800946Y-98189516D01*
X92851742Y-98237491D01*
X92868536Y-98305312D01*
X92845998Y-98371447D01*
X92800946Y-98410484D01*
X92792182Y-98414949D01*
X92620213Y-98539890D01*
X92469890Y-98690213D01*
X92344951Y-98862179D01*
X92248444Y-99051585D01*
X92182753Y-99253760D01*
X92149500Y-99463713D01*
X92149500Y-99676286D01*
X92182753Y-99886239D01*
X92248444Y-100088414D01*
X92344951Y-100277820D01*
X92469890Y-100449786D01*
X92620213Y-100600109D01*
X92792182Y-100725050D01*
X92800946Y-100729516D01*
X92851742Y-100777491D01*
X92868536Y-100845312D01*
X92845998Y-100911447D01*
X92800946Y-100950484D01*
X92792182Y-100954949D01*
X92620213Y-101079890D01*
X92469890Y-101230213D01*
X92344951Y-101402179D01*
X92248444Y-101591585D01*
X92182753Y-101793760D01*
X92149500Y-102003713D01*
X92149500Y-102216286D01*
X92180564Y-102412421D01*
X92182754Y-102426243D01*
X92247071Y-102624190D01*
X92248444Y-102628414D01*
X92344951Y-102817820D01*
X92469890Y-102989786D01*
X92620213Y-103140109D01*
X92792182Y-103265050D01*
X92800946Y-103269516D01*
X92851742Y-103317491D01*
X92868536Y-103385312D01*
X92845998Y-103451447D01*
X92800946Y-103490484D01*
X92792182Y-103494949D01*
X92620213Y-103619890D01*
X92469890Y-103770213D01*
X92344951Y-103942179D01*
X92248444Y-104131585D01*
X92182753Y-104333760D01*
X92149500Y-104543713D01*
X92149500Y-104756286D01*
X92181285Y-104956973D01*
X92182754Y-104966243D01*
X92232163Y-105118309D01*
X92248444Y-105168414D01*
X92344951Y-105357820D01*
X92469890Y-105529786D01*
X92620213Y-105680109D01*
X92792182Y-105805050D01*
X92800946Y-105809516D01*
X92851742Y-105857491D01*
X92868536Y-105925312D01*
X92845998Y-105991447D01*
X92800946Y-106030484D01*
X92792182Y-106034949D01*
X92620213Y-106159890D01*
X92469890Y-106310213D01*
X92344951Y-106482179D01*
X92248444Y-106671585D01*
X92182753Y-106873760D01*
X92149500Y-107083713D01*
X92149500Y-107296286D01*
X92179943Y-107488499D01*
X92182754Y-107506243D01*
X92242546Y-107690264D01*
X92248444Y-107708414D01*
X92344951Y-107897820D01*
X92469890Y-108069786D01*
X92620213Y-108220109D01*
X92792179Y-108345048D01*
X92792181Y-108345049D01*
X92792184Y-108345051D01*
X92981588Y-108441557D01*
X93183757Y-108507246D01*
X93393713Y-108540500D01*
X93393714Y-108540500D01*
X93606286Y-108540500D01*
X93606287Y-108540500D01*
X93816243Y-108507246D01*
X94018412Y-108441557D01*
X94207816Y-108345051D01*
X94277291Y-108294575D01*
X94379786Y-108220109D01*
X94379788Y-108220106D01*
X94379792Y-108220104D01*
X94530104Y-108069792D01*
X94530106Y-108069788D01*
X94530109Y-108069786D01*
X94655048Y-107897820D01*
X94655047Y-107897820D01*
X94655051Y-107897816D01*
X94751557Y-107708412D01*
X94817246Y-107506243D01*
X94850500Y-107296287D01*
X94850500Y-107083713D01*
X94817246Y-106873757D01*
X94751557Y-106671588D01*
X94655051Y-106482184D01*
X94655049Y-106482181D01*
X94655048Y-106482179D01*
X94530109Y-106310213D01*
X94379786Y-106159890D01*
X94273216Y-106082463D01*
X187132101Y-106082463D01*
X187132101Y-106332450D01*
X187982101Y-106332450D01*
X187982101Y-105382450D01*
X187832128Y-105382450D01*
X187832113Y-105382451D01*
X187729403Y-105392944D01*
X187562981Y-105448091D01*
X187562976Y-105448093D01*
X187413755Y-105540134D01*
X187289785Y-105664104D01*
X187197744Y-105813325D01*
X187197742Y-105813330D01*
X187142595Y-105979752D01*
X187142594Y-105979759D01*
X187132101Y-106082463D01*
X94273216Y-106082463D01*
X94207820Y-106034951D01*
X94207115Y-106034591D01*
X94199054Y-106030485D01*
X94148259Y-105982512D01*
X94131463Y-105914692D01*
X94153999Y-105848556D01*
X94199054Y-105809515D01*
X94207816Y-105805051D01*
X94298472Y-105739186D01*
X94379786Y-105680109D01*
X94379788Y-105680106D01*
X94379792Y-105680104D01*
X94530104Y-105529792D01*
X94530106Y-105529788D01*
X94530109Y-105529786D01*
X94655048Y-105357820D01*
X94655047Y-105357820D01*
X94655051Y-105357816D01*
X94751557Y-105168412D01*
X94817246Y-104966243D01*
X94850500Y-104756287D01*
X94850500Y-104543713D01*
X94817246Y-104333757D01*
X94751557Y-104131588D01*
X94655051Y-103942184D01*
X94655049Y-103942181D01*
X94655048Y-103942179D01*
X94530109Y-103770213D01*
X94379786Y-103619890D01*
X94207820Y-103494951D01*
X94207115Y-103494591D01*
X94199054Y-103490485D01*
X94192331Y-103484134D01*
X94183586Y-103481124D01*
X94167334Y-103460527D01*
X94148259Y-103442512D01*
X94146035Y-103433533D01*
X94140306Y-103426272D01*
X94137769Y-103400157D01*
X94131463Y-103374692D01*
X94132669Y-103371153D01*
X178129500Y-103371153D01*
X178129500Y-103528846D01*
X178160261Y-103683489D01*
X178160264Y-103683501D01*
X178220602Y-103829172D01*
X178220609Y-103829185D01*
X178308210Y-103960288D01*
X178308213Y-103960292D01*
X178419707Y-104071786D01*
X178419711Y-104071789D01*
X178550814Y-104159390D01*
X178550827Y-104159397D01*
X178696498Y-104219735D01*
X178696503Y-104219737D01*
X178851153Y-104250499D01*
X178851156Y-104250500D01*
X178851158Y-104250500D01*
X179008844Y-104250500D01*
X179008845Y-104250499D01*
X179163497Y-104219737D01*
X179309179Y-104159394D01*
X179440289Y-104071789D01*
X179551789Y-103960289D01*
X179639394Y-103829179D01*
X179699737Y-103683497D01*
X179730500Y-103528842D01*
X179730500Y-103371158D01*
X179730500Y-103371155D01*
X179730499Y-103371153D01*
X179718565Y-103311158D01*
X179699737Y-103216503D01*
X179680206Y-103169350D01*
X179639397Y-103070827D01*
X179639390Y-103070814D01*
X179551398Y-102939125D01*
X179545747Y-102921078D01*
X179535523Y-102905169D01*
X179531071Y-102874207D01*
X179530520Y-102872447D01*
X179530500Y-102870234D01*
X179530500Y-102837783D01*
X179550185Y-102770744D01*
X179558647Y-102759118D01*
X179561789Y-102755289D01*
X179571235Y-102741153D01*
X181569500Y-102741153D01*
X181569500Y-102898846D01*
X181600261Y-103053489D01*
X181600264Y-103053501D01*
X181649575Y-103172549D01*
X181657044Y-103242018D01*
X181649575Y-103267453D01*
X181600264Y-103386501D01*
X181600261Y-103386513D01*
X181569500Y-103541156D01*
X181569500Y-103698849D01*
X181600261Y-103853492D01*
X181600264Y-103853504D01*
X181660602Y-103999175D01*
X181660609Y-103999188D01*
X181748210Y-104130291D01*
X181748213Y-104130295D01*
X181859707Y-104241789D01*
X181859711Y-104241792D01*
X181990814Y-104329393D01*
X181990827Y-104329400D01*
X182122988Y-104384142D01*
X182136503Y-104389740D01*
X182291153Y-104420502D01*
X182291156Y-104420503D01*
X182291158Y-104420503D01*
X182448844Y-104420503D01*
X182448845Y-104420502D01*
X182603497Y-104389740D01*
X182749179Y-104329397D01*
X182867257Y-104250500D01*
X182880875Y-104241401D01*
X182947553Y-104220523D01*
X182949766Y-104220503D01*
X185623328Y-104220503D01*
X185623344Y-104220504D01*
X185630940Y-104220504D01*
X185789052Y-104220504D01*
X185789054Y-104220504D01*
X185872707Y-104198088D01*
X185885262Y-104194725D01*
X185917355Y-104190500D01*
X186018844Y-104190500D01*
X186018845Y-104190499D01*
X186173497Y-104159737D01*
X186304172Y-104105610D01*
X186319172Y-104099397D01*
X186319172Y-104099396D01*
X186319179Y-104099394D01*
X186450289Y-104011789D01*
X186561789Y-103900289D01*
X186649394Y-103769179D01*
X186709737Y-103623497D01*
X186740500Y-103468842D01*
X186740500Y-103311158D01*
X186740500Y-103311155D01*
X186740499Y-103311153D01*
X186731328Y-103265050D01*
X186709737Y-103156503D01*
X186709735Y-103156498D01*
X186649397Y-103010827D01*
X186649390Y-103010814D01*
X186561789Y-102879711D01*
X186561786Y-102879707D01*
X186450292Y-102768213D01*
X186450288Y-102768210D01*
X186319185Y-102680609D01*
X186319172Y-102680602D01*
X186173501Y-102620264D01*
X186173489Y-102620261D01*
X186018845Y-102589500D01*
X186018842Y-102589500D01*
X185861158Y-102589500D01*
X185861153Y-102589500D01*
X185803741Y-102600920D01*
X185734149Y-102594693D01*
X185678972Y-102551829D01*
X185664989Y-102526755D01*
X185629397Y-102440827D01*
X185629390Y-102440814D01*
X185541789Y-102309711D01*
X185541786Y-102309707D01*
X185430292Y-102198213D01*
X185430288Y-102198210D01*
X185299185Y-102110609D01*
X185299172Y-102110602D01*
X185153501Y-102050264D01*
X185153489Y-102050261D01*
X184998845Y-102019500D01*
X184998842Y-102019500D01*
X184841158Y-102019500D01*
X184841155Y-102019500D01*
X184686510Y-102050261D01*
X184686498Y-102050264D01*
X184540827Y-102110602D01*
X184540814Y-102110609D01*
X184409125Y-102198602D01*
X184342447Y-102219480D01*
X184340234Y-102219500D01*
X182949766Y-102219500D01*
X182882727Y-102199815D01*
X182880875Y-102198602D01*
X182749185Y-102110609D01*
X182749172Y-102110602D01*
X182603501Y-102050264D01*
X182603489Y-102050261D01*
X182448845Y-102019500D01*
X182448842Y-102019500D01*
X182291158Y-102019500D01*
X182291155Y-102019500D01*
X182136510Y-102050261D01*
X182136498Y-102050264D01*
X181990827Y-102110602D01*
X181990814Y-102110609D01*
X181859711Y-102198210D01*
X181859707Y-102198213D01*
X181748213Y-102309707D01*
X181748210Y-102309711D01*
X181660609Y-102440814D01*
X181660602Y-102440827D01*
X181600264Y-102586498D01*
X181600261Y-102586510D01*
X181569500Y-102741153D01*
X179571235Y-102741153D01*
X179621334Y-102666175D01*
X179621335Y-102666173D01*
X179649387Y-102624190D01*
X179649390Y-102624185D01*
X179649394Y-102624179D01*
X179709737Y-102478497D01*
X179740500Y-102323842D01*
X179740500Y-102166158D01*
X179740500Y-102166155D01*
X179740499Y-102166153D01*
X179735846Y-102142763D01*
X179709737Y-102011503D01*
X179700880Y-101990119D01*
X179649397Y-101865827D01*
X179649390Y-101865814D01*
X179561789Y-101734711D01*
X179561786Y-101734707D01*
X179450292Y-101623213D01*
X179450288Y-101623210D01*
X179319185Y-101535609D01*
X179319172Y-101535602D01*
X179173501Y-101475264D01*
X179173489Y-101475261D01*
X179018845Y-101444500D01*
X179018842Y-101444500D01*
X178861158Y-101444500D01*
X178861155Y-101444500D01*
X178706510Y-101475261D01*
X178706498Y-101475264D01*
X178560827Y-101535602D01*
X178560814Y-101535609D01*
X178429711Y-101623210D01*
X178429707Y-101623213D01*
X178318213Y-101734707D01*
X178318210Y-101734711D01*
X178230609Y-101865814D01*
X178230602Y-101865827D01*
X178170264Y-102011498D01*
X178170261Y-102011510D01*
X178139500Y-102166153D01*
X178139500Y-102323846D01*
X178170261Y-102478489D01*
X178170264Y-102478501D01*
X178230602Y-102624172D01*
X178230609Y-102624185D01*
X178308602Y-102740908D01*
X178314252Y-102758954D01*
X178324477Y-102774864D01*
X178328928Y-102805823D01*
X178329480Y-102807585D01*
X178329500Y-102809799D01*
X178329500Y-102870234D01*
X178309815Y-102937273D01*
X178308602Y-102939125D01*
X178220609Y-103070814D01*
X178220602Y-103070827D01*
X178160264Y-103216498D01*
X178160261Y-103216510D01*
X178129500Y-103371153D01*
X94132669Y-103371153D01*
X94134446Y-103365937D01*
X94133552Y-103356730D01*
X94145536Y-103333391D01*
X94153999Y-103308556D01*
X94162091Y-103301152D01*
X94165468Y-103294576D01*
X94186128Y-103279159D01*
X94193175Y-103272713D01*
X94196060Y-103271040D01*
X94207816Y-103265051D01*
X94251335Y-103233433D01*
X94379786Y-103140109D01*
X94379788Y-103140106D01*
X94379792Y-103140104D01*
X94530104Y-102989792D01*
X94530106Y-102989788D01*
X94530109Y-102989786D01*
X94655048Y-102817820D01*
X94655047Y-102817820D01*
X94655051Y-102817816D01*
X94751557Y-102628412D01*
X94817246Y-102426243D01*
X94850500Y-102216287D01*
X94850500Y-102003713D01*
X94817246Y-101793757D01*
X94751557Y-101591588D01*
X94655051Y-101402184D01*
X94655049Y-101402181D01*
X94655048Y-101402179D01*
X94530109Y-101230213D01*
X94379786Y-101079890D01*
X94207820Y-100954951D01*
X94207115Y-100954591D01*
X94199054Y-100950485D01*
X94148259Y-100902512D01*
X94131463Y-100834692D01*
X94153999Y-100768556D01*
X94199054Y-100729515D01*
X94207816Y-100725051D01*
X94229789Y-100709086D01*
X94379786Y-100600109D01*
X94379788Y-100600106D01*
X94379792Y-100600104D01*
X94530104Y-100449792D01*
X94530106Y-100449788D01*
X94530109Y-100449786D01*
X94655048Y-100277820D01*
X94655047Y-100277820D01*
X94655051Y-100277816D01*
X94751557Y-100088412D01*
X94817246Y-99886243D01*
X94850500Y-99676287D01*
X94850500Y-99463713D01*
X94817246Y-99253757D01*
X94751557Y-99051588D01*
X94655051Y-98862184D01*
X94655049Y-98862181D01*
X94655048Y-98862179D01*
X94530109Y-98690213D01*
X94379786Y-98539890D01*
X94207820Y-98414951D01*
X94207115Y-98414591D01*
X94199054Y-98410485D01*
X94148259Y-98362512D01*
X94131463Y-98294692D01*
X94153999Y-98228556D01*
X94199054Y-98189515D01*
X94207816Y-98185051D01*
X94229789Y-98169086D01*
X94379786Y-98060109D01*
X94379788Y-98060106D01*
X94379792Y-98060104D01*
X94530104Y-97909792D01*
X94530106Y-97909788D01*
X94530109Y-97909786D01*
X94655048Y-97737820D01*
X94655047Y-97737820D01*
X94655051Y-97737816D01*
X94751557Y-97548412D01*
X94776660Y-97471153D01*
X175999500Y-97471153D01*
X175999500Y-97628846D01*
X176030261Y-97783489D01*
X176030264Y-97783501D01*
X176090602Y-97929172D01*
X176090609Y-97929185D01*
X176178210Y-98060288D01*
X176178213Y-98060292D01*
X176289707Y-98171786D01*
X176289711Y-98171789D01*
X176420814Y-98259390D01*
X176420827Y-98259397D01*
X176563379Y-98318443D01*
X176566503Y-98319737D01*
X176721153Y-98350499D01*
X176721156Y-98350500D01*
X176721158Y-98350500D01*
X176878844Y-98350500D01*
X176878845Y-98350499D01*
X177033497Y-98319737D01*
X177179179Y-98259394D01*
X177310289Y-98171789D01*
X177421789Y-98060289D01*
X177509394Y-97929179D01*
X177569737Y-97783497D01*
X177600500Y-97628842D01*
X177600500Y-97471158D01*
X177600500Y-97471155D01*
X177600499Y-97471153D01*
X177591666Y-97426748D01*
X177569737Y-97316503D01*
X177569735Y-97316498D01*
X177509397Y-97170827D01*
X177509390Y-97170814D01*
X177421789Y-97039711D01*
X177421786Y-97039707D01*
X177310292Y-96928213D01*
X177310288Y-96928210D01*
X177179185Y-96840609D01*
X177179172Y-96840602D01*
X177033501Y-96780264D01*
X177033489Y-96780261D01*
X176878845Y-96749500D01*
X176878842Y-96749500D01*
X176721158Y-96749500D01*
X176721155Y-96749500D01*
X176566510Y-96780261D01*
X176566498Y-96780264D01*
X176420827Y-96840602D01*
X176420814Y-96840609D01*
X176289711Y-96928210D01*
X176289707Y-96928213D01*
X176178213Y-97039707D01*
X176178210Y-97039711D01*
X176090609Y-97170814D01*
X176090602Y-97170827D01*
X176030264Y-97316498D01*
X176030261Y-97316510D01*
X175999500Y-97471153D01*
X94776660Y-97471153D01*
X94817246Y-97346243D01*
X94850500Y-97136287D01*
X94850500Y-96923713D01*
X94817246Y-96713757D01*
X94751557Y-96511588D01*
X94655051Y-96322184D01*
X94655049Y-96322181D01*
X94655048Y-96322179D01*
X94530109Y-96150213D01*
X94379786Y-95999890D01*
X94207820Y-95874951D01*
X94207115Y-95874591D01*
X94199054Y-95870485D01*
X94148259Y-95822512D01*
X94131463Y-95754692D01*
X94153999Y-95688556D01*
X94199054Y-95649515D01*
X94207816Y-95645051D01*
X94261414Y-95606110D01*
X94379786Y-95520109D01*
X94379788Y-95520106D01*
X94379792Y-95520104D01*
X94530104Y-95369792D01*
X94530106Y-95369788D01*
X94530109Y-95369786D01*
X94655048Y-95197820D01*
X94655047Y-95197820D01*
X94655051Y-95197816D01*
X94751557Y-95008412D01*
X94817246Y-94806243D01*
X94850500Y-94596287D01*
X94850500Y-94383713D01*
X94817246Y-94173757D01*
X94751557Y-93971588D01*
X94751446Y-93971370D01*
X94751445Y-93971365D01*
X94751441Y-93971361D01*
X94730582Y-93930423D01*
X94725859Y-93921153D01*
X191709500Y-93921153D01*
X191709500Y-94078846D01*
X191740261Y-94233489D01*
X191740264Y-94233501D01*
X191800602Y-94379172D01*
X191800609Y-94379185D01*
X191888210Y-94510288D01*
X191888213Y-94510292D01*
X191999707Y-94621786D01*
X191999711Y-94621789D01*
X192130814Y-94709390D01*
X192130827Y-94709397D01*
X192276498Y-94769735D01*
X192276503Y-94769737D01*
X192431153Y-94800499D01*
X192431156Y-94800500D01*
X192431158Y-94800500D01*
X192588844Y-94800500D01*
X192588845Y-94800499D01*
X192743497Y-94769737D01*
X192856166Y-94723067D01*
X192889172Y-94709397D01*
X192889172Y-94709396D01*
X192889179Y-94709394D01*
X192995712Y-94638211D01*
X193020875Y-94621398D01*
X193087553Y-94600520D01*
X193089766Y-94600500D01*
X195587217Y-94600500D01*
X195654256Y-94620185D01*
X195665882Y-94628647D01*
X195669710Y-94631789D01*
X195800814Y-94719390D01*
X195800827Y-94719397D01*
X195922363Y-94769738D01*
X195946503Y-94779737D01*
X196079737Y-94806239D01*
X196101153Y-94810499D01*
X196101156Y-94810500D01*
X196101158Y-94810500D01*
X196258844Y-94810500D01*
X196258845Y-94810499D01*
X196413497Y-94779737D01*
X196559179Y-94719394D01*
X196690289Y-94631789D01*
X196801789Y-94520289D01*
X196889394Y-94389179D01*
X196949737Y-94243497D01*
X196980500Y-94088842D01*
X196980500Y-93931158D01*
X196980500Y-93931155D01*
X196980499Y-93931153D01*
X196974395Y-93900465D01*
X196949737Y-93776503D01*
X196945593Y-93766498D01*
X196889397Y-93630827D01*
X196889390Y-93630814D01*
X196801789Y-93499711D01*
X196801786Y-93499707D01*
X196690292Y-93388213D01*
X196690288Y-93388210D01*
X196559185Y-93300609D01*
X196559172Y-93300602D01*
X196413501Y-93240264D01*
X196413489Y-93240261D01*
X196258845Y-93209500D01*
X196258842Y-93209500D01*
X196101158Y-93209500D01*
X196101155Y-93209500D01*
X195946510Y-93240261D01*
X195946498Y-93240264D01*
X195800827Y-93300602D01*
X195800814Y-93300609D01*
X195684091Y-93378602D01*
X195617413Y-93399480D01*
X195615200Y-93399500D01*
X193089766Y-93399500D01*
X193022727Y-93379815D01*
X193020875Y-93378602D01*
X192889185Y-93290609D01*
X192889172Y-93290602D01*
X192743501Y-93230264D01*
X192743489Y-93230261D01*
X192588845Y-93199500D01*
X192588842Y-93199500D01*
X192431158Y-93199500D01*
X192431155Y-93199500D01*
X192276510Y-93230261D01*
X192276498Y-93230264D01*
X192130827Y-93290602D01*
X192130814Y-93290609D01*
X191999711Y-93378210D01*
X191999707Y-93378213D01*
X191888213Y-93489707D01*
X191888210Y-93489711D01*
X191800609Y-93620814D01*
X191800602Y-93620827D01*
X191740264Y-93766498D01*
X191740261Y-93766510D01*
X191709500Y-93921153D01*
X94725859Y-93921153D01*
X94655051Y-93782184D01*
X94655049Y-93782181D01*
X94655048Y-93782179D01*
X94530109Y-93610213D01*
X94379786Y-93459890D01*
X94207820Y-93334951D01*
X94207115Y-93334591D01*
X94199054Y-93330485D01*
X94148259Y-93282512D01*
X94131463Y-93214692D01*
X94153999Y-93148556D01*
X94199054Y-93109515D01*
X94207816Y-93105051D01*
X94229789Y-93089086D01*
X94379786Y-92980109D01*
X94379788Y-92980106D01*
X94379792Y-92980104D01*
X94530104Y-92829792D01*
X94530106Y-92829788D01*
X94530109Y-92829786D01*
X94655048Y-92657820D01*
X94655047Y-92657820D01*
X94655051Y-92657816D01*
X94663541Y-92641153D01*
X185089500Y-92641153D01*
X185089500Y-92798846D01*
X185120261Y-92953489D01*
X185120264Y-92953501D01*
X185180602Y-93099172D01*
X185180609Y-93099185D01*
X185268210Y-93230288D01*
X185268213Y-93230292D01*
X185379707Y-93341786D01*
X185379711Y-93341789D01*
X185510814Y-93429390D01*
X185510827Y-93429397D01*
X185656440Y-93489711D01*
X185656503Y-93489737D01*
X185811153Y-93520499D01*
X185811156Y-93520500D01*
X185811158Y-93520500D01*
X185968844Y-93520500D01*
X185968845Y-93520499D01*
X186123497Y-93489737D01*
X186269179Y-93429394D01*
X186400289Y-93341789D01*
X186511789Y-93230289D01*
X186599394Y-93099179D01*
X186659737Y-92953497D01*
X186690500Y-92798842D01*
X186690500Y-92641158D01*
X186690500Y-92641155D01*
X186690499Y-92641153D01*
X186659738Y-92486510D01*
X186659737Y-92486503D01*
X186652244Y-92468412D01*
X186599397Y-92340827D01*
X186599390Y-92340814D01*
X186511789Y-92209711D01*
X186511786Y-92209707D01*
X186400292Y-92098213D01*
X186400288Y-92098210D01*
X186269185Y-92010609D01*
X186269172Y-92010602D01*
X186123501Y-91950264D01*
X186123489Y-91950261D01*
X185968845Y-91919500D01*
X185968842Y-91919500D01*
X185811158Y-91919500D01*
X185811155Y-91919500D01*
X185656510Y-91950261D01*
X185656498Y-91950264D01*
X185510827Y-92010602D01*
X185510814Y-92010609D01*
X185379711Y-92098210D01*
X185379707Y-92098213D01*
X185268213Y-92209707D01*
X185268210Y-92209711D01*
X185180609Y-92340814D01*
X185180602Y-92340827D01*
X185120264Y-92486498D01*
X185120261Y-92486510D01*
X185089500Y-92641153D01*
X94663541Y-92641153D01*
X94751557Y-92468412D01*
X94817246Y-92266243D01*
X94850500Y-92056287D01*
X94850500Y-91843713D01*
X94817246Y-91633757D01*
X94751557Y-91431588D01*
X94655051Y-91242184D01*
X94655049Y-91242181D01*
X94655048Y-91242179D01*
X94530109Y-91070213D01*
X94379786Y-90919890D01*
X94207820Y-90794951D01*
X94207115Y-90794591D01*
X94199054Y-90790485D01*
X94148259Y-90742512D01*
X94131463Y-90674692D01*
X94153999Y-90608556D01*
X94199054Y-90569515D01*
X94207816Y-90565051D01*
X94229789Y-90549086D01*
X94379786Y-90440109D01*
X94379788Y-90440106D01*
X94379792Y-90440104D01*
X94530104Y-90289792D01*
X94530106Y-90289788D01*
X94530109Y-90289786D01*
X94655048Y-90117820D01*
X94655047Y-90117820D01*
X94655051Y-90117816D01*
X94751557Y-89928412D01*
X94817246Y-89726243D01*
X94850500Y-89516287D01*
X94850500Y-89303713D01*
X94817246Y-89093757D01*
X94751557Y-88891588D01*
X94655051Y-88702184D01*
X94655049Y-88702181D01*
X94655048Y-88702179D01*
X94530109Y-88530213D01*
X94379786Y-88379890D01*
X94207820Y-88254951D01*
X94207115Y-88254591D01*
X94199054Y-88250485D01*
X94148259Y-88202512D01*
X94131463Y-88134692D01*
X94153999Y-88068556D01*
X94199054Y-88029515D01*
X94207816Y-88025051D01*
X94229789Y-88009086D01*
X94379786Y-87900109D01*
X94379788Y-87900106D01*
X94379792Y-87900104D01*
X94530104Y-87749792D01*
X94530106Y-87749788D01*
X94530109Y-87749786D01*
X94655048Y-87577820D01*
X94655047Y-87577820D01*
X94655051Y-87577816D01*
X94751557Y-87388412D01*
X94817246Y-87186243D01*
X94850500Y-86976287D01*
X94850500Y-86763713D01*
X94817246Y-86553757D01*
X94751557Y-86351588D01*
X94655051Y-86162184D01*
X94655049Y-86162181D01*
X94655048Y-86162179D01*
X94530109Y-85990213D01*
X94379786Y-85839890D01*
X94207820Y-85714951D01*
X94207115Y-85714591D01*
X94199054Y-85710485D01*
X94148259Y-85662512D01*
X94131463Y-85594692D01*
X94153999Y-85528556D01*
X94199054Y-85489515D01*
X94207816Y-85485051D01*
X94229789Y-85469086D01*
X94379786Y-85360109D01*
X94379788Y-85360106D01*
X94379792Y-85360104D01*
X94530104Y-85209792D01*
X94530106Y-85209788D01*
X94530109Y-85209786D01*
X94655048Y-85037820D01*
X94655047Y-85037820D01*
X94655051Y-85037816D01*
X94751557Y-84848412D01*
X94817246Y-84646243D01*
X94850500Y-84436287D01*
X94850500Y-84223713D01*
X94817246Y-84013757D01*
X94751557Y-83811588D01*
X94655051Y-83622184D01*
X94655049Y-83622181D01*
X94655048Y-83622179D01*
X94530109Y-83450213D01*
X94379786Y-83299890D01*
X94207820Y-83174951D01*
X94207115Y-83174591D01*
X94199054Y-83170485D01*
X94148259Y-83122512D01*
X94131463Y-83054692D01*
X94153999Y-82988556D01*
X94199054Y-82949515D01*
X94207816Y-82945051D01*
X94233808Y-82926167D01*
X94379786Y-82820109D01*
X94379788Y-82820106D01*
X94379792Y-82820104D01*
X94530104Y-82669792D01*
X94530106Y-82669788D01*
X94530109Y-82669786D01*
X94655048Y-82497820D01*
X94655047Y-82497820D01*
X94655051Y-82497816D01*
X94751557Y-82308412D01*
X94817246Y-82106243D01*
X94850500Y-81896287D01*
X94850500Y-81683713D01*
X94817246Y-81473757D01*
X94751557Y-81271588D01*
X94655051Y-81082184D01*
X94655049Y-81082181D01*
X94655048Y-81082179D01*
X94530109Y-80910213D01*
X94379786Y-80759890D01*
X94207820Y-80634951D01*
X94207115Y-80634591D01*
X94199054Y-80630485D01*
X94148259Y-80582512D01*
X94131463Y-80514692D01*
X94153999Y-80448556D01*
X94199054Y-80409515D01*
X94207816Y-80405051D01*
X94242617Y-80379767D01*
X94379786Y-80280109D01*
X94379788Y-80280106D01*
X94379792Y-80280104D01*
X94530104Y-80129792D01*
X94530106Y-80129788D01*
X94530109Y-80129786D01*
X94655048Y-79957820D01*
X94655047Y-79957820D01*
X94655051Y-79957816D01*
X94751557Y-79768412D01*
X94817246Y-79566243D01*
X94850500Y-79356287D01*
X94850500Y-79163952D01*
X119287358Y-79163952D01*
X119287358Y-79416047D01*
X119302493Y-79530997D01*
X119302494Y-79531002D01*
X119361740Y-79674036D01*
X119383670Y-79702616D01*
X119455991Y-79796867D01*
X119578821Y-79891117D01*
X119578820Y-79891117D01*
X119632098Y-79913185D01*
X119721859Y-79950365D01*
X119794269Y-79959897D01*
X119858164Y-79988163D01*
X119865764Y-79995155D01*
X120125983Y-80255374D01*
X120125993Y-80255385D01*
X120130323Y-80259715D01*
X120130324Y-80259716D01*
X120242128Y-80371520D01*
X120319226Y-80416032D01*
X120375558Y-80448556D01*
X120379059Y-80450577D01*
X120531786Y-80491500D01*
X120531787Y-80491500D01*
X128662331Y-80491500D01*
X128662347Y-80491501D01*
X128669943Y-80491501D01*
X128828054Y-80491501D01*
X128828057Y-80491501D01*
X128980785Y-80450577D01*
X129040618Y-80416032D01*
X129117716Y-80371520D01*
X129229520Y-80259716D01*
X129229520Y-80259714D01*
X129239724Y-80249511D01*
X129239727Y-80249506D01*
X135166821Y-74322413D01*
X135228142Y-74288930D01*
X135297834Y-74293914D01*
X135353767Y-74335786D01*
X135378184Y-74401250D01*
X135378500Y-74410096D01*
X135378500Y-81078330D01*
X135378499Y-81078348D01*
X135378499Y-81244054D01*
X135378498Y-81244054D01*
X135378499Y-81244057D01*
X135419423Y-81396785D01*
X135419424Y-81396787D01*
X135419423Y-81396787D01*
X135431508Y-81417717D01*
X135431509Y-81417719D01*
X135498475Y-81533709D01*
X135498481Y-81533717D01*
X135617349Y-81652585D01*
X135617355Y-81652590D01*
X136374139Y-82409374D01*
X136374149Y-82409385D01*
X136378479Y-82413715D01*
X136378480Y-82413716D01*
X136490284Y-82525520D01*
X136562371Y-82567139D01*
X136627215Y-82604577D01*
X136779943Y-82645501D01*
X136779946Y-82645501D01*
X136945653Y-82645501D01*
X136945669Y-82645500D01*
X143862331Y-82645500D01*
X143862347Y-82645501D01*
X143869943Y-82645501D01*
X144028054Y-82645501D01*
X144028057Y-82645501D01*
X144180785Y-82604577D01*
X144245629Y-82567139D01*
X144317716Y-82525520D01*
X144429520Y-82413716D01*
X144429520Y-82413714D01*
X144439724Y-82403511D01*
X144439728Y-82403506D01*
X145008541Y-81834692D01*
X145069862Y-81801209D01*
X145139554Y-81806193D01*
X145195487Y-81848065D01*
X145199320Y-81853481D01*
X145207209Y-81865287D01*
X145207213Y-81865292D01*
X145318707Y-81976786D01*
X145318711Y-81976789D01*
X145449814Y-82064390D01*
X145449827Y-82064397D01*
X145550854Y-82106243D01*
X145595503Y-82124737D01*
X145697412Y-82145008D01*
X145750153Y-82155499D01*
X145750156Y-82155500D01*
X145750158Y-82155500D01*
X145907844Y-82155500D01*
X145907845Y-82155499D01*
X145960698Y-82144986D01*
X163567501Y-82144986D01*
X163577994Y-82247697D01*
X163633141Y-82414119D01*
X163633143Y-82414124D01*
X163725184Y-82563345D01*
X163849154Y-82687315D01*
X163998375Y-82779356D01*
X163998380Y-82779358D01*
X164164802Y-82834505D01*
X164164809Y-82834506D01*
X164267519Y-82844999D01*
X164404999Y-82844999D01*
X164405000Y-82844998D01*
X164405000Y-81870000D01*
X163567501Y-81870000D01*
X163567501Y-82144986D01*
X145960698Y-82144986D01*
X146062497Y-82124737D01*
X146208179Y-82064394D01*
X146339289Y-81976789D01*
X146450789Y-81865289D01*
X146538394Y-81734179D01*
X146598737Y-81588497D01*
X146629500Y-81433842D01*
X146629500Y-81276158D01*
X146629500Y-81276155D01*
X146629499Y-81276153D01*
X146623114Y-81244054D01*
X146598737Y-81121503D01*
X146587765Y-81095013D01*
X146538397Y-80975827D01*
X146538390Y-80975814D01*
X146450790Y-80844712D01*
X146404305Y-80798227D01*
X146352694Y-80746616D01*
X146332991Y-80720937D01*
X146322923Y-80703498D01*
X146306452Y-80635598D01*
X146329305Y-80569571D01*
X146384227Y-80526382D01*
X146430311Y-80517500D01*
X146980331Y-80517500D01*
X146980347Y-80517501D01*
X146987943Y-80517501D01*
X147146054Y-80517501D01*
X147146057Y-80517501D01*
X147298785Y-80476577D01*
X147363004Y-80439500D01*
X147435716Y-80397520D01*
X147547520Y-80285716D01*
X147547520Y-80285714D01*
X147557724Y-80275511D01*
X147557728Y-80275506D01*
X149167506Y-78665728D01*
X149167511Y-78665724D01*
X149177714Y-78655520D01*
X149177716Y-78655520D01*
X149289520Y-78543716D01*
X149300192Y-78525232D01*
X149349209Y-78440332D01*
X149349210Y-78440329D01*
X149368576Y-78406787D01*
X149368577Y-78406785D01*
X149409501Y-78254057D01*
X149409501Y-78095943D01*
X149409501Y-78088348D01*
X149409500Y-78088330D01*
X149409500Y-76704166D01*
X155704500Y-76704166D01*
X155704500Y-77335833D01*
X155721724Y-77466658D01*
X155755800Y-77593829D01*
X155806302Y-77715750D01*
X155806303Y-77715751D01*
X155872120Y-77829749D01*
X155872132Y-77829767D01*
X155925641Y-77899500D01*
X155952459Y-77934449D01*
X156045551Y-78027541D01*
X156045555Y-78027544D01*
X156150232Y-78107867D01*
X156150236Y-78107869D01*
X156150243Y-78107875D01*
X156150250Y-78107879D01*
X156264248Y-78173696D01*
X156264249Y-78173697D01*
X156264252Y-78173698D01*
X156264257Y-78173701D01*
X156386171Y-78224200D01*
X156513338Y-78258275D01*
X156644174Y-78275500D01*
X156644181Y-78275500D01*
X157210000Y-78275500D01*
X157281940Y-78270355D01*
X157319259Y-78259396D01*
X157371841Y-78255636D01*
X157510000Y-78275500D01*
X157510003Y-78275500D01*
X158075819Y-78275500D01*
X158075826Y-78275500D01*
X158206662Y-78258275D01*
X158333829Y-78224200D01*
X158455743Y-78173701D01*
X158569757Y-78107875D01*
X158674449Y-78027541D01*
X158723406Y-77978584D01*
X158750333Y-77963880D01*
X158776152Y-77947288D01*
X158782352Y-77946396D01*
X158784729Y-77945099D01*
X158811087Y-77942265D01*
X158968469Y-77942265D01*
X159035508Y-77961950D01*
X159037360Y-77963163D01*
X159169049Y-78051155D01*
X159169062Y-78051162D01*
X159305991Y-78107879D01*
X159314738Y-78111502D01*
X159429552Y-78134340D01*
X159469388Y-78142264D01*
X159469391Y-78142265D01*
X159469393Y-78142265D01*
X159627079Y-78142265D01*
X159627080Y-78142264D01*
X159781732Y-78111502D01*
X159927414Y-78051159D01*
X159962770Y-78027535D01*
X160040327Y-77975713D01*
X160107004Y-77954835D01*
X160174384Y-77973319D01*
X160196898Y-77991133D01*
X160945718Y-78739954D01*
X161693181Y-79487417D01*
X161726666Y-79548740D01*
X161729500Y-79575098D01*
X161729500Y-79922869D01*
X161729501Y-79922876D01*
X161735908Y-79982483D01*
X161786202Y-80117328D01*
X161786206Y-80117335D01*
X161872452Y-80232544D01*
X161872455Y-80232547D01*
X161987664Y-80318793D01*
X161987671Y-80318797D01*
X162122517Y-80369091D01*
X162122516Y-80369091D01*
X162129444Y-80369835D01*
X162182127Y-80375500D01*
X163726977Y-80375499D01*
X163794016Y-80395184D01*
X163839771Y-80447987D01*
X163849715Y-80517146D01*
X163820690Y-80580702D01*
X163814659Y-80587180D01*
X163725182Y-80676657D01*
X163633143Y-80825875D01*
X163633141Y-80825880D01*
X163577994Y-80992302D01*
X163577993Y-80992309D01*
X163567500Y-81095013D01*
X163567500Y-81370000D01*
X164405000Y-81370000D01*
X164405000Y-80395000D01*
X164905000Y-80395000D01*
X164905000Y-82844999D01*
X165042472Y-82844999D01*
X165042486Y-82844998D01*
X165145197Y-82834505D01*
X165311619Y-82779358D01*
X165311624Y-82779356D01*
X165460845Y-82687315D01*
X165584818Y-82563342D01*
X165586665Y-82560348D01*
X165588469Y-82558724D01*
X165589298Y-82557677D01*
X165589476Y-82557818D01*
X165638610Y-82513621D01*
X165707573Y-82502396D01*
X165771656Y-82530236D01*
X165797743Y-82560341D01*
X165799788Y-82563656D01*
X165923844Y-82687712D01*
X166073166Y-82779814D01*
X166239703Y-82834999D01*
X166342491Y-82845500D01*
X167117508Y-82845499D01*
X167117516Y-82845498D01*
X167117519Y-82845498D01*
X167173802Y-82839748D01*
X167220297Y-82834999D01*
X167386834Y-82779814D01*
X167536156Y-82687712D01*
X167660212Y-82563656D01*
X167752314Y-82414334D01*
X167807499Y-82247797D01*
X167818000Y-82145009D01*
X167817999Y-81503306D01*
X167837683Y-81436268D01*
X167854313Y-81415631D01*
X168858127Y-80411818D01*
X168919450Y-80378333D01*
X168945808Y-80375499D01*
X169277871Y-80375499D01*
X169277872Y-80375499D01*
X169337483Y-80369091D01*
X169472331Y-80318796D01*
X169587546Y-80232546D01*
X169671221Y-80120770D01*
X169727153Y-80078901D01*
X169796845Y-80073917D01*
X169858167Y-80107402D01*
X172440769Y-82690004D01*
X172474254Y-82751327D01*
X172469270Y-82821019D01*
X172467649Y-82825137D01*
X172425801Y-82926167D01*
X172391724Y-83053341D01*
X172374500Y-83184166D01*
X172374500Y-83815833D01*
X172391724Y-83946658D01*
X172425800Y-84073829D01*
X172476302Y-84195750D01*
X172476303Y-84195751D01*
X172542120Y-84309749D01*
X172542132Y-84309767D01*
X172622455Y-84414444D01*
X172622459Y-84414449D01*
X172715551Y-84507541D01*
X172715555Y-84507544D01*
X172820232Y-84587867D01*
X172820236Y-84587869D01*
X172820243Y-84587875D01*
X172820250Y-84587879D01*
X172934248Y-84653696D01*
X172934249Y-84653697D01*
X172934252Y-84653698D01*
X172934257Y-84653701D01*
X173056171Y-84704200D01*
X173183338Y-84738275D01*
X173314174Y-84755500D01*
X173314181Y-84755500D01*
X173880000Y-84755500D01*
X173951940Y-84750355D01*
X173989259Y-84739396D01*
X174041841Y-84735636D01*
X174180000Y-84755500D01*
X174180003Y-84755500D01*
X174745819Y-84755500D01*
X174745826Y-84755500D01*
X174876662Y-84738275D01*
X175003829Y-84704200D01*
X175125743Y-84653701D01*
X175239757Y-84587875D01*
X175344449Y-84507541D01*
X175437541Y-84414449D01*
X175517875Y-84309757D01*
X175583701Y-84195743D01*
X175634200Y-84073829D01*
X175668275Y-83946662D01*
X175685500Y-83815826D01*
X175685500Y-83184174D01*
X175684285Y-83174949D01*
X175668275Y-83053341D01*
X175668275Y-83053338D01*
X175634200Y-82926171D01*
X175583701Y-82804257D01*
X175583698Y-82804252D01*
X175583697Y-82804249D01*
X175583696Y-82804248D01*
X175517879Y-82690250D01*
X175517875Y-82690243D01*
X175515931Y-82687710D01*
X175437544Y-82585555D01*
X175437541Y-82585551D01*
X175344449Y-82492459D01*
X175344444Y-82492455D01*
X175239767Y-82412132D01*
X175239749Y-82412120D01*
X175125751Y-82346303D01*
X175125750Y-82346302D01*
X175034281Y-82308414D01*
X175003829Y-82295800D01*
X174876662Y-82261725D01*
X174876661Y-82261724D01*
X174876658Y-82261724D01*
X174745833Y-82244500D01*
X174745826Y-82244500D01*
X174180000Y-82244500D01*
X174179997Y-82244500D01*
X174108061Y-82249644D01*
X174108056Y-82249645D01*
X174070735Y-82260603D01*
X174018158Y-82264363D01*
X173880001Y-82244500D01*
X173880000Y-82244500D01*
X173745097Y-82244500D01*
X173678058Y-82224815D01*
X173657416Y-82208181D01*
X169766818Y-78317583D01*
X169733333Y-78256260D01*
X169730499Y-78229902D01*
X169730499Y-77857129D01*
X169730498Y-77857123D01*
X169730497Y-77857116D01*
X169724091Y-77797517D01*
X169716019Y-77775876D01*
X169707425Y-77752833D01*
X169702441Y-77683142D01*
X169735926Y-77621819D01*
X169797249Y-77588334D01*
X169823607Y-77585500D01*
X170404903Y-77585500D01*
X170471942Y-77605185D01*
X170492584Y-77621819D01*
X172248181Y-79377416D01*
X172281666Y-79438739D01*
X172284500Y-79465097D01*
X172284500Y-79885833D01*
X172301724Y-80016658D01*
X172335800Y-80143829D01*
X172386302Y-80265750D01*
X172386303Y-80265751D01*
X172452120Y-80379749D01*
X172452132Y-80379767D01*
X172532455Y-80484444D01*
X172532459Y-80484449D01*
X172625551Y-80577541D01*
X172632029Y-80582512D01*
X172730232Y-80657867D01*
X172730236Y-80657869D01*
X172730243Y-80657875D01*
X172730250Y-80657879D01*
X172844248Y-80723696D01*
X172844249Y-80723697D01*
X172844252Y-80723698D01*
X172844257Y-80723701D01*
X172966171Y-80774200D01*
X173093338Y-80808275D01*
X173224174Y-80825500D01*
X173224181Y-80825500D01*
X173790000Y-80825500D01*
X173861940Y-80820355D01*
X173899259Y-80809396D01*
X173951841Y-80805636D01*
X174090000Y-80825500D01*
X174090003Y-80825500D01*
X174655819Y-80825500D01*
X174655826Y-80825500D01*
X174786662Y-80808275D01*
X174913829Y-80774200D01*
X175035743Y-80723701D01*
X175149757Y-80657875D01*
X175254449Y-80577541D01*
X175340837Y-80491153D01*
X190449500Y-80491153D01*
X190449500Y-80648846D01*
X190480261Y-80803489D01*
X190480264Y-80803501D01*
X190540602Y-80949172D01*
X190540609Y-80949185D01*
X190628210Y-81080288D01*
X190628213Y-81080292D01*
X190739707Y-81191786D01*
X190739711Y-81191789D01*
X190870814Y-81279390D01*
X190870827Y-81279397D01*
X191016498Y-81339735D01*
X191016503Y-81339737D01*
X191168644Y-81370000D01*
X191171153Y-81370499D01*
X191171156Y-81370500D01*
X191171158Y-81370500D01*
X191328844Y-81370500D01*
X191328845Y-81370499D01*
X191483497Y-81339737D01*
X191629179Y-81279394D01*
X191760289Y-81191789D01*
X191871789Y-81080289D01*
X191959394Y-80949179D01*
X192019737Y-80803497D01*
X192050500Y-80648842D01*
X192050500Y-80491158D01*
X192050500Y-80491155D01*
X192050499Y-80491153D01*
X192041088Y-80443842D01*
X192019737Y-80336503D01*
X192012401Y-80318793D01*
X191959397Y-80190827D01*
X191959390Y-80190814D01*
X191871789Y-80059711D01*
X191871786Y-80059707D01*
X191760292Y-79948213D01*
X191760288Y-79948210D01*
X191629185Y-79860609D01*
X191629172Y-79860602D01*
X191483501Y-79800264D01*
X191483489Y-79800261D01*
X191328845Y-79769500D01*
X191328842Y-79769500D01*
X191171158Y-79769500D01*
X191171155Y-79769500D01*
X191016510Y-79800261D01*
X191016498Y-79800264D01*
X190870827Y-79860602D01*
X190870814Y-79860609D01*
X190739711Y-79948210D01*
X190739707Y-79948213D01*
X190628213Y-80059707D01*
X190628210Y-80059711D01*
X190540609Y-80190814D01*
X190540602Y-80190827D01*
X190480264Y-80336498D01*
X190480261Y-80336510D01*
X190449500Y-80491153D01*
X175340837Y-80491153D01*
X175347541Y-80484449D01*
X175427875Y-80379757D01*
X175493701Y-80265743D01*
X175544200Y-80143829D01*
X175578275Y-80016662D01*
X175595500Y-79885826D01*
X175595500Y-79254174D01*
X175578275Y-79123338D01*
X175544200Y-78996171D01*
X175493701Y-78874257D01*
X175493698Y-78874252D01*
X175493697Y-78874249D01*
X175493696Y-78874248D01*
X175430290Y-78764426D01*
X175427875Y-78760243D01*
X175391225Y-78712481D01*
X175347544Y-78655555D01*
X175347541Y-78655551D01*
X175254449Y-78562459D01*
X175253571Y-78561785D01*
X175149767Y-78482132D01*
X175149749Y-78482120D01*
X175035751Y-78416303D01*
X175035750Y-78416302D01*
X175035134Y-78416047D01*
X174913829Y-78365800D01*
X174786662Y-78331725D01*
X174786661Y-78331724D01*
X174786658Y-78331724D01*
X174655833Y-78314500D01*
X174655826Y-78314500D01*
X174090000Y-78314500D01*
X174089997Y-78314500D01*
X174018061Y-78319644D01*
X174018056Y-78319645D01*
X173980735Y-78330603D01*
X173928158Y-78334363D01*
X173790001Y-78314500D01*
X173790000Y-78314500D01*
X173224174Y-78314500D01*
X173224166Y-78314500D01*
X173093338Y-78331725D01*
X173010765Y-78353850D01*
X172940915Y-78352187D01*
X172890991Y-78321756D01*
X172310388Y-77741153D01*
X192179500Y-77741153D01*
X192179500Y-77898846D01*
X192210261Y-78053489D01*
X192210264Y-78053501D01*
X192270602Y-78199172D01*
X192270609Y-78199185D01*
X192358210Y-78330288D01*
X192358213Y-78330292D01*
X192469707Y-78441786D01*
X192469711Y-78441789D01*
X192600814Y-78529390D01*
X192600827Y-78529397D01*
X192746498Y-78589735D01*
X192746503Y-78589737D01*
X192883618Y-78617011D01*
X192901153Y-78620499D01*
X192901156Y-78620500D01*
X192901158Y-78620500D01*
X193058844Y-78620500D01*
X193058845Y-78620499D01*
X193213497Y-78589737D01*
X193359179Y-78529394D01*
X193490289Y-78441789D01*
X193601789Y-78330289D01*
X193689394Y-78199179D01*
X193697658Y-78179229D01*
X193725711Y-78111502D01*
X193749737Y-78053497D01*
X193780500Y-77898842D01*
X193780500Y-77741158D01*
X193780500Y-77741155D01*
X193780499Y-77741153D01*
X193757494Y-77625499D01*
X193749737Y-77586503D01*
X193745663Y-77576668D01*
X193689397Y-77440827D01*
X193689390Y-77440814D01*
X193601789Y-77309711D01*
X193601786Y-77309707D01*
X193490292Y-77198213D01*
X193490288Y-77198210D01*
X193359185Y-77110609D01*
X193359172Y-77110602D01*
X193213501Y-77050264D01*
X193213489Y-77050261D01*
X193058845Y-77019500D01*
X193058842Y-77019500D01*
X192901158Y-77019500D01*
X192901155Y-77019500D01*
X192746510Y-77050261D01*
X192746498Y-77050264D01*
X192600827Y-77110602D01*
X192600814Y-77110609D01*
X192469711Y-77198210D01*
X192469707Y-77198213D01*
X192358213Y-77309707D01*
X192358210Y-77309711D01*
X192270609Y-77440814D01*
X192270602Y-77440827D01*
X192210264Y-77586498D01*
X192210261Y-77586510D01*
X192179500Y-77741153D01*
X172310388Y-77741153D01*
X171192590Y-76623355D01*
X171185521Y-76616286D01*
X171185520Y-76616284D01*
X171081414Y-76512178D01*
X171047932Y-76450858D01*
X171052916Y-76381166D01*
X171094788Y-76325233D01*
X171160252Y-76300816D01*
X171169098Y-76300500D01*
X172263994Y-76300500D01*
X172331033Y-76320185D01*
X172376788Y-76372989D01*
X172378556Y-76377049D01*
X172386298Y-76395742D01*
X172386302Y-76395750D01*
X172452120Y-76509749D01*
X172452132Y-76509767D01*
X172524253Y-76603755D01*
X172532459Y-76614449D01*
X172625551Y-76707541D01*
X172625555Y-76707544D01*
X172730232Y-76787867D01*
X172730236Y-76787869D01*
X172730243Y-76787875D01*
X172730250Y-76787879D01*
X172844248Y-76853696D01*
X172844249Y-76853697D01*
X172844252Y-76853698D01*
X172844257Y-76853701D01*
X172966171Y-76904200D01*
X173093338Y-76938275D01*
X173224174Y-76955500D01*
X173224181Y-76955500D01*
X173790000Y-76955500D01*
X173861940Y-76950355D01*
X173899259Y-76939396D01*
X173951841Y-76935636D01*
X174090000Y-76955500D01*
X174090003Y-76955500D01*
X174655819Y-76955500D01*
X174655826Y-76955500D01*
X174786662Y-76938275D01*
X174913829Y-76904200D01*
X175035743Y-76853701D01*
X175149757Y-76787875D01*
X175254449Y-76707541D01*
X175347541Y-76614449D01*
X175427875Y-76509757D01*
X175493701Y-76395743D01*
X175544200Y-76273829D01*
X175578275Y-76146662D01*
X175595500Y-76015826D01*
X175595500Y-75384174D01*
X175578275Y-75253338D01*
X175544200Y-75126171D01*
X175513126Y-75051153D01*
X190429500Y-75051153D01*
X190429500Y-75208846D01*
X190460261Y-75363489D01*
X190460264Y-75363501D01*
X190520602Y-75509172D01*
X190520609Y-75509185D01*
X190608210Y-75640288D01*
X190608213Y-75640292D01*
X190719707Y-75751786D01*
X190719711Y-75751789D01*
X190850814Y-75839390D01*
X190850827Y-75839397D01*
X190996498Y-75899735D01*
X190996503Y-75899737D01*
X191142466Y-75928771D01*
X191151153Y-75930499D01*
X191151156Y-75930500D01*
X191151158Y-75930500D01*
X191308844Y-75930500D01*
X191308845Y-75930499D01*
X191463497Y-75899737D01*
X191609179Y-75839394D01*
X191740289Y-75751789D01*
X191851789Y-75640289D01*
X191939394Y-75509179D01*
X191999737Y-75363497D01*
X192030500Y-75208842D01*
X192030500Y-75051158D01*
X192030500Y-75051155D01*
X192030499Y-75051153D01*
X192007592Y-74935992D01*
X191999737Y-74896503D01*
X191997144Y-74890243D01*
X191939397Y-74750827D01*
X191939390Y-74750814D01*
X191851789Y-74619711D01*
X191851786Y-74619707D01*
X191740292Y-74508213D01*
X191740288Y-74508210D01*
X191609185Y-74420609D01*
X191609172Y-74420602D01*
X191463501Y-74360264D01*
X191463489Y-74360261D01*
X191308845Y-74329500D01*
X191308842Y-74329500D01*
X191151158Y-74329500D01*
X191151155Y-74329500D01*
X190996510Y-74360261D01*
X190996498Y-74360264D01*
X190850827Y-74420602D01*
X190850814Y-74420609D01*
X190719711Y-74508210D01*
X190719707Y-74508213D01*
X190608213Y-74619707D01*
X190608210Y-74619711D01*
X190520609Y-74750814D01*
X190520602Y-74750827D01*
X190460264Y-74896498D01*
X190460261Y-74896510D01*
X190429500Y-75051153D01*
X175513126Y-75051153D01*
X175493701Y-75004257D01*
X175493698Y-75004252D01*
X175493697Y-75004249D01*
X175493696Y-75004248D01*
X175427879Y-74890250D01*
X175427875Y-74890243D01*
X175413418Y-74871403D01*
X175347544Y-74785555D01*
X175347541Y-74785551D01*
X175254449Y-74692459D01*
X175242770Y-74683497D01*
X175149767Y-74612132D01*
X175149749Y-74612120D01*
X175035751Y-74546303D01*
X175035750Y-74546302D01*
X174993598Y-74528842D01*
X174913829Y-74495800D01*
X174786662Y-74461725D01*
X174786661Y-74461724D01*
X174786658Y-74461724D01*
X174655833Y-74444500D01*
X174655826Y-74444500D01*
X174090000Y-74444500D01*
X174089997Y-74444500D01*
X174018061Y-74449644D01*
X174018056Y-74449645D01*
X173980735Y-74460603D01*
X173928158Y-74464363D01*
X173790001Y-74444500D01*
X173790000Y-74444500D01*
X173224174Y-74444500D01*
X173224166Y-74444500D01*
X173093341Y-74461724D01*
X172966170Y-74495800D01*
X172844249Y-74546302D01*
X172844248Y-74546303D01*
X172730250Y-74612120D01*
X172730232Y-74612132D01*
X172625555Y-74692455D01*
X172625545Y-74692464D01*
X172532464Y-74785545D01*
X172532455Y-74785555D01*
X172452132Y-74890232D01*
X172452120Y-74890250D01*
X172386302Y-75004249D01*
X172386298Y-75004257D01*
X172378556Y-75022951D01*
X172334716Y-75077355D01*
X172268422Y-75099421D01*
X172263994Y-75099500D01*
X169718521Y-75099500D01*
X169651482Y-75079815D01*
X169619254Y-75049810D01*
X169587550Y-75007458D01*
X169587547Y-75007455D01*
X169587546Y-75007454D01*
X169550894Y-74980016D01*
X169472335Y-74921206D01*
X169472328Y-74921202D01*
X169337482Y-74870908D01*
X169337483Y-74870908D01*
X169277883Y-74864501D01*
X169277881Y-74864500D01*
X169277873Y-74864500D01*
X169277864Y-74864500D01*
X167632129Y-74864500D01*
X167632123Y-74864501D01*
X167572516Y-74870908D01*
X167437671Y-74921202D01*
X167437664Y-74921206D01*
X167322455Y-75007452D01*
X167322452Y-75007455D01*
X167236206Y-75122664D01*
X167236202Y-75122671D01*
X167185908Y-75257517D01*
X167179501Y-75317116D01*
X167179500Y-75317135D01*
X167179500Y-76112870D01*
X167179501Y-76112876D01*
X167185909Y-76172484D01*
X167235955Y-76306668D01*
X167240939Y-76376360D01*
X167235955Y-76393332D01*
X167185909Y-76527514D01*
X167185908Y-76527516D01*
X167180982Y-76573341D01*
X167179501Y-76587123D01*
X167179500Y-76587135D01*
X167179500Y-77382870D01*
X167179501Y-77382876D01*
X167185909Y-77442484D01*
X167235955Y-77576668D01*
X167240939Y-77646360D01*
X167235955Y-77663332D01*
X167185909Y-77797514D01*
X167185908Y-77797516D01*
X167179501Y-77857116D01*
X167179501Y-77857123D01*
X167179500Y-77857135D01*
X167179500Y-78613367D01*
X167159815Y-78680406D01*
X167107011Y-78726161D01*
X167037853Y-78736105D01*
X167031314Y-78734985D01*
X167023849Y-78733500D01*
X167023842Y-78733500D01*
X166866158Y-78733500D01*
X166866155Y-78733500D01*
X166711510Y-78764261D01*
X166711498Y-78764264D01*
X166565827Y-78824602D01*
X166565814Y-78824609D01*
X166434711Y-78912210D01*
X166434707Y-78912213D01*
X166323213Y-79023707D01*
X166323210Y-79023711D01*
X166235609Y-79154814D01*
X166235602Y-79154827D01*
X166175264Y-79300498D01*
X166175261Y-79300510D01*
X166144500Y-79455153D01*
X166144500Y-79612846D01*
X166175261Y-79767489D01*
X166175264Y-79767501D01*
X166235602Y-79913172D01*
X166235609Y-79913185D01*
X166323210Y-80044288D01*
X166323213Y-80044292D01*
X166434708Y-80155787D01*
X166434711Y-80155789D01*
X166449530Y-80165691D01*
X166452084Y-80167397D01*
X166496889Y-80221009D01*
X166505597Y-80290334D01*
X166475443Y-80353362D01*
X166416001Y-80390081D01*
X166383197Y-80394500D01*
X166342500Y-80394500D01*
X166342480Y-80394501D01*
X166239703Y-80405000D01*
X166239700Y-80405001D01*
X166073168Y-80460185D01*
X166073163Y-80460187D01*
X165923842Y-80552289D01*
X165799788Y-80676343D01*
X165799783Y-80676349D01*
X165797741Y-80679661D01*
X165795747Y-80681453D01*
X165795307Y-80682011D01*
X165795211Y-80681935D01*
X165745791Y-80726383D01*
X165676828Y-80737602D01*
X165612747Y-80709755D01*
X165586668Y-80679656D01*
X165584819Y-80676659D01*
X165584816Y-80676655D01*
X165460845Y-80552684D01*
X165311624Y-80460643D01*
X165311619Y-80460641D01*
X165145197Y-80405494D01*
X165145190Y-80405493D01*
X165042486Y-80395000D01*
X164905000Y-80395000D01*
X164405000Y-80395000D01*
X164404999Y-80395000D01*
X164264366Y-80395001D01*
X164264365Y-80393572D01*
X164201887Y-80378575D01*
X164153549Y-80328125D01*
X164140159Y-80259551D01*
X164164359Y-80196728D01*
X164223796Y-80117331D01*
X164274091Y-79982483D01*
X164280500Y-79922873D01*
X164280499Y-79127128D01*
X164274091Y-79067517D01*
X164224042Y-78933330D01*
X164219059Y-78863642D01*
X164224039Y-78846678D01*
X164274091Y-78712483D01*
X164280500Y-78652873D01*
X164280499Y-77857128D01*
X164274091Y-77797517D01*
X164224042Y-77663330D01*
X164219059Y-77593642D01*
X164224039Y-77576678D01*
X164274091Y-77442483D01*
X164280500Y-77382873D01*
X164280499Y-76587128D01*
X164274091Y-76527517D01*
X164223796Y-76392669D01*
X164223793Y-76392665D01*
X164223776Y-76392619D01*
X164218792Y-76322927D01*
X164223776Y-76305951D01*
X164273597Y-76172376D01*
X164273598Y-76172372D01*
X164279999Y-76112844D01*
X164280000Y-76112827D01*
X164280000Y-75965000D01*
X161730000Y-75965000D01*
X161730000Y-76056392D01*
X161710315Y-76123431D01*
X161657511Y-76169186D01*
X161626955Y-76177426D01*
X161627132Y-76178311D01*
X161466510Y-76210261D01*
X161466507Y-76210262D01*
X161466506Y-76210262D01*
X161466503Y-76210263D01*
X161384873Y-76244075D01*
X161361952Y-76253569D01*
X161292482Y-76261037D01*
X161230003Y-76229761D01*
X161194351Y-76169672D01*
X161190500Y-76139007D01*
X161190500Y-75317155D01*
X161730000Y-75317155D01*
X161730000Y-75465000D01*
X162755000Y-75465000D01*
X163255000Y-75465000D01*
X164280000Y-75465000D01*
X164280000Y-75317172D01*
X164279999Y-75317155D01*
X164273598Y-75257627D01*
X164273596Y-75257620D01*
X164223354Y-75122913D01*
X164223350Y-75122906D01*
X164137190Y-75007812D01*
X164137187Y-75007809D01*
X164022093Y-74921649D01*
X164022086Y-74921645D01*
X163887379Y-74871403D01*
X163887372Y-74871401D01*
X163827844Y-74865000D01*
X163255000Y-74865000D01*
X163255000Y-75465000D01*
X162755000Y-75465000D01*
X162755000Y-74865000D01*
X162182155Y-74865000D01*
X162122627Y-74871401D01*
X162122620Y-74871403D01*
X161987913Y-74921645D01*
X161987906Y-74921649D01*
X161872812Y-75007809D01*
X161872809Y-75007812D01*
X161786649Y-75122906D01*
X161786645Y-75122913D01*
X161736403Y-75257620D01*
X161736401Y-75257627D01*
X161730000Y-75317155D01*
X161190500Y-75317155D01*
X161190500Y-73292940D01*
X161210185Y-73225901D01*
X161226818Y-73205259D01*
X161231789Y-73200289D01*
X161319394Y-73069179D01*
X161379737Y-72923497D01*
X161410500Y-72768842D01*
X161410500Y-72611158D01*
X161410500Y-72611155D01*
X161410499Y-72611153D01*
X161405212Y-72584575D01*
X161379737Y-72456503D01*
X161351439Y-72388185D01*
X161319397Y-72310827D01*
X161319390Y-72310814D01*
X161231789Y-72179711D01*
X161231786Y-72179707D01*
X161120292Y-72068213D01*
X161120288Y-72068210D01*
X160989185Y-71980609D01*
X160989172Y-71980602D01*
X160843501Y-71920264D01*
X160843489Y-71920261D01*
X160688845Y-71889500D01*
X160688842Y-71889500D01*
X160531158Y-71889500D01*
X160531157Y-71889500D01*
X160500068Y-71895683D01*
X160430476Y-71889454D01*
X160375300Y-71846589D01*
X160354263Y-71798257D01*
X160349737Y-71775503D01*
X160334651Y-71739082D01*
X160289397Y-71629827D01*
X160289390Y-71629814D01*
X160201789Y-71498711D01*
X160201786Y-71498707D01*
X160090292Y-71387213D01*
X160090288Y-71387210D01*
X159959185Y-71299609D01*
X159959172Y-71299602D01*
X159813501Y-71239264D01*
X159813489Y-71239261D01*
X159658845Y-71208500D01*
X159658842Y-71208500D01*
X159501158Y-71208500D01*
X159501155Y-71208500D01*
X159346510Y-71239261D01*
X159346498Y-71239264D01*
X159200827Y-71299602D01*
X159200814Y-71299609D01*
X159069711Y-71387210D01*
X159069707Y-71387213D01*
X158958213Y-71498707D01*
X158958210Y-71498711D01*
X158870609Y-71629814D01*
X158870602Y-71629827D01*
X158810264Y-71775498D01*
X158810261Y-71775510D01*
X158779500Y-71930153D01*
X158779500Y-72087846D01*
X158810261Y-72242489D01*
X158810264Y-72242501D01*
X158870602Y-72388172D01*
X158870609Y-72388185D01*
X158958210Y-72519289D01*
X158961353Y-72523118D01*
X158988666Y-72587428D01*
X158989500Y-72601783D01*
X158989500Y-76029522D01*
X158969815Y-76096561D01*
X158917011Y-76142316D01*
X158847853Y-76152260D01*
X158784297Y-76123235D01*
X158770376Y-76108461D01*
X158770216Y-76108602D01*
X158767544Y-76105555D01*
X158767541Y-76105551D01*
X158674449Y-76012459D01*
X158674444Y-76012455D01*
X158569767Y-75932132D01*
X158569749Y-75932120D01*
X158455751Y-75866303D01*
X158455750Y-75866302D01*
X158452587Y-75864992D01*
X158333829Y-75815800D01*
X158206662Y-75781725D01*
X158206661Y-75781724D01*
X158206658Y-75781724D01*
X158075833Y-75764500D01*
X158075826Y-75764500D01*
X157510000Y-75764500D01*
X157509997Y-75764500D01*
X157438061Y-75769644D01*
X157438056Y-75769645D01*
X157400735Y-75780603D01*
X157348158Y-75784363D01*
X157210001Y-75764500D01*
X157210000Y-75764500D01*
X156644174Y-75764500D01*
X156644166Y-75764500D01*
X156513341Y-75781724D01*
X156386170Y-75815800D01*
X156264249Y-75866302D01*
X156264248Y-75866303D01*
X156150250Y-75932120D01*
X156150232Y-75932132D01*
X156045555Y-76012455D01*
X156045545Y-76012464D01*
X155952464Y-76105545D01*
X155952455Y-76105555D01*
X155872132Y-76210232D01*
X155872120Y-76210250D01*
X155806303Y-76324248D01*
X155806302Y-76324249D01*
X155755800Y-76446170D01*
X155721724Y-76573341D01*
X155704500Y-76704166D01*
X149409500Y-76704166D01*
X149409500Y-72560330D01*
X149429185Y-72493291D01*
X149430398Y-72491439D01*
X149499390Y-72388185D01*
X149499390Y-72388184D01*
X149499394Y-72388179D01*
X149559737Y-72242497D01*
X149590500Y-72087842D01*
X149590500Y-71930158D01*
X149590500Y-71930155D01*
X149590499Y-71930153D01*
X149583425Y-71894589D01*
X149559737Y-71775503D01*
X149559735Y-71775498D01*
X149499397Y-71629827D01*
X149499390Y-71629814D01*
X149411789Y-71498711D01*
X149411786Y-71498707D01*
X149300292Y-71387213D01*
X149300288Y-71387210D01*
X149169185Y-71299609D01*
X149169172Y-71299602D01*
X149023501Y-71239264D01*
X149023489Y-71239261D01*
X148868845Y-71208500D01*
X148868842Y-71208500D01*
X148711158Y-71208500D01*
X148711155Y-71208500D01*
X148556510Y-71239261D01*
X148556498Y-71239264D01*
X148410827Y-71299602D01*
X148410814Y-71299609D01*
X148279711Y-71387210D01*
X148279707Y-71387213D01*
X148168213Y-71498707D01*
X148168210Y-71498711D01*
X148080609Y-71629814D01*
X148080602Y-71629827D01*
X148020264Y-71775498D01*
X148020261Y-71775510D01*
X147989500Y-71930153D01*
X147989500Y-72087846D01*
X148020261Y-72242489D01*
X148020264Y-72242501D01*
X148080602Y-72388172D01*
X148080609Y-72388185D01*
X148168208Y-72519286D01*
X148168210Y-72519288D01*
X148168211Y-72519289D01*
X148172177Y-72523255D01*
X148205665Y-72584575D01*
X148208500Y-72610940D01*
X148208500Y-77874902D01*
X148188815Y-77941941D01*
X148172181Y-77962583D01*
X147639568Y-78495195D01*
X147578245Y-78528680D01*
X147508553Y-78523696D01*
X147452620Y-78481824D01*
X147448785Y-78476405D01*
X147360789Y-78344711D01*
X147360786Y-78344707D01*
X147249292Y-78233213D01*
X147249288Y-78233210D01*
X147118185Y-78145609D01*
X147118172Y-78145602D01*
X146972501Y-78085264D01*
X146972489Y-78085261D01*
X146817845Y-78054500D01*
X146817842Y-78054500D01*
X146660158Y-78054500D01*
X146660155Y-78054500D01*
X146505510Y-78085261D01*
X146505498Y-78085264D01*
X146480952Y-78095432D01*
X146448326Y-78098939D01*
X146415853Y-78103609D01*
X146413765Y-78102655D01*
X146411483Y-78102901D01*
X146382139Y-78088212D01*
X146352297Y-78074584D01*
X146351056Y-78072653D01*
X146349004Y-78071626D01*
X146332263Y-78043410D01*
X146314523Y-78015806D01*
X146314087Y-78012776D01*
X146313352Y-78011537D01*
X146309500Y-77980871D01*
X146309500Y-77810780D01*
X146329185Y-77743741D01*
X146381989Y-77697986D01*
X146394499Y-77693073D01*
X146404331Y-77689815D01*
X146404331Y-77689814D01*
X146404334Y-77689814D01*
X146553656Y-77597712D01*
X146677712Y-77473656D01*
X146769814Y-77324334D01*
X146824999Y-77157797D01*
X146835500Y-77055009D01*
X146835499Y-76004992D01*
X146834652Y-75996705D01*
X146824999Y-75902203D01*
X146824998Y-75902200D01*
X146769814Y-75735666D01*
X146677712Y-75586344D01*
X146672049Y-75580681D01*
X146638564Y-75519358D01*
X146643548Y-75449666D01*
X146672049Y-75405319D01*
X146673049Y-75404319D01*
X146678712Y-75398656D01*
X146770814Y-75249334D01*
X146825999Y-75082797D01*
X146836500Y-74980009D01*
X146836499Y-73929992D01*
X146825999Y-73827203D01*
X146770814Y-73660666D01*
X146678712Y-73511344D01*
X146554656Y-73387288D01*
X146405334Y-73295186D01*
X146238797Y-73240001D01*
X146238795Y-73240000D01*
X146136010Y-73229500D01*
X145360998Y-73229500D01*
X145360980Y-73229501D01*
X145258203Y-73240000D01*
X145258200Y-73240001D01*
X145091668Y-73295185D01*
X145091663Y-73295187D01*
X144942342Y-73387289D01*
X144818285Y-73511346D01*
X144816537Y-73514182D01*
X144814829Y-73515717D01*
X144813807Y-73517011D01*
X144813585Y-73516836D01*
X144764589Y-73560905D01*
X144695626Y-73572126D01*
X144631544Y-73544282D01*
X144605463Y-73514182D01*
X144603714Y-73511346D01*
X144479657Y-73387289D01*
X144479656Y-73387288D01*
X144330334Y-73295186D01*
X144163797Y-73240001D01*
X144163795Y-73240000D01*
X144061010Y-73229500D01*
X143285998Y-73229500D01*
X143285980Y-73229501D01*
X143183203Y-73240000D01*
X143183200Y-73240001D01*
X143016668Y-73295185D01*
X143016663Y-73295187D01*
X142867342Y-73387289D01*
X142743289Y-73511342D01*
X142651187Y-73660663D01*
X142651186Y-73660666D01*
X142596001Y-73827203D01*
X142596001Y-73827204D01*
X142596000Y-73827204D01*
X142585500Y-73929983D01*
X142585500Y-74980001D01*
X142585501Y-74980019D01*
X142596000Y-75082796D01*
X142596001Y-75082799D01*
X142651185Y-75249331D01*
X142651187Y-75249336D01*
X142659205Y-75262335D01*
X142734359Y-75384180D01*
X142743289Y-75398657D01*
X142748951Y-75404319D01*
X142782436Y-75465642D01*
X142777452Y-75535334D01*
X142748951Y-75579681D01*
X142742289Y-75586342D01*
X142650187Y-75735663D01*
X142650185Y-75735668D01*
X142614121Y-75844503D01*
X142574348Y-75901948D01*
X142509832Y-75928771D01*
X142496415Y-75929499D01*
X142414943Y-75929499D01*
X142344845Y-75948282D01*
X142262212Y-75970423D01*
X142262211Y-75970424D01*
X142216693Y-75996704D01*
X142216692Y-75996706D01*
X142197326Y-76007886D01*
X142135326Y-76024500D01*
X142120155Y-76024500D01*
X141965510Y-76055261D01*
X141965498Y-76055264D01*
X141819827Y-76115602D01*
X141819814Y-76115609D01*
X141688711Y-76203210D01*
X141688707Y-76203213D01*
X141577213Y-76314707D01*
X141577210Y-76314711D01*
X141489609Y-76445814D01*
X141489602Y-76445827D01*
X141429264Y-76591498D01*
X141429261Y-76591510D01*
X141398500Y-76746153D01*
X141398500Y-76903846D01*
X141429261Y-77058489D01*
X141429264Y-77058501D01*
X141489602Y-77204172D01*
X141489609Y-77204185D01*
X141577210Y-77335288D01*
X141577213Y-77335292D01*
X141688707Y-77446786D01*
X141688711Y-77446789D01*
X141819814Y-77534390D01*
X141819827Y-77534397D01*
X141962859Y-77593642D01*
X141965503Y-77594737D01*
X142107223Y-77622927D01*
X142120153Y-77625499D01*
X142120156Y-77625500D01*
X142120158Y-77625500D01*
X142277844Y-77625500D01*
X142277845Y-77625499D01*
X142432497Y-77594737D01*
X142578179Y-77534394D01*
X142628352Y-77500869D01*
X142695027Y-77479992D01*
X142762408Y-77498476D01*
X142784923Y-77516291D01*
X142866344Y-77597712D01*
X142974596Y-77664482D01*
X143021321Y-77716430D01*
X143033500Y-77770021D01*
X143033500Y-78243330D01*
X143033499Y-78243348D01*
X143033499Y-78409054D01*
X143033498Y-78409054D01*
X143074423Y-78561786D01*
X143074424Y-78561787D01*
X143090561Y-78589738D01*
X143095405Y-78598127D01*
X143114096Y-78630502D01*
X143130569Y-78698399D01*
X143107717Y-78764426D01*
X143052796Y-78807617D01*
X143006709Y-78816500D01*
X141258972Y-78816500D01*
X141191933Y-78796815D01*
X141146178Y-78744011D01*
X141144421Y-78739978D01*
X141102701Y-78639257D01*
X141089857Y-78617011D01*
X141036879Y-78525250D01*
X141036875Y-78525243D01*
X141003794Y-78482132D01*
X140956544Y-78420555D01*
X140956541Y-78420551D01*
X140863449Y-78327459D01*
X140853266Y-78319645D01*
X140758767Y-78247132D01*
X140758749Y-78247120D01*
X140644751Y-78181303D01*
X140644750Y-78181302D01*
X140639745Y-78179229D01*
X140522829Y-78130800D01*
X140395662Y-78096725D01*
X140395661Y-78096724D01*
X140395658Y-78096724D01*
X140264833Y-78079500D01*
X140264826Y-78079500D01*
X139699000Y-78079500D01*
X139698997Y-78079500D01*
X139627061Y-78084644D01*
X139627056Y-78084645D01*
X139589735Y-78095603D01*
X139537158Y-78099363D01*
X139399001Y-78079500D01*
X139399000Y-78079500D01*
X138833174Y-78079500D01*
X138833166Y-78079500D01*
X138702341Y-78096724D01*
X138575170Y-78130800D01*
X138453249Y-78181302D01*
X138453248Y-78181303D01*
X138339250Y-78247120D01*
X138339232Y-78247132D01*
X138234555Y-78327455D01*
X138234545Y-78327464D01*
X138141464Y-78420545D01*
X138141455Y-78420555D01*
X138061132Y-78525232D01*
X138061120Y-78525250D01*
X137995303Y-78639248D01*
X137995302Y-78639249D01*
X137944800Y-78761170D01*
X137910724Y-78888341D01*
X137893500Y-79019166D01*
X137893500Y-79650833D01*
X137910724Y-79781658D01*
X137910725Y-79781662D01*
X137931877Y-79860602D01*
X137944800Y-79908829D01*
X137995302Y-80030750D01*
X137995303Y-80030751D01*
X138061120Y-80144749D01*
X138061132Y-80144767D01*
X138128489Y-80232547D01*
X138141459Y-80249449D01*
X138234551Y-80342541D01*
X138234555Y-80342544D01*
X138339232Y-80422867D01*
X138339236Y-80422869D01*
X138339243Y-80422875D01*
X138339250Y-80422879D01*
X138453248Y-80488696D01*
X138453249Y-80488697D01*
X138453252Y-80488698D01*
X138453257Y-80488701D01*
X138575171Y-80539200D01*
X138702338Y-80573275D01*
X138833174Y-80590500D01*
X138833181Y-80590500D01*
X139399000Y-80590500D01*
X139470940Y-80585355D01*
X139508259Y-80574396D01*
X139560841Y-80570636D01*
X139699000Y-80590500D01*
X139699003Y-80590500D01*
X140264819Y-80590500D01*
X140264826Y-80590500D01*
X140395662Y-80573275D01*
X140522829Y-80539200D01*
X140644743Y-80488701D01*
X140758757Y-80422875D01*
X140863449Y-80342541D01*
X140956541Y-80249449D01*
X141036875Y-80144757D01*
X141074551Y-80079499D01*
X141125118Y-80031284D01*
X141181938Y-80017500D01*
X141930845Y-80017500D01*
X141997884Y-80037185D01*
X142043639Y-80089989D01*
X142053583Y-80159147D01*
X142052462Y-80165691D01*
X142028500Y-80286153D01*
X142028500Y-80443846D01*
X142059261Y-80598489D01*
X142059264Y-80598501D01*
X142119602Y-80744172D01*
X142119609Y-80744185D01*
X142207210Y-80875288D01*
X142207213Y-80875292D01*
X142318707Y-80986786D01*
X142318711Y-80986789D01*
X142449814Y-81074390D01*
X142449827Y-81074397D01*
X142563541Y-81121498D01*
X142595503Y-81134737D01*
X142750153Y-81165499D01*
X142750156Y-81165500D01*
X142750158Y-81165500D01*
X142907844Y-81165500D01*
X142907845Y-81165499D01*
X143062497Y-81134737D01*
X143208179Y-81074394D01*
X143339289Y-80986789D01*
X143450789Y-80875289D01*
X143466523Y-80851741D01*
X143520132Y-80806937D01*
X143589456Y-80798227D01*
X143652485Y-80828380D01*
X143668891Y-80846319D01*
X143726812Y-80923690D01*
X143841906Y-81009850D01*
X143841911Y-81009853D01*
X143874531Y-81022019D01*
X143930466Y-81063890D01*
X143954884Y-81129354D01*
X143940033Y-81197627D01*
X143918881Y-81225883D01*
X143736584Y-81408181D01*
X143675261Y-81441666D01*
X143648903Y-81444500D01*
X137159097Y-81444500D01*
X137092058Y-81424815D01*
X137071416Y-81408181D01*
X136615819Y-80952584D01*
X136582334Y-80891261D01*
X136579500Y-80864903D01*
X136579500Y-73226363D01*
X136599185Y-73159324D01*
X136600361Y-73157527D01*
X136659394Y-73069179D01*
X136719737Y-72923497D01*
X136750500Y-72768842D01*
X136750500Y-72611158D01*
X136750500Y-72611155D01*
X136750499Y-72611153D01*
X136745212Y-72584575D01*
X136719737Y-72456503D01*
X136691439Y-72388185D01*
X136659397Y-72310827D01*
X136659390Y-72310814D01*
X136571789Y-72179711D01*
X136571786Y-72179707D01*
X136460292Y-72068213D01*
X136460284Y-72068207D01*
X136329185Y-71980610D01*
X136329184Y-71980609D01*
X136329179Y-71980606D01*
X136329172Y-71980603D01*
X136327586Y-71979755D01*
X136326905Y-71979086D01*
X136324115Y-71977222D01*
X136324468Y-71976692D01*
X136277743Y-71930791D01*
X136264425Y-71894589D01*
X136254877Y-71846589D01*
X136240737Y-71775503D01*
X136240735Y-71775498D01*
X136180397Y-71629827D01*
X136180390Y-71629814D01*
X136092789Y-71498711D01*
X136092786Y-71498707D01*
X135981292Y-71387213D01*
X135981288Y-71387210D01*
X135850185Y-71299609D01*
X135850172Y-71299602D01*
X135704501Y-71239264D01*
X135704489Y-71239261D01*
X135549845Y-71208500D01*
X135549842Y-71208500D01*
X135392158Y-71208500D01*
X135392155Y-71208500D01*
X135237510Y-71239261D01*
X135237498Y-71239264D01*
X135091827Y-71299602D01*
X135091814Y-71299609D01*
X134960711Y-71387210D01*
X134960707Y-71387213D01*
X134849213Y-71498707D01*
X134849210Y-71498711D01*
X134761609Y-71629814D01*
X134761602Y-71629827D01*
X134701264Y-71775498D01*
X134701261Y-71775508D01*
X134670361Y-71930850D01*
X134637976Y-71992761D01*
X134636425Y-71994339D01*
X127977584Y-78653181D01*
X127916261Y-78686666D01*
X127889903Y-78689500D01*
X122792352Y-78689500D01*
X122725313Y-78669815D01*
X122679558Y-78617011D01*
X122669614Y-78547853D01*
X122672578Y-78533402D01*
X122673218Y-78531009D01*
X122673223Y-78530999D01*
X122688358Y-78416040D01*
X122688358Y-78163960D01*
X122680721Y-78105950D01*
X122676919Y-78077073D01*
X122675858Y-78060887D01*
X122675858Y-77622927D01*
X122695543Y-77555888D01*
X122734759Y-77517390D01*
X122831514Y-77457712D01*
X122955570Y-77333656D01*
X123047672Y-77184334D01*
X123102857Y-77017797D01*
X123113358Y-76915009D01*
X123113357Y-75864992D01*
X123110742Y-75839397D01*
X123102857Y-75762203D01*
X123102856Y-75762200D01*
X123094062Y-75735663D01*
X123047672Y-75595666D01*
X122955570Y-75446344D01*
X122831514Y-75322288D01*
X122734760Y-75262610D01*
X122727936Y-75255023D01*
X122718655Y-75250785D01*
X122704966Y-75229485D01*
X122688037Y-75210663D01*
X122685392Y-75199027D01*
X122680881Y-75192007D01*
X122675858Y-75157072D01*
X122675858Y-74969901D01*
X122695543Y-74902862D01*
X122696756Y-74901010D01*
X122716540Y-74871401D01*
X122744752Y-74829179D01*
X122805095Y-74683497D01*
X122835858Y-74528842D01*
X122835858Y-74371158D01*
X122835858Y-74371155D01*
X122835857Y-74371153D01*
X122805096Y-74216510D01*
X122805095Y-74216503D01*
X122761285Y-74110735D01*
X122744755Y-74070827D01*
X122744748Y-74070814D01*
X122657147Y-73939711D01*
X122657144Y-73939707D01*
X122545650Y-73828213D01*
X122545646Y-73828210D01*
X122414543Y-73740609D01*
X122414530Y-73740602D01*
X122268859Y-73680264D01*
X122268847Y-73680261D01*
X122114203Y-73649500D01*
X122114200Y-73649500D01*
X121956516Y-73649500D01*
X121956513Y-73649500D01*
X121801868Y-73680261D01*
X121801856Y-73680264D01*
X121656185Y-73740602D01*
X121656172Y-73740609D01*
X121525069Y-73828210D01*
X121525065Y-73828213D01*
X121413571Y-73939707D01*
X121413568Y-73939711D01*
X121325967Y-74070814D01*
X121325960Y-74070827D01*
X121265622Y-74216498D01*
X121265619Y-74216510D01*
X121234858Y-74371153D01*
X121234858Y-74528846D01*
X121265619Y-74683489D01*
X121265622Y-74683501D01*
X121325961Y-74829174D01*
X121325962Y-74829175D01*
X121325964Y-74829179D01*
X121353960Y-74871077D01*
X121359610Y-74889123D01*
X121369835Y-74905033D01*
X121374286Y-74935992D01*
X121374838Y-74937754D01*
X121374858Y-74939968D01*
X121374858Y-75157072D01*
X121355173Y-75224111D01*
X121315956Y-75262609D01*
X121256413Y-75299336D01*
X121219200Y-75322289D01*
X121095146Y-75446343D01*
X121095141Y-75446349D01*
X121093099Y-75449661D01*
X121091105Y-75451453D01*
X121090665Y-75452011D01*
X121090569Y-75451935D01*
X121041149Y-75496383D01*
X120972186Y-75507602D01*
X120908105Y-75479755D01*
X120882026Y-75449656D01*
X120880177Y-75446659D01*
X120880174Y-75446655D01*
X120756203Y-75322684D01*
X120606982Y-75230643D01*
X120606977Y-75230641D01*
X120440555Y-75175494D01*
X120440548Y-75175493D01*
X120337844Y-75165000D01*
X120200358Y-75165000D01*
X120200358Y-77485000D01*
X120201539Y-77486181D01*
X120216242Y-77513108D01*
X120232835Y-77538927D01*
X120233726Y-77545127D01*
X120235024Y-77547504D01*
X120237858Y-77573862D01*
X120237858Y-77775876D01*
X120219975Y-77840025D01*
X120192346Y-77885728D01*
X120192345Y-77885730D01*
X120143544Y-78042338D01*
X120143543Y-78042341D01*
X120143543Y-78042343D01*
X120137859Y-78104900D01*
X120137358Y-78110408D01*
X120137358Y-78166000D01*
X120134807Y-78174685D01*
X120136096Y-78183647D01*
X120125117Y-78207687D01*
X120117673Y-78233039D01*
X120110832Y-78238966D01*
X120107071Y-78247203D01*
X120084836Y-78261492D01*
X120064869Y-78278794D01*
X120062858Y-78279231D01*
X120062858Y-78341000D01*
X120043173Y-78408039D01*
X119990369Y-78453794D01*
X119938858Y-78465000D01*
X119294309Y-78465000D01*
X119294307Y-78465001D01*
X119302976Y-78530859D01*
X119302980Y-78530871D01*
X119362174Y-78673780D01*
X119362177Y-78673785D01*
X119393114Y-78714103D01*
X119418308Y-78779272D01*
X119404270Y-78847717D01*
X119393115Y-78865074D01*
X119361740Y-78905963D01*
X119302494Y-79048997D01*
X119302493Y-79049002D01*
X119287358Y-79163952D01*
X94850500Y-79163952D01*
X94850500Y-79143713D01*
X94817246Y-78933757D01*
X94751557Y-78731588D01*
X94655051Y-78542184D01*
X94655049Y-78542181D01*
X94655048Y-78542179D01*
X94530109Y-78370213D01*
X94379786Y-78219890D01*
X94207817Y-78094949D01*
X94198504Y-78090204D01*
X94147707Y-78042230D01*
X94130912Y-77974409D01*
X94153449Y-77908274D01*
X94198507Y-77869232D01*
X94207555Y-77864622D01*
X94261716Y-77825270D01*
X94261717Y-77825270D01*
X93629408Y-77192962D01*
X93692993Y-77175925D01*
X93807007Y-77110099D01*
X93900099Y-77017007D01*
X93965925Y-76902993D01*
X93982962Y-76839409D01*
X94615270Y-77471717D01*
X94615270Y-77471716D01*
X94654622Y-77417554D01*
X94751095Y-77228217D01*
X94816757Y-77026130D01*
X94816757Y-77026127D01*
X94834361Y-76914986D01*
X118862859Y-76914986D01*
X118873352Y-77017697D01*
X118928499Y-77184119D01*
X118928501Y-77184124D01*
X119020542Y-77333345D01*
X119144512Y-77457315D01*
X119293733Y-77549356D01*
X119293738Y-77549358D01*
X119401093Y-77584932D01*
X119458538Y-77624704D01*
X119485361Y-77689220D01*
X119473046Y-77757996D01*
X119460465Y-77778125D01*
X119362175Y-77906218D01*
X119302979Y-78049131D01*
X119294306Y-78114999D01*
X119294307Y-78115000D01*
X119887858Y-78115000D01*
X119887858Y-77745000D01*
X119824358Y-77745000D01*
X119757319Y-77725315D01*
X119711564Y-77672511D01*
X119700358Y-77621000D01*
X119700358Y-76640000D01*
X118862859Y-76640000D01*
X118862859Y-76914986D01*
X94834361Y-76914986D01*
X94850000Y-76816246D01*
X94850000Y-76603755D01*
X94816757Y-76393872D01*
X94816757Y-76393869D01*
X94751095Y-76191782D01*
X94654624Y-76002449D01*
X94615270Y-75948282D01*
X94615269Y-75948282D01*
X93982962Y-76580590D01*
X93965925Y-76517007D01*
X93900099Y-76402993D01*
X93807007Y-76309901D01*
X93692993Y-76244075D01*
X93629409Y-76227037D01*
X93991432Y-75865013D01*
X118862858Y-75865013D01*
X118862858Y-76140000D01*
X119700358Y-76140000D01*
X119700358Y-75165000D01*
X119562885Y-75165000D01*
X119562870Y-75165001D01*
X119460160Y-75175494D01*
X119293738Y-75230641D01*
X119293733Y-75230643D01*
X119144512Y-75322684D01*
X119020542Y-75446654D01*
X118928501Y-75595875D01*
X118928499Y-75595880D01*
X118873352Y-75762302D01*
X118873351Y-75762309D01*
X118862858Y-75865013D01*
X93991432Y-75865013D01*
X94299627Y-75556818D01*
X94360950Y-75523333D01*
X94387307Y-75520499D01*
X94397872Y-75520499D01*
X94457483Y-75514091D01*
X94592331Y-75463796D01*
X94707546Y-75377546D01*
X94793796Y-75262331D01*
X94844091Y-75127483D01*
X94850500Y-75067873D01*
X94850499Y-73272128D01*
X94844091Y-73212517D01*
X94839530Y-73200289D01*
X94793797Y-73077671D01*
X94793793Y-73077664D01*
X94707547Y-72962455D01*
X94707544Y-72962452D01*
X94592335Y-72876206D01*
X94592328Y-72876202D01*
X94457482Y-72825908D01*
X94457483Y-72825908D01*
X94397883Y-72819501D01*
X94397881Y-72819500D01*
X94397873Y-72819500D01*
X94397864Y-72819500D01*
X92602129Y-72819500D01*
X92602123Y-72819501D01*
X92542516Y-72825908D01*
X92407671Y-72876202D01*
X92407664Y-72876206D01*
X92292455Y-72962452D01*
X92292452Y-72962455D01*
X92206206Y-73077664D01*
X92206202Y-73077671D01*
X92155908Y-73212517D01*
X92152784Y-73241578D01*
X92149501Y-73272123D01*
X92149500Y-73272135D01*
X92149500Y-75067870D01*
X92149501Y-75067876D01*
X92155908Y-75127483D01*
X92206202Y-75262328D01*
X92206206Y-75262335D01*
X92292452Y-75377544D01*
X92292455Y-75377547D01*
X92407664Y-75463793D01*
X92407671Y-75463797D01*
X92412618Y-75465642D01*
X92542517Y-75514091D01*
X92602127Y-75520500D01*
X92612685Y-75520499D01*
X92679723Y-75540179D01*
X92700372Y-75556818D01*
X93370591Y-76227037D01*
X93307007Y-76244075D01*
X93192993Y-76309901D01*
X93099901Y-76402993D01*
X93034075Y-76517007D01*
X93017037Y-76580591D01*
X92384728Y-75948282D01*
X92384727Y-75948282D01*
X92345380Y-76002439D01*
X92248904Y-76191782D01*
X92183242Y-76393869D01*
X92183242Y-76393872D01*
X92150000Y-76603753D01*
X92150000Y-76816246D01*
X92183242Y-77026127D01*
X92183242Y-77026130D01*
X92248904Y-77228217D01*
X92345375Y-77417550D01*
X92384728Y-77471716D01*
X93017037Y-76839408D01*
X93034075Y-76902993D01*
X93099901Y-77017007D01*
X93192993Y-77110099D01*
X93307007Y-77175925D01*
X93370590Y-77192962D01*
X92738282Y-77825269D01*
X92738282Y-77825270D01*
X92792452Y-77864626D01*
X92792451Y-77864626D01*
X92801495Y-77869234D01*
X92852292Y-77917208D01*
X92869087Y-77985029D01*
X92846550Y-78051164D01*
X92801499Y-78090202D01*
X92792182Y-78094949D01*
X92620213Y-78219890D01*
X92469890Y-78370213D01*
X92344951Y-78542179D01*
X92248444Y-78731585D01*
X92182753Y-78933760D01*
X92149500Y-79143713D01*
X92149500Y-79356286D01*
X92179981Y-79548740D01*
X92182754Y-79566243D01*
X92240552Y-79744127D01*
X92248444Y-79768414D01*
X92344951Y-79957820D01*
X92469890Y-80129786D01*
X92620213Y-80280109D01*
X92792182Y-80405050D01*
X92800946Y-80409516D01*
X92851742Y-80457491D01*
X92868536Y-80525312D01*
X92845998Y-80591447D01*
X92800946Y-80630484D01*
X92792182Y-80634949D01*
X92620213Y-80759890D01*
X92469890Y-80910213D01*
X92344951Y-81082179D01*
X92248444Y-81271585D01*
X92182753Y-81473760D01*
X92149500Y-81683713D01*
X92149500Y-81896286D01*
X92176125Y-82064394D01*
X92182754Y-82106243D01*
X92233273Y-82261725D01*
X92248444Y-82308414D01*
X92344951Y-82497820D01*
X92469890Y-82669786D01*
X92620213Y-82820109D01*
X92792182Y-82945050D01*
X92800946Y-82949516D01*
X92851742Y-82997491D01*
X92868536Y-83065312D01*
X92845998Y-83131447D01*
X92800946Y-83170484D01*
X92792182Y-83174949D01*
X92620213Y-83299890D01*
X92469890Y-83450213D01*
X92344951Y-83622179D01*
X92248444Y-83811585D01*
X92182753Y-84013760D01*
X92173239Y-84073829D01*
X92149500Y-84223713D01*
X92149500Y-84436287D01*
X92182754Y-84646243D01*
X92216582Y-84750355D01*
X92248444Y-84848414D01*
X92344951Y-85037820D01*
X92469890Y-85209786D01*
X92620213Y-85360109D01*
X92792182Y-85485050D01*
X92800946Y-85489516D01*
X92851742Y-85537491D01*
X92868536Y-85605312D01*
X92845998Y-85671447D01*
X92800946Y-85710484D01*
X92792182Y-85714949D01*
X92620213Y-85839890D01*
X92469890Y-85990213D01*
X92344951Y-86162179D01*
X92248444Y-86351585D01*
X92182753Y-86553760D01*
X92149500Y-86763713D01*
X92149500Y-86976286D01*
X92182753Y-87186239D01*
X92248444Y-87388414D01*
X92344951Y-87577820D01*
X92469890Y-87749786D01*
X92620213Y-87900109D01*
X92792182Y-88025050D01*
X92800946Y-88029516D01*
X92851742Y-88077491D01*
X92868536Y-88145312D01*
X92845998Y-88211447D01*
X92800946Y-88250484D01*
X92792182Y-88254949D01*
X92620213Y-88379890D01*
X92469890Y-88530213D01*
X92344951Y-88702179D01*
X92248444Y-88891585D01*
X92182753Y-89093760D01*
X92149500Y-89303713D01*
X92149500Y-89516286D01*
X92182753Y-89726239D01*
X92248444Y-89928414D01*
X92344951Y-90117820D01*
X92469890Y-90289786D01*
X92620213Y-90440109D01*
X92792182Y-90565050D01*
X92800946Y-90569516D01*
X92851742Y-90617491D01*
X92868536Y-90685312D01*
X92845998Y-90751447D01*
X92800946Y-90790484D01*
X92792182Y-90794949D01*
X92620213Y-90919890D01*
X92469890Y-91070213D01*
X92344951Y-91242179D01*
X92248444Y-91431585D01*
X92182753Y-91633760D01*
X92149500Y-91843713D01*
X92149500Y-92056287D01*
X92159534Y-92119644D01*
X92182753Y-92266239D01*
X92248444Y-92468414D01*
X92344951Y-92657820D01*
X92469890Y-92829786D01*
X92620213Y-92980109D01*
X92792182Y-93105050D01*
X92800946Y-93109516D01*
X92851742Y-93157491D01*
X92868536Y-93225312D01*
X92845998Y-93291447D01*
X92800946Y-93330484D01*
X92792182Y-93334949D01*
X92620213Y-93459890D01*
X92469890Y-93610213D01*
X92344948Y-93782184D01*
X92344947Y-93782185D01*
X92324765Y-93821795D01*
X92276791Y-93872591D01*
X92214281Y-93889500D01*
X91390940Y-93889500D01*
X91350019Y-93900464D01*
X91350019Y-93900465D01*
X91312751Y-93910451D01*
X91238214Y-93930423D01*
X91238209Y-93930426D01*
X91101290Y-94009475D01*
X91101282Y-94009481D01*
X90989478Y-94121286D01*
X90681137Y-94429626D01*
X90619814Y-94463111D01*
X90569263Y-94463562D01*
X90548843Y-94459500D01*
X90548842Y-94459500D01*
X90391158Y-94459500D01*
X90391155Y-94459500D01*
X90236510Y-94490261D01*
X90236498Y-94490264D01*
X90090827Y-94550602D01*
X90090814Y-94550609D01*
X89959711Y-94638210D01*
X89959707Y-94638213D01*
X89848213Y-94749707D01*
X89848210Y-94749711D01*
X89760609Y-94880814D01*
X89760602Y-94880827D01*
X89700264Y-95026498D01*
X89700261Y-95026510D01*
X89669500Y-95181153D01*
X88952470Y-95181153D01*
X88952470Y-64462332D01*
X91709500Y-64462332D01*
X91709500Y-64737667D01*
X91709501Y-64737684D01*
X91745438Y-65010655D01*
X91745439Y-65010660D01*
X91745440Y-65010666D01*
X91745441Y-65010668D01*
X91816704Y-65276630D01*
X91922075Y-65531017D01*
X91922080Y-65531028D01*
X92001809Y-65669121D01*
X92059751Y-65769479D01*
X92059753Y-65769482D01*
X92059754Y-65769483D01*
X92227370Y-65987926D01*
X92227376Y-65987933D01*
X92422066Y-66182623D01*
X92422072Y-66182628D01*
X92640521Y-66350249D01*
X92793778Y-66438732D01*
X92878971Y-66487919D01*
X92878976Y-66487921D01*
X92878979Y-66487923D01*
X93133368Y-66593295D01*
X93399334Y-66664560D01*
X93672326Y-66700500D01*
X93672333Y-66700500D01*
X93947667Y-66700500D01*
X93947674Y-66700500D01*
X94220666Y-66664560D01*
X94486632Y-66593295D01*
X94741021Y-66487923D01*
X94979479Y-66350249D01*
X95197928Y-66182628D01*
X95392628Y-65987928D01*
X95560249Y-65769479D01*
X95697923Y-65531021D01*
X95803295Y-65276632D01*
X95874560Y-65010666D01*
X95910500Y-64737674D01*
X95910500Y-64462332D01*
X193649500Y-64462332D01*
X193649500Y-64737667D01*
X193649501Y-64737684D01*
X193685438Y-65010655D01*
X193685439Y-65010660D01*
X193685440Y-65010666D01*
X193685441Y-65010668D01*
X193756704Y-65276630D01*
X193862075Y-65531017D01*
X193862080Y-65531028D01*
X193941809Y-65669121D01*
X193999751Y-65769479D01*
X193999753Y-65769482D01*
X193999754Y-65769483D01*
X194167370Y-65987926D01*
X194167376Y-65987933D01*
X194362066Y-66182623D01*
X194362072Y-66182628D01*
X194580521Y-66350249D01*
X194733778Y-66438732D01*
X194818971Y-66487919D01*
X194818976Y-66487921D01*
X194818979Y-66487923D01*
X195073368Y-66593295D01*
X195339334Y-66664560D01*
X195612326Y-66700500D01*
X195612333Y-66700500D01*
X195887667Y-66700500D01*
X195887674Y-66700500D01*
X196160666Y-66664560D01*
X196426632Y-66593295D01*
X196681021Y-66487923D01*
X196919479Y-66350249D01*
X197137928Y-66182628D01*
X197332628Y-65987928D01*
X197500249Y-65769479D01*
X197637923Y-65531021D01*
X197743295Y-65276632D01*
X197814560Y-65010666D01*
X197850500Y-64737674D01*
X197850500Y-64462326D01*
X197814560Y-64189334D01*
X197743295Y-63923368D01*
X197637923Y-63668979D01*
X197637921Y-63668976D01*
X197637919Y-63668971D01*
X197588732Y-63583778D01*
X197500249Y-63430521D01*
X197332628Y-63212072D01*
X197332623Y-63212066D01*
X197137933Y-63017376D01*
X197137926Y-63017370D01*
X196919483Y-62849754D01*
X196919482Y-62849753D01*
X196919479Y-62849751D01*
X196824407Y-62794861D01*
X196681028Y-62712080D01*
X196681017Y-62712075D01*
X196426630Y-62606704D01*
X196293649Y-62571072D01*
X196160666Y-62535440D01*
X196160660Y-62535439D01*
X196160655Y-62535438D01*
X195887684Y-62499501D01*
X195887679Y-62499500D01*
X195887674Y-62499500D01*
X195612326Y-62499500D01*
X195612320Y-62499500D01*
X195612315Y-62499501D01*
X195339344Y-62535438D01*
X195339337Y-62535439D01*
X195339334Y-62535440D01*
X195283125Y-62550500D01*
X195073369Y-62606704D01*
X194818982Y-62712075D01*
X194818971Y-62712080D01*
X194580516Y-62849754D01*
X194362073Y-63017370D01*
X194362066Y-63017376D01*
X194167376Y-63212066D01*
X194167370Y-63212073D01*
X193999754Y-63430516D01*
X193862080Y-63668971D01*
X193862075Y-63668982D01*
X193756704Y-63923369D01*
X193685441Y-64189331D01*
X193685438Y-64189344D01*
X193649501Y-64462315D01*
X193649500Y-64462332D01*
X95910500Y-64462332D01*
X95910500Y-64462326D01*
X95874560Y-64189334D01*
X95803295Y-63923368D01*
X95697923Y-63668979D01*
X95697921Y-63668976D01*
X95697919Y-63668971D01*
X95648732Y-63583778D01*
X95560249Y-63430521D01*
X95392628Y-63212072D01*
X95392623Y-63212066D01*
X95197933Y-63017376D01*
X95197926Y-63017370D01*
X94979483Y-62849754D01*
X94979482Y-62849753D01*
X94979479Y-62849751D01*
X94884407Y-62794861D01*
X94741028Y-62712080D01*
X94741017Y-62712075D01*
X94486630Y-62606704D01*
X94353649Y-62571072D01*
X94220666Y-62535440D01*
X94220660Y-62535439D01*
X94220655Y-62535438D01*
X93947684Y-62499501D01*
X93947679Y-62499500D01*
X93947674Y-62499500D01*
X93672326Y-62499500D01*
X93672320Y-62499500D01*
X93672315Y-62499501D01*
X93399344Y-62535438D01*
X93399337Y-62535439D01*
X93399334Y-62535440D01*
X93343125Y-62550500D01*
X93133369Y-62606704D01*
X92878982Y-62712075D01*
X92878971Y-62712080D01*
X92640516Y-62849754D01*
X92422073Y-63017370D01*
X92422066Y-63017376D01*
X92227376Y-63212066D01*
X92227370Y-63212073D01*
X92059754Y-63430516D01*
X91922080Y-63668971D01*
X91922075Y-63668982D01*
X91816704Y-63923369D01*
X91745441Y-64189331D01*
X91745438Y-64189344D01*
X91709501Y-64462315D01*
X91709500Y-64462332D01*
X88952470Y-64462332D01*
X88952470Y-62256471D01*
X88972155Y-62189432D01*
X89024959Y-62143677D01*
X89076470Y-62132471D01*
X199165500Y-62132471D01*
X199232539Y-62152156D01*
G37*
%TD.AperFunction*%
%TD*%
M02*
