M48
; DRILL file {KiCad 9.0.5} date 2025-11-10T21:47:02+0100
; FORMAT={-:-/ absolute / metric / decimal}
; #@! TF.CreationDate,2025-11-10T21:47:02+01:00
; #@! TF.GenerationSoftware,Kicad,Pcbnew,9.0.5
; #@! TF.FileFunction,Plated,1,4,PTH
FMAT,2
METRIC
; #@! TA.AperFunction,Plated,PTH,ViaDrill
T1C0.300
; #@! TA.AperFunction,Plated,PTH,ViaDrill
T2C0.400
; #@! TA.AperFunction,Plated,PTH,ComponentDrill
T3C1.000
%
G90
G05
T1
X90.47Y-95.26
X96.933Y-92.326
X97.35Y-96.77
X97.673Y-102.99
X100.01Y-105.327
X100.15Y-96.98
X102.161Y-103.013
X104.96Y-105.373
X107.25Y-103.106
X118.145Y-74.84
X122.035Y-74.45
X135.471Y-72.009
X135.95Y-72.69
X135.95Y-72.69
X140.709Y-81.205
X142.199Y-76.825
X142.829Y-80.365
X145.829Y-81.355
X146.739Y-78.855
X148.79Y-72.009
X152.37Y-108.94
X159.548Y-77.342
X159.58Y-72.009
X160.61Y-72.69
X161.7Y-76.98
X166.945Y-79.534
X167.33Y-108.45
X168.11Y-108.46
X176.8Y-97.55
X178.93Y-103.45
X178.94Y-102.245
X179.58Y-115.83
X181.64Y-115.73
X181.81Y-120.55
X182.37Y-102.82
X182.37Y-103.62
X184.92Y-102.82
X185.89Y-92.72
X185.94Y-103.39
X189.13Y-104.815
X189.93Y-111.425
X190.18Y-112.955
X190.27Y-103.325
X191.23Y-75.13
X191.25Y-80.57
X192.51Y-94.0
X192.98Y-77.82
X196.18Y-94.01
T2
X89.8Y-63.46
X89.8Y-65.96
X89.8Y-68.46
X89.8Y-70.96
X89.8Y-73.46
X89.8Y-75.96
X89.8Y-78.46
X89.8Y-80.96
X89.8Y-83.46
X89.8Y-85.96
X89.8Y-88.46
X89.8Y-90.96
X89.8Y-93.46
X89.8Y-103.46
X89.8Y-105.96
X89.8Y-108.46
X89.8Y-110.96
X89.8Y-113.46
X89.8Y-115.96
X89.8Y-118.46
X89.8Y-120.96
X92.3Y-68.46
X92.3Y-70.96
X92.3Y-110.96
X92.3Y-113.46
X92.3Y-115.96
X94.8Y-68.46
X94.8Y-70.96
X94.8Y-110.96
X94.8Y-113.46
X94.8Y-115.96
X97.3Y-63.46
X97.3Y-65.96
X97.3Y-68.46
X97.3Y-70.96
X97.3Y-73.46
X97.3Y-75.96
X97.3Y-78.46
X97.3Y-80.96
X97.3Y-108.46
X97.3Y-110.96
X97.3Y-113.46
X97.3Y-115.96
X97.3Y-118.46
X97.3Y-120.96
X99.8Y-63.46
X99.8Y-65.96
X99.8Y-68.46
X99.8Y-70.96
X99.8Y-73.46
X99.8Y-75.96
X99.8Y-78.46
X99.8Y-80.96
X99.8Y-83.46
X99.8Y-85.96
X99.8Y-108.46
X99.8Y-110.96
X99.8Y-113.46
X99.8Y-115.96
X99.8Y-118.46
X99.8Y-120.96
X102.3Y-63.46
X102.3Y-65.96
X102.3Y-68.46
X102.3Y-70.96
X102.3Y-73.46
X102.3Y-75.96
X102.3Y-78.46
X102.3Y-80.96
X102.3Y-83.46
X102.3Y-85.96
X102.3Y-88.46
X102.3Y-108.46
X102.3Y-110.96
X102.3Y-113.46
X102.3Y-115.96
X102.3Y-118.46
X102.3Y-120.96
X104.8Y-63.46
X104.8Y-65.96
X104.8Y-68.46
X104.8Y-70.96
X104.8Y-73.46
X104.8Y-75.96
X104.8Y-78.46
X104.8Y-80.96
X104.8Y-83.46
X104.8Y-85.96
X104.8Y-88.46
X104.8Y-90.96
X104.8Y-108.46
X104.8Y-110.96
X104.8Y-113.46
X104.8Y-115.96
X104.8Y-118.46
X104.8Y-120.96
X107.3Y-63.46
X107.3Y-65.96
X107.3Y-68.46
X107.3Y-70.96
X107.3Y-73.46
X107.3Y-75.96
X107.3Y-78.46
X107.3Y-80.96
X107.3Y-83.46
X107.3Y-85.96
X107.3Y-88.46
X107.3Y-90.96
X107.3Y-93.46
X107.3Y-108.46
X107.3Y-110.96
X107.3Y-113.46
X107.3Y-115.96
X107.3Y-118.46
X107.3Y-120.96
X109.8Y-63.46
X109.8Y-65.96
X109.8Y-68.46
X109.8Y-70.96
X109.8Y-73.46
X109.8Y-75.96
X109.8Y-78.46
X109.8Y-80.96
X109.8Y-83.46
X109.8Y-85.96
X109.8Y-88.46
X109.8Y-90.96
X109.8Y-93.46
X109.8Y-95.96
X109.8Y-108.46
X109.8Y-110.96
X109.8Y-113.46
X109.8Y-115.96
X109.8Y-118.46
X109.8Y-120.96
X112.3Y-63.46
X112.3Y-65.96
X112.3Y-68.46
X112.3Y-70.96
X112.3Y-73.46
X112.3Y-75.96
X112.3Y-78.46
X112.3Y-80.96
X112.3Y-83.46
X112.3Y-85.96
X112.3Y-88.46
X112.3Y-90.96
X112.3Y-93.46
X112.3Y-95.96
X112.3Y-98.46
X112.3Y-108.46
X112.3Y-110.96
X112.3Y-113.46
X112.3Y-115.96
X112.3Y-118.46
X112.3Y-120.96
X114.8Y-63.46
X114.8Y-65.96
X114.8Y-68.46
X114.8Y-70.96
X114.8Y-73.46
X114.8Y-75.96
X114.8Y-78.46
X114.8Y-80.96
X114.8Y-83.46
X114.8Y-85.96
X114.8Y-88.46
X114.8Y-90.96
X114.8Y-93.46
X114.8Y-95.96
X114.8Y-98.46
X114.8Y-100.96
X114.8Y-110.96
X114.8Y-113.46
X114.8Y-115.96
X114.8Y-118.46
X114.8Y-120.96
X117.3Y-63.46
X117.3Y-65.96
X117.3Y-68.46
X117.3Y-70.96
X117.3Y-73.46
X117.3Y-75.96
X117.3Y-78.46
X117.3Y-80.96
X117.3Y-83.46
X117.3Y-85.96
X117.3Y-88.46
X117.3Y-90.96
X117.3Y-93.46
X117.3Y-95.96
X117.3Y-98.46
X117.3Y-100.96
X117.3Y-103.46
X117.3Y-113.46
X117.3Y-115.96
X117.3Y-118.46
X117.3Y-120.96
X119.8Y-63.46
X119.8Y-65.96
X119.8Y-68.46
X119.8Y-70.96
X119.8Y-73.46
X119.8Y-80.96
X119.8Y-83.46
X119.8Y-85.96
X119.8Y-88.46
X119.8Y-90.96
X119.8Y-93.46
X119.8Y-95.96
X119.8Y-98.46
X119.8Y-100.96
X119.8Y-103.46
X119.8Y-105.96
X119.8Y-115.96
X119.8Y-118.46
X119.8Y-120.96
X122.3Y-63.46
X122.3Y-65.96
X122.3Y-68.46
X122.3Y-70.96
X122.3Y-80.96
X122.3Y-83.46
X122.3Y-85.96
X122.3Y-88.46
X122.3Y-90.96
X122.3Y-93.46
X122.3Y-95.96
X122.3Y-98.46
X122.3Y-100.96
X122.3Y-103.46
X122.3Y-105.96
X122.3Y-108.46
X122.3Y-115.96
X122.3Y-118.46
X122.3Y-120.96
X124.8Y-63.46
X124.8Y-65.96
X124.8Y-68.46
X124.8Y-70.96
X124.8Y-73.46
X124.8Y-75.96
X124.8Y-78.46
X124.8Y-80.96
X124.8Y-83.46
X124.8Y-85.96
X124.8Y-88.46
X124.8Y-90.96
X124.8Y-93.46
X124.8Y-95.96
X124.8Y-98.46
X124.8Y-100.96
X124.8Y-103.46
X124.8Y-105.96
X124.8Y-108.46
X124.8Y-110.96
X124.8Y-115.96
X124.8Y-118.46
X124.8Y-120.96
X127.3Y-63.46
X127.3Y-65.96
X127.3Y-68.46
X127.3Y-70.96
X127.3Y-73.46
X127.3Y-75.96
X127.3Y-78.46
X127.3Y-80.96
X127.3Y-83.46
X127.3Y-85.96
X127.3Y-88.46
X127.3Y-90.96
X127.3Y-93.46
X127.3Y-95.96
X127.3Y-98.46
X127.3Y-100.96
X127.3Y-103.46
X127.3Y-105.96
X127.3Y-108.46
X127.3Y-110.96
X127.3Y-115.96
X127.3Y-118.46
X127.3Y-120.96
X129.8Y-63.46
X129.8Y-65.96
X129.8Y-68.46
X129.8Y-70.96
X129.8Y-73.46
X129.8Y-75.96
X129.8Y-80.96
X129.8Y-83.46
X129.8Y-85.96
X129.8Y-88.46
X129.8Y-90.96
X129.8Y-93.46
X129.8Y-95.96
X129.8Y-98.46
X129.8Y-100.96
X129.8Y-103.46
X129.8Y-105.96
X129.8Y-108.46
X129.8Y-110.96
X129.8Y-115.96
X129.8Y-118.46
X129.8Y-120.96
X132.3Y-63.46
X132.3Y-65.96
X132.3Y-68.46
X132.3Y-70.96
X132.3Y-73.46
X132.3Y-78.46
X132.3Y-80.96
X132.3Y-83.46
X132.3Y-85.96
X132.3Y-88.46
X132.3Y-90.96
X132.3Y-93.46
X132.3Y-95.96
X132.3Y-98.46
X132.3Y-100.96
X132.3Y-103.46
X132.3Y-105.96
X132.3Y-108.46
X132.3Y-110.96
X132.3Y-115.96
X132.3Y-118.46
X132.3Y-120.96
X134.8Y-63.46
X134.8Y-65.96
X134.8Y-68.46
X134.8Y-70.96
X134.8Y-75.96
X134.8Y-78.46
X134.8Y-80.96
X134.8Y-83.46
X134.8Y-85.96
X134.8Y-88.46
X134.8Y-90.96
X134.8Y-93.46
X134.8Y-95.96
X134.8Y-98.46
X134.8Y-100.96
X134.8Y-103.46
X134.8Y-105.96
X134.8Y-108.46
X134.8Y-110.96
X134.8Y-115.96
X134.8Y-118.46
X134.8Y-120.96
X137.3Y-63.46
X137.3Y-65.96
X137.3Y-68.46
X137.3Y-70.96
X137.3Y-75.96
X137.3Y-78.46
X137.3Y-83.46
X137.3Y-85.96
X137.3Y-88.46
X137.3Y-90.96
X137.3Y-93.46
X137.3Y-95.96
X137.3Y-98.46
X137.3Y-100.96
X137.3Y-103.46
X137.3Y-105.96
X137.3Y-108.46
X137.3Y-110.96
X137.3Y-115.96
X137.3Y-118.46
X137.3Y-120.96
X139.8Y-63.46
X139.8Y-65.96
X139.8Y-68.46
X139.8Y-70.96
X139.8Y-75.96
X139.8Y-83.46
X139.8Y-85.96
X139.8Y-88.46
X139.8Y-90.96
X139.8Y-93.46
X139.8Y-95.96
X139.8Y-98.46
X139.8Y-100.96
X139.8Y-103.46
X139.8Y-105.96
X139.8Y-108.46
X139.8Y-110.96
X139.8Y-115.96
X139.8Y-118.46
X139.8Y-120.96
X142.3Y-63.46
X142.3Y-65.96
X142.3Y-68.46
X142.3Y-70.96
X142.3Y-83.46
X142.3Y-85.96
X142.3Y-88.46
X142.3Y-90.96
X142.3Y-93.46
X142.3Y-95.96
X142.3Y-98.46
X142.3Y-100.96
X142.3Y-103.46
X142.3Y-105.96
X142.3Y-108.46
X142.3Y-110.96
X142.3Y-115.96
X142.3Y-118.46
X142.3Y-120.96
X144.8Y-63.46
X144.8Y-65.96
X144.8Y-68.46
X144.8Y-70.96
X144.8Y-83.46
X144.8Y-85.96
X144.8Y-88.46
X144.8Y-108.46
X144.8Y-110.96
X144.8Y-115.96
X144.8Y-118.46
X144.8Y-120.96
X147.3Y-63.46
X147.3Y-65.96
X147.3Y-68.46
X147.3Y-70.96
X147.3Y-75.96
X147.3Y-80.96
X147.3Y-83.46
X147.3Y-85.96
X147.3Y-88.46
X147.3Y-108.46
X147.3Y-110.96
X147.3Y-115.96
X147.3Y-118.46
X147.3Y-120.96
X149.8Y-63.46
X149.8Y-65.96
X149.8Y-68.46
X149.8Y-70.96
X149.8Y-75.96
X149.8Y-78.46
X149.8Y-80.96
X149.8Y-83.46
X149.8Y-85.96
X149.8Y-88.46
X149.8Y-108.46
X149.8Y-110.96
X149.8Y-115.96
X149.8Y-118.46
X149.8Y-120.96
X152.3Y-63.46
X152.3Y-65.96
X152.3Y-68.46
X152.3Y-70.96
X152.3Y-75.96
X152.3Y-78.46
X152.3Y-80.96
X152.3Y-83.46
X152.3Y-85.96
X152.3Y-93.46
X152.3Y-95.96
X152.3Y-98.46
X152.3Y-100.96
X152.3Y-103.46
X152.3Y-115.96
X152.3Y-118.46
X152.3Y-120.96
X154.8Y-63.46
X154.8Y-65.96
X154.8Y-68.46
X154.8Y-70.96
X154.8Y-75.96
X154.8Y-78.46
X154.8Y-80.96
X154.8Y-83.46
X154.8Y-85.96
X154.8Y-93.46
X154.8Y-95.96
X154.8Y-98.46
X154.8Y-100.96
X154.8Y-103.46
X154.8Y-115.96
X154.8Y-118.46
X154.8Y-120.96
X157.3Y-63.46
X157.3Y-65.96
X157.3Y-68.46
X157.3Y-70.96
X157.3Y-80.96
X157.3Y-83.46
X157.3Y-85.96
X157.3Y-93.46
X157.3Y-95.96
X157.3Y-103.46
X157.3Y-115.96
X157.3Y-118.46
X157.3Y-120.96
X159.8Y-63.46
X159.8Y-65.96
X159.8Y-68.46
X159.8Y-70.96
X159.8Y-78.46
X159.8Y-80.96
X159.8Y-83.46
X159.8Y-85.96
X159.8Y-93.46
X159.8Y-95.96
X159.8Y-103.46
X159.8Y-115.96
X159.8Y-118.46
X159.8Y-120.96
X162.3Y-63.46
X162.3Y-65.96
X162.3Y-68.46
X162.3Y-70.96
X162.3Y-80.96
X162.3Y-83.46
X162.3Y-85.96
X162.3Y-93.46
X162.3Y-95.96
X162.3Y-98.46
X162.3Y-100.96
X162.3Y-103.46
X162.3Y-113.46
X162.3Y-115.96
X162.3Y-118.46
X162.3Y-120.96
X164.8Y-63.46
X164.8Y-65.96
X164.8Y-68.46
X164.8Y-70.96
X164.8Y-83.46
X164.8Y-85.96
X164.8Y-93.46
X164.8Y-95.96
X164.8Y-98.46
X164.8Y-100.96
X164.8Y-103.46
X164.8Y-110.96
X164.8Y-113.46
X164.8Y-115.96
X164.8Y-118.46
X164.8Y-120.96
X167.3Y-63.46
X167.3Y-65.96
X167.3Y-68.46
X167.3Y-70.96
X167.3Y-83.46
X167.3Y-85.96
X167.3Y-93.46
X167.3Y-95.96
X167.3Y-98.46
X167.3Y-100.96
X167.3Y-103.46
X167.3Y-110.96
X167.3Y-113.46
X167.3Y-115.96
X167.3Y-118.46
X167.3Y-120.96
X169.8Y-63.46
X169.8Y-65.96
X169.8Y-68.46
X169.8Y-70.96
X169.8Y-80.96
X169.8Y-83.46
X169.8Y-85.96
X169.8Y-88.46
X169.8Y-110.96
X169.8Y-113.46
X169.8Y-115.96
X169.8Y-118.46
X169.8Y-120.96
X172.3Y-63.46
X172.3Y-65.96
X172.3Y-68.46
X172.3Y-70.96
X172.3Y-85.96
X172.3Y-88.46
X172.3Y-90.96
X172.3Y-93.46
X172.3Y-95.96
X172.3Y-98.46
X172.3Y-100.96
X172.3Y-110.96
X172.3Y-113.46
X172.3Y-115.96
X172.3Y-118.46
X172.3Y-120.96
X174.8Y-63.46
X174.8Y-65.96
X174.8Y-68.46
X174.8Y-70.96
X174.8Y-85.96
X174.8Y-88.46
X174.8Y-90.96
X174.8Y-93.46
X174.8Y-95.96
X174.8Y-98.46
X174.8Y-100.96
X174.8Y-110.96
X174.8Y-113.46
X174.8Y-115.96
X174.8Y-118.46
X174.8Y-120.96
X177.3Y-63.46
X177.3Y-65.96
X177.3Y-68.46
X177.3Y-70.96
X177.3Y-75.96
X177.3Y-78.46
X177.3Y-80.96
X177.3Y-83.46
X177.3Y-85.96
X177.3Y-88.46
X177.3Y-90.96
X177.3Y-93.46
X177.3Y-95.96
X177.3Y-110.96
X177.3Y-113.46
X177.3Y-115.96
X177.3Y-118.46
X177.3Y-120.96
X179.8Y-63.46
X179.8Y-65.96
X179.8Y-68.46
X179.8Y-70.96
X179.8Y-75.96
X179.8Y-78.46
X179.8Y-80.96
X179.8Y-83.46
X179.8Y-85.96
X179.8Y-88.46
X179.8Y-90.96
X179.8Y-93.46
X179.8Y-95.96
X179.8Y-110.96
X179.8Y-113.46
X179.8Y-120.96
X182.3Y-63.46
X182.3Y-65.96
X182.3Y-68.46
X182.3Y-70.96
X182.3Y-83.46
X182.3Y-100.96
X182.3Y-105.96
X182.3Y-110.96
X182.3Y-113.46
X184.8Y-63.46
X184.8Y-65.96
X184.8Y-68.46
X184.8Y-70.96
X184.8Y-85.96
X184.8Y-88.46
X184.8Y-90.96
X184.8Y-100.96
X184.8Y-105.96
X184.8Y-110.96
X184.8Y-113.46
X184.8Y-115.96
X184.8Y-118.46
X184.8Y-120.96
X187.3Y-63.46
X187.3Y-65.96
X187.3Y-68.46
X187.3Y-70.96
X187.3Y-75.96
X187.3Y-80.96
X187.3Y-83.46
X187.3Y-85.96
X187.3Y-88.46
X187.3Y-90.96
X187.3Y-113.46
X187.3Y-115.96
X187.3Y-118.46
X187.3Y-120.96
X189.8Y-63.46
X189.8Y-65.96
X189.8Y-68.46
X189.8Y-70.96
X189.8Y-80.96
X189.8Y-83.46
X189.8Y-85.96
X189.8Y-88.46
X189.8Y-90.96
X189.8Y-115.96
X189.8Y-118.46
X189.8Y-120.96
X192.3Y-63.46
X192.3Y-65.96
X192.3Y-68.46
X192.3Y-70.96
X192.3Y-80.96
X192.3Y-83.46
X192.3Y-85.96
X192.3Y-88.46
X192.3Y-90.96
X192.3Y-115.96
X192.3Y-118.46
X192.3Y-120.96
X194.8Y-68.46
X194.8Y-70.96
X194.8Y-103.46
X194.8Y-105.96
X194.8Y-108.46
X194.8Y-110.96
X194.8Y-113.46
X194.8Y-115.96
X197.3Y-68.46
X197.3Y-70.96
X197.3Y-73.46
X197.3Y-75.96
X197.3Y-78.46
X197.3Y-80.96
X197.3Y-83.46
X197.3Y-85.96
X197.3Y-88.46
X197.3Y-90.96
X197.3Y-93.46
X197.3Y-95.96
X197.3Y-98.46
X197.3Y-105.96
X197.3Y-108.46
X197.3Y-110.96
X197.3Y-115.96
T3
X93.5Y-74.17
X93.5Y-76.71
X93.5Y-79.25
X93.5Y-81.79
X93.5Y-84.33
X93.5Y-86.87
X93.5Y-89.41
X93.5Y-91.95
X93.5Y-94.49
X93.5Y-97.03
X93.5Y-99.57
X93.5Y-102.11
X93.5Y-104.65
X93.5Y-107.19
M30
